<svg xmlns="http://www.w3.org/2000/svg" viewBox="0 0 225 271.22927">
  <defs>
    <style>
      .cls-1, .cls-3, .cls-5 {
        fill: #1d4588;
      }

      .cls-2 {
        fill: #5d98d1;
      }

      .cls-3 {
        stroke: #d1e1f2;
        stroke-width: 1.24002px;
      }

      .cls-3, .cls-5 {
        stroke-miterlimit: 10;
      }

      .cls-4 {
        fill: #4b78ba;
      }

      .cls-5 {
        stroke: #1d4588;
        stroke-width: 0.7586px;
      }
    </style>
  </defs>
  <g id="For_PPT" data-name="For PPT">
    <g>
      <g>
        <path class="cls-1" d="M19.26721,226.18565l-.89062-2.88916c-.03613-.07178-.08105-.10791-.13574-.10791H11.11292c-.05371,0-.09863.03613-.13477.10791l-.89062,2.88916a.34006.34006,0,0,1-.35157.27H7.03675a.3005.3005,0,0,1-.24317-.09473.29266.29266,0,0,1-.02734-.2832l5.85937-18.25195a.33879.33879,0,0,1,.35059-.27h3.375a.3405.3405,0,0,1,.35156.27l5.88574,18.25195a.30684.30684,0,0,1,.02637.13476c0,.16211-.09863.24317-.29687.24317H19.61878A.33869.33869,0,0,1,19.26721,226.18565Zm-7.34375-5.4541h5.48047c.1084,0,.14453-.05371.1084-.16211l-2.78125-9.04492c-.01758-.07178-.04492-.10791-.08105-.10791s-.0625.03613-.08106.10791l-2.7539,9.04492C11.79749,220.67784,11.83264,220.73155,11.92346,220.73155Z"/>
        <path class="cls-1" d="M26.82776,225.60508a5.5369,5.5369,0,0,1-2.10644-2.87549,12.1725,12.1725,0,0,1,0-6.42578,5.25005,5.25005,0,0,1,2.09277-2.82177,6.24926,6.24926,0,0,1,3.60449-1.03955,6.42167,6.42167,0,0,1,3.67188,1.05322,4.80309,4.80309,0,0,1,2.26855,3.50976v.0542a.31047.31047,0,0,1-.29687.32422l-2.43067.35059h-.05371a.32453.32453,0,0,1-.32422-.27.71873.71873,0,0,0-.02636-.21582c-.03711-.144-.07227-.27-.1084-.37793a2.33637,2.33637,0,0,0-.97168-1.24219,3.04666,3.04666,0,0,0-1.72852-.48584,2.85351,2.85351,0,0,0-1.74121.52637,2.53838,2.53838,0,0,0-.959,1.44482,8.416,8.416,0,0,0-.26953,2.40283,9.66752,9.66752,0,0,0,.24316,2.40284,2.83832,2.83832,0,0,0,.97168,1.49853,2.74514,2.74514,0,0,0,1.75488.55371,2.97879,2.97879,0,0,0,1.76856-.52685,2.367,2.367,0,0,0,.959-1.41748.304.304,0,0,0,.02637-.13477.11112.11112,0,0,0,.02734-.08105q.08057-.32373.37793-.27l2.42969.37793a.438.438,0,0,1,.22949.12158.27447.27447,0,0,1,.06738.25635q-.08056.43285-.13476.62109a4.81193,4.81193,0,0,1-2.0791,2.74072,6.6127,6.6127,0,0,1-3.67188,1.01221A6.06575,6.06575,0,0,1,26.82776,225.60508Z"/>
        <path class="cls-1" d="M41.02991,225.60508a5.537,5.537,0,0,1-2.10645-2.87549,12.1725,12.1725,0,0,1,0-6.42578,5.25012,5.25012,0,0,1,2.09278-2.82177,6.24926,6.24926,0,0,1,3.60449-1.03955,6.42167,6.42167,0,0,1,3.67188,1.05322,4.80309,4.80309,0,0,1,2.26855,3.50976v.0542a.31047.31047,0,0,1-.29687.32422l-2.43067.35059h-.05371a.32453.32453,0,0,1-.32422-.27.71837.71837,0,0,0-.02637-.21582c-.03711-.144-.07226-.27-.10839-.37793a2.33637,2.33637,0,0,0-.97168-1.24219,3.04666,3.04666,0,0,0-1.72852-.48584,2.85351,2.85351,0,0,0-1.74121.52637,2.53833,2.53833,0,0,0-.959,1.44482,8.41591,8.41591,0,0,0-.26954,2.40283,9.66746,9.66746,0,0,0,.24317,2.40284,2.83827,2.83827,0,0,0,.97168,1.49853,2.74514,2.74514,0,0,0,1.75488.55371,2.97881,2.97881,0,0,0,1.76856-.52685,2.367,2.367,0,0,0,.959-1.41748.304.304,0,0,0,.02637-.13477.11116.11116,0,0,0,.02734-.08105q.08056-.32373.37793-.27l2.42969.37793a.438.438,0,0,1,.22949.12158.27447.27447,0,0,1,.06738.25635q-.08056.43285-.13476.62109a4.81193,4.81193,0,0,1-2.0791,2.74072,6.6127,6.6127,0,0,1-3.67188,1.01221A6.06575,6.06575,0,0,1,41.02991,225.60508Z"/>
        <path class="cls-1" d="M64.817,219.5167l-.02734.83692a.28615.28615,0,0,1-.32325.32422H56.01526a.11872.11872,0,0,0-.13476.13476,3.87213,3.87213,0,0,0,.24218,1.21485q.64893,1.94457,3.15918,1.97119a3.40241,3.40241,0,0,0,2.916-1.51221.31771.31771,0,0,1,.27051-.16162.25784.25784,0,0,1,.18847.081l1.67383,1.377a.287.287,0,0,1,.08106.43164,5.51207,5.51207,0,0,1-2.22754,1.83642,7.23217,7.23217,0,0,1-3.09082.64795,6.48256,6.48256,0,0,1-3.57813-.94531,5.43447,5.43447,0,0,1-2.14648-2.646,10.61322,10.61322,0,0,1-.6211-4.0498,8.21428,8.21428,0,0,1,.32422-2.53809,5.41853,5.41853,0,0,1,2.03906-2.98339,5.94727,5.94727,0,0,1,3.6045-1.09375q5.31885,0,5.99316,5.562A9.59581,9.59581,0,0,1,64.817,219.5167Zm-7.7627-3.87451a2.64153,2.64153,0,0,0-.93164,1.39063,4.71863,4.71863,0,0,0-.21582,1.188c-.03613.09033,0,.13476.1084.13476h5.48047a.11961.11961,0,0,0,.13574-.13476,5.23676,5.23676,0,0,0-.16211-1.02637,2.62244,2.62244,0,0,0-.959-1.51172,2.89493,2.89493,0,0,0-1.79492-.54A2.6781,2.6781,0,0,0,57.05432,215.64219Z"/>
        <path class="cls-1" d="M69.609,226.11827a4.61643,4.61643,0,0,1-1.98437-1.377,3.05723,3.05723,0,0,1-.70215-1.95752v-.24316a.32259.32259,0,0,1,.32422-.32373h2.376a.32259.32259,0,0,1,.32422.32373v.0542a1.41792,1.41792,0,0,0,.74219,1.17432,3.29016,3.29016,0,0,0,1.877.49951,3.13453,3.13453,0,0,0,1.75489-.44532,1.3135,1.3135,0,0,0,.6748-1.1206,1.00464,1.00464,0,0,0-.55371-.93164,8.97326,8.97326,0,0,0-1.79492-.66162l-1.02637-.32373a15.11628,15.11628,0,0,1-2.32227-.86426,4.62776,4.62776,0,0,1-1.59277-1.25537,3.12775,3.12775,0,0,1-.64844-2.03858,3.57791,3.57791,0,0,1,1.48536-3.01025,6.33538,6.33538,0,0,1,3.915-1.12061,7.35431,7.35431,0,0,1,2.88868.52637,4.43335,4.43335,0,0,1,1.917,1.458,3.52113,3.52113,0,0,1,.67578,2.11963.32343.32343,0,0,1-.32422.32422H75.32a.32343.32343,0,0,1-.32422-.32422,1.39042,1.39042,0,0,0-.68848-1.17432,3.27358,3.27358,0,0,0-1.87695-.47265,3.33536,3.33536,0,0,0-1.71387.3916,1.21376,1.21376,0,0,0-.66211,1.09326,1.06555,1.06555,0,0,0,.63477.98535,11.19948,11.19948,0,0,0,2.11914.74268l.59473.16211a19.16086,19.16086,0,0,1,2.40234.87744,4.693,4.693,0,0,1,1.64746,1.24218,3.08773,3.08773,0,0,1,.67481,2.06543,3.512,3.512,0,0,1-1.51172,3.01026,6.72392,6.72392,0,0,1-4.02344,1.09375A8.18959,8.18959,0,0,1,69.609,226.11827Z"/>
        <path class="cls-1" d="M82.65,226.11827a4.61652,4.61652,0,0,1-1.98438-1.377,3.05729,3.05729,0,0,1-.70215-1.95752v-.24316a.3226.3226,0,0,1,.32422-.32373h2.376a.3226.3226,0,0,1,.32422.32373v.0542a1.41792,1.41792,0,0,0,.74219,1.17432,3.29014,3.29014,0,0,0,1.877.49951,3.13447,3.13447,0,0,0,1.75488-.44532,1.31349,1.31349,0,0,0,.67481-1.1206,1.00464,1.00464,0,0,0-.55371-.93164,8.97365,8.97365,0,0,0-1.79493-.66162l-1.02636-.32373a15.11588,15.11588,0,0,1-2.32227-.86426,4.62776,4.62776,0,0,1-1.59277-1.25537,3.12775,3.12775,0,0,1-.64844-2.03858,3.57793,3.57793,0,0,1,1.48535-3.01025,6.33541,6.33541,0,0,1,3.915-1.12061,7.35422,7.35422,0,0,1,2.88867.52637,4.43324,4.43324,0,0,1,1.917,1.458,3.52107,3.52107,0,0,1,.67579,2.11963.32343.32343,0,0,1-.32422.32422H88.361a.32341.32341,0,0,1-.32421-.32422,1.39044,1.39044,0,0,0-.68848-1.17432,3.27358,3.27358,0,0,0-1.87695-.47265,3.33533,3.33533,0,0,0-1.71387.3916,1.21374,1.21374,0,0,0-.66211,1.09326,1.06553,1.06553,0,0,0,.63477.98535,11.19948,11.19948,0,0,0,2.11914.74268l.59472.16211a19.16048,19.16048,0,0,1,2.40235.87744,4.69316,4.69316,0,0,1,1.64746,1.24218,3.08773,3.08773,0,0,1,.6748,2.06543,3.512,3.512,0,0,1-1.51172,3.01026,6.72391,6.72391,0,0,1-4.02343,1.09375A8.18959,8.18959,0,0,1,82.65,226.11827Z"/>
        <path class="cls-1" d="M106.43714,215.10215a.31182.31182,0,0,1-.2295.09473h-2.7539a.11873.11873,0,0,0-.13477.13477v6.50683a2.07889,2.07889,0,0,0,.44532,1.48535,1.90215,1.90215,0,0,0,1.417.459h.81054a.32259.32259,0,0,1,.32422.32373v2.0249a.33291.33291,0,0,1-.32422.35107l-1.40429.02735a5.63259,5.63259,0,0,1-3.18555-.729,3.18768,3.18768,0,0,1-1.08008-2.75439v-7.69482a.11912.11912,0,0,0-.13476-.13477H98.64807a.32341.32341,0,0,1-.32421-.32422v-1.89014a.32258.32258,0,0,1,.32421-.32373h1.53907a.11926.11926,0,0,0,.13476-.13525v-3.15869a.32343.32343,0,0,1,.32422-.32422h2.34863a.32341.32341,0,0,1,.32422.32422v3.15869a.11888.11888,0,0,0,.13477.13525h2.7539a.32259.32259,0,0,1,.32422.32373v1.89014A.314.314,0,0,1,106.43714,215.10215Z"/>
        <path class="cls-1" d="M111.24182,225.5919a5.708,5.708,0,0,1-2.14648-2.99707,10.20261,10.20261,0,0,1-.459-3.07813,10.09077,10.09077,0,0,1,.43261-3.07812,5.54677,5.54677,0,0,1,2.16016-2.94287,6.38741,6.38741,0,0,1,3.69824-1.05322,6.01658,6.01658,0,0,1,3.55078,1.05322,5.63116,5.63116,0,0,1,2.12012,2.916,8.786,8.786,0,0,1,.48535,3.07813,9.7058,9.7058,0,0,1-.459,3.07764,5.80586,5.80586,0,0,1-2.13282,3.01074,5.96471,5.96471,0,0,1-3.59082,1.09326A6.17245,6.17245,0,0,1,111.24182,225.5919Zm5.373-2.187a3.1908,3.1908,0,0,0,1.04-1.59326,7.988,7.988,0,0,0,.26953-2.26807,7.49018,7.49018,0,0,0-.26953-2.26807,2.93589,2.93589,0,0,0-1.02637-1.5791,2.85928,2.85928,0,0,0-1.78222-.55371,2.7742,2.7742,0,0,0-1.72754.55371,3.07459,3.07459,0,0,0-1.05274,1.5791,9.64383,9.64383,0,0,0,0,4.53614,2.97036,2.97036,0,0,0,1.03907,1.59326,2.873,2.873,0,0,0,1.79589.56689A2.6755,2.6755,0,0,0,116.61487,223.40489Z"/>
        <path class="cls-1" d="M132.50452,225.8751a5.73727,5.73727,0,0,1-2.376-2.22754,6.45789,6.45789,0,0,1-.83691-3.3208v-6.66894a6.46348,6.46348,0,0,1,.83691-3.32129,5.66035,5.66035,0,0,1,2.376-2.21387,7.76084,7.76084,0,0,1,3.56445-.7832,7.92609,7.92609,0,0,1,3.53711.75635,5.596,5.596,0,0,1,2.376,2.13281,6.01583,6.01583,0,0,1,.83691,3.186.3234.3234,0,0,1-.32422.32422l-2.48339.13477c-.2168,0-.32422-.09864-.32422-.29688a3.44414,3.44414,0,0,0-.98535-2.56494,3.58745,3.58745,0,0,0-2.63282-.97217,3.63282,3.63282,0,0,0-2.64648.97217,3.41623,3.41623,0,0,0-.999,2.56494v6.88477a3.38191,3.38191,0,0,0,.999,2.53808,4.09172,4.09172,0,0,0,5.2793.01368,3.39863,3.39863,0,0,0,.98535-2.55176c0-.19776.10742-.29688.32422-.29688l2.48339.10791a.34329.34329,0,0,1,.2295.08106.24218.24218,0,0,1,.09472.189,6.13559,6.13559,0,0,1-.83691,3.22657,5.56671,5.56671,0,0,1-2.376,2.14648,7.91951,7.91951,0,0,1-3.53711.75586A7.648,7.648,0,0,1,132.50452,225.8751Z"/>
        <path class="cls-1" d="M148.04358,225.5919a5.708,5.708,0,0,1-2.14648-2.99707,10.2023,10.2023,0,0,1-.459-3.07813,10.09045,10.09045,0,0,1,.43262-3.07812,5.54672,5.54672,0,0,1,2.16016-2.94287,6.38741,6.38741,0,0,1,3.69824-1.05322,6.0166,6.0166,0,0,1,3.55078,1.05322,5.63122,5.63122,0,0,1,2.12012,2.916,8.786,8.786,0,0,1,.48535,3.07813,9.70551,9.70551,0,0,1-.459,3.07764,5.80584,5.80584,0,0,1-2.13281,3.01074,5.96475,5.96475,0,0,1-3.59082,1.09326A6.17245,6.17245,0,0,1,148.04358,225.5919Zm5.37305-2.187a3.1908,3.1908,0,0,0,1.04-1.59326,7.988,7.988,0,0,0,.26953-2.26807,7.49018,7.49018,0,0,0-.26953-2.26807,2.93589,2.93589,0,0,0-1.02637-1.5791,2.85929,2.85929,0,0,0-1.78223-.55371,2.77417,2.77417,0,0,0-1.72753.55371,3.07459,3.07459,0,0,0-1.05274,1.5791,9.64348,9.64348,0,0,0,0,4.53614,2.97041,2.97041,0,0,0,1.03906,1.59326,2.873,2.873,0,0,0,1.7959.56689A2.6755,2.6755,0,0,0,153.41663,223.40489Z"/>
        <path class="cls-1" d="M170.96643,213.73887a4.75056,4.75056,0,0,1,1.30957,3.53662v8.856a.32178.32178,0,0,1-.32324.32422h-2.48437a.32341.32341,0,0,1-.32422-.32422v-8.208a2.86993,2.86993,0,0,0-.70215-2.01123,2.39871,2.39871,0,0,0-1.86231-.76953,2.46631,2.46631,0,0,0-1.87695.75586,2.78648,2.78648,0,0,0-.71582,1.99805v8.23486a.32178.32178,0,0,1-.32324.32422h-2.48438a.32341.32341,0,0,1-.32421-.32422V212.98252a.32258.32258,0,0,1,.32421-.32373h2.48438a.321.321,0,0,1,.32324.32373v.86426a.10721.10721,0,0,0,.05469.10791c.03516.01807.0625,0,.08105-.0542a3.93571,3.93571,0,0,1,3.34766-1.458A4.75129,4.75129,0,0,1,170.96643,213.73887Z"/>
        <path class="cls-1" d="M183.79163,212.753a.312.312,0,0,1,.22949-.09424h2.457a.321.321,0,0,1,.32324.32373v13.14893a.32178.32178,0,0,1-.32324.32422h-2.457a.32343.32343,0,0,1-.32422-.32422v-.86377a.1098.1098,0,0,0-.05371-.10791c-.03711-.01758-.07226,0-.1084.05371a3.93754,3.93754,0,0,1-3.32129,1.43115,5.11193,5.11193,0,0,1-3.44238-1.188,4.19693,4.19693,0,0,1-1.39062-3.375v-9.09913a.32258.32258,0,0,1,.32421-.32373h2.48438a.321.321,0,0,1,.32324.32373v8.208a2.96258,2.96258,0,0,0,.66211,2.0249,2.32464,2.32464,0,0,0,1.84961.75635,2.57277,2.57277,0,0,0,1.94336-.75635,2.79148,2.79148,0,0,0,.72949-2.0249v-8.208A.31181.31181,0,0,1,183.79163,212.753Z"/>
        <path class="cls-1" d="M200.26038,213.73887a4.75056,4.75056,0,0,1,1.30957,3.53662v8.856a.32178.32178,0,0,1-.32324.32422h-2.48438a.32343.32343,0,0,1-.32422-.32422v-8.208a2.86988,2.86988,0,0,0-.70215-2.01123,2.39869,2.39869,0,0,0-1.8623-.76953,2.46631,2.46631,0,0,0-1.87695.75586,2.78648,2.78648,0,0,0-.71582,1.99805v8.23486a.32178.32178,0,0,1-.32325.32422h-2.48437a.32343.32343,0,0,1-.32422-.32422V212.98252a.3226.3226,0,0,1,.32422-.32373h2.48437a.321.321,0,0,1,.32325.32373v.86426a.1072.1072,0,0,0,.05468.10791c.03516.01807.0625,0,.08106-.0542a3.93569,3.93569,0,0,1,3.34766-1.458A4.75132,4.75132,0,0,1,200.26038,213.73887Z"/>
        <path class="cls-1" d="M207.59046,207.66368a.34684.34684,0,0,1,0,.27l-2.13282,5.26513a.35342.35342,0,0,1-.37793.24268h-1.83593a.262.262,0,0,1-.22949-.09424.333.333,0,0,1-.04-.25684l1.51171-5.26464a.35543.35543,0,0,1,.37793-.27h2.48438C207.47327,207.55577,207.55432,207.5919,207.59046,207.66368Z"/>
        <path class="cls-1" d="M209.73694,226.11827a4.61643,4.61643,0,0,1-1.98437-1.377,3.05723,3.05723,0,0,1-.70215-1.95752v-.24316a.32259.32259,0,0,1,.32422-.32373h2.376a.32259.32259,0,0,1,.32422.32373v.0542a1.41792,1.41792,0,0,0,.74219,1.17432,3.29016,3.29016,0,0,0,1.87695.49951,3.13453,3.13453,0,0,0,1.75489-.44532,1.3135,1.3135,0,0,0,.6748-1.1206,1.00464,1.00464,0,0,0-.55371-.93164,8.97326,8.97326,0,0,0-1.79492-.66162l-1.02637-.32373a15.11628,15.11628,0,0,1-2.32227-.86426,4.62776,4.62776,0,0,1-1.59277-1.25537,3.12775,3.12775,0,0,1-.64844-2.03858,3.57791,3.57791,0,0,1,1.48536-3.01025,6.33538,6.33538,0,0,1,3.915-1.12061,7.35431,7.35431,0,0,1,2.88868.52637,4.43335,4.43335,0,0,1,1.917,1.458,3.52113,3.52113,0,0,1,.67578,2.11963.32343.32343,0,0,1-.32422.32422h-2.29492a.32343.32343,0,0,1-.32422-.32422,1.39042,1.39042,0,0,0-.68848-1.17432,3.27358,3.27358,0,0,0-1.87695-.47265,3.33536,3.33536,0,0,0-1.71387.3916,1.21376,1.21376,0,0,0-.66211,1.09326,1.06555,1.06555,0,0,0,.63477.98535,11.19948,11.19948,0,0,0,2.11914.74268l.59473.16211a19.16086,19.16086,0,0,1,2.40234.87744,4.693,4.693,0,0,1,1.64746,1.24218,3.08773,3.08773,0,0,1,.67481,2.06543,3.512,3.512,0,0,1-1.51172,3.01026,6.72392,6.72392,0,0,1-4.02344,1.09375A8.18959,8.18959,0,0,1,209.73694,226.11827Z"/>
        <path class="cls-1" d="M65.195,255.99668a5.52991,5.52991,0,0,1-2.417-1.89013,4.8672,4.8672,0,0,1-.85059-2.86182v-.67529a.3226.3226,0,0,1,.32422-.32373h2.40332a.321.321,0,0,1,.32324.32373v.51318a2.48379,2.48379,0,0,0,1.10742,2.06543,4.96277,4.96277,0,0,0,3.02442.82373,3.78206,3.78206,0,0,0,2.4834-.70215,2.25346,2.25346,0,0,0,.83691-1.80908,1.88587,1.88587,0,0,0-.459-1.28223,4.28543,4.28543,0,0,0-1.30957-.95849q-.84962-.43214-2.55079-1.08008a26.54583,26.54583,0,0,1-3.10546-1.32324,5.77952,5.77952,0,0,1-1.98438-1.6875,4.31782,4.31782,0,0,1-.79687-2.65918,4.54058,4.54058,0,0,1,1.72851-3.75293A7.19318,7.19318,0,0,1,68.57,237.33946a8.606,8.606,0,0,1,3.57715.70215,5.70452,5.70452,0,0,1,2.416,1.95752,4.99361,4.99361,0,0,1,.86426,2.90234v.459a.32341.32341,0,0,1-.32422.32422H72.67346a.3234.3234,0,0,1-.32421-.32422v-.29687a2.71063,2.71063,0,0,0-1.03907-2.14649,4.32635,4.32635,0,0,0-2.876-.87744,3.766,3.766,0,0,0-2.3086.6211,2.06963,2.06963,0,0,0-.82324,1.75488,1.98378,1.98378,0,0,0,.43262,1.32324,3.86947,3.86947,0,0,0,1.2959.93115q.86279.419,2.67285,1.06641a30.70583,30.70583,0,0,1,3.06445,1.32324,5.89769,5.89769,0,0,1,1.9707,1.66065,4.22261,4.22261,0,0,1,.82325,2.65918,4.68076,4.68076,0,0,1-1.79493,3.86132,7.655,7.655,0,0,1-4.90039,1.43067A9.21212,9.21212,0,0,1,65.195,255.99668Z"/>
        <path class="cls-1" d="M90.16956,249.5167l-.02735.83692a.28614.28614,0,0,1-.32324.32422H81.3678a.11872.11872,0,0,0-.13476.13476,3.87213,3.87213,0,0,0,.24218,1.21485q.64893,1.94457,3.15918,1.97119a3.40241,3.40241,0,0,0,2.916-1.51221.31771.31771,0,0,1,.27051-.16162.25786.25786,0,0,1,.18847.081l1.67383,1.377a.287.287,0,0,1,.08106.43164,5.51207,5.51207,0,0,1-2.22754,1.83642,7.2322,7.2322,0,0,1-3.09082.64795,6.48256,6.48256,0,0,1-3.57813-.94531,5.43447,5.43447,0,0,1-2.14648-2.646,10.61322,10.61322,0,0,1-.6211-4.0498,8.21428,8.21428,0,0,1,.32422-2.53809,5.41853,5.41853,0,0,1,2.03906-2.98339,5.94727,5.94727,0,0,1,3.6045-1.09375q5.31883,0,5.99316,5.562A9.59581,9.59581,0,0,1,90.16956,249.5167Zm-7.7627-3.87451a2.64153,2.64153,0,0,0-.93164,1.39063,4.71863,4.71863,0,0,0-.21582,1.188c-.03613.09033,0,.13476.1084.13476h5.48047a.11961.11961,0,0,0,.13574-.13476,5.23676,5.23676,0,0,0-.16211-1.02637,2.62244,2.62244,0,0,0-.959-1.51172,2.89493,2.89493,0,0,0-1.79492-.54A2.6781,2.6781,0,0,0,82.40686,245.64219Z"/>
        <path class="cls-1" d="M100.96936,242.84776a.33632.33632,0,0,1,.16211.40478l-.459,2.43018c-.01856.21582-.14453.2793-.37891.189a2.99218,2.99218,0,0,0-.94433-.13525,4.05689,4.05689,0,0,0-.54.02734,2.79271,2.79271,0,0,0-1.89063.79639,2.58719,2.58719,0,0,0-.75586,1.93066v7.64063a.32178.32178,0,0,1-.32324.32422H93.35511a.32341.32341,0,0,1-.32422-.32422V242.98252a.32259.32259,0,0,1,.32422-.32373h2.48437a.321.321,0,0,1,.32324.32373v1.21534c0,.07177.01367.1123.041.12109.02637.00928.05762-.01318.09472-.06738a3.5645,3.5645,0,0,1,3.15821-1.75489A3.13173,3.13173,0,0,1,100.96936,242.84776Z"/>
        <path class="cls-1" d="M107.01624,256.18565l-4.34668-13.17578a.294.294,0,0,1-.02735-.13526c0-.16211.09864-.24316.29688-.24316H105.693a.35543.35543,0,0,1,.37793.27l2.61914,9.01807c.01757.0542.04492.081.081.081s.06348-.02685.08106-.081l2.61914-9.01807a.35541.35541,0,0,1,.37793-.27l2.7539.0542a.30205.30205,0,0,1,.24317.09473.29831.29831,0,0,1,.02734.2832l-4.32031,13.12207a.33834.33834,0,0,1-.35059.27h-2.835A.33868.33868,0,0,1,107.01624,256.18565Z"/>
        <path class="cls-1" d="M117.65491,240.22862a2.02545,2.02545,0,1,1,1.37695.54A1.86324,1.86324,0,0,1,117.65491,240.22862Zm-.14844,16.13232a.30952.30952,0,0,1-.09472-.22949V242.95567a.32341.32341,0,0,1,.32421-.32422h2.4834a.32341.32341,0,0,1,.32422.32422v13.17578a.32341.32341,0,0,1-.32422.32422H117.736A.30872.30872,0,0,1,117.50647,256.36094Z"/>
        <path class="cls-1" d="M126.29456,255.60508a5.537,5.537,0,0,1-2.10645-2.87549,12.1725,12.1725,0,0,1,0-6.42578,5.25012,5.25012,0,0,1,2.09278-2.82177,6.24926,6.24926,0,0,1,3.60449-1.03955,6.42161,6.42161,0,0,1,3.67187,1.05322,4.80307,4.80307,0,0,1,2.26856,3.50976v.0542a.31047.31047,0,0,1-.29688.32422l-2.43066.35059h-.05371a.32453.32453,0,0,1-.32422-.27.71837.71837,0,0,0-.02637-.21582c-.03711-.144-.07226-.27-.1084-.37793a2.33632,2.33632,0,0,0-.97168-1.24219,3.04663,3.04663,0,0,0-1.72851-.48584,2.85351,2.85351,0,0,0-1.74121.52637,2.53839,2.53839,0,0,0-.959,1.44482,8.41632,8.41632,0,0,0-.26953,2.40283,9.66746,9.66746,0,0,0,.24317,2.40284,2.83821,2.83821,0,0,0,.97168,1.49853,2.74514,2.74514,0,0,0,1.75488.55371,2.97876,2.97876,0,0,0,1.76855-.52685,2.367,2.367,0,0,0,.959-1.41748.304.304,0,0,0,.02637-.13477.11116.11116,0,0,0,.02734-.08105q.08056-.32373.37793-.27l2.42969.37793a.438.438,0,0,1,.22949.12158.2745.2745,0,0,1,.06738.25635q-.08056.43285-.13476.62109a4.8119,4.8119,0,0,1-2.07911,2.74072,6.61265,6.61265,0,0,1-3.67187,1.01221A6.06575,6.06575,0,0,1,126.29456,255.60508Z"/>
        <path class="cls-1" d="M150.08167,249.5167l-.02735.83692a.28614.28614,0,0,1-.32324.32422h-8.45117a.11873.11873,0,0,0-.13477.13476,3.87235,3.87235,0,0,0,.24219,1.21485q.64893,1.94457,3.15918,1.97119a3.40242,3.40242,0,0,0,2.916-1.51221.31771.31771,0,0,1,.27051-.16162.25786.25786,0,0,1,.18847.081l1.67383,1.377a.287.287,0,0,1,.08105.43164,5.512,5.512,0,0,1-2.22753,1.83642,7.2322,7.2322,0,0,1-3.09082.64795,6.48256,6.48256,0,0,1-3.57813-.94531,5.43441,5.43441,0,0,1-2.14648-2.646,10.61322,10.61322,0,0,1-.6211-4.0498,8.21428,8.21428,0,0,1,.32422-2.53809,5.41853,5.41853,0,0,1,2.03906-2.98339,5.94727,5.94727,0,0,1,3.6045-1.09375q5.31884,0,5.99316,5.562A9.59581,9.59581,0,0,1,150.08167,249.5167Zm-7.7627-3.87451a2.64153,2.64153,0,0,0-.93164,1.39063,4.71818,4.71818,0,0,0-.21582,1.188c-.03613.09033,0,.13476.1084.13476h5.48047a.11961.11961,0,0,0,.13574-.13476,5.23676,5.23676,0,0,0-.16211-1.02637,2.62244,2.62244,0,0,0-.959-1.51172,2.895,2.895,0,0,0-1.79492-.54A2.6781,2.6781,0,0,0,142.319,245.64219Z"/>
        <path class="cls-1" d="M154.87366,256.11827a4.61643,4.61643,0,0,1-1.98437-1.377,3.05723,3.05723,0,0,1-.70215-1.95752v-.24316a.32259.32259,0,0,1,.32422-.32373h2.376a.3226.3226,0,0,1,.32422.32373v.0542a1.41792,1.41792,0,0,0,.74219,1.17432,3.29016,3.29016,0,0,0,1.87695.49951,3.13447,3.13447,0,0,0,1.75488-.44532,1.31349,1.31349,0,0,0,.67481-1.1206,1.00464,1.00464,0,0,0-.55371-.93164,8.97351,8.97351,0,0,0-1.79492-.66162l-1.02637-.32373a15.11628,15.11628,0,0,1-2.32227-.86426,4.62776,4.62776,0,0,1-1.59277-1.25537,3.12775,3.12775,0,0,1-.64844-2.03858,3.57793,3.57793,0,0,1,1.48535-3.01025,6.33544,6.33544,0,0,1,3.915-1.12061,7.35422,7.35422,0,0,1,2.88867.52637,4.43333,4.43333,0,0,1,1.917,1.458,3.52113,3.52113,0,0,1,.67578,2.11963.32343.32343,0,0,1-.32422.32422H160.5846a.32343.32343,0,0,1-.32422-.32422,1.39042,1.39042,0,0,0-.68848-1.17432,3.27358,3.27358,0,0,0-1.87695-.47265,3.33536,3.33536,0,0,0-1.71387.3916,1.21376,1.21376,0,0,0-.66211,1.09326,1.06555,1.06555,0,0,0,.63477.98535,11.19948,11.19948,0,0,0,2.11914.74268l.59473.16211a19.16086,19.16086,0,0,1,2.40234.87744,4.69307,4.69307,0,0,1,1.64746,1.24218,3.08773,3.08773,0,0,1,.6748,2.06543,3.512,3.512,0,0,1-1.51171,3.01026,6.72392,6.72392,0,0,1-4.02344,1.09375A8.18959,8.18959,0,0,1,154.87366,256.11827Z"/>
      </g>
      <g>
        <g>
          <path class="cls-2" d="M177.171,26.94039a13.0566,13.0566,0,1,0,13.0535,13.0602A13.05659,13.05659,0,0,0,177.171,26.94039Z"/>
          <path class="cls-2" d="M177.171,8.3048a31.70882,31.70882,0,0,0-29.64836,20.46313A13.44607,13.44607,0,0,1,124.204,32.12352a13.05978,13.05978,0,1,0,.186,15.48791c6.05686-8.4181,19.58358-5.66286,23.17288,3.70818A31.69415,31.69415,0,1,0,177.171,8.3048Zm0,52.37288a20.68014,20.68014,0,1,1,20.67713-20.68315v.00605A20.67886,20.67886,0,0,1,177.171,60.67768Z"/>
          <path class="cls-2" d="M134.73826,50.19162a5.50639,5.50639,0,0,0-4.54386,2.39008,20.665,20.665,0,1,1,.056-25.12555c.05845.081.11911.16092.18132.23863h.00046a.49871.49871,0,0,0,.03177.03984,5.48385,5.48385,0,0,0,8.86293-6.42894,1.33,1.33,0,0,0-.1688-.29928,31.6919,31.6919,0,1,0-.167,38.20458,5.5124,5.5124,0,0,0-4.25278-9.01936Z"/>
        </g>
        <rect class="cls-3" x="0.53707" y="5.10462" width="73.66865" height="132.85496" rx="8.22122"/>
        <rect class="cls-4" x="6.62068" y="19.27294" width="61.50143" height="92.36512" rx="3.87993"/>
        <circle class="cls-4" cx="37.37139" cy="126.8164" r="5.60042"/>
        <rect class="cls-4" x="31.00899" y="12.55156" width="12.72481" height="1.99255" rx="0.95157"/>
        <circle class="cls-4" cx="37.37139" cy="9.39598" r="0.62893"/>
        <rect class="cls-3" x="102.46401" y="89.64424" width="109.12334" height="76.12687" rx="3.27203"/>
        <rect class="cls-4" x="109.08369" y="95.26628" width="95.88398" height="63.30024" rx="4.29641"/>
        <path class="cls-4" d="M91.035,168.155l131.98136.04865a18.36958,18.36958,0,0,1-2.75592,1.06527,23.71184,23.71184,0,0,1-6.78367.95138c-3.726.01226-49.73686.05808-112.931,0a23.7367,23.7367,0,0,1-6.30679-.88334A21.94017,21.94017,0,0,1,91.035,168.155Z"/>
        <path class="cls-5" d="M157.02569,165.47112H89.58844v.3819a2.76051,2.76051,0,0,0,2.98314,2.46229H221.47979a2.7605,2.7605,0,0,0,2.98314-2.46229v-.3819Z"/>
      </g>
    </g>
  </g>
</svg>
