<svg viewBox="0 0 142 142" fill="none" xmlns="http://www.w3.org/2000/svg"><path d="M71 142c39.212 0 71-31.788 71-71S110.212 0 71 0 0 31.788 0 71s31.788 71 71 71Z" fill="#7198E7"/><path d="M71 136c35.899 0 65-29.101 65-65 0-35.898-29.101-65-65-65C35.102 6 6 35.102 6 71c0 35.899 29.102 65 65 65Z" fill="url(#a)"/><path d="m64.657 71.225-.78.148a2.61 2.61 0 1 0 .45 5.2c.156.013.313.013.468 0l.928-.182a2.6 2.6 0 0 0-1.066-5.088v-.078ZM86.158 60.548a2.6 2.6 0 0 0 1.404.416 2.6 2.6 0 0 0 2.192-1.23l.494-.798a2.6 2.6 0 0 0-4.437-2.67c-.147.235-.286.469-.433.694a2.6 2.6 0 0 0 .78 3.588ZM69.96 27.407a11.986 11.986 0 0 0-11.189 7.8 5.078 5.078 0 0 1-8.805 1.291 4.94 4.94 0 1 0 .087 5.85c2.279-3.18 7.392-2.158 8.753 1.378a11.978 11.978 0 1 0 11.154-16.32Zm0 19.786a7.8 7.8 0 1 1 .043 0h-.043Z" fill="#5070D4"/><path d="M69.977 34.444a4.94 4.94 0 1 0 0 9.88 4.94 4.94 0 0 0 0-9.88ZM80.221 63.14l-.607.545a2.603 2.603 0 0 0 3.467 3.883l.685-.633a2.6 2.6 0 1 0-3.545-3.796Z" fill="#5070D4"/><path d="M104.402 93.16a4.85 4.85 0 0 0-4.204 2.41h-.953a4.888 4.888 0 0 0-4.698-3.562 4.888 4.888 0 0 0-4.697 3.562h-.866a4.87 4.87 0 1 0-9.742 0h-1.04V66.233a4.901 4.901 0 0 0-9.802 0V115.2l-8.441-4.879a5.624 5.624 0 0 0-7.679 2.054l-.06.112a5.626 5.626 0 0 0 2.053 7.679l19.64 11.336c.218.124.443.234.675.329A19.978 19.978 0 0 0 79 133.565c2.952.747 6.035.824 9.022.225a64.51 64.51 0 0 0 20.869-9.941c.194-.796.313-1.608.355-2.426V98.04a4.878 4.878 0 0 0-4.844-4.88ZM90.171 19.659a2.603 2.603 0 0 0-4.437 2.721l.407.685a2.599 2.599 0 0 0 4.87-1.628 2.6 2.6 0 0 0-.372-.972 12.293 12.293 0 0 0-.468-.806ZM95.717 40.32v-1.083a2.6 2.6 0 0 0-5.2 0V40.19a2.6 2.6 0 0 0 2.531 2.66h.07a2.6 2.6 0 0 0 2.6-2.53ZM94.304 29.062a2.602 2.602 0 0 0-5.009 1.413c.078.26.147.52.217.78a2.6 2.6 0 0 0 2.513 1.95c.219 0 .437-.027.65-.078a2.6 2.6 0 0 0 1.872-3.172l-.243-.893ZM89.338 48.155l-.225.771a2.6 2.6 0 0 0 2.496 3.363 2.6 2.6 0 0 0 2.487-1.838c.096-.294.182-.598.269-.866a2.6 2.6 0 0 0-5.01-1.396l-.017-.034ZM83.662 11.72a2.603 2.603 0 1 0-3.545 3.813l.598.555a2.6 2.6 0 0 0 4.41-1.9 2.6 2.6 0 0 0-.787-1.827l-.676-.641ZM23.732 31.246a2.6 2.6 0 0 0-2.998 2.158c-.052.303-.096.615-.139.927a2.6 2.6 0 0 0 2.236 2.921c.115.009.231.009.347 0a2.6 2.6 0 0 0 2.6-2.262c0-.26.078-.529.112-.789a2.6 2.6 0 0 0-2.158-2.955ZM23.472 26.679a2.6 2.6 0 0 0 2.279 1.386 2.6 2.6 0 0 0 2.392-1.577c.104-.243.217-.485.33-.737a2.6 2.6 0 0 0-.807-3.18 67.022 67.022 0 0 0-4.194 4.108ZM20.647 44.593a2.6 2.6 0 0 0 2.6 2.244h.355a2.6 2.6 0 0 0 2.219-2.929c0-.269-.07-.537-.096-.806a2.617 2.617 0 1 0-5.2.59c.035.285.078.589.122.9ZM71.754 6.945a2.6 2.6 0 0 0 1.117 3.466l.72.382a2.6 2.6 0 0 0 1.24.312 2.6 2.6 0 0 0 1.247-4.845l-.095-.052a74.228 74.228 0 0 0-3.467-.173c-.323.238-.584.55-.763.91ZM32.303 59.309a2.601 2.601 0 1 0-4.1 3.189c.192.251.382.494.582.737a2.602 2.602 0 1 0 4.03-3.294l-.512-.632ZM26.852 55.816a2.6 2.6 0 0 0 1.343-3.423l-.312-.737a2.6 2.6 0 1 0-4.819 1.959l.364.866a2.6 2.6 0 0 0 3.424 1.344v-.009ZM54.534 76.945l.927.07h.173a2.602 2.602 0 1 0 .174-5.2l-.806-.061a2.61 2.61 0 0 0-.468 5.2v-.009ZM38.63 65.505a2.6 2.6 0 0 0-3.086 4.178c.243.182.494.372.754.546a2.6 2.6 0 0 0 1.49.476 2.6 2.6 0 0 0 1.5-4.723l-.658-.477ZM46.396 69.77a2.6 2.6 0 0 0-1.855 4.853l.867.329c.277.1.571.15.866.147a2.6 2.6 0 0 0 .867-5.052l-.745-.278ZM56.423 45.407l-3.623-2.08a7.8 7.8 0 1 1 0-7.8l3.597-2.097a11.968 11.968 0 1 0 0 11.986l.026-.009ZM30.908 19.867a2.6 2.6 0 0 0 1.82-.936l.52-.633c.1-.115.187-.24.26-.373a56.23 56.23 0 0 0-2.6 1.942ZM64.517 7.508l.797.173c.191.044.386.067.581.07a2.6 2.6 0 0 0 2.427-1.682c-1.812.07-3.588.226-5.356.442a2.6 2.6 0 0 0 1.551.997Z" fill="#5070D4"/><defs><radialGradient id="a" cx="0" cy="0" r="1" gradientUnits="userSpaceOnUse" gradientTransform="matrix(0 67.5 -82.5462 0 71 71)"><stop stop-color="#fff"/><stop offset="1" stop-color="#A7D3F2"/></radialGradient></defs></svg>