<svg xmlns="http://www.w3.org/2000/svg" xmlns:xlink="http://www.w3.org/1999/xlink" viewBox="0 0 297 212"><defs><linearGradient id="linear-gradient" x1="197.46" y1="107.13" x2="282.64" y2="107.13" gradientUnits="userSpaceOnUse"><stop offset="0" stop-color="#00ffda"/><stop offset="1" stop-color="#6f90bf"/></linearGradient><linearGradient id="linear-gradient-2" x1="185.65" y1="34.04" x2="282.17" y2="34.04" xlink:href="#linear-gradient"/><linearGradient id="linear-gradient-3" x1="8.8" y1="80.28" x2="210.01" y2="80.28" xlink:href="#linear-gradient"/><linearGradient id="linear-gradient-4" x1="32.83" y1="145.36" x2="192.01" y2="145.36" xlink:href="#linear-gradient"/><linearGradient id="linear-gradient-5" x1="224.99" y1="83.11" x2="87.85" y2="162.29" gradientUnits="userSpaceOnUse"><stop offset="0" stop-color="#fff"/><stop offset=".12" stop-color="#ebf0f7"/><stop offset=".31" stop-color="#d4ddee"/><stop offset=".51" stop-color="#c3d0e8"/><stop offset=".72" stop-color="#b9c8e4"/><stop offset="1" stop-color="#b6c6e3"/></linearGradient><linearGradient id="linear-gradient-6" x1="157.05" y1="152.37" x2="157.05" y2="211.33" gradientUnits="userSpaceOnUse"><stop offset=".24" stop-color="#26b4d8"/><stop offset="1" stop-color="#99c1f0"/></linearGradient><linearGradient id="linear-gradient-7" x1="175.87" y1="138.57" x2="175.87" y2="211.33" xlink:href="#linear-gradient-6"/><linearGradient id="linear-gradient-8" x1="67.72" y1="103.79" x2="217.57" y2="103.79" gradientUnits="userSpaceOnUse"><stop offset="0" stop-color="#26b4d8"/><stop offset=".12" stop-color="#3bb6dc"/><stop offset=".39" stop-color="#64bbe5"/><stop offset=".64" stop-color="#81beeb"/><stop offset=".85" stop-color="#93c0ef"/><stop offset="1" stop-color="#99c1f0"/></linearGradient><linearGradient id="linear-gradient-9" x1="186.6" y1="120.83" x2="144.36" y2="96.45" gradientUnits="userSpaceOnUse"><stop offset="0" stop-color="#26b4d8"/><stop offset=".17" stop-color="#33b5db"/><stop offset=".49" stop-color="#55b9e2"/><stop offset=".91" stop-color="#8cc0ed"/><stop offset="1" stop-color="#99c1f0"/></linearGradient><linearGradient id="linear-gradient-10" x1="200.38" y1="73.07" x2="176.46" y2="59.26" gradientUnits="userSpaceOnUse"><stop offset="0" stop-color="#26b4d8"/><stop offset=".15" stop-color="#2fb5da"/><stop offset=".4" stop-color="#46b8df"/><stop offset=".7" stop-color="#6dbce7"/><stop offset="1" stop-color="#99c1f0"/></linearGradient><linearGradient id="linear-gradient-11" x1="135.52" y1="63.43" x2="184.24" y2="63.43" gradientUnits="userSpaceOnUse"><stop offset="0" stop-color="#fff"/><stop offset=".34" stop-color="#fcfdfe"/><stop offset=".54" stop-color="#f4f7fb"/><stop offset=".71" stop-color="#e6ebf5"/><stop offset=".86" stop-color="#d2dcee"/><stop offset=".99" stop-color="#b8c7e4"/><stop offset="1" stop-color="#b6c6e3"/></linearGradient><linearGradient id="linear-gradient-12" x1="156.01" y1="87.25" x2="72.45" y2="135.49" gradientUnits="userSpaceOnUse"><stop offset=".01" stop-color="#557cff"/><stop offset=".28" stop-color="#5579ff"/><stop offset=".46" stop-color="#5570ff"/><stop offset=".62" stop-color="#5561ff"/><stop offset=".76" stop-color="#554cff"/><stop offset=".89" stop-color="#5431ff"/><stop offset="1" stop-color="#5413ff"/></linearGradient><linearGradient id="linear-gradient-13" x1="158.45" y1="85.7" x2="74.89" y2="133.94" xlink:href="#linear-gradient-12"/><linearGradient id="linear-gradient-14" x1="149.64" y1="91.16" x2="72.45" y2="135.72" gradientUnits="userSpaceOnUse"><stop offset=".01" stop-color="#557cff"/><stop offset=".2" stop-color="#5561ff"/><stop offset=".54" stop-color="#5437ff"/><stop offset=".82" stop-color="#541dff"/><stop offset=".98" stop-color="#5413ff"/></linearGradient><linearGradient id="linear-gradient-15" x1="158.44" y1="85.92" x2="100.06" y2="119.63" xlink:href="#linear-gradient-14"/><linearGradient id="linear-gradient-16" x1="156.07" y1="17.15" x2="72.51" y2="65.39" xlink:href="#linear-gradient-12"/><linearGradient id="linear-gradient-17" x1="74.25" y1="37.1" x2="121.91" y2="37.1" xlink:href="#linear-gradient-12"/><linearGradient id="linear-gradient-18" x1="152.41" y1="10.81" x2="68.85" y2="59.05" xlink:href="#linear-gradient-12"/><linearGradient id="linear-gradient-19" x1="74.25" y1="39.92" x2="121.91" y2="39.92" xlink:href="#linear-gradient-12"/><linearGradient id="linear-gradient-20" x1="149.55" y1="5.86" x2="65.99" y2="54.1" xlink:href="#linear-gradient-12"/><linearGradient id="linear-gradient-21" x1="74.25" y1="22.62" x2="121.91" y2="22.62" xlink:href="#linear-gradient-8"/><style>.cls-3{fill:#529bea}.cls-4{fill:#1e4489}</style></defs><g id="Header_Manager_Illus" data-name="Header Manager Illus"><path d="M280.9 99a4.5 4.5 0 0 0-5.2-.4l-10.3-6.1a4.6 4.6 0 0 0-9.2.5l-33.9 24.1a4.7 4.7 0 0 0-4.3.1l-17.5-10.5-3 2.9 18.2 11a4.6 4.6 0 0 0 8.4 3.2 4.5 4.5 0 0 0 .7-3.4l33.3-23.7a4.5 4.5 0 0 0 5.8-.3l9.5 5.6a4.5 4.5 0 0 0 1.7 4.2 4.6 4.6 0 1 0 5.8-7.2Z" style="fill:url(#linear-gradient)"/><path d="M280.4 28.8a4.6 4.6 0 0 0-6.5.8 4.7 4.7 0 0 0-.8 4.4L262 41.9a4.5 4.5 0 0 0-5.1.5l-41.7-21a4.8 4.8 0 0 0-1.7-2.9 4.7 4.7 0 0 0-6.6.7 5.8 5.8 0 0 0-.9 2.5l-20.3 14.1 4.2 1.9 17.7-12.1h.1a4.7 4.7 0 0 0 6.2-.3L255.2 46a4.6 4.6 0 0 0 1.7 3.5 4.7 4.7 0 0 0 6.6-.8 4.5 4.5 0 0 0 .9-3.5l11.7-8.4a4.8 4.8 0 0 0 5.1-1.6 4.6 4.6 0 0 0-.8-6.4Z" style="fill:url(#linear-gradient-2)"/><circle class="cls-3" cx="125.5" cy="50.6" r="7.6"/><circle class="cls-4" cx="127.5" cy="104.9" r="7.6"/><circle class="cls-4" cx="179.5" cy="79" r="7.6"/><path d="m167.9 57.5-48.4 31.4-47.7-21.8a4.3 4.3 0 0 0-1.6-2.6 4.5 4.5 0 0 0-6.5.8 4.4 4.4 0 0 0-1 3.3L29.9 98.2l-11.8-5.4a4.7 4.7 0 0 0-8.3-2.7 4.5 4.5 0 0 0 .8 6.5 4.7 4.7 0 0 0 5.6.1l14.5 6.4 34.4-30.9a4.7 4.7 0 0 0 5.6-.9l49.2 22.3 49-31.8 40.4 5.6.7-4.2Z" style="fill:url(#linear-gradient-3)"/><path d="m162.1 118.6-55.9 48.8-46.9-17.1a4.7 4.7 0 0 0-8.1-1.5 5 5 0 0 0-1 3.1L39 162.1a4.8 4.8 0 0 0-5.2 1.5 4.6 4.6 0 1 0 7.3 5.7 4.5 4.5 0 0 0 .8-4.4l10.5-9.4a4.5 4.5 0 0 0 6.1-1c.1 0 .1-.1.1-.2l48.5 17.9 56.2-49.2 27.5 6.6 1.2-4.1Z" style="fill:url(#linear-gradient-4)"/><circle class="cls-3" cx="174.9" cy="145.8" r="7.6"/><circle class="cls-4" cx="166.8" cy="92.2" r="7.6"/><circle class="cls-4" cx="118.1" cy="123.8" r="7.6"/><path d="M217.6 88.3a67.6 67.6 0 0 0-135.1 0 69.9 69.9 0 0 0 .6 9.2 3.4 3.4 0 0 1-.5 2.6l-14.3 21.6a3.5 3.5 0 0 0-.6 1.4 3.8 3.8 0 0 0 4.1 4.1h.7l10.3 1a3.5 3.5 0 0 1 3.2 2.9l8.8 42.2a9.9 9.9 0 0 0 11.6 7.7l10-2.1a3.6 3.6 0 0 1 4.4 3.5v28.9h82.9v-81a4 4 0 0 1 .7-2.1 66.8 66.8 0 0 0 13.2-39.9Z" style="fill:url(#linear-gradient-5)"/><path d="m174.5 51-5.7 2.1a21.8 21.8 0 0 0-2.2-2.1l1.4-5.8-4.9-1.7-4.9-1.7-2.5 5.3a18.3 18.3 0 0 0-3.3.2l-3.1-5.1-4.6 2.2h-.1l-4.6 2.3 2 5.5a21.9 21.9 0 0 0-2.1 2.3l-5.7-1.4-1.7 4.9-1.7 4.9 5.2 2.5a17.7 17.7 0 0 0 .2 3.2l-5 3 2.3 4.7 2.2 4.7 5.5-2a15.1 15.1 0 0 0 2.3 2.1l-1.4 5.6 4.9 1.7 4.9 1.7 2.5-5.1 3.2-.2 3 5 4.7-2.2 4.7-2.3-2-5.5a13.7 13.7 0 0 0 2.5-2.9l5.5 1.4 1.8-4.9 1.7-4.9-5.5-2.6a19.4 19.4 0 0 0-.2-2.4l5.2-3.1-2.3-4.7Zm-14.9 24.6a10.7 10.7 0 0 1-14.2-5 10.6 10.6 0 0 1 5-14.1 10.7 10.7 0 0 1 14.2 5 10.6 10.6 0 0 1-5 14.1Z" style="fill:#26b4d8"/><path d="M151.1 211.3h11.2l.7-58.9-11.9 6.9Z" style="fill:url(#linear-gradient-6)"/><path d="M165 211.3h21.7v-72.7L165 151.2Z" style="fill:url(#linear-gradient-7)"/><path d="M150 21a67.4 67.4 0 0 0-67.5 67.3 72.6 72.6 0 0 0 .6 9.3 3.3 3.3 0 0 1-.5 2.5l-14.3 21.6a3.5 3.5 0 0 0-.6 1.4 3.9 3.9 0 0 0 4.1 4.2h.7l10.3 1a3.6 3.6 0 0 1 3.2 2.9l8.8 42.3a9.8 9.8 0 0 0 11.6 7.6l10-2.1a3.7 3.7 0 0 1 4.4 3.6v4.1c7.5-2.1 52.7-25.3 83.7-58.5A67.2 67.2 0 0 0 150 21Z" style="fill:url(#linear-gradient-8)"/><path d="m185 93.7-5.7 2.1a13.7 13.7 0 0 0-2.2-2l1.4-5.9-4.9-1.7-4.9-1.7-2.5 5.3a18.3 18.3 0 0 0-3.3.2l-3.1-5.1-4.7 2.2-4.7 2.2 2.1 5.5a15.7 15.7 0 0 0-2.1 2.4l-5.7-1.4-1.7 4.8-1.8 4.8 5.3 2.5a16.7 16.7 0 0 0 .2 3.2l-5 3 2.2 4.7h.1l2.2 4.7 5.4-2a15.7 15.7 0 0 0 2.4 2.1l-1.4 5.6 4.9 1.7 4.9 1.8 2.4-5.2a18.3 18.3 0 0 0 3.3-.2l3 5 4.7-2.2 4.7-2.3-2-5.5a14.1 14.1 0 0 0 2.5-2.9l5.5 1.4 1.7-4.9 1.8-4.9-5.5-2.6c-.1-.8-.1-1.6-.2-2.4l5.1-3.1-2.2-4.7Zm-15 24.6a10.6 10.6 0 1 1 5-14.1 10.5 10.5 0 0 1-5 14.1Z" style="fill:url(#linear-gradient-9)"/><path d="m199.4 57.7-3.2 1.2a13.6 13.6 0 0 0-1.2-1.2l.8-3.3-2.8-.9-2.8-1-1.4 3h-1.9l-1.7-2.9-2.6 1.4h-.1l-2.6 1.3 1.1 3.1-1.1 1.3-3.2-.8-1 2.8-1 2.8 3 1.3a5.9 5.9 0 0 0 .1 1.9l-2.8 1.7 1.2 2.6 1.3 2.7 3.1-1.1 1.3 1.2-.8 3.1 2.8 1 2.8 1 1.3-3a5.9 5.9 0 0 0 1.9-.1l1.7 2.9 2.7-1.3 2.6-1.2-1.1-3.2a10.7 10.7 0 0 0 1.4-1.6l3.1.8 1-2.8 1-2.8-3.1-1.4c0-.5-.1-1-.1-1.4L202 63l-1.3-2.6ZM191 71.6a5.9 5.9 0 0 1-8-2.8 6 6 0 0 1 2.8-8 6.1 6.1 0 0 1 8 2.8 5.9 5.9 0 0 1-2.8 8Z" style="fill:url(#linear-gradient-10)"/><path d="m179.2 48.5-5.6 2-2.3-2 1.5-5.8-4.9-1.7-4.9-1.8-2.5 5.4a18.2 18.2 0 0 0-3.3.1l-3.1-5-4.7 2.2-4.7 2.2 2 5.6a22 22 0 0 0-2 2.3l-5.7-1.4-1.7 4.9h-.1l-1.7 4.9 5.3 2.4a18.2 18.2 0 0 0 .1 3.3l-4.9 3 2.2 4.6 2.3 4.6 5.4-1.9 2.4 2.1-1.4 5.6 4.9 1.7 4.9 1.7 2.4-5.2a16.9 16.9 0 0 0 3.2-.1l3.1 5 4.7-2.3 4.7-2.2-2-5.5a34.7 34.7 0 0 0 2.5-2.9l5.5 1.3 1.7-4.8 1.7-4.8-5.5-2.6a20.9 20.9 0 0 0-.1-2.5l5.1-3.1-2.2-4.6ZM164.3 73a10.5 10.5 0 1 1 5-14.1 10.5 10.5 0 0 1-5 14.1Z" style="fill:url(#linear-gradient-11)"/><path d="M153.7 153.2c.7-12.2-11.4-17-12-35.9-.4-12.4 4.5-16.9 6-25.9 3.1-19.8-13.2-45.9-32.8-60.6a67.4 67.4 0 0 0-31.8 66.6 3.9 3.9 0 0 1-.6 2.8l-14.1 21.3a3.8 3.8 0 0 0-.7 2.5 3.8 3.8 0 0 0 4.1 3.2h.7l10.1 1a3.7 3.7 0 0 1 3.4 3.1l8.7 41.8a10.2 10.2 0 0 0 12 7.8l9.4-1.9a3.9 3.9 0 0 1 4.7 3.8v3.8c17.6-6.2 32.1-20.6 32.9-33.4Z" style="fill:url(#linear-gradient-12)"/><path d="M156.1 151.7c.7-12.2-11.4-17-12-35.9-.4-12.4 4.6-17 6-26 3.1-19.7-13.2-45.8-32.8-60.6a67.3 67.3 0 0 0-32.4 57.5 69.9 69.9 0 0 0 .7 9.2 4.3 4.3 0 0 1-.6 2.7L70.8 120a3.5 3.5 0 0 0-.6 2.4 3.8 3.8 0 0 0 4 3.3h.8l10 .9a4 4 0 0 1 3.5 3.1l8.7 41.8a10.1 10.1 0 0 0 11.9 7.9l9.4-2a3.9 3.9 0 0 1 4.7 3.8v3.8c17.6-6.2 32.1-20.5 32.9-33.3Z" style="fill:url(#linear-gradient-13)"/><path d="M123.2 181.5a3.9 3.9 0 0 0-4.7-3.9l-9.4 2a10.1 10.1 0 0 1-11.9-7.8L88.5 130a3.9 3.9 0 0 0-3.5-3.1l-10-1h-.8a3.7 3.7 0 0 1-3.4-5.7L85 98.8a4.2 4.2 0 0 0 .6-2.7 68.4 68.4 0 0 1-.7-9.1 67.2 67.2 0 0 1 30-56 67.3 67.3 0 0 0-32.4 57.5 69.9 69.9 0 0 0 .6 9.2 3.7 3.7 0 0 1-.6 2.7l-14.1 21.4a3.6 3.6 0 0 0-.7 2.4 3.9 3.9 0 0 0 4.1 3.3h.7l10.1.9a3.8 3.8 0 0 1 3.4 3.1l8.7 41.8a10.1 10.1 0 0 0 12 7.8l9.4-1.9a3.9 3.9 0 0 1 4.7 3.8v3.8a63.2 63.2 0 0 0 14-7 65 65 0 0 1-11.6 5.5Z" style="fill:url(#linear-gradient-14)"/><path d="M144.1 116c-.4-12.4 4.6-16.9 6-26 3.1-19.7-13.2-45.8-32.8-60.5l-2.4 1.5c19.6 14.8 35.9 40.9 32.8 60.6-1.5 9-6.4 13.6-6 25.9.6 19 12.7 23.7 12 36-.6 9.1-8.2 19.1-18.9 26.3 12-7.3 20.7-18 21.3-27.9.7-12.2-11.4-17-12-35.9Z" style="fill:url(#linear-gradient-15)"/><path d="M121.9 35.9a6.2 6.2 0 0 1-.8 2.4 6.2 6.2 0 0 0 .8-2.4Z" style="fill:url(#linear-gradient-16)"/><path d="M121.9 35.9a6.2 6.2 0 0 1-.8 2.4 6.2 6.2 0 0 0 .8-2.4Z" style="fill:url(#linear-gradient-17)"/><path d="M121.1 38.3a6.3 6.3 0 0 1-5.5 3.3 6.3 6.3 0 0 0 5.5-3.3Z" style="fill:url(#linear-gradient-18)"/><path d="M121.1 38.3a6.3 6.3 0 0 1-5.5 3.3 6.3 6.3 0 0 0 5.5-3.3Z" style="fill:url(#linear-gradient-19)"/><path d="M121.4 23.8a6.9 6.9 0 0 0-1.8-2.4 6.9 6.9 0 0 1 1.8 2.4Z" style="fill:url(#linear-gradient-20)"/><path d="M121.4 23.8a6.9 6.9 0 0 0-1.8-2.4 6.9 6.9 0 0 1 1.8 2.4Z" style="fill:url(#linear-gradient-21)"/></g></svg>