<svg  viewBox="0 0 142 142" fill="none" xmlns="http://www.w3.org/2000/svg">
<path d="M71 142C110.212 142 142 110.212 142 71C142 31.7878 110.212 0 71 0C31.7878 0 0 31.7878 0 71C0 110.212 31.7878 142 71 142Z" fill="#7198E7"/>
<path d="M71 136C106.899 136 136 106.899 136 71C136 35.1015 106.899 6 71 6C35.1015 6 6 35.1015 6 71C6 106.899 35.1015 136 71 136Z" fill="url(#paint0_radial_1890_7400)"/>
<path d="M71.2683 23.5847C66.6556 23.5847 62.1466 24.9525 58.3113 27.5152C54.476 30.0778 51.4868 33.7202 49.7216 37.9818C47.9564 42.2433 47.4945 46.9326 48.3944 51.4566C49.2943 55.9806 51.5155 60.1362 54.7772 63.3979C58.0388 66.6595 62.1944 68.8807 66.7184 69.7806C71.2424 70.6805 75.9317 70.2186 80.1932 68.4534C84.4548 66.6882 88.0972 63.699 90.6598 59.8637C93.2225 56.0284 94.5903 51.5194 94.5903 46.9067C94.5903 43.844 93.9871 40.8113 92.815 37.9818C91.643 35.1522 89.9251 32.5812 87.7594 30.4156C85.5938 28.2499 83.0228 26.532 80.1932 25.36C77.3637 24.188 74.331 23.5847 71.2683 23.5847ZM73.149 62.732C72.3467 63.4802 71.2906 63.8962 70.1936 63.8962C69.0967 63.8962 68.0406 63.4802 67.2383 62.732C66.4965 61.9128 66.0857 60.8472 66.0857 59.742C66.0857 58.6369 66.4965 57.5712 67.2383 56.752C67.6265 56.3695 68.0891 56.0705 68.5974 55.8738C69.1057 55.677 69.649 55.5866 70.1936 55.608C71.0128 55.6171 71.8115 55.8658 72.4909 56.3235C73.1704 56.7813 73.701 57.428 74.0171 58.1838C74.3333 58.9396 74.4212 59.7714 74.27 60.5766C74.1188 61.3818 73.7351 62.1251 73.1663 62.7147L73.149 62.732ZM82.2836 43.1107C81.8279 44.0372 81.205 44.8717 80.4463 45.572C79.5812 46.3104 78.6662 46.988 77.7076 47.6C76.8149 48.154 75.9839 48.802 75.229 49.5327C74.9633 49.7982 74.7542 50.1148 74.6141 50.4634C74.4741 50.8119 74.4062 51.1852 74.4143 51.5607V52.228C74.417 52.3024 74.4037 52.3765 74.3752 52.4453C74.3468 52.514 74.304 52.5759 74.2496 52.6267C74.1976 52.6824 74.1345 52.7267 74.0643 52.7565C73.9942 52.7864 73.9185 52.8012 73.8423 52.8H67.0736C66.9976 52.8002 66.9222 52.7849 66.8522 52.7551C66.7822 52.7253 66.719 52.6816 66.6663 52.6267C66.6136 52.5746 66.5719 52.5125 66.5436 52.444C66.5153 52.3756 66.5011 52.3021 66.5016 52.228V51.0667C66.4734 49.9798 66.7209 48.9035 67.221 47.938C67.6587 47.1216 68.2468 46.3953 68.9543 45.7974C69.6216 45.2427 70.497 44.5927 71.5543 43.8647C72.5068 43.2973 73.3933 42.6258 74.1976 41.8627C74.4732 41.5983 74.6921 41.2807 74.8411 40.9291C74.9901 40.5775 75.066 40.1992 75.0643 39.8174C75.0772 39.4226 74.9921 39.0308 74.8167 38.6769C74.6413 38.3231 74.3809 38.0181 74.059 37.7894C73.2718 37.2625 72.3356 37.0042 71.3896 37.0527C70.3576 37.0095 69.3411 37.3148 68.5036 37.9194C68.164 38.1674 67.8895 38.4941 67.7038 38.8715C67.5182 39.2488 67.4268 39.6656 67.4376 40.086V40.6147C67.4376 40.9614 67.247 41.1347 66.8656 41.1347L60.097 40.8487C60.019 40.8501 59.9418 40.8336 59.8712 40.8006C59.8006 40.7675 59.7385 40.7188 59.6896 40.658C59.5832 40.5423 59.5244 40.3906 59.525 40.2334V40.086C59.4881 38.2021 60.0196 36.3508 61.0503 34.7734C62.105 33.1972 63.5829 31.9506 65.3143 31.1767C67.2817 30.2879 69.4218 29.8468 71.5803 29.8854C73.6654 29.8388 75.7356 30.2469 77.647 31.0814C79.278 31.7884 80.6689 32.9535 81.651 34.4354C82.6096 35.9371 83.1012 37.6895 83.0636 39.4707C83.0928 40.7284 82.8256 41.9754 82.2836 43.1107Z" fill="#5070D4"/>
<path d="M70.9478 74.406C61.6745 74.406 48.4145 74.4666 38.8811 84.7193C31.1678 92.9526 29.9631 103.318 29.7031 107.443V121.18C41.387 130.8 56.0617 136.042 71.1964 136.001C86.3311 135.96 100.977 130.638 112.608 120.955V107.443C112.34 103.266 111.118 92.9353 103.43 84.7193C93.6631 74.3366 80.2298 74.3713 70.9478 74.406Z" fill="#5070D4"/>
<defs>
<radialGradient id="paint0_radial_1890_7400" cx="0" cy="0" r="1" gradientUnits="userSpaceOnUse" gradientTransform="translate(71 71) rotate(90) scale(67.5 82.5462)">
<stop stop-color="white"/>
<stop offset="1" stop-color="#A7D3F2"/>
</radialGradient>
</defs>
</svg>
