<svg xmlns="http://www.w3.org/2000/svg" viewBox="0 0 89.074 106.613"><defs><style>.cls-1{fill:#fff}</style></defs><g id="Header_Manager_Illus" data-name="Header Manager Illus"><path class="cls-1" d="M17.447 99.605s4.728 6.033 10.108 6.196 12.39-3.26 12.39-3.26 5.543-2.767 13.043.165 8.152 2.769 10.597 2.769 7.663 1.793 18.586-13.858a58.91 58.91 0 0 0 6.521-13.37s-14.999-6.52-14.836-22.987c0 0-.652-11.25 12.227-19.564 0 0-12.553-18.097-37.171-6.195a8.672 8.672 0 0 1-7.663 0S19.403 16.784 4.241 39.935a47.28 47.28 0 0 0-.978 35.052c7.01 19.238 14.184 24.618 14.184 24.618Z"/><path class="cls-1" d="M44.836 25.099S43.206 4.393 66.52.806c0 0 1.601 22.704-21.684 24.293Z"/></g></svg>