<svg xmlns="http://www.w3.org/2000/svg" viewBox="0 0 804.8 779.5"><defs><style>.cls-1{fill:#fff}.cls-2{fill:#b7d3f8}.cls-3{fill:#e9fafd}.cls-4{fill:#b2e3fa}.cls-5{fill:#b4dff9}.cls-6{fill:#e3f7fc}.cls-7{fill:#b5f4fa}.cls-11{fill:#b6f5fa}.cls-12{fill:#ddf8fc}.cls-13{fill:#b6f6fb}.cls-14{fill:#b3c2f7}.cls-15{fill:#cfe2fc}.cls-16{fill:#aacbf9}.cls-21{fill:#e7f6fc}.cls-22{fill:#b5edfa}.cls-23{fill:#dff8fc}</style></defs><g id="Header_DSC_Ilus" data-name="Header DSC Ilus"><path class="cls-1" d="m214.6 778.2-53.7-31v-61.8l53.7 31.2v61.6zM214.6 716.6l-53.7-31.2 53.4-30.8 53.9 31-53.6 31z"/><path class="cls-1" d="m268.5 747.2-53.9 31v-61.6l53.9-31.2v61.8z"/><path class="cls-2" d="m214.6 778.2-53.7-31.1v-61.8l53.7 31.1v61.8z"/><path class="cls-3" d="m214.6 716.4-53.7-31.1 53.4-30.8 53.9 31.1-53.6 30.8z"/><path class="cls-4" d="m268.5 747.1-53.9 31.1v-61.8l53.9-31.1v61.8z"/><path class="cls-5" d="m100.8 664.2-53.9-31.1v-61.8l53.9 31.1v61.8z"/><path class="cls-6" d="m100.8 602.4-53.9-31.1 53.6-30.8 53.7 31.1-53.4 30.8z"/><path class="cls-7" d="m154.7 633.1-53.9 31.1v-61.8l53.9-31.1v61.8z"/><path class="cls-1" d="m383.4 765.3-53.9-31v-61.8l53.9 31.1v61.7zM383.4 703.4l-53.9-30.9 53.6-30.9 53.7 31-53.4 30.8zM437.3 734.3l-53.9 31v-61.7l53.9-31.1v61.8z"/><path style="fill:#66def8" d="m162.1 543.2-53.7-31v-61.8l53.7 31.2v61.6z"/><path style="fill:#c1fafd" d="m162.1 481.6-53.7-31.2 53.4-30.8 53.9 31-53.6 31z"/><path style="fill:#6ff5fc" d="m216 512.2-53.9 31v-61.6l53.9-31.2v61.8z"/><path class="cls-11" d="M54.9 436.1 1 405v-61.7l53.9 31v61.8z"/><path class="cls-12" d="M54.9 374.3 1 343.3l53.6-31 53.8 31.2-53.5 30.8z"/><path class="cls-13" d="m108.7 405-53.8 31.1v-61.8l53.8-31V405z"/><g><path class="cls-1" d="m430.4 629.7-53.9-31.1V537l53.9 30.9v61.8z"/><path class="cls-1" d="M430.4 567.9 376.5 537l53.6-31 53.7 31.1-53.4 30.8zM484.3 598.6l-53.9 31.1v-61.8l53.9-30.9v61.6z"/></g><g><path class="cls-2" d="m430.4 629.6-53.9-31v-61.8l53.9 31.1v61.7z"/><path class="cls-3" d="m430.4 567.9-53.9-31.1 53.6-30.8 53.7 31-53.4 30.9z"/><path class="cls-4" d="m484.3 598.6-53.9 31v-61.7l53.9-31.1v61.8z"/></g><g><path class="cls-5" d="m316.4 515.6-53.7-31v-61.8l53.7 31.1v61.7z"/><path class="cls-6" d="m316.4 453.8-53.7-31 53.4-30.8 53.9 31-53.6 30.8z"/><path class="cls-7" d="m370.3 484.6-53.9 31v-61.7l53.9-31.1v61.8z"/></g><g><path class="cls-1" d="m599 616.8-53.7-31.2V524l53.7 31v61.8zM599 555l-53.7-31.2 53.4-30.8 53.9 31.1L599 555zM652.9 585.6 599 616.8V555l53.9-31v61.6z"/></g><g><path class="cls-14" d="m719.8 736.9-53.9-31v-61.8l53.9 31.1v61.7z"/><path class="cls-15" d="m719.8 675.2-53.9-31.1 53.4-30.8 53.9 30.9-53.4 31z"/><path class="cls-16" d="m773.5 705.9-53.7 31v-61.7l53.7-31.1v61.8z"/></g><g><path class="cls-1" d="m668.3 494.1-53.7-31v-61.8l53.7 31.1v61.7zM668.3 432.4l-53.7-31.1 53.4-30.8 53.9 30.9-53.6 31zM722.2 463.1l-53.9 31v-61.7l53.9-31.1v61.8z"/></g><g><path class="cls-5" d="m554.5 380.1-53.9-31.2v-61.6l53.9 31v61.8z"/><path class="cls-6" d="m554.5 318.3-53.9-31 53.6-31 53.7 31.1-53.4 30.9z"/><path class="cls-7" d="m608.4 348.9-53.9 31.2v-61.8l53.9-31v61.6z"/></g><g><path style="fill:#53b2f7" d="m723.8 367.2-53.9-31.1v-61.7l53.9 31v61.8z"/><path style="fill:#c7f9fe" d="m723.8 305.4-53.9-31 53.6-31 53.7 31.2-53.4 30.8z"/><path style="fill:#6df1fb" d="m777.7 336.1-53.9 31.1v-61.8l53.9-31v61.7z"/></g><g><path class="cls-11" d="M508.6 151.9 454.7 121V59.1l53.9 31.2v61.6z"/><path class="cls-12" d="m508.6 90.3-53.9-31.2 53.5-30.8 53.9 31-53.5 31z"/><path class="cls-13" d="m562.4 121-53.8 30.9V90.3l53.8-31.2V121z"/></g><g><path class="cls-1" d="M783.2 450v.1l21.6 12.4v-.1L783.2 450z"/><path style="fill:#acccf9" d="m804.8 400.8-21.6-12.5V450l21.6 12.4v-61.6z"/><path class="cls-21" d="m804.8 375.9-21.6 12.4 21.6 12.4v-24.8zM804.8 400.7l-21.6-12.4 21.6 12.5v-.1z"/></g><g><path class="cls-22" d="m209.1 407.7-53.7-31.1v-61.7l53.7 31v61.8z"/><path class="cls-23" d="m209.1 345.9-53.7-31 53.4-31 53.9 31.2-53.6 30.8z"/><path class="cls-13" d="m263 376.6-53.9 31.1v-61.8l53.9-31v61.7z"/><path class="cls-22" d="m377.9 394.7-53.8-31.1v-61.7l53.8 31v61.8z"/><path class="cls-23" d="m377.9 332.9-53.8-31 53.4-30.9 53.8 31.1-53.4 30.8z"/><path class="cls-13" d="m431.6 363.6-53.7 31.1v-61.8l53.7-31v61.7z"/><g><path class="cls-22" d="m447.2 272.2-53.9-31.1v-61.8l53.9 31.1v61.8z"/><path class="cls-23" d="m447.2 210.4-53.9-31.1 53.4-30.9 53.9 31.2-53.4 30.8z"/><path class="cls-13" d="m500.9 241.1-53.7 31.1v-61.8l53.7-31.1v61.8z"/></g><g><path class="cls-22" d="m804.7 31.6-27-15.6v61.8l27 15.5V31.6z"/><path class="cls-23" d="m804.7.5-27 15.5 27 15.6V.5z"/></g></g><g><path style="fill:none" d="m804.8 543.4-15.8 9.1 15.8-9.1z"/><path class="cls-14" d="M735.2 521.5v61.8l53.8 31v-61.8l-53.8-31z"/><path class="cls-15" d="M804.8 543.4v-43.5l-16.2-9.3-53.4 30.9 53.8 31 15.8-9.1z"/><path class="cls-16" d="M789 552.5v61.8l15.8-9.1v-61.8l-15.8 9.1z"/></g></g></svg>