<svg xmlns="http://www.w3.org/2000/svg" viewBox="0 0 842.8 778.8"><defs><style>.cls-1{fill:#fff}.cls-2{fill:#b3c2f7}.cls-3{fill:#e7f6fc}.cls-4{fill:#aacbf9}.cls-8{fill:#b6f6fb}.cls-9{fill:#ddf8fc}.cls-10{fill:#b6f5fa}.cls-11{fill:#b7d3f8}.cls-12{fill:#e9fafd}.cls-13{fill:#b2e3fa}.cls-14{fill:#53b2f7}.cls-15{fill:#c7f9fe}.cls-16{fill:#6df1fb}</style></defs><g id="Header_DSC_Ilus" data-name="Header DSC Ilus"><path class="cls-1" d="m211.5 630.7-53.7-31.2v-61.6l53.7 30.9v61.9zM211.5 568.8l-53.7-31.1 53.4-30.8 53.9 31.1-53.6 30.8z"/><path class="cls-1" d="m265.4 599.5-53.9 31.2v-61.9l53.9-30.9v61.6z"/><path class="cls-2" d="m332.3 750.8-53.9-31V658l53.9 31.1v61.7z"/><path class="cls-3" d="M332.3 689.1 278.4 658l53.4-30.9 53.9 31-53.4 31z"/><path class="cls-4" d="m386 719.8-53.7 31v-61.7L386 658v61.8z"/><path class="cls-1" d="m280.8 508-53.7-31v-61.8l53.7 31.1V508z"/><path class="cls-1" d="m280.8 446.3-53.7-31.1 53.4-30.9 53.9 31-53.6 31zM334.7 477l-53.9 31v-61.7l53.9-31.1V477z"/><path class="cls-2" d="m401.5 628.2-53.8-31v-61.8l53.8 31v61.8z"/><path class="cls-3" d="m401.5 566.4-53.8-31 53.4-31 53.9 31.2-53.5 30.8z"/><path class="cls-4" d="m455.3 597.2-53.8 31v-61.8l53.8-31v61.8z"/><path style="fill:#b4dff9" d="m167 394-53.9-31.2v-61.6l53.9 31V394z"/><path style="fill:#e3f7fc" d="m167 332.2-53.9-31 53.6-31 53.7 31.1-53.4 30.9z"/><path style="fill:#b5f4fa" d="M220.9 362.8 167 394v-61.8l53.9-31v61.6z"/><path class="cls-8" d="M59.7 286.1 5.8 254.9v-61.8l53.9 31.2v61.8z"/><path class="cls-9" d="M59.7 224.3 5.8 193.1l53.5-30.8 53.8 31.1-53.4 30.9z"/><path class="cls-10" d="m113.4 254.9-53.7 31.2v-61.8l53.7-31.2v61.8z"/><path class="cls-8" d="m121.1 166-53.9-31.2V73l53.9 31.2V166z"/><path class="cls-9" d="M121.1 104.2 67.2 73l53.4-30.8 53.9 31.1-53.4 30.9z"/><path class="cls-10" d="M174.8 134.8 121.1 166v-61.8L174.8 73v61.8z"/><g><path class="cls-1" d="m449.6 495-53.9-31v-61.8l53.9 31.1V495z"/><path class="cls-1" d="m449.6 433.3-53.9-31.1 53.6-30.8 53.7 31-53.4 30.9zM503.5 464l-53.9 31v-61.7l53.9-31.1V464z"/></g><g><path class="cls-2" d="m570.2 615.2-53.7-31.1v-61.6l53.7 30.9v61.8z"/><path class="cls-3" d="m570.2 553.4-53.7-30.9 53.4-31 53.8 31.1-53.5 30.8z"/><path class="cls-4" d="m624 584.1-53.8 31.1v-61.8l53.8-30.9v61.6z"/></g><g><path class="cls-11" d="m449.6 495-53.9-31.1v-61.7l53.9 31V495z"/><path class="cls-12" d="m449.6 433.2-53.9-31.1 53.6-30.9 53.7 31.2-53.4 30.8z"/><path class="cls-13" d="M503.5 463.9 449.6 495v-61.8l53.9-31v61.7z"/></g><g><path class="cls-14" d="m335.6 381-53.7-31.1v-61.8l53.7 31.1V381z"/><path class="cls-15" d="m335.6 319.2-53.7-31.1 53.4-30.9 53.9 31.2-53.6 30.8z"/><path class="cls-16" d="M389.5 349.9 335.6 381v-61.8l53.9-31.1v61.8z"/></g><g><path class="cls-1" d="m496.6 359.5-53.9-31.2v-61.6l53.9 31v61.8z"/><path class="cls-1" d="m496.6 297.7-53.9-31 53.6-31 53.7 31.1-53.4 30.9z"/><path class="cls-1" d="m550.5 328.3-53.9 31.2v-61.8l53.9-31v61.6z"/></g><g><path class="cls-2" d="m617.2 479.7-53.9-31.1v-61.8l53.9 31.1v61.8z"/><path class="cls-3" d="m617.2 417.9-53.9-31.1 53.6-30.8 53.8 31.1-53.5 30.8z"/><path class="cls-4" d="m671 448.6-53.8 31.1v-61.8l53.8-31.1v61.8z"/></g><g><path class="cls-11" d="m496.6 359.3-53.9-31v-61.8l53.9 31.2v61.6z"/><path class="cls-12" d="m496.6 297.7-53.9-31.2 53.6-30.8 53.7 31-53.4 31z"/><path class="cls-13" d="m550.5 328.3-53.9 31v-61.6l53.9-31.2v61.8z"/></g><g><path class="cls-1" d="m665.2 346.5-53.7-31.1v-61.7l53.7 31v61.8z"/><path class="cls-1" d="m665.2 284.7-53.7-31 53.4-31 53.9 31.2-53.6 30.8z"/><path class="cls-1" d="m719.1 315.4-53.9 31.1v-61.8l53.9-31v61.7z"/></g><g><path class="cls-8" d="m444.1 124.5-53.9-31V31.7l53.9 31.1v61.7z"/><path class="cls-9" d="m444.1 62.8-53.9-31.1L443.7.9l53.8 30.9-53.4 31z"/><path class="cls-10" d="m497.8 93.5-53.7 31V62.8l53.7-31.1v61.8z"/></g><g><path class="cls-14" d="m787.5 464.2-53.7-31.1v-61.8l53.7 31.1v61.8z"/><path class="cls-15" d="m787.5 402.4-53.7-31.1 53.4-30.8 53.9 31.1-53.6 30.8z"/><path class="cls-16" d="m841.4 433.1-53.9 31.1v-61.8l53.9-31.1v61.8z"/></g><g><path class="cls-1" d="M49.3 686.5 0 658.1V715l49.3-28.5zM49.8 686.4 0 715.1v61.7l49.8-28.6v-61.8z"/></g><g><path class="cls-9" d="M43.8 316 0 290.6v50.7L43.8 316z"/><path class="cls-10" d="M44.1 315.8 0 341.3v61.8l44.1-25.6v-61.7z"/></g><g><path class="cls-2" d="M0 557v61.8l42.9 24.7v-61.7L0 557z"/><path class="cls-3" d="m42.9 581.8 53.4-31-53.7-30.9L0 544.4V557l42.9 24.8z"/><path class="cls-4" d="M42.9 581.8v61.7l53.9-31v-61.8l-53.9 31.1z"/></g></g></svg>