<svg xmlns="http://www.w3.org/2000/svg" viewBox="0 0 1920 1298"><defs><style>.cls-10,.cls-11,.cls-12,.cls-13,.cls-14,.cls-15,.cls-16,.cls-17,.cls-21,.cls-22,.cls-23,.cls-5,.cls-6,.cls-7,.cls-8,.cls-9{isolation:isolate}.cls-2{fill:#eff7fc}.cls-3{mix-blend-mode:hard-light}.cls-10,.cls-11,.cls-12,.cls-13,.cls-14,.cls-15,.cls-16,.cls-17,.cls-21,.cls-22,.cls-23,.cls-4,.cls-5,.cls-6,.cls-7,.cls-8,.cls-9{opacity:.34}.cls-5{fill:#fff}.cls-6{fill:#1846ae}.cls-7{fill:#69a8f8}.cls-8{fill:#085ed5}.cls-9{fill:#1c2fb7}.cls-10{fill:#6e94ff}.cls-11{fill:#073fdd}.cls-12{fill:#5fcfe9}.cls-13{fill:#0b9dc4}.cls-14,.cls-18{fill:#145da4}.cls-15,.cls-19{fill:#64bbf1}.cls-16,.cls-20{fill:#0a7ecd}.cls-17{fill:#10749b}.cls-21{fill:#0c8b91}.cls-22{fill:#5ae2e2}.cls-23{fill:#0cbcbc}</style></defs><g style="isolation:isolate"><g id="Manager"><path class="cls-2" d="M-69.8 694.8v62.7l54.6 31.4 54.6-31.4v-62.7l-54.6 31.6-54.6-31.6z"/><path class="cls-2" d="m38.9 695-54.4-31.4-54.3 31.2 54.6 31.4L38.9 695zM86.4 557.5h.2l-54.5-31.4-54.3 31.2v62.6l54.6 31.6L87 619.9v-62.6l-.5.3-.1-.1zM148.9 544.3v62.5l54.4 31.6 54.6-31.6v-62.5l-54.6 31.4-54.4-31.4z"/><path class="cls-2" d="m203 512.9-54.1 31.3 54.4 31.5 54.3-31.2-54.6-31.6zM379.8 666.2l-54.6-31.4-54.1 31.2v62.7l54.6 31.4 54.4-31.4V666l-54.4 31.6 54.1-31.4zM33.7 381.7v-62.4l-54.5 31.4 54.1-31.3-54.6-31.5-54.1 31.4v62.4l54.6 31.6 54.5-31.6zM328.2 482.6v-62.7l-54.6 31.6 54.3-31.4-54.6-31.4-54.2 31.2v62.7l54.5 31.4 54.6-31.4zM450 542l-54.6-31.6-54.1 31.4v62.7l54.6 31.4 54.5-31.4v-62.7l-54.5 31.4L450 542zM212.8 366.9v-62.5l-54.6 31.4 54.1-31.2-54.4-31.6-54.3 31.4v62.5l54.6 31.5 54.6-31.5zM103.9 257.5v-62.6l-.4.2L49 163.6l-54.2 31.3v62.6l54.6 31.6 54.5-31.6zM498.8 407l-54.5-31.6-54.3 31.2.2.1-.2.1v62.6l54.6 31.4 54.6-31.4v-62.6L476 420.2l22.8-13.2zM621.1 528.8l-54.6-31.5-54.1 31.4v62.5l54.4 31.5 54.6-31.5v-62.5l-54.6 31.4 54.3-31.3zM383.7 353.7v-62.6l-.4.2-54.5-31.4-54.2 31.2v62.6l54.5 31.6 54.6-31.6zM166.2 135.8V73.2l-54.6 31.5 54.3-31.4-54.6-31.4L57 73.2v62.6l54.6 31.4 54.6-31.4zM614.2 359.9l-54.3 31.3v62.6l54.6 31.6 54.6-31.6v-62.6l-.5.2-54.4-31.5zM546.4 269.4 492 238l-54.3 31.3v62.6l54.6 31.6 54.6-31.6v-62.6l-.5.3-.1-.1.1-.1zM717.5 256.5l-54.6-31.6-54.2 31.4v62.5l54.5 31.5 54.6-31.5v-62.5l-54.6 31.4 54.3-31.2zM839.6 378.3l-54.5-31.5-54.2 31.2v62.7l54.6 31.5 54.5-31.5V378l-.4.3zM493.5 93.9V31.2l-54.4 31.6 54.1-31.4L438.6 0l-54.1 31.2v62.7l54.6 31.4 54.4-31.4z"/><g class="cls-3"><g class="cls-4"><path class="cls-5" d="m-15.2 726.2-54.6-31.4 54.3-31.2L39 695ZM39.4 757.5l-54.6 31.4v-62.5l54.6-31.6Z"/></g><g class="cls-4"><path class="cls-5" d="m32.5 651.5-54.6-31.6v-62.4l54.6 31.4Z"/><path class="cls-5" d="m32.5 588.9-54.6-31.4 54.3-31.4 54.4 31.5Z"/><path class="cls-5" d="m87.1 619.9-54.6 31.6v-62.6l54.6-31.4Z"/></g><g class="cls-4"><path class="cls-6" d="m32.5 651.3-54.6-31.4v-62.6l54.6 31.6Z"/><path class="cls-7" d="m32.5 588.9-54.6-31.6 54.3-31.2 54.4 31.4Z"/><path class="cls-8" d="m87.1 619.9-54.6 31.4v-62.4l54.6-31.6Z"/></g><g class="cls-4"><path class="cls-5" d="M203.4 638.4 149 606.8v-62.5l54.4 31.4Z"/><path class="cls-5" d="M203.4 575.7 149 544.2l54.1-31.3 54.6 31.6Z"/><path class="cls-5" d="m258 606.8-54.6 31.6v-62.7l54.6-31.4Z"/></g><g class="cls-4"><path class="cls-9" d="m325.8 760.1-54.6-31.4V666l54.6 31.6Z"/><path class="cls-10" d="M325.8 697.6 271.2 666l54.1-31.2 54.6 31.4Z"/><path class="cls-11" d="m380.2 728.7-54.4 31.4v-62.5l54.4-31.6Z"/></g><g class="cls-4"><path class="cls-12" d="m-20.7 350.7-54.6-31.4 54.1-31.4 54.6 31.5Z"/><path class="cls-13" d="m33.7 381.7-54.4 31.6v-62.6l54.4-31.4Z"/></g><g class="cls-4"><path class="cls-5" d="m273.7 514-54.5-31.4v-62.7l54.5 31.6ZM273.7 451.5l-54.5-31.6 54.1-31.2 54.7 31.4Z"/><path class="cls-5" d="M328.3 482.6 273.7 514v-62.5l54.6-31.6Z"/></g><g class="cls-4"><path class="cls-9" d="m396 635.9-54.6-31.4v-62.7l54.6 31.4Z"/><path class="cls-10" d="m396 573.2-54.6-31.4 54.2-31.4 54.6 31.6Z"/><path class="cls-11" d="M450.5 604.5 396 635.9v-62.7l54.5-31.4Z"/></g><g class="cls-4"><path class="cls-14" d="m158.3 398.5-54.7-31.6v-62.5l54.7 31.4Z"/><path class="cls-15" d="m158.3 335.8-54.7-31.4 54.3-31.4 54.5 31.6Z"/><path class="cls-16" d="m212.9 366.9-54.6 31.6v-62.7l54.6-31.4Z"/></g><g class="cls-4"><path class="cls-17" d="m49.5 289.1-54.6-31.6v-62.6l54.6 31.5Z"/><path class="cls-12" d="m49.5 226.4-54.6-31.5L49 163.6l54.6 31.6Z"/><path class="cls-13" d="m103.9 257.5-54.4 31.6v-62.7l54.4-31.5Z"/></g><g class="cls-4"><path class="cls-5" d="m444.8 500.8-54.7-31.4v-62.6l54.7 31.6ZM444.8 438.4l-54.7-31.6 54.3-31.2 54.5 31.4Z"/><path class="cls-5" d="m499.4 469.4-54.6 31.4v-62.4l54.6-31.6Z"/></g><g class="cls-4"><path class="cls-9" d="m567 622.7-54.5-31.5v-62.5l54.5 31.4Z"/><path class="cls-10" d="m567 560.1-54.5-31.4 54.2-31.4 54.6 31.5Z"/><path class="cls-11" d="M621.6 591.2 567 622.7v-62.6l54.6-31.4Z"/></g><g class="cls-4"><path class="cls-6" d="m444.8 500.8-54.7-31.5v-62.5l54.7 31.4Z"/><path class="cls-7" d="m444.8 438.2-54.7-31.6 54.3-31.2 54.5 31.6Z"/><path class="cls-8" d="m499.4 469.3-54.6 31.5v-62.6l54.6-31.4Z"/></g><path class="cls-18" d="m329.2 385.3-54.5-31.6v-62.6l54.5 31.6Z"/><path class="cls-19" d="m329.2 322.7-54.5-31.6 54.2-31.2 54.6 31.5Z"/><path class="cls-20" d="m383.8 353.7-54.6 31.6v-62.6l54.6-31.6Z"/><g class="cls-4"><path class="cls-21" d="m111.7 167.2-54.6-31.4V73.2l54.6 31.5Z"/><path class="cls-22" d="M111.7 104.7 57.1 73.2l54.3-31.3L166 73.3Z"/><path class="cls-23" d="m166.3 135.8-54.6 31.4v-62.5l54.6-31.5Z"/></g><g class="cls-4"><path class="cls-5" d="m492.4 363.5-54.6-31.6v-62.5l54.6 31.4Z"/><path class="cls-5" d="m492.4 300.8-54.6-31.4 54.3-31.4 54.4 31.6ZM547 331.9l-54.6 31.6v-62.7l54.6-31.4Z"/></g><g class="cls-4"><path class="cls-9" d="M614.6 485.4 560 453.8v-62.6l54.6 31.5Z"/><path class="cls-10" d="M614.6 422.7 560 391.2l54.3-31.3 54.6 31.6Z"/><path class="cls-11" d="m669.2 453.8-54.6 31.6v-62.7l54.6-31.5Z"/></g><g class="cls-4"><path class="cls-6" d="m492.4 363.3-54.6-31.4v-62.6l54.6 31.5Z"/><path class="cls-7" d="m492.4 300.8-54.6-31.5 54.3-31.3 54.4 31.4Z"/><path class="cls-8" d="m547 331.9-54.6 31.4v-62.5l54.6-31.5Z"/></g><g class="cls-4"><path class="cls-5" d="m663.3 350.3-54.4-31.5v-62.5l54.4 31.4Z"/><path class="cls-5" d="m663.3 287.7-54.4-31.4 54.1-31.4 54.6 31.6Z"/><path class="cls-5" d="m717.9 318.8-54.6 31.5v-62.6l54.6-31.4Z"/></g><path d="m785.7 472.2-54.6-31.5V378l54.6 31.6Z" style="fill:#1c2fb7"/><path d="M785.7 409.6 731.1 378l54.1-31.2 54.6 31.5Z" style="fill:#6e94ff"/><path d="m840.2 440.7-54.5 31.5v-62.6l54.5-31.6Z" style="fill:#073fdd"/><g class="cls-4"><path class="cls-17" d="m439.2 125.3-54.6-31.4V31.2l54.6 31.6Z"/><path class="cls-12" d="m439.2 62.8-54.6-31.6L438.7 0l54.6 31.4Z"/><path class="cls-13" d="m493.6 93.9-54.4 31.4V62.8l54.4-31.6Z"/></g></g><g><path class="cls-2" d="m1321.2 1172.6-54.1 31.2V1266.6l54.4 31.4 54.6-31.4V1203.8l-.4.2-54.5-31.4zM1205.8 1057l-54.2 31.3v62.6l54.6 31.6 54.6-31.6v-62.6l-.5.2-54.5-31.5zM1438 1190.8v62.7l54.6 31.4 54.6-31.4v-62.7l-54.6 31.6-54.6-31.6z"/><path class="cls-2" d="m1546.8 1191-54.5-31.4-54.3 31.2 54.6 31.4 54.2-31.2zM1268 934.5l-54.1 31.3v62.6l54.4 31.4 54.6-31.4v-62.6l-54.6 31.5 54.3-31.4-54.6-31.4zM1214.2 919.7v-62.5l-54.6 31.4 54.3-31.3-54.6-31.5-54.3 31.4v62.5l54.6 31.5 54.6-31.5zM1594.3 1053.5h.1l-54.4-31.4-54.3 31.2v62.6l54.6 31.6 54.6-31.6v-62.6l-.5.3-.1-.1zM1479 937.9l-54.6-31.4-54.1 31.3 54.4 31.4 54.3-31.3z"/><path class="cls-2" d="m1479.3 937.8-54.6 31.5-54.4-31.5v62.6l54.4 31.4 54.6-31.4v-62.6zM1370.6 890.9v-62.5l-54.6 31.4 54.3-31.2-54.6-31.6-54.2 31.4v62.5l54.5 31.5 54.6-31.5zM1656.7 1040.3v62.5l54.5 31.6 54.6-31.6v-62.5l-54.6 31.4-54.5-31.4z"/><path class="cls-2" d="m1710.9 1008.9-54.2 31.3 54.5 31.5 54.3-31.2-54.6-31.6zM1887.7 1162.2l-54.6-31.4-54.2 31.2v62.7l54.6 31.4 54.5-31.4V1162l-54.5 31.6 54.2-31.4zM1541.5 877.7v-62.4l-54.4 31.4 54.1-31.3-54.6-31.5-54.1 31.4v62.4l54.6 31.6 54.4-31.6zM1836 978.6v-62.7l-54.6 31.6 54.3-31.4-54.6-31.4-54.1 31.2v62.7l54.4 31.4 54.6-31.4zM1957.9 1038l-54.6-31.6-54.1 31.4v62.7l54.6 31.4 54.4-31.4v-62.7l-54.4 31.4 54.1-31.2zM1720.6 862.9v-62.5l-54.6 31.4 54.2-31.2-54.5-31.6-54.3 31.4v62.5l54.6 31.5 54.6-31.5zM1611.7 753.5v-62.6l-.4.2-54.5-31.5-54.1 31.3v62.6l54.6 31.6 54.4-31.6zM2006.6 903l-54.4-31.6-54.3 31.2.1.1-.1.1v62.6l54.6 31.4 54.6-31.4v-62.6l-23.2 13.4 22.7-13.2zM1891.5 849.7v-62.6l-.4.2-54.5-31.4-54.1 31.2v62.6l54.4 31.6 54.6-31.6zM1674.1 631.8v-62.6l-54.6 31.5 54.2-31.4-54.6-31.4-54.2 31.3v62.6l54.6 31.4 54.6-31.4zM2001.4 589.9v-62.7l-54.5 31.6 54.1-31.4-54.6-31.4-54.1 31.2v62.7l54.6 31.4 54.5-31.4z"/><g class="cls-3"><g class="cls-4"><path class="cls-5" d="m1321.6 1298-54.5-31.4V1204l54.5 31.5Z"/><path class="cls-5" d="m1321.6 1235.5-54.5-31.5 54.2-31.3 54.6 31.4ZM1376.2 1266.6l-54.6 31.4v-62.5l54.6-31.5Z"/></g><g class="cls-4"><path class="cls-6" d="m1321.6 1298-54.5-31.6v-62.6l54.5 31.6Z"/><path class="cls-7" d="m1321.6 1235.4-54.5-31.6 54.2-31.2 54.6 31.5Z"/><path class="cls-8" d="m1376.2 1266.4-54.6 31.6v-62.6l54.6-31.6Z"/></g><g class="cls-4"><path class="cls-14" d="m1206.2 1182.5-54.6-31.6v-62.6l54.6 31.5Z"/><path class="cls-15" d="m1206.2 1119.8-54.6-31.5 54.3-31.3 54.4 31.6Z"/><path class="cls-16" d="m1260.8 1150.9-54.6 31.6v-62.7l54.6-31.5Z"/></g><g class="cls-4"><path class="cls-5" d="m1492.7 1284.9-54.6-31.4v-62.7l54.6 31.6ZM1492.7 1222.2l-54.6-31.4 54.3-31.2 54.4 31.4ZM1547.3 1253.5l-54.6 31.4v-62.5l54.6-31.6Z"/></g><path d="m1268.4 1059.8-54.5-31.4v-62.6l54.5 31.5Z" style="fill:#10749b"/><path d="m1268.4 997.3-54.5-31.5 54.2-31.3 54.6 31.4Z" style="fill:#5fcfe9"/><path d="m1323 1028.4-54.6 31.4v-62.5l54.6-31.5Z" style="fill:#0b9dc4"/><g class="cls-4"><path class="cls-21" d="m1159.6 951.2-54.6-31.5v-62.5l54.6 31.4Z"/><path class="cls-22" d="m1159.6 888.6-54.6-31.4 54.3-31.4 54.6 31.5Z"/><path class="cls-23" d="m1214.2 919.7-54.6 31.5v-62.6l54.6-31.4Z"/></g><g class="cls-4"><path class="cls-5" d="m1540.3 1147.5-54.6-31.6v-62.4l54.6 31.4Z"/><path class="cls-5" d="m1540.3 1084.9-54.6-31.4 54.3-31.4 54.5 31.5ZM1594.9 1115.9l-54.6 31.6v-62.6l54.6-31.4Z"/></g><g class="cls-4"><path class="cls-6" d="m1540.3 1147.3-54.6-31.4v-62.6l54.6 31.6Z"/><path class="cls-7" d="m1540.3 1084.9-54.6-31.6 54.3-31.2 54.5 31.4Z"/><path class="cls-8" d="m1594.9 1115.9-54.6 31.4v-62.4l54.6-31.6Z"/></g><g class="cls-4"><path class="cls-14" d="m1424.8 1031.8-54.5-31.4v-62.6l54.5 31.5Z"/><path class="cls-15" d="m1424.8 969.2-54.5-31.4 54.2-31.3 54.6 31.4Z"/><path class="cls-16" d="m1479.4 1000.4-54.6 31.4v-62.5l54.6-31.5Z"/></g><g class="cls-4"><path class="cls-17" d="m1316 922.4-54.4-31.5v-62.5l54.4 31.4Z"/><path class="cls-12" d="m1316 859.8-54.4-31.4 54.1-31.4 54.6 31.6Z"/><path class="cls-13" d="m1370.6 890.9-54.6 31.5v-62.6l54.6-31.4Z"/></g><g class="cls-4"><path class="cls-5" d="m1711.3 1134.4-54.5-31.6v-62.5l54.5 31.4ZM1711.3 1071.7l-54.5-31.5 54.2-31.3 54.6 31.6Z"/><path class="cls-5" d="m1765.9 1102.8-54.6 31.6v-62.7l54.6-31.4Z"/></g><g class="cls-4"><path class="cls-9" d="m1833.6 1256.1-54.6-31.4V1162l54.6 31.6Z"/><path class="cls-10" d="M1833.6 1193.6 1779 1162l54.2-31.2 54.6 31.4Z"/><path class="cls-11" d="m1888.1 1224.7-54.5 31.4v-62.5l54.5-31.6Z"/></g><g class="cls-4"><path class="cls-17" d="m1487.1 909.3-54.6-31.6v-62.4l54.6 31.4Z"/><path class="cls-12" d="m1487.1 846.7-54.6-31.4 54.1-31.4 54.6 31.5Z"/><path class="cls-13" d="m1541.6 877.7-54.5 31.6v-62.6l54.5-31.4Z"/></g><g class="cls-4"><path class="cls-5" d="m1781.5 1010-54.5-31.4v-62.7l54.5 31.6Z"/><path class="cls-5" d="m1781.5 947.5-54.5-31.6 54.2-31.2 54.6 31.4Z"/><path class="cls-5" d="m1836.1 978.6-54.6 31.4v-62.5l54.6-31.6Z"/></g><g class="cls-4"><path class="cls-9" d="m1903.9 1131.9-54.6-31.4v-62.7l54.6 31.4Z"/><path class="cls-10" d="m1903.9 1069.2-54.6-31.4 54.1-31.4 54.6 31.6Z"/><path class="cls-11" d="m1958.3 1100.5-54.4 31.4v-62.7l54.4-31.4Z"/></g><g class="cls-4"><path class="cls-14" d="m1666.1 894.5-54.6-31.6v-62.5l54.6 31.4Z"/><path class="cls-15" d="m1666.1 831.8-54.6-31.4 54.3-31.4 54.4 31.6Z"/><path class="cls-16" d="m1720.7 862.9-54.6 31.6v-62.7l54.6-31.4Z"/></g><g class="cls-4"><path class="cls-17" d="m1557.3 785.1-54.6-31.6v-62.6l54.6 31.5Z"/><path class="cls-12" d="m1557.3 722.4-54.6-31.5 54.2-31.3 54.6 31.6Z"/><path class="cls-13" d="m1611.8 753.5-54.5 31.6v-62.7l54.5-31.5Z"/></g><g class="cls-4"><path class="cls-5" d="m1952.6 996.8-54.6-31.4v-62.6l54.6 31.6Z"/><path class="cls-5" d="m1952.6 934.4-54.6-31.6 54.3-31.2 54.4 31.4Z"/></g><g class="cls-4"><path class="cls-6" d="m1952.6 996.8-54.6-31.5v-62.5l54.6 31.4Z"/><path class="cls-7" d="m1952.6 934.2-54.6-31.6 54.3-31.2 54.4 31.6Z"/></g><path class="cls-18" d="m1837 881.3-54.4-31.6v-62.6l54.4 31.6Z"/><path class="cls-19" d="m1837 818.7-54.4-31.6 54.1-31.2 54.6 31.5Z"/><path class="cls-20" d="m1891.6 849.7-54.6 31.6v-62.6l54.6-31.6Z"/><g class="cls-4"><path class="cls-21" d="m1619.5 663.2-54.6-31.4v-62.6l54.6 31.5Z"/><path class="cls-22" d="m1619.5 600.7-54.6-31.5 54.3-31.3 54.6 31.4Z"/><path class="cls-23" d="m1674.1 631.8-54.6 31.4v-62.5l54.6-31.5Z"/></g><g class="cls-4"><path class="cls-17" d="m1947 621.3-54.6-31.4v-62.7l54.6 31.6Z"/><path class="cls-12" d="m1947 558.8-54.6-31.6 54.2-31.2 54.6 31.4Z"/></g></g></g></g></g></svg>