<svg xmlns="http://www.w3.org/2000/svg" viewBox="0 0 297 212"><defs><linearGradient id="linear-gradient" x1="37.83" y1="47.42" x2="84.46" y2="47.42" gradientUnits="userSpaceOnUse"><stop offset=".01" stop-color="#6f90bf"/><stop offset="1" stop-color="#5413ff"/></linearGradient><linearGradient id="linear-gradient-2" x1="141.22" y1="113.43" x2="258.23" y2="113.43" gradientTransform="rotate(-10.1 198.438 116.186)" gradientUnits="userSpaceOnUse"><stop offset="0" stop-color="#e2e8f4"/><stop offset="1" stop-color="#b6c6e3"/></linearGradient><linearGradient id="linear-gradient-3" x1="168.44" y1="57.75" x2="246.62" y2="57.75" gradientTransform="rotate(-10.1 208.165 57.741)" gradientUnits="userSpaceOnUse"><stop offset="0" stop-color="#0ff"/><stop offset="1" stop-color="#0094ff"/></linearGradient><style>.cls-7{fill:#fff}.cls-8{fill:#529bea}.cls-9{fill:#0094ff}.cls-10{fill:#4b78ba}</style></defs><g id="Header_Manager_Illus" data-name="Header Manager Illus"><path d="m159.1 16.5 11.5 1.1 1.2-11.9L122.6.8a25.4 25.4 0 0 0-16.9 4.7l-7 5 25.2 2.5-3.8 38.4s-.8 3.3-4.4 9.3h-.1l-.3.6a10.2 10.2 0 0 0-.6 2.5 8 8 0 1 0 16 1.6c.3-2.2.6-5.6.6-5.6l4.5-45.7 11.4 1.1-4.4 44.9s-.1 1.8-.2 2.7A11.6 11.6 0 0 0 153 75.6a11.8 11.8 0 0 0 12.1-7.7 10.1 10.1 0 0 1-3 .2 7.9 7.9 0 0 1-7.2-8.8l.6-6.8Z" style="fill:#00caed"/><path style="fill:#557cff" d="m179.1 128.6-1.6-9.1-86.2 15.6.1.3h-.9l-1.3 59.7-20.7-28.9-22.4 4.1 1.6 9.1 16.7-3 24.5 34.1v.2l9.2.1 1.5-67.8 79.5-14.4z"/><path style="fill:url(#linear-gradient)" d="m78.6 22.7 5.9 6.9V19.5H37.9l23 29.4-23.1 26.4h9.6l37.1.1V65.3l-5.9 6.9-33.1-.1 20.9-24.5.3-.1-.1-.1h.1-.2L47.7 22.7h30.9z"/><path d="M157.8 23.5h79.4a6.6 6.6 0 0 1 6.6 6.6v143.5a34.1 34.1 0 0 1-34.1 34.1h-24.4a34.1 34.1 0 0 1-34.1-34.1V30.1a6.6 6.6 0 0 1 6.6-6.6Z" transform="rotate(10.1 198.419 115.9)" style="fill:url(#linear-gradient-2)"/><path d="M157.9 23.5h79.4a6.6 6.6 0 0 1 6.6 6.6v143.5a34.1 34.1 0 0 1-34.1 34.1h-24.3a34.1 34.1 0 0 1-34.1-34.1V30.1a6.6 6.6 0 0 1 6.6-6.6Z" transform="rotate(10.1 198.419 115.9)" style="fill:none;stroke:#b6c6e3;stroke-miterlimit:10;stroke-width:4.13px"/><path transform="rotate(10.1 208.13 58.02)" style="fill:url(#linear-gradient-3)" d="M170.8 41.2h73.5v33.15h-73.5z"/><path class="cls-7" transform="rotate(10.1 235.437 37.929)" d="M223.8 34.4h22.3v6.89h-22.3z"/><circle class="cls-8" cx="201.6" cy="93.8" r="10.6"/><ellipse class="cls-8" cx="167.7" cy="110.8" rx="4.2" ry="6" transform="rotate(-79.9 167.544 110.78)"/><ellipse class="cls-8" cx="182.6" cy="113.4" rx="4.2" ry="6" transform="rotate(-79.9 182.542 113.489)"/><ellipse class="cls-8" cx="197.6" cy="116.1" rx="4.2" ry="6" transform="rotate(-79.9 197.53 116.089)"/><ellipse class="cls-8" cx="212.6" cy="118.8" rx="4.2" ry="6" transform="rotate(-79.9 212.528 118.799)"/><ellipse class="cls-8" cx="227.6" cy="121.5" rx="4.2" ry="6" transform="rotate(-79.9 227.466 121.458)"/><ellipse class="cls-8" cx="165.1" cy="125.2" rx="4.2" ry="6" transform="rotate(-79.9 165.005 125.21)"/><ellipse class="cls-8" cx="180.1" cy="127.9" rx="4.2" ry="6" transform="rotate(-79.9 179.944 127.869)"/><ellipse class="cls-8" cx="195" cy="130.6" rx="4.2" ry="6" transform="rotate(-79.9 194.941 130.579)"/><ellipse class="cls-8" cx="210" cy="133.2" rx="4.2" ry="6" transform="rotate(-79.9 209.88 133.238)"/><ellipse class="cls-8" cx="225" cy="135.9" rx="4.2" ry="6" transform="rotate(-79.9 224.877 135.948)"/><g><ellipse class="cls-8" cx="162.5" cy="139.7" rx="4.2" ry="6" transform="rotate(-79.9 162.357 139.649)"/><ellipse class="cls-8" cx="177.5" cy="142.3" rx="4.2" ry="6" transform="matrix(.18 -.98 .98 .18 6.13 291.99)"/><ellipse class="cls-8" cx="192.5" cy="145" rx="4.2" ry="6" transform="rotate(-79.9 192.293 145.018)"/><ellipse class="cls-8" cx="207.4" cy="147.7" rx="4.2" ry="6" transform="rotate(-79.9 207.29 147.728)"/><ellipse class="cls-8" cx="222.4" cy="150.4" rx="4.2" ry="6" transform="rotate(-79.9 222.339 150.378)"/></g><g><ellipse class="cls-8" cx="159.9" cy="154.1" rx="4.2" ry="6" transform="rotate(-79.9 159.818 154.079)"/><ellipse class="cls-8" cx="174.9" cy="156.8" rx="4.2" ry="6" transform="rotate(-79.9 174.816 156.789)"/><ellipse class="cls-8" cx="189.9" cy="159.5" rx="4.2" ry="6" transform="matrix(.18 -.98 .98 .18 -.52 318.32)"/><ellipse class="cls-8" cx="204.9" cy="162.1" rx="4.2" ry="6" transform="rotate(-79.9 204.752 162.158)"/><ellipse class="cls-8" cx="219.8" cy="164.8" rx="4.2" ry="6" transform="rotate(-79.9 219.69 164.818)"/></g><g><ellipse class="cls-8" cx="157.3" cy="168.6" rx="4.2" ry="6" transform="rotate(-79.9 157.23 168.569)"/><ellipse class="cls-8" cx="172.3" cy="171.2" rx="4.2" ry="6" transform="rotate(-79.9 172.167 171.228)"/><ellipse class="cls-8" cx="187.3" cy="173.9" rx="4.2" ry="6" transform="rotate(-79.9 187.165 173.938)"/><ellipse class="cls-8" cx="202.3" cy="176.6" rx="4.2" ry="6" transform="rotate(-79.9 202.103 176.598)"/><ellipse class="cls-8" cx="217.3" cy="179.3" rx="4.2" ry="6" transform="rotate(-79.9 217.101 179.308)"/></g><g><path class="cls-9" d="M109.4 80.3h8.4v38.61h-8.4z"/><path class="cls-9" transform="rotate(90 113.6 99.6)" d="M109.4 80.3h8.4v38.61h-8.4z"/></g><path class="cls-7" d="m168.4 67.6 72.3 12.9-4 2.3-65.1-12-3.2-3.2z"/><path class="cls-10" d="m174.2 34.9 3.7.7-6.3 35.2-3.2-3.2 5.8-32.7zM246.7 47.8l-3.6-.7-6.4 35.7 4.1-2.3 5.9-32.7z"/><path class="cls-10" transform="rotate(-79.9 209.947 43.3)" d="M208.2 6.5h3.7v73.49h-3.7z"/></g></svg>