<svg width="65" height="65" viewBox="0 0 65 65" fill="none" xmlns="http://www.w3.org/2000/svg">
<g clip-path="url(#clip0_2328_1596)">
<path d="M64.5103 32.4997C64.5103 14.821 50.1789 0.48966 32.5003 0.489661C14.8216 0.489662 0.490232 14.821 0.490233 32.4997C0.490234 50.1784 14.8216 64.5098 32.5003 64.5098C50.179 64.5098 64.5103 50.1784 64.5103 32.4997Z" fill="white"/>
<path d="M0.816351 32.5002C0.816351 26.2338 2.67455 20.1082 6.15597 14.8978C9.63739 9.68753 14.5857 5.62659 20.375 3.22855C26.1644 0.830504 32.5349 0.20307 38.6809 1.42558C44.8269 2.64809 50.4723 5.66565 54.9033 10.0967C59.3343 14.5277 62.3519 20.1731 63.5744 26.3191C64.7969 32.4651 64.1695 38.8355 61.7714 44.6249C59.3734 50.4143 55.3124 55.3626 50.1021 58.844C44.8918 62.3254 38.7662 64.1836 32.4998 64.1836C24.0997 64.1741 16.0464 60.833 10.1067 54.8933C4.16697 48.9535 0.825851 40.9003 0.816351 32.5002ZM0.163085 32.5002C0.163085 38.8958 2.0596 45.1478 5.6128 50.4655C9.166 55.7833 14.2163 59.9279 20.1251 62.3754C26.0338 64.8229 32.5356 65.4633 38.8083 64.2156C45.081 62.9678 50.8429 59.8881 55.3653 55.3657C59.8876 50.8433 62.9674 45.0815 64.2151 38.8088C65.4628 32.5361 64.8225 26.0343 62.375 20.1255C59.9275 14.2167 55.7828 9.16644 50.4651 5.61324C45.1473 2.06004 38.8954 0.163527 32.4998 0.163527C28.2533 0.163527 24.0483 0.999938 20.1251 2.62501C16.2018 4.25008 12.637 6.63198 9.63428 9.63472C6.63154 12.6375 4.24964 16.2022 2.62457 20.1255C0.999497 24.0488 0.163084 28.2537 0.163085 32.5002Z" fill="#1E4489"/>
<path d="M36.5999 42.2051L30.0587 37.5329L23.5176 32.8614L30.0587 28.1899L36.5999 23.5177" fill="white"/>
<path d="M36.5999 42.2051L30.0587 37.5329L23.5176 32.8614L30.0587 28.1899L36.5999 23.5177" stroke="#1E4489" stroke-width="3" stroke-linecap="round" stroke-linejoin="round"/>
</g>
<defs>
<clipPath id="clip0_2328_1596">
<rect width="65" height="65" fill="white" transform="translate(0 65) rotate(-90)"/>
</clipPath>
</defs>
</svg>
