<svg width="65" height="65" viewBox="0 0 65 65" fill="none" xmlns="http://www.w3.org/2000/svg">
<g clip-path="url(#clip0_2334_1431)">
<path d="M0.489661 32.5003C0.48966 50.1789 14.821 64.5103 32.4997 64.5103C50.1784 64.5103 64.5098 50.179 64.5098 32.5003C64.5098 14.8216 50.1784 0.490234 32.4997 0.490233C14.821 0.490232 0.489662 14.8216 0.489661 32.5003Z" fill="white"/>
<path d="M64.1836 32.4998C64.1836 38.7662 62.3254 44.8918 58.844 50.1022C55.3626 55.3125 50.4143 59.3734 44.6249 61.7714C38.8356 64.1695 32.4651 64.7969 26.3191 63.5744C20.1731 62.3519 14.5277 59.3343 10.0967 54.9033C5.66566 50.4723 2.64811 44.8269 1.4256 38.6809C0.203085 32.5349 0.830519 26.1645 3.22856 20.3751C5.62661 14.5857 9.68755 9.6374 14.8979 6.15598C20.1082 2.67457 26.2338 0.816365 32.5002 0.816365C40.9003 0.825865 48.9536 4.16698 54.8933 10.1067C60.833 16.0465 64.1741 24.0997 64.1836 32.4998ZM64.8369 32.4998C64.8369 26.1042 62.9404 19.8522 59.3872 14.5345C55.834 9.21674 50.7837 5.07207 44.8749 2.62458C38.9662 0.177096 32.4644 -0.463279 26.1917 0.784439C19.919 2.03216 14.1571 5.11193 9.63474 9.63429C5.11237 14.1567 2.0326 19.9185 0.78488 26.1912C-0.462839 32.4639 0.177534 38.9657 2.62502 44.8745C5.07251 50.7833 9.21719 55.8336 14.5349 59.3868C19.8527 62.94 26.1046 64.8365 32.5002 64.8365C36.7467 64.8365 40.9517 64.0001 44.8749 62.375C48.7982 60.7499 52.363 58.368 55.3657 55.3653C58.3685 52.3625 60.7504 48.7978 62.3754 44.8745C64.0005 40.9512 64.8369 36.7463 64.8369 32.4998Z" fill="#1E4489"/>
<path d="M28.4001 22.7949L34.9413 27.4671L41.4824 32.1386L34.9413 36.8101L28.4001 41.4823" fill="white"/>
<path d="M28.4001 22.7949L34.9413 27.4671L41.4824 32.1386L34.9413 36.8101L28.4001 41.4823" stroke="#1E4489" stroke-width="3" stroke-linecap="round" stroke-linejoin="round"/>
</g>
<defs>
<clipPath id="clip0_2334_1431">
<rect width="65" height="65" fill="white" transform="translate(65) rotate(90)"/>
</clipPath>
</defs>
</svg>
