<svg id="Layer_1" data-name="Layer 1" xmlns="http://www.w3.org/2000/svg" xmlns:xlink="http://www.w3.org/1999/xlink" viewBox="0 0 1338.5 589.3">
  <defs>
    <style>
      .cls-1, .cls-2, .cls-7, .cls-8 {
        fill-rule: evenodd;
      }

      .cls-1 {
        fill: url(#radial-gradient);
      }

      .cls-2 {
        fill: #23b4d7;
        opacity: 0.4;
      }

      .cls-3 {
        fill: #a2d5f3;
      }

      .cls-4, .cls-7 {
        fill: #d1e1f2;
      }

      .cls-5 {
        fill: #eaf5fd;
      }

      .cls-12, .cls-6, .cls-8, .cls-9 {
        fill: none;
        stroke-miterlimit: 10;
      }

      .cls-12, .cls-6, .cls-8 {
        stroke: #1d4588;
      }

      .cls-6, .cls-8, .cls-9 {
        stroke-width: 2px;
      }

      .cls-9 {
        stroke: #1c4688;
      }

      .cls-10 {
        fill: #fff;
      }

      .cls-11 {
        fill: #1d4588;
      }

      .cls-12 {
        stroke-width: 3.38px;
      }
    </style>
    <radialGradient id="radial-gradient" cx="171.59" cy="279.43" r="176" gradientUnits="userSpaceOnUse">
      <stop offset="0.53" stop-color="#00caed" stop-opacity="0.7"/>
      <stop offset="1" stop-color="#fff" stop-opacity="0"/>
    </radialGradient>
  </defs>
  <polygon class="cls-1" points="5.5 191.9 166.1 94.1 334.3 182.4 337.7 360.7 169.5 464.8 5.5 368.4 5.5 191.9"/>
  <polygon class="cls-2" points="821.6 228.3 1202.5 3.7 1333 79.1 1333 229 952.1 454.4 821.6 379 821.6 228.3"/>
  <polygon class="cls-3" points="1205.4 281.3 1095.6 217.9 1095.6 91.2 1205.4 154.6 1205.4 281.3"/>
  <polygon class="cls-4" points="1205.4 154.6 1095.6 91.2 1205.4 27.8 1315.1 91.2 1205.4 154.6"/>
  <polygon class="cls-5" points="1315.1 217.2 1205.4 281.3 1205.4 154.6 1315.1 91.2 1315.1 217.2"/>
  <polygon class="cls-6" points="1315.1 91.2 1205.4 27.8 1095.6 91.2 1095.6 217.9 1205.4 281.3 1315.1 217.2 1315.1 91.2"/>
  <path class="cls-7" d="M1287.8,206a5.5,5.5,0,0,1-2.1,4c-6.5,4.6-13.8,9.4-21.7,14s-15.9,8.6-22.7,11.7c-1.3.5-2.2-.2-2.2-1.6V191a5.5,5.5,0,0,1,2.1-4,248.5,248.5,0,0,1,21.4-14.1,199,199,0,0,1,23.1-11.6c1.2-.5,2.1.2,2.1,1.6Z"/>
  <path class="cls-7" d="M1252.7,161.8v0Z"/>
  <path class="cls-7" d="M1280.2,147.4c-.5-9.8-7.8-13.6-16.7-8.5s-16.2,17.4-16.8,27.8v20.7l5.3-3V164.7c.4-7.2,5.4-15.5,11.5-19.1s11-.9,11.4,5.8c0,.3.1.6.1.9v18.8l5.3-3.1V148.6A4.9,4.9,0,0,0,1280.2,147.4Z"/>
  <path class="cls-8" d="M1285.4,161.3l-5.5,2.4V147.4c-.6-9.8-7.9-13.6-16.8-8.5s-16.2,17.4-16.8,27.8v16.4l-5.5,3.9a5.5,5.5,0,0,0-2.1,4v43.1c0,1.4,1,2.1,2.2,1.6,6.8-3.1,14.4-6.9,22.8-11.7s15.1-9.4,21.6-14a5.6,5.6,0,0,0,2.2-4V162.9C1287.5,161.5,1286.6,160.8,1285.4,161.3Zm-23.2,11.6c-3.7,2.2-7.2,4.4-10.6,6.6V164.7c.4-7.2,5.4-15.5,11.5-19.1s11.1-.9,11.5,5.8v14.8C1270.7,168.2,1266.6,170.4,1262.2,172.9Z"/>
  <polygon class="cls-3" points="1075.7 356.9 966 293.5 966 166.8 1075.7 230.2 1075.7 356.9"/>
  <polygon class="cls-4" points="1075.7 230.2 966 166.8 1075.7 103.4 1185.5 166.8 1075.7 230.2"/>
  <polygon class="cls-5" points="1185.5 292.9 1075.7 356.9 1075.7 230.2 1185.5 166.8 1185.5 292.9"/>
  <polygon class="cls-6" points="1185.5 166.8 1075.7 103.4 966 166.8 966 293.5 1075.7 356.9 1185.5 292.9 1185.5 166.8"/>
  <path class="cls-7" d="M1158.2,281.6a5.5,5.5,0,0,1-2.1,4c-6.5,4.6-13.8,9.4-21.7,14a238,238,0,0,1-22.8,11.7c-1.2.5-2.1-.2-2.1-1.6V266.6a5.5,5.5,0,0,1,2.1-4,248.5,248.5,0,0,1,21.4-14.1,199,199,0,0,1,23.1-11.6c1.2-.5,2.1.2,2.1,1.6Z"/>
  <path class="cls-7" d="M1123.1,237.4v0Z"/>
  <path class="cls-7" d="M1150.6,223c-.5-9.8-7.8-13.6-16.7-8.5s-16.3,17.4-16.8,27.9c0,.4-.1.8-.1,1.2V263l5.4-3V240.3c.4-7.2,5.4-15.5,11.4-19.1s11.1-.9,11.5,5.8v19.7l5.4-3.1V224.2C1150.7,223.8,1150.6,223.4,1150.6,223Z"/>
  <path class="cls-8" d="M1155.7,236.9l-5.4,2.4V224.2a4.9,4.9,0,0,0-.1-1.2c-.5-9.8-7.8-13.6-16.7-8.5s-16.2,17.4-16.8,27.9v16.3l-5.5,3.9a5.5,5.5,0,0,0-2.1,4v43.1c0,1.4.9,2.1,2.2,1.6a237.4,237.4,0,0,0,22.7-11.7c7.9-4.6,15.2-9.4,21.7-14a5.5,5.5,0,0,0,2.1-4V238.5C1157.8,237.1,1156.9,236.4,1155.7,236.9Zm-23.1,11.6c-3.7,2.2-7.2,4.4-10.6,6.6V240.3c.4-7.2,5.4-15.5,11.5-19.1s11-.9,11.4,5.8c0,.3.1.6.1.9v14C1141.1,243.8,1137,246,1132.6,248.5Z"/>
  <polygon class="cls-3" points="951.3 433 841.5 369.6 841.5 242.9 951.3 306.2 951.3 433"/>
  <polygon class="cls-4" points="951.3 306.2 841.5 242.9 951.3 179.5 1061 242.9 951.3 306.2"/>
  <polygon class="cls-5" points="1061 368.9 951.3 433 951.3 306.2 1061 242.9 1061 368.9"/>
  <polygon class="cls-6" points="1061 242.9 951.3 179.5 841.5 242.9 841.5 369.6 951.3 433 1061 368.9 1061 242.9"/>
  <path class="cls-7" d="M1033.8,357.7a5.6,5.6,0,0,1-2.2,4c-6.5,4.6-13.7,9.4-21.6,14s-16,8.6-22.8,11.7c-1.2.5-2.2-.2-2.2-1.6V342.7a5.5,5.5,0,0,1,2.1-4,248.5,248.5,0,0,1,21.4-14.1,199.6,199.6,0,0,1,23.2-11.6c1.2-.5,2.1.2,2.1,1.6Z"/>
  <path class="cls-7" d="M998.7,313.5a.7.7,0,0,0-.1.5v-.5Z"/>
  <path class="cls-7" d="M1026.2,299.1c-.6-9.8-7.9-13.6-16.8-8.5s-16.2,17.4-16.8,27.8v20.7l5.3-3V316.4c.4-7.2,5.4-15.6,11.5-19.1s11.1-.9,11.5,5.8v19.7l5.3-3.1V299.1Z"/>
  <path class="cls-8" d="M1031.3,313l-5.5,2.4V299.1c-.6-9.8-7.9-13.6-16.8-8.5s-16.2,17.4-16.7,27.8a6.2,6.2,0,0,0-.1,1.3v15.1l-5.4,3.9a5.5,5.5,0,0,0-2.1,4v43.1c0,1.4.9,2.1,2.1,1.6,6.8-3.1,14.5-6.9,22.8-11.7s15.2-9.4,21.6-14a5.3,5.3,0,0,0,2.2-4V314.6C1033.4,313.2,1032.5,312.5,1031.3,313Zm-23.1,11.6c-3.7,2.2-7.3,4.4-10.7,6.6v-14a1.9,1.9,0,0,1,.1-.8c.3-7.2,5.3-15.6,11.4-19.1s11.1-.9,11.5,5.8v14.8C1016.6,319.9,1012.5,322.1,1008.2,324.6Z"/>
  <polygon class="cls-3" points="165.8 399.4 56 336.1 56 209.3 165.8 272.7 165.8 399.4"/>
  <polygon class="cls-4" points="165.8 272.7 56 209.3 165.8 146 275.5 209.3 165.8 272.7"/>
  <polygon class="cls-5" points="275.5 335.4 165.8 399.4 165.8 272.7 275.5 209.3 275.5 335.4"/>
  <polygon class="cls-6" points="275.5 209.3 165.8 146 56 209.3 56 336.1 165.8 399.4 275.5 335.4 275.5 209.3"/>
  <polygon class="cls-5" points="736.1 135.1 736.1 500.3 370.9 500.3 220.7 305.7 370.9 135.1 736.1 135.1"/>
  <polygon class="cls-9" points="736.1 133.7 736.1 498.9 370.9 498.9 220.7 304.4 370.9 133.7 736.1 133.7"/>
  <rect class="cls-10" x="386.7" y="156.3" width="320" height="320.04"/>
  <g>
    <path class="cls-3" d="M437.3,201h-8.4v-4h21.5v4H442v24h-4.7Z"/>
    <path class="cls-3" d="M475.2,216v9h-4.6v-7.9l-2.9-3.1h-9.1v11H454V197h17l4.1,4.2v8.6l-2.9,2.9Zm-16.6-5.9h10.3l1.6-1.6v-5.9l-1.6-1.6H458.6Z"/>
    <path class="cls-3" d="M487.6,210.6,478.2,197h5.2l6.8,9.9,6.7-9.9h5.2l-9.3,13.8,9.7,14.2h-5.2l-7.1-10.5L483,225h-5.2Z"/>
    <path class="cls-3" d="M535,208.1l-1,5.7h5.1v3.9h-5.7l-1.3,7.3h-4.4l1.2-7.3h-5.1l-1.3,7.3H518l1.3-7.3h-4.1v-3.9H520l1-5.7h-5v-3.9h5.6l1.2-7.2h4.5l-1.2,7.2h5.1l1.3-7.2H537l-1.3,7.2h4.2v3.9Zm-4.4,0h-5.2l-1,5.7h5.2Z"/>
    <path class="cls-3" d="M554.8,220.9v-3.4h4.6v1.9L561,221h7.3l1.6-1.6v-7.2l-2.5,2.5h-8.9l-4.1-4.1v-9.4l4.1-4.2h11.9l4.2,4.2v19.7l-4.2,4.1H558.9ZM567,210.7l2.9-3v-5.1l-1.6-1.6h-7.7l-1.6,1.6v6.5l1.6,1.6Z"/>
    <path class="cls-3" d="M579.2,220.9v-7.8l2.5-2.5-2.1-2.1v-7.3l4.1-4.2h11.7l4.2,4.2v7.3l-2.2,2.1,2.6,2.5v7.8l-4.2,4.1H583.3Zm14.5.1,1.6-1.6v-5l-1.6-1.6h-8.3l-1.6,1.6v5l1.6,1.6Zm-.4-12.1,1.6-1.6v-4.7l-1.6-1.6h-7.5l-1.6,1.6v4.7l1.6,1.6Z"/>
    <path class="cls-3" d="M603.8,220.9V217h4.6v2.5L610,221h7.6l1.5-1.5v-5.1l-1.5-1.4h-8v-4h8l1.5-1.5v-4.9l-1.5-1.6h-7.4l-1.6,1.6v2.5H604v-3.9l4.1-4.2h11.5l4.2,4.2v7.6l-2.2,2.2,2.2,2.1v7.8l-4.2,4.1H607.9Z"/>
    <path class="cls-3" d="M627.7,219.2l14.5-13.6v-3l-1.6-1.6h-6.8l-1.6,1.6v2.6h-4.6v-4l4.1-4.2h11l4.1,4.2V207l-14.3,13.2v.9H647V225H627.7Z"/>
    <path class="cls-3" d="M650.4,223.5v-2.3l1.5-1.5h2.5l1.5,1.5v2.3l-1.5,1.5h-2.5Z"/>
    <path class="cls-3" d="M659.4,223.5v-2.3l1.6-1.5h2.5l1.5,1.5v2.3l-1.5,1.5H661Z"/>
  </g>
  <g>
    <path class="cls-3" d="M437.3,268.8h-8.4v-4h21.5v4H442v24h-4.7Z"/>
    <path class="cls-3" d="M475.2,283.8v9h-4.6v-7.9l-2.9-3.1h-9.1v11H454v-28h17l4.1,4.2v8.6l-2.9,2.9Zm-16.6-5.9h10.3l1.6-1.6v-5.9l-1.6-1.6H458.6Z"/>
    <path class="cls-3" d="M487.6,278.4l-9.4-13.6h5.2l6.8,9.9,6.7-9.9h5.2l-9.3,13.8,9.7,14.2h-5.2l-7.1-10.5L483,292.8h-5.2Z"/>
    <path class="cls-3" d="M535,275.9l-1,5.7h5.1v3.9h-5.7l-1.3,7.3h-4.4l1.2-7.3h-5.1l-1.3,7.3H518l1.3-7.3h-4.1v-3.9H520l1-5.7h-5V272h5.6l1.2-7.2h4.5l-1.2,7.2h5.1l1.3-7.2H537l-1.3,7.2h4.2v3.9Zm-4.4,0h-5.2l-1,5.7h5.2Z"/>
    <path class="cls-3" d="M554,287l14.4-13.6v-3l-1.5-1.6H560l-1.6,1.6V273h-4.6v-4l4.1-4.2H569l4.1,4.2v5.8L558.7,288v.9h14.5v3.9H554Z"/>
    <path class="cls-3" d="M577.2,288.4V269.3l4.5-4.5h12.1l4.4,4.5v19.1l-4.4,4.4H581.7Zm14.4.4,2-1.9V270.8l-2-2h-7.8l-1.9,2v16.1l1.9,1.9Z"/>
    <path class="cls-3" d="M602.6,288.7v-4.1h4.6v2.7l1.6,1.5h7.5l1.6-1.5v-6.9l-1.6-1.5H603V264.8h19v4H607.6v6.1h10.8l4.1,4.1v9.7l-4.1,4.1H606.7Z"/>
    <path class="cls-3" d="M639.1,269.6v-.8H624.9v-4h19v4.9l-11.2,23.1h-4.9Z"/>
    <path class="cls-3" d="M643.4,291.3V289l1.6-1.5h2.5L649,289v2.3l-1.5,1.5H645Z"/>
    <path class="cls-3" d="M652.5,291.3V289l1.5-1.5h2.6l1.5,1.5v2.3l-1.5,1.5H654Z"/>
  </g>
  <g>
    <path class="cls-11" d="M437.3,338h-8.4v-4h21.5v4H442v24h-4.7Z"/>
    <path class="cls-11" d="M475.2,353v9h-4.6v-7.9l-2.9-3.2h-9.1V362H454V334h17l4.1,4.1v8.6l-2.9,3Zm-16.6-5.9h10.3l1.6-1.6v-6l-1.6-1.6H458.6Z"/>
    <path class="cls-11" d="M487.6,347.6,478.2,334h5.2l6.8,9.9,6.7-9.9h5.2l-9.3,13.7,9.7,14.3h-5.2l-7.1-10.5L483,362h-5.2Z"/>
    <path class="cls-11" d="M535,345.1l-1,5.7h5.1v3.9h-5.7l-1.3,7.3h-4.4l1.2-7.3h-5.1l-1.3,7.3H518l1.3-7.3h-4.1v-3.9H520l1-5.7h-5v-3.9h5.6l1.2-7.2h4.5l-1.2,7.2h5.1l1.3-7.2H537l-1.3,7.2h4.2v3.9Zm-4.4,0h-5.2l-1,5.7h5.2Z"/>
    <path class="cls-11" d="M554.6,357.6V338.5L559,334h12.1l4.5,4.5v19.1l-4.5,4.4H559Zm14.4.4,1.9-1.9V339.9L569,338h-7.8l-2,1.9v16.2l2,1.9Z"/>
    <path class="cls-11" d="M592.2,356.7H578.6v-5.3L590.8,334h6v18.7h3.4v4h-3.4V362h-4.6Zm.1-3.9V338.9h-.2l-9,13v.9Z"/>
    <path class="cls-11" d="M603,357.9v-7.8l2.5-2.5-2.1-2.1v-7.4l4.1-4.1h11.8l4.1,4.1v7.4l-2.1,2.1,2.5,2.5v7.8l-4.1,4.1H607.1Zm14.6.1,1.6-1.6v-5.1l-1.6-1.5h-8.4l-1.6,1.5v5.1l1.6,1.6Zm-.4-12.1,1.6-1.6v-4.7l-1.6-1.6h-7.6l-1.6,1.6v4.7l1.6,1.6Z"/>
    <path class="cls-11" d="M640.2,356.7H626.6v-5.3L638.9,334h5.9v18.7h3.4v4h-3.4V362h-4.6Zm.2-3.9V338.9h-.2l-9.1,13v.9Z"/>
    <path class="cls-11" d="M650.2,360.5v-2.3l1.5-1.5h2.6l1.5,1.5v2.3l-1.5,1.5h-2.6Z"/>
    <path class="cls-11" d="M659.3,360.5v-2.3l1.5-1.5h2.6l1.4,1.5v2.3l-1.4,1.5h-2.6Z"/>
  </g>
  <g>
    <path class="cls-3" d="M437.3,409.8h-8.4v-4h21.5v4H442v24h-4.7Z"/>
    <path class="cls-3" d="M475.2,424.8v9h-4.6v-7.9l-2.9-3.1h-9.1v11H454v-28h17l4.1,4.2v8.6l-2.9,2.9Zm-16.6-5.9h10.3l1.6-1.6v-5.9l-1.6-1.6H458.6Z"/>
    <path class="cls-3" d="M487.6,419.4l-9.4-13.6h5.2l6.8,9.9,6.7-9.9h5.2l-9.3,13.8,9.7,14.2h-5.2l-7.1-10.5L483,433.8h-5.2Z"/>
    <path class="cls-3" d="M535,416.9l-1,5.7h5.1v3.9h-5.7l-1.3,7.3h-4.4l1.2-7.3h-5.1l-1.3,7.3H518l1.3-7.3h-4.1v-3.9H520l1-5.7h-5V413h5.6l1.2-7.2h4.5l-1.2,7.2h5.1l1.3-7.2H537l-1.3,7.2h4.2v3.9Zm-4.4,0h-5.2l-1,5.7h5.2Z"/>
    <path class="cls-3" d="M554.8,429.7v-3.4h4.6v1.9l1.6,1.6h7.3l1.6-1.6V421l-2.5,2.5h-8.9l-4.1-4.1V410l4.1-4.2h11.9l4.2,4.2v19.7l-4.2,4.1H558.9ZM567,419.5l2.9-3v-5.1l-1.6-1.6h-7.7l-1.6,1.6v6.5l1.6,1.6Z"/>
    <path class="cls-3" d="M578.7,428l14.5-13.6v-3l-1.6-1.6h-6.8l-1.6,1.6V414h-4.6v-4l4.1-4.2h11l4.1,4.2v5.8L583.5,429v.9H598v3.9H578.7Z"/>
    <path class="cls-3" d="M601.6,429.7v-4.1h4.6v2.7l1.6,1.5h7.5l1.6-1.5v-6.9l-1.6-1.5H602V405.8h19v4H606.6v6.1h10.8l4.1,4.1v9.7l-4.1,4.1H605.7Z"/>
    <path class="cls-3" d="M638.1,410.6v-.8H623.9v-4h19v4.9l-11.2,23.1h-4.9Z"/>
    <path class="cls-3" d="M642.4,432.3V430l1.6-1.5h2.5L648,430v2.3l-1.5,1.5H644Z"/>
    <path class="cls-3" d="M651.5,432.3V430l1.5-1.5h2.6l1.5,1.5v2.3l-1.5,1.5H653Z"/>
  </g>
  <path class="cls-3" d="M1028.4,583.9Z"/>
  <g>
    <g>
      <path class="cls-3" d="M738.2,359.3a99,99,0,1,0,98.9,99A98.9,98.9,0,0,0,738.2,359.3Zm0,176a77,77,0,1,1,77-77A77,77,0,0,1,738.2,535.3Z"/>
      <path class="cls-3" d="M821.3,498l68.2,49.7A16.9,16.9,0,1,1,869.6,575l-68.2-49.7Z"/>
    </g>
    <path class="cls-12" d="M888,547l-62.6-45.7a98.8,98.8,0,1,0-19.9,27.3l62.6,45.7A16.9,16.9,0,1,0,888,547ZM736.7,534.5a77,77,0,1,1,77-77A77,77,0,0,1,736.7,534.5Z"/>
  </g>
</svg>
