<svg width="100%" height="100%" viewBox="0 0 142 142" fill="none" xmlns="http://www.w3.org/2000/svg"><path d="M71 142c39.212 0 71-31.788 71-71S110.212 0 71 0 0 31.788 0 71s31.788 71 71 71Z" fill="#7198E7"/><path d="M71 136c35.899 0 65-29.101 65-65 0-35.898-29.101-65-65-65C35.102 6 6 35.102 6 71c0 35.899 29.102 65 65 65Z" fill="url(#a)"/><path d="M43.25 37.937a6.933 6.933 0 1 0 0-13.867 6.933 6.933 0 0 0 0 13.867ZM20.62 112.063l41.028-3.588a.974.974 0 0 0 .867-.945V65.8a.78.78 0 0 0-.867-.789L17.621 68.86a2.903 2.903 0 0 0-2.6 2.834v32.388a64.416 64.416 0 0 0 5.6 7.982Zm1.638-34.026 32.804-2.877a1.305 1.305 0 1 1 .225 2.6l-32.82 2.86h-.113a1.302 1.302 0 0 1-.113-2.6l.017.017Zm0 13.208 32.804-2.912a1.304 1.304 0 1 1 .225 2.6l-32.82 2.895h-.113a1.302 1.302 0 0 1-.113-2.6l.017.017ZM95.146 58.173a10.836 10.836 0 0 0 10.009-6.687 10.841 10.841 0 0 0-2.349-11.806 10.833 10.833 0 1 0-7.66 18.493Zm0-19.5a8.667 8.667 0 1 1 0 17.334 8.667 8.667 0 0 1 0-17.334ZM114.966 23.134h-.502a6.932 6.932 0 0 0-6.801 8.286 6.935 6.935 0 0 0 9.454 5.053 6.932 6.932 0 0 0 4.28-6.406v-.086a64.661 64.661 0 0 0-6.431-6.847Z" fill="#5070D4"/><path d="M124.509 34.106a82.123 82.123 0 0 0-1.578-2.201 8.661 8.661 0 0 1-6.143 6.506 8.667 8.667 0 1 1-3.693-16.906c-.685-.59-1.387-1.153-2.098-1.734a10.83 10.83 0 0 0-7.025 7.64 10.817 10.817 0 0 0 2.632 10.04 10.825 10.825 0 0 0 17.905-3.362v.017ZM95.145 54.273a6.934 6.934 0 1 0 0-13.867 6.934 6.934 0 0 0 0 13.867ZM43.267 41.837a10.833 10.833 0 1 0 0-21.666 10.833 10.833 0 0 0 0 21.666Zm0-19.5a8.667 8.667 0 1 1 0 17.334 8.667 8.667 0 0 1 0-17.334ZM112.253 109.939v-38.28a2.902 2.902 0 0 0-2.6-2.834l-44.027-3.848a.78.78 0 0 0-.866.788v41.765a.972.972 0 0 0 .866.945l44.027 3.848a2.336 2.336 0 0 0 1.842-.601 2.34 2.34 0 0 0 .758-1.783Zm-7.332-16.319h-.121l-32.803-2.877a1.305 1.305 0 1 1 .225-2.6l32.803 2.877a1.3 1.3 0 1 1-.104 2.6Zm0-13.208h-.121l-32.803-2.877a1.305 1.305 0 1 1 .225-2.6l32.803 2.868a1.3 1.3 0 1 1-.104 2.6v.009Z" fill="#5070D4"/><defs><radialGradient id="a" cx="0" cy="0" r="1" gradientUnits="userSpaceOnUse" gradientTransform="matrix(0 67.5 -82.5462 0 71 71)"><stop stop-color="#fff"/><stop offset="1" stop-color="#A7D3F2"/></radialGradient></defs></svg>