<svg viewBox="0 0 142 142" fill="none" xmlns="http://www.w3.org/2000/svg"><path d="M71 142c39.212 0 71-31.788 71-71S110.212 0 71 0 0 31.788 0 71s31.788 71 71 71Z" fill="#7198E7"/><path d="M71 136c35.899 0 65-29.101 65-65 0-35.898-29.101-65-65-65C35.102 6 6 35.102 6 71c0 35.899 29.102 65 65 65Z" fill="url(#a)"/><path d="M112.184 73.496a6.877 6.877 0 0 0 2.688-4.572 6.865 6.865 0 0 0-1.362-5.126l17.932-16.71c-.174-.433-.338-.866-.512-1.3L112.6 62.846a6.932 6.932 0 0 0-4.879-1.734l-2.713-18.98a10.4 10.4 0 0 0 .538-20.193l1.048-5.313-1.17-.754-1.152 5.807a10.4 10.4 0 0 0-11.111 13.867l-17.827 7.878a6.864 6.864 0 0 0-3.112-3.198L84.356 7.387c-.434-.096-.867-.165-1.292-.252L71 39.8l-.26-.078a6.864 6.864 0 0 0-8.285 4.966l-24.163-5.027a7.348 7.348 0 0 0 0-.762A6.872 6.872 0 0 0 31.472 32h-.338l-1.638-11.024c-.4.33-.78.676-1.162 1.014l1.5 10.192a6.873 6.873 0 0 0 .433 13.433L26.974 84a6.881 6.881 0 0 0-3.216 13.06l-4.81 12.871c.304.407.624.797.945 1.196L24.98 97.52l.156.043a6.836 6.836 0 0 0 5.512-1.014l29.57 38.584c.613.104 1.229.2 1.847.286l-30.42-39.658a6.82 6.82 0 0 0 1.794-6.474l25.133-8.78a11.735 11.735 0 0 0 8.06 6.934c.252.06.503.095.754.147l-4.576 47.918c.425.061.867.121 1.292.165l4.576-47.927a11.656 11.656 0 0 0 6.066-1.248l9.17 15.825a10.405 10.405 0 0 0-4.71 8.173 10.401 10.401 0 0 0 20.084 4.299l14.855 4.879 1.057-1.005-15.548-5.105a.95.95 0 0 1 0-.147 10.4 10.4 0 0 0-5.408-11.726l11.64-27.11.476.139a6.935 6.935 0 0 0 4.646-.503l17.038 27.89c.243-.451.46-.867.694-1.352l-16.554-27.257ZM58 73.201a11.64 11.64 0 0 0 .13 6.067l-25.133 8.78a6.856 6.856 0 0 0-4.61-3.814h-.14l3.285-38.445a6.813 6.813 0 0 0 4.334-1.621L60.6 68.244a11.58 11.58 0 0 0-2.6 4.957Zm3.467-5.893L36.819 43.18a6.794 6.794 0 0 0 1.248-2.288l24.215 5.035a6.872 6.872 0 0 0 5.2 7.107c.35.087.706.145 1.066.173l.086 11.05a11.753 11.753 0 0 0-7.167 3.051Zm10.712-2.739a11.687 11.687 0 0 0-2.236-.32l-.087-11.059a6.934 6.934 0 0 0 5.946-5.2 6.786 6.786 0 0 0 0-3.337l17.93-7.904a10.4 10.4 0 0 0 2.402 3.051L75.992 66.268a11.468 11.468 0 0 0-3.804-1.699h-.01Zm20.939 36.556a13.338 13.338 0 0 0-1.032-.303 10.334 10.334 0 0 0-7.09.797l-9.151-15.816a11.709 11.709 0 0 0 5.2-11.562l20.471-4.229a6.844 6.844 0 0 0 3.284 4.004l-11.682 27.109Zm8.25-34.762c-.19.777-.24 1.581-.147 2.375l-20.453 4.23a11.813 11.813 0 0 0-3.701-5.92l20.141-26.442a10.305 10.305 0 0 0 6.578 1.733l2.704 18.989a6.865 6.865 0 0 0-5.113 5.035h-.009Z" fill="#5070D4"/><defs><radialGradient id="a" cx="0" cy="0" r="1" gradientUnits="userSpaceOnUse" gradientTransform="matrix(0 67.5 -82.5462 0 71 71)"><stop stop-color="#fff"/><stop offset="1" stop-color="#A7D3F2"/></radialGradient></defs></svg>