<svg xmlns="http://www.w3.org/2000/svg" viewBox="0 0 225 271.22927">
  <defs>
    <style>
      .cls-1 {
        fill: #1d4588;
      }

      .cls-2, .cls-3, .cls-4, .cls-5 {
        fill: #a2d5f3;
      }

      .cls-2, .cls-3, .cls-4 {
        stroke: #4b78ba;
        stroke-miterlimit: 10;
      }

      .cls-2 {
        stroke-width: 1.61393px;
      }

      .cls-3 {
        stroke-width: 1.58808px;
      }

      .cls-4 {
        stroke-width: 1.71186px;
      }
    </style>
  </defs>
  <g id="For_PPT" data-name="For PPT">
    <g>
      <path class="cls-1" d="M32.28516,226.182a.30949.30949,0,0,1-.09473-.22949v-18.252a.3226.3226,0,0,1,.32422-.32373h6.58789a7.95741,7.95741,0,0,1,3.375.67481,5.16374,5.16374,0,0,1,2.25488,1.93066,5.35592,5.35592,0,0,1,.7959,2.9292v7.83008a5.35646,5.35646,0,0,1-.7959,2.92969,5.16065,5.16065,0,0,1-2.25488,1.93066,7.95741,7.95741,0,0,1-3.375.6748H32.51465A.31027.31027,0,0,1,32.28516,226.182Zm3.17285-2.60547H39.2373a2.98258,2.98258,0,0,0,2.28223-.9043,3.48,3.48,0,0,0,.87695-2.4165v-6.83106a3.39355,3.39355,0,0,0-.86328-2.44336,3.06328,3.06328,0,0,0-2.32226-.90478H35.458a.11976.11976,0,0,0-.13574.13525v13.23A.11923.11923,0,0,0,35.458,223.57654Z"/>
      <path class="cls-1" d="M60.32422,219.33777l-.02734.83691a.28615.28615,0,0,1-.32325.32422H51.52246a.11873.11873,0,0,0-.13476.13477,3.872,3.872,0,0,0,.24218,1.21484q.64893,1.94458,3.15918,1.97119a3.4024,3.4024,0,0,0,2.916-1.5122.31772.31772,0,0,1,.27051-.16163.25785.25785,0,0,1,.18847.08106l1.67383,1.37695a.287.287,0,0,1,.08106.43164,5.51209,5.51209,0,0,1-2.22754,1.83643,7.23217,7.23217,0,0,1-3.09082.648,6.48256,6.48256,0,0,1-3.57813-.94531,5.43451,5.43451,0,0,1-2.14648-2.646,10.61327,10.61327,0,0,1-.6211-4.04981,8.21426,8.21426,0,0,1,.32422-2.53808,5.41852,5.41852,0,0,1,2.03906-2.9834,5.94734,5.94734,0,0,1,3.6045-1.09375q5.31884,0,5.99316,5.562A9.596,9.596,0,0,1,60.32422,219.33777Zm-7.7627-3.87451a2.64146,2.64146,0,0,0-.93164,1.39062,4.71863,4.71863,0,0,0-.21582,1.188c-.03613.09033,0,.13477.1084.13477h5.48047a.11962.11962,0,0,0,.13574-.13477,5.23689,5.23689,0,0,0-.16211-1.02637,2.62247,2.62247,0,0,0-.959-1.51172,2.89492,2.89492,0,0,0-1.79492-.54A2.6781,2.6781,0,0,0,52.56152,215.46326Z"/>
      <path class="cls-1" d="M65.3457,225.42615a5.537,5.537,0,0,1-2.10644-2.87549,12.1725,12.1725,0,0,1,0-6.42578A5.25007,5.25007,0,0,1,65.332,213.3031a6.24934,6.24934,0,0,1,3.60449-1.03955,6.42167,6.42167,0,0,1,3.67188,1.05322,4.80312,4.80312,0,0,1,2.26855,3.50977v.0542a.31048.31048,0,0,1-.29687.32422l-2.43067.35058H72.0957a.32452.32452,0,0,1-.32422-.27.71846.71846,0,0,0-.02636-.21582c-.03711-.144-.07227-.27-.1084-.37793a2.33635,2.33635,0,0,0-.97168-1.24218,3.04666,3.04666,0,0,0-1.72852-.48584,2.85359,2.85359,0,0,0-1.74121.52636,2.5384,2.5384,0,0,0-.959,1.44483,8.416,8.416,0,0,0-.26953,2.40283A9.66749,9.66749,0,0,0,66.21,221.7406a2.83839,2.83839,0,0,0,.97168,1.49854,2.74515,2.74515,0,0,0,1.75488.55371,2.97873,2.97873,0,0,0,1.76856-.52686,2.36691,2.36691,0,0,0,.959-1.41748.30393.30393,0,0,0,.02637-.13476.11114.11114,0,0,0,.02734-.08106q.08056-.32373.37793-.27l2.42969.37793a.43811.43811,0,0,1,.22949.12158.27451.27451,0,0,1,.06739.25635q-.08058.43287-.13477.62109a4.812,4.812,0,0,1-2.0791,2.74073,6.61278,6.61278,0,0,1-3.67188,1.0122A6.06583,6.06583,0,0,1,65.3457,225.42615Z"/>
      <path class="cls-1" d="M89.13281,219.33777l-.02734.83691a.28614.28614,0,0,1-.32324.32422H80.33105a.11873.11873,0,0,0-.13476.13477,3.87168,3.87168,0,0,0,.24219,1.21484q.64891,1.94458,3.15918,1.97119a3.40238,3.40238,0,0,0,2.916-1.5122.31773.31773,0,0,1,.27051-.16163.25787.25787,0,0,1,.18848.08106l1.67382,1.37695a.287.287,0,0,1,.08106.43164A5.512,5.512,0,0,1,86.5,225.872a7.23217,7.23217,0,0,1-3.09082.648,6.48256,6.48256,0,0,1-3.57813-.94531,5.43457,5.43457,0,0,1-2.14648-2.646,10.61349,10.61349,0,0,1-.62109-4.04981,8.21426,8.21426,0,0,1,.32422-2.53808,5.41847,5.41847,0,0,1,2.03906-2.9834,5.94729,5.94729,0,0,1,3.60449-1.09375q5.31885,0,5.99316,5.562A9.596,9.596,0,0,1,89.13281,219.33777Zm-7.76269-3.87451a2.64135,2.64135,0,0,0-.93164,1.39062,4.71773,4.71773,0,0,0-.21582,1.188c-.03614.09033,0,.13477.10839.13477h5.48047a.11962.11962,0,0,0,.13575-.13477,5.23689,5.23689,0,0,0-.16211-1.02637,2.62249,2.62249,0,0,0-.959-1.51172,2.8949,2.8949,0,0,0-1.79492-.54A2.67807,2.67807,0,0,0,81.37012,215.46326Z"/>
      <path class="cls-1" d="M102.10547,213.55994a4.75056,4.75056,0,0,1,1.30957,3.53662v8.856a.32176.32176,0,0,1-.32324.32421h-2.48438a.32341.32341,0,0,1-.32422-.32421v-8.208a2.86985,2.86985,0,0,0-.70215-2.01123,2.39865,2.39865,0,0,0-1.8623-.76953,2.46631,2.46631,0,0,0-1.87695.75586,2.78647,2.78647,0,0,0-.71582,1.998v8.23487a.32176.32176,0,0,1-.32325.32421H92.31836a.32341.32341,0,0,1-.32422-.32421V212.80359a.3226.3226,0,0,1,.32422-.32373h2.48437a.321.321,0,0,1,.32325.32373v.86426a.1072.1072,0,0,0,.05468.10791c.03516.01806.0625,0,.08106-.0542a3.93569,3.93569,0,0,1,3.34766-1.458A4.75132,4.75132,0,0,1,102.10547,213.55994Z"/>
      <path class="cls-1" d="M113.9043,214.92322a.31185.31185,0,0,1-.2295.09472h-2.7539a.11874.11874,0,0,0-.13477.13477v6.50684a2.07889,2.07889,0,0,0,.44532,1.48535,1.90219,1.90219,0,0,0,1.417.459h.81054a.32259.32259,0,0,1,.32422.32373v2.02491a.33291.33291,0,0,1-.32422.35107l-1.40429.02734a5.6326,5.6326,0,0,1-3.18555-.729,3.18772,3.18772,0,0,1-1.08008-2.7544v-7.69482a.11912.11912,0,0,0-.13476-.13477h-1.53907a.3234.3234,0,0,1-.32421-.32421v-1.89014a.32258.32258,0,0,1,.32421-.32373h1.53907a.11926.11926,0,0,0,.13476-.13525v-3.1587a.32343.32343,0,0,1,.32422-.32422h2.34863a.32341.32341,0,0,1,.32422.32422v3.1587a.11888.11888,0,0,0,.13477.13525h2.7539a.32259.32259,0,0,1,.32422.32373v1.89014A.314.314,0,0,1,113.9043,214.92322Z"/>
      <path class="cls-1" d="M124.71777,212.66882a.33634.33634,0,0,1,.16211.40479l-.459,2.43017c-.01856.21583-.14453.2793-.37891.189a2.99218,2.99218,0,0,0-.94433-.13525,4.05517,4.05517,0,0,0-.54.02734,2.79267,2.79267,0,0,0-1.89063.79639,2.58717,2.58717,0,0,0-.75586,1.93066v7.64063a.32176.32176,0,0,1-.32324.32421h-2.48437a.3234.3234,0,0,1-.32422-.32421V212.80359a.32259.32259,0,0,1,.32422-.32373h2.48437a.321.321,0,0,1,.32324.32373v1.21533c0,.07178.01367.11231.041.1211.02637.00927.05762-.01319.09473-.06739a3.56446,3.56446,0,0,1,3.1582-1.75488A3.13184,3.13184,0,0,1,124.71777,212.66882Z"/>
      <path class="cls-1" d="M135.05762,212.85779a4.70563,4.70563,0,0,1,1.998,1.6333,4.11976,4.11976,0,0,1,.70215,2.36279v9.09864a.3234.3234,0,0,1-.32422.32421H134.9502a.3234.3234,0,0,1-.32422-.32421v-.86377c0-.0542-.01758-.08545-.05371-.09473a.11411.11411,0,0,0-.1084.04053,4.91306,4.91306,0,0,1-3.834,1.458,5.238,5.238,0,0,1-3.334-1.02587,3.63574,3.63574,0,0,1-1.30957-3.05079,3.96025,3.96025,0,0,1,1.47168-3.28076,6.49144,6.49144,0,0,1,4.14453-1.17431h2.88867a.11928.11928,0,0,0,.13477-.13526v-.648a2.12667,2.12667,0,0,0-.6211-1.6333,2.643,2.643,0,0,0-1.86328-.58056,3.31693,3.31693,0,0,0-1.66015.36425,1.58341,1.58341,0,0,0-.7959,1.0127q-.082.32373-.37891.27l-2.61816-.32422a.57465.57465,0,0,1-.2295-.09424.15435.15435,0,0,1-.06836-.17529,3.78616,3.78616,0,0,1,1.76856-2.7002,6.8004,6.8004,0,0,1,3.90234-1.05322A7.119,7.119,0,0,1,135.05762,212.85779Zm-1.377,10.44873a2.135,2.135,0,0,0,.94532-1.78174v-1.269a.11912.11912,0,0,0-.13477-.13477h-2.26855a4.07384,4.07384,0,0,0-2.25391.53955,1.733,1.733,0,0,0-.82324,1.53907,1.5666,1.5666,0,0,0,.63379,1.33642,2.66119,2.66119,0,0,0,1.63379.47266A3.69372,3.69372,0,0,0,133.68066,223.30652Z"/>
      <path class="cls-1" d="M140.98438,226.182a.30949.30949,0,0,1-.09473-.22949v-18.252a.3226.3226,0,0,1,.32422-.32373h2.48437a.321.321,0,0,1,.32324.32373v18.252a.32176.32176,0,0,1-.32324.32421h-2.48437A.31027.31027,0,0,1,140.98438,226.182Z"/>
      <path class="cls-1" d="M147.74805,210.04968a2.02544,2.02544,0,1,1,1.37695.54A1.8632,1.8632,0,0,1,147.74805,210.04968Zm-.14844,16.13233a.30949.30949,0,0,1-.09473-.22949V212.77673a.32341.32341,0,0,1,.32422-.32421h2.4834a.32341.32341,0,0,1,.32422.32421v13.17579a.32341.32341,0,0,1-.32422.32421h-2.4834A.30875.30875,0,0,1,147.59961,226.182Z"/>
      <path class="cls-1" d="M153.4043,226.182a.30949.30949,0,0,1-.09473-.22949v-2.29493a.51246.51246,0,0,1,.13477-.37793l6.64257-7.80273c.08985-.1084.0625-.16211-.081-.16211h-6.23731a.32341.32341,0,0,1-.32421-.32422v-2.187a.31182.31182,0,0,1,.09472-.22949.31518.31518,0,0,1,.22949-.09424h9.82813a.3226.3226,0,0,1,.32422.32373v2.29492a.51734.51734,0,0,1-.16211.37842l-6.77734,7.80273c-.07227.10791-.04493.16211.08105.16211h6.61523a.32259.32259,0,0,1,.32422.32373v2.187a.3234.3234,0,0,1-.32422.32421H153.63379A.30875.30875,0,0,1,153.4043,226.182Z"/>
      <path class="cls-1" d="M178.25684,219.33777l-.02735.83691a.28614.28614,0,0,1-.32324.32422h-8.45117a.11873.11873,0,0,0-.13477.13477,3.872,3.872,0,0,0,.24219,1.21484q.64893,1.94458,3.15918,1.97119a3.40241,3.40241,0,0,0,2.916-1.5122.3177.3177,0,0,1,.2705-.16163.25787.25787,0,0,1,.18848.08106l1.67383,1.37695a.287.287,0,0,1,.08105.43164A5.512,5.512,0,0,1,175.624,225.872a7.23214,7.23214,0,0,1-3.09082.648,6.48253,6.48253,0,0,1-3.57812-.94531,5.43453,5.43453,0,0,1-2.14649-2.646,10.61349,10.61349,0,0,1-.62109-4.04981,8.21426,8.21426,0,0,1,.32422-2.53808,5.41852,5.41852,0,0,1,2.03906-2.9834,5.94731,5.94731,0,0,1,3.60449-1.09375q5.31885,0,5.99317,5.562A9.59714,9.59714,0,0,1,178.25684,219.33777Zm-7.7627-3.87451a2.6414,2.6414,0,0,0-.93164,1.39062,4.71818,4.71818,0,0,0-.21582,1.188c-.03613.09033,0,.13477.1084.13477h5.48047a.11962.11962,0,0,0,.13574-.13477,5.23689,5.23689,0,0,0-.16211-1.02637,2.62247,2.62247,0,0,0-.959-1.51172,2.895,2.895,0,0,0-1.79493-.54A2.67809,2.67809,0,0,0,170.49414,215.46326Z"/>
      <path class="cls-1" d="M189.77148,207.47107a.31519.31519,0,0,1,.2295-.09424h2.48437a.3226.3226,0,0,1,.32422.32373v18.252a.32341.32341,0,0,1-.32422.32421H190.001a.32176.32176,0,0,1-.32325-.32421v-.80958a.11.11,0,0,0-.05468-.10839c-.03614-.01758-.07227,0-.10743.0542a3.874,3.874,0,0,1-3.10546,1.4038,5.21806,5.21806,0,0,1-3.24024-.999,5.58667,5.58667,0,0,1-1.917-2.78076,11.01691,11.01691,0,0,1-.48535-3.375,10.44821,10.44821,0,0,1,.459-3.29395,5.58025,5.58025,0,0,1,1.917-2.78125,5.35544,5.35544,0,0,1,3.32032-.999,3.88261,3.88261,0,0,1,3.05175,1.3501.1098.1098,0,0,0,.10743.04053c.03613-.00879.05468-.04053.05468-.09424v-5.85938A.31473.31473,0,0,1,189.77148,207.47107Zm-.12109,11.89355a6.2428,6.2428,0,0,0-.6748-3.21289,2.28719,2.28719,0,0,0-2.05274-1.188,2.48276,2.48276,0,0,0-2.15918,1.13378,5.78955,5.78955,0,0,0-.81055,3.29444,6.56,6.56,0,0,0,.64844,3.105,2.48367,2.48367,0,0,0,2.29492,1.2959,2.35526,2.35526,0,0,0,2.13282-1.2959A6.47759,6.47759,0,0,0,189.65039,219.36462Z"/>
      <path class="cls-1" d="M79.89844,239.9823a.31326.31326,0,0,1-.22949.09424H70.48926a.11976.11976,0,0,0-.13574.13525v5.04883a.11957.11957,0,0,0,.13574.13525h6.18262a.32259.32259,0,0,1,.32421.32374v2.05224a.32258.32258,0,0,1-.32421.32373H70.48926a.11977.11977,0,0,0-.13574.13526v7.72168a.32176.32176,0,0,1-.32325.32421H67.5459a.32341.32341,0,0,1-.32422-.32421v-18.252a.3226.3226,0,0,1,.32422-.32373H79.669a.32258.32258,0,0,1,.32421.32373v2.05225A.314.314,0,0,1,79.89844,239.9823Z"/>
      <path class="cls-1" d="M82.53027,240.04968a2.02545,2.02545,0,1,1,1.377.54A1.8632,1.8632,0,0,1,82.53027,240.04968ZM82.38184,256.182a.30949.30949,0,0,1-.09473-.22949V242.77673a.32341.32341,0,0,1,.32422-.32421h2.4834a.32341.32341,0,0,1,.32422.32421v13.17579a.32341.32341,0,0,1-.32422.32421h-2.4834A.30875.30875,0,0,1,82.38184,256.182Z"/>
      <path class="cls-1" d="M99.12109,243.55994a4.75056,4.75056,0,0,1,1.30957,3.53662v8.856a.32176.32176,0,0,1-.32324.32421H97.62305a.3234.3234,0,0,1-.32422-.32421v-8.208a2.86989,2.86989,0,0,0-.70215-2.01123,2.39867,2.39867,0,0,0-1.8623-.76953,2.46631,2.46631,0,0,0-1.877.75586,2.78647,2.78647,0,0,0-.71582,1.998v8.23487a.32176.32176,0,0,1-.32324.32421H89.334a.3234.3234,0,0,1-.32421-.32421V242.80359a.32258.32258,0,0,1,.32421-.32373h2.48438a.321.321,0,0,1,.32324.32373v.86426a.10721.10721,0,0,0,.05469.10791c.03516.01806.0625,0,.081-.0542a3.93572,3.93572,0,0,1,3.34766-1.458A4.75129,4.75129,0,0,1,99.12109,243.55994Z"/>
      <path class="cls-1" d="M111.959,242.85779a4.70566,4.70566,0,0,1,1.99805,1.6333,4.11976,4.11976,0,0,1,.70215,2.36279v9.09864a.32341.32341,0,0,1-.32422.32421h-2.4834a.32341.32341,0,0,1-.32422-.32421v-.86377c0-.0542-.01757-.08545-.05371-.09473a.11412.11412,0,0,0-.1084.04053,4.913,4.913,0,0,1-3.834,1.458,5.238,5.238,0,0,1-3.334-1.02587,3.63571,3.63571,0,0,1-1.30957-3.05079,3.96025,3.96025,0,0,1,1.47168-3.28076,6.49142,6.49142,0,0,1,4.14453-1.17431h2.88867a.11927.11927,0,0,0,.13476-.13526v-.648a2.1267,2.1267,0,0,0-.62109-1.6333,2.643,2.643,0,0,0-1.86328-.58056,3.317,3.317,0,0,0-1.66016.36425,1.58347,1.58347,0,0,0-.7959,1.0127q-.082.32373-.3789.27l-2.61817-.32422a.5746.5746,0,0,1-.22949-.09424.15434.15434,0,0,1-.06836-.17529,3.78613,3.78613,0,0,1,1.76856-2.7002,6.80035,6.80035,0,0,1,3.90234-1.05322A7.11891,7.11891,0,0,1,111.959,242.85779ZM110.582,253.30652a2.135,2.135,0,0,0,.94531-1.78174v-1.269a.11912.11912,0,0,0-.13476-.13477H109.124a4.07382,4.07382,0,0,0-2.2539.53955,1.733,1.733,0,0,0-.82324,1.53907,1.56659,1.56659,0,0,0,.63378,1.33642,2.66123,2.66123,0,0,0,1.63379.47266A3.69373,3.69373,0,0,0,110.582,253.30652Z"/>
      <path class="cls-1" d="M127.90234,243.55994a4.75056,4.75056,0,0,1,1.30957,3.53662v8.856a.32176.32176,0,0,1-.32324.32421H126.4043a.3234.3234,0,0,1-.32422-.32421v-8.208a2.86989,2.86989,0,0,0-.70215-2.01123,2.39867,2.39867,0,0,0-1.86231-.76953,2.46631,2.46631,0,0,0-1.87695.75586,2.78647,2.78647,0,0,0-.71582,1.998v8.23487a.32176.32176,0,0,1-.32324.32421h-2.48438a.3234.3234,0,0,1-.32421-.32421V242.80359a.32258.32258,0,0,1,.32421-.32373h2.48438a.321.321,0,0,1,.32324.32373v.86426a.10721.10721,0,0,0,.05469.10791c.03516.01806.0625,0,.081-.0542a3.93572,3.93572,0,0,1,3.34766-1.458A4.75129,4.75129,0,0,1,127.90234,243.55994Z"/>
      <path class="cls-1" d="M134.53027,255.42615a5.537,5.537,0,0,1-2.10644-2.87549,12.1725,12.1725,0,0,1,0-6.42578,5.25007,5.25007,0,0,1,2.09277-2.82178,6.24934,6.24934,0,0,1,3.60449-1.03955,6.42167,6.42167,0,0,1,3.67188,1.05322,4.80312,4.80312,0,0,1,2.26855,3.50977v.0542a.31048.31048,0,0,1-.29687.32422l-2.43067.35058h-.05371a.32452.32452,0,0,1-.32422-.27.71846.71846,0,0,0-.02636-.21582c-.03711-.144-.07227-.27-.1084-.37793a2.33635,2.33635,0,0,0-.97168-1.24218,3.04666,3.04666,0,0,0-1.72852-.48584,2.85359,2.85359,0,0,0-1.74121.52636,2.5384,2.5384,0,0,0-.959,1.44483,8.416,8.416,0,0,0-.26953,2.40283,9.66749,9.66749,0,0,0,.24316,2.40283,2.83839,2.83839,0,0,0,.97168,1.49854,2.74515,2.74515,0,0,0,1.75488.55371,2.97873,2.97873,0,0,0,1.76856-.52686,2.36691,2.36691,0,0,0,.959-1.41748.30393.30393,0,0,0,.02637-.13476.11114.11114,0,0,0,.02734-.08106q.08057-.32373.37793-.27l2.42969.37793a.43811.43811,0,0,1,.22949.12158.27451.27451,0,0,1,.06739.25635q-.08058.43287-.13477.62109a4.812,4.812,0,0,1-2.0791,2.74073,6.61278,6.61278,0,0,1-3.67188,1.0122A6.06583,6.06583,0,0,1,134.53027,255.42615Z"/>
      <path class="cls-1" d="M158.31836,249.33777l-.02734.83691a.28615.28615,0,0,1-.32325.32422H149.5166a.11873.11873,0,0,0-.13476.13477,3.872,3.872,0,0,0,.24218,1.21484q.64893,1.94458,3.15918,1.97119a3.4024,3.4024,0,0,0,2.916-1.5122.31772.31772,0,0,1,.27051-.16163.25785.25785,0,0,1,.18847.08106l1.67383,1.37695a.287.287,0,0,1,.08106.43164,5.51209,5.51209,0,0,1-2.22754,1.83643,7.23217,7.23217,0,0,1-3.09082.648,6.48256,6.48256,0,0,1-3.57813-.94531,5.43451,5.43451,0,0,1-2.14648-2.646,10.61327,10.61327,0,0,1-.6211-4.04981,8.21426,8.21426,0,0,1,.32422-2.53808,5.41852,5.41852,0,0,1,2.03906-2.9834,5.94734,5.94734,0,0,1,3.6045-1.09375q5.31885,0,5.99316,5.562A9.596,9.596,0,0,1,158.31836,249.33777Zm-7.7627-3.87451a2.64146,2.64146,0,0,0-.93164,1.39062,4.71863,4.71863,0,0,0-.21582,1.188c-.03613.09033,0,.13477.1084.13477h5.48047a.11962.11962,0,0,0,.13574-.13477,5.23689,5.23689,0,0,0-.16211-1.02637,2.62247,2.62247,0,0,0-.959-1.51172,2.89492,2.89492,0,0,0-1.79492-.54A2.6781,2.6781,0,0,0,150.55566,245.46326Z"/>
    </g>
    <g>
      <polygon class="cls-2" points="45.4 91.363 16.076 91.363 1.414 116.758 16.076 142.153 45.4 142.153 60.061 116.758 45.4 91.363"/>
      <polygon class="cls-3" points="205.626 11.599 180.322 11.599 167.671 33.513 180.322 55.426 205.626 55.426 218.278 33.513 205.626 11.599"/>
      <polygon class="cls-4" points="206.016 91.245 170.875 91.245 153.305 121.677 170.875 152.109 206.016 152.109 223.586 121.677 206.016 91.245"/>
      <polygon class="cls-5" points="73.181 22.76 47.471 22.76 34.616 45.026 47.471 67.292 73.181 67.292 86.036 45.026 73.181 22.76"/>
      <polygon class="cls-5" points="77.477 150.274 59.244 150.274 50.128 166.064 59.244 181.854 77.477 181.854 86.593 166.064 77.477 150.274"/>
      <path class="cls-1" d="M126.98022,19.67764v3.78381a1.65376,1.65376,0,0,0,1.39334,1.62365q16.8227,2.77908,26.27164,10.36713a1.654,1.654,0,0,1,.60941,1.29269V53.343a1.64936,1.64936,0,0,1-2.76563,1.21032,56.29852,56.29852,0,0,0-23.45922-12.5457,1.64422,1.64422,0,0,0-2.04954,1.60148V77.7528a1.65318,1.65318,0,0,0,1.17436,1.57326q15.94992,4.9159,24.37423,14.146a31.71637,31.71637,0,0,1,8.7318,22.03739,32.834,32.834,0,0,1-8.5932,22.26839,34.90036,34.90036,0,0,1-9.933,7.9464q-5.28976,2.8384-14.38265,4.47582a1.657,1.657,0,0,0-1.37155,1.62437v17.47484a1.65016,1.65016,0,0,1-1.65017,1.65016H113.10719a1.65016,1.65016,0,0,1-1.65016-1.65016V151.91313a1.65218,1.65218,0,0,0-1.46564-1.63564q-14.8324-1.82268-33.28281-12.56978a1.66762,1.66762,0,0,1-.82554-1.435V117.587a1.64867,1.64867,0,0,1,2.7267-1.24367,93.60224,93.60224,0,0,0,14.41349,10.34653,60.36035,60.36035,0,0,0,16.43165,6.31454,1.64866,1.64866,0,0,0,2.00215-1.61579V93.96329a1.65975,1.65975,0,0,0-1.11137-1.55738q-14.64086-5.16173-20.74123-9.62145a34.08752,34.08752,0,0,1-9.933-11.1265,26.94466,26.94466,0,0,1-3.60359-13.167,29.4825,29.4825,0,0,1,9.702-22.2145q9.2723-8.7866,24.28354-11.20127A1.65362,1.65362,0,0,0,111.457,23.45V19.67764a1.65016,1.65016,0,0,1,1.65016-1.65016h12.22286A1.65016,1.65016,0,0,1,126.98022,19.67764ZM111.457,71.53888V43.458a1.655,1.655,0,0,0-1.98023-1.62319A21.09829,21.09829,0,0,0,99.214,46.90247a13.59574,13.59574,0,0,0-4.7586,10.3026,12.58672,12.58672,0,0,0,3.234,8.87039q3.234,3.5112,11.4576,6.9762l.02767.01131A1.65121,1.65121,0,0,0,111.457,71.53888Zm18.38759,29.01717-.42377-.23125a1.65017,1.65017,0,0,0-2.44063,1.44853V131.11a1.65538,1.65538,0,0,0,2.10914,1.59037q13.78365-4.00968,13.78366-15.71256a14.09666,14.09666,0,0,0-2.8182-9.0167Q137.23662,104.41375,129.84462,100.55605Z"/>
    </g>
  </g>
</svg>
