<svg data-name="Layer 1" xmlns="http://www.w3.org/2000/svg" viewBox="0 0 71.6 54.8"><path d="M67.8 18.7a56 56 0 0 0-7.6-14A50.7 50.7 0 0 0 53.4 2 50 50 0 0 0 46.1.3l-2.3 3.8v.2a40.7 40.7 0 0 0-7.8-.7h-.4a40.7 40.7 0 0 0-7.9.7v-.2L25.5.3A47.2 47.2 0 0 0 18.2 2a58.6 58.6 0 0 0-6.9 2.7 56.1 56.1 0 0 0-7.5 14A57.7 57.7 0 0 0 .5 45.3a55.7 55.7 0 0 0 8 5.1 58.2 58.2 0 0 0 9.9 4.1 24.3 24.3 0 0 0 2-2.9 26.2 26.2 0 0 0 1.7-3.3l-3.2-1.5-2.5-1.4 1.3-1.2a44 44 0 0 0 17.9 3.6h.4a44.3 44.3 0 0 0 17.9-3.6l1.3 1.2-2.5 1.4-3.2 1.5a24.5 24.5 0 0 0 1.6 3.3 24.3 24.3 0 0 0 2.1 2.9 65.7 65.7 0 0 0 9.9-4.1 54.2 54.2 0 0 0 7.9-5.1 57.4 57.4 0 0 0-3.2-26.6ZM24.1 37.2c-3.6 0-6.5-3.2-6.5-7.1s2.9-7.1 6.5-7.1 6.5 3.2 6.5 7.1-2.9 7.1-6.5 7.1Zm23.4 0c-3.6 0-6.5-3.2-6.5-7.1s2.9-7.1 6.5-7.1 6.5 3.2 6.5 7.1-2.9 7.1-6.5 7.1Z" style="fill:#5865f2"/></svg>