<svg xmlns="http://www.w3.org/2000/svg" viewBox="0 0 297 212"><defs><linearGradient id="linear-gradient" x1="60.33" y1="104.32" x2="201.04" y2="104.32" gradientUnits="userSpaceOnUse"><stop offset="0" stop-color="#0ff"/><stop offset="1" stop-color="#0094ff"/></linearGradient><linearGradient id="linear-gradient-2" x1="84.74" y1="94.44" x2="134.76" y2="94.44" gradientUnits="userSpaceOnUse"><stop offset="0" stop-color="#085ed5"/><stop offset="1" stop-color="#529bea"/></linearGradient><linearGradient id="linear-gradient-3" x1="120.47" y1="116.7" x2="166.53" y2="116.7" gradientUnits="userSpaceOnUse"><stop offset="0" stop-color="#557cff"/><stop offset="1" stop-color="#5413ff"/></linearGradient><style>.cls-1{fill:#0094ff}.cls-5{fill:#00dba6}.cls-7{fill:#26b4d8}.cls-11{fill:#b6c6e3}</style></defs><g id="Header_Manager_Illus" data-name="Header Manager Illus"><path class="cls-1" d="M179.3 32.6 189.4 1l-.1 33.2 19.4-26.9-10.4 31.5L225 19.2l-19.5 26.7 31.4-10.3-26.8 19.3 33.1-.1-31.6 10.1L243.2 75l-33.1-.1 26.8 19.4-31.4-10.4 19.5 26.8-26.7-19.6 10.4 31.5-19.4-26.9.1 33.1-10.1-31.5-10.1 31.5.1-33.1-19.4 26.9 10.4-31.5-26.7 19.6 19.5-26.8-31.4 10.4 26.8-19.4-33.1.1 31.5-10.1-31.5-10.1 33.1.1-26.8-19.3 31.4 10.3-19.5-26.7 26.7 19.6-10.4-31.5 19.4 26.9-.1-33.2 10.1 31.6z"/><path style="fill:#9cd7ff" d="m93.2 130.8 17.1-24.9-.9 30.2 28.5-10.1-18.4 23.9 28.9 8.5-28.9 8.6 18.4 23.9-28.5-10.1.9 30.2-17.1-24.9L76.1 211l.9-30.2-28.5 10.1L66.9 167 38 158.4l28.9-8.5L48.5 126 77 136.1l-.9-30.2 17.1 24.9z"/><rect x="50.2" y="51.1" width="179.9" height="108.55" rx="3.6" style="fill:#1d428a"/><rect x="60.3" y="60" width="140.7" height="88.54" rx="6.6" style="fill:url(#linear-gradient)"/><path class="cls-5" d="m240.5 159.8-1.5-.4a2.1 2.1 0 0 1-1.5-2.7l15.8-57.1.4-.8 4.6-5.5.7 7.1c.1.2 0 .5 0 .7l-15.9 57.2a2.1 2.1 0 0 1-2.6 1.5Z"/><circle cx="216.2" cy="101.3" r="8" style="fill:#fff"/><circle class="cls-7" cx="216.2" cy="101.6" r="4.3"/><circle class="cls-7" cx="162.3" cy="155.2" r="1.3"/><path d="M134.2 109.1 103 69.3 85 117c-.2.3-.3.5-.2.7.3 2.4 11.8 2.5 25.6.3s24.7-5.8 24.3-8.2a1 1 0 0 0-.5-.7Z" style="fill:url(#linear-gradient-2)"/><circle cx="143.5" cy="116.7" r="23" style="fill:url(#linear-gradient-3)"/><path class="cls-5" d="m177.6 115.4-22.9 6.4 5.9-23.1 22.9-6.4-5.9 23.1zM160.6 98.7l-17-16.6 22.9-6.4 17 16.6-22.9 6.4z"/><path class="cls-1" d="m154.7 121.7-17-16.7 5.9-23 17 16.6-5.9 23.1z"/><path d="m258.4 93.3-4.7 5.5-.2.3a5 5 0 0 0 3.9 1.8 4.5 4.5 0 0 0 1.6-.3c0-.1.1-.2 0-.3Z" style="fill:#1e4489"/><path class="cls-11" d="M184.5 174.5a24.4 24.4 0 0 1-2.4-4.3 18.4 18.4 0 0 1-2.3 4.3 23.2 23.2 0 0 1-3.5 3.9 22.4 22.4 0 0 1 3.6 3.8 14.1 14.1 0 0 1 2.2 4.5 16.2 16.2 0 0 1 2.3-4.6 15.9 15.9 0 0 1 3.6-3.7 20.4 20.4 0 0 1-3.5-3.9ZM88.1 27.7a30.7 30.7 0 0 1-3.4-6.3 31.8 31.8 0 0 1-3.3 6.2 32.8 32.8 0 0 1-5.1 5.7 27.1 27.1 0 0 1 5.2 5.4 21.6 21.6 0 0 1 3.2 6.6 25.1 25.1 0 0 1 3.3-6.5 24.6 24.6 0 0 1 5.2-5.4 32.8 32.8 0 0 1-5.1-5.7Z"/><path d="M117.3 22.8a20.7 20.7 0 0 1-2.2-4 19.2 19.2 0 0 1-2.1 3.9 23.9 23.9 0 0 1-3.3 3.6 17.9 17.9 0 0 1 3.3 3.4 12.5 12.5 0 0 1 2.1 4.2 12.5 12.5 0 0 1 2.1-4.2 13.4 13.4 0 0 1 3.3-3.4 19.4 19.4 0 0 1-3.2-3.5Z" style="fill:#529bea"/><path d="M221.8 188.5a33.5 33.5 0 0 1-3.4-6.3 32.3 32.3 0 0 1-8.5 11.9 24.6 24.6 0 0 1 5.2 5.4 20.1 20.1 0 0 1 3.3 6.6 21.1 21.1 0 0 1 3.3-6.6 23.8 23.8 0 0 1 5.2-5.3 32.8 32.8 0 0 1-5.1-5.7Z" style="fill:#4b78ba"/></g></svg>