<svg xmlns="http://www.w3.org/2000/svg" xmlns:xlink="http://www.w3.org/1999/xlink" viewBox="0 0 960 919"><defs><linearGradient id="linear-gradient" x1="608.97" y1="646.15" x2="883.32" y2="646.15" gradientUnits="userSpaceOnUse"><stop offset="0" stop-color="#557cff"/><stop offset="1" stop-color="#00dba6"/></linearGradient><linearGradient id="linear-gradient-2" x1="245.88" y1="512.16" x2="557.21" y2="512.16" xlink:href="#linear-gradient"/><linearGradient id="linear-gradient-3" x1="495.23" y1="662.58" x2="632.87" y2="662.58" xlink:href="#linear-gradient"/><linearGradient id="linear-gradient-4" x1="145.77" y1="650.79" x2="541.35" y2="650.79" xlink:href="#linear-gradient"/><linearGradient id="linear-gradient-5" x1="175.26" y1="154.13" x2="175.26" y2="194.43" xlink:href="#linear-gradient"/><linearGradient id="linear-gradient-6" x1="198.53" y1="194.43" x2="198.53" y2="154.13" xlink:href="#linear-gradient"/><linearGradient id="linear-gradient-7" x1="163.63" y1="154.13" x2="210.16" y2="154.13" xlink:href="#linear-gradient"/><linearGradient id="linear-gradient-8" x1="147.02" y1="179.92" x2="186.9" y2="179.92" xlink:href="#linear-gradient"/><linearGradient id="linear-gradient-9" x1="186.9" y1="179.92" x2="226.77" y2="179.92" xlink:href="#linear-gradient"/><linearGradient id="linear-gradient-10" x1="147.02" y1="145.38" x2="226.77" y2="145.38" xlink:href="#linear-gradient"/><linearGradient id="linear-gradient-11" x1="142.83" y1="616.44" x2="142.83" y2="656.75" xlink:href="#linear-gradient"/><linearGradient id="linear-gradient-12" x1="166.1" y1="656.75" x2="166.1" y2="616.44" xlink:href="#linear-gradient"/><linearGradient id="linear-gradient-13" x1="131.19" y1="616.44" x2="177.73" y2="616.44" xlink:href="#linear-gradient"/><linearGradient id="linear-gradient-14" x1="114.59" y1="642.23" x2="154.46" y2="642.23" xlink:href="#linear-gradient"/><linearGradient id="linear-gradient-15" x1="154.46" y1="642.23" x2="194.34" y2="642.23" xlink:href="#linear-gradient"/><linearGradient id="linear-gradient-16" x1="114.59" y1="607.7" x2="194.34" y2="607.7" xlink:href="#linear-gradient"/><linearGradient id="linear-gradient-17" x1="907.99" y1="131.1" x2="907.99" y2="171.41" xlink:href="#linear-gradient"/><linearGradient id="linear-gradient-18" x1="931.25" y1="171.41" x2="931.25" y2="131.1" xlink:href="#linear-gradient"/><linearGradient id="linear-gradient-19" x1="896.35" y1="131.1" x2="942.89" y2="131.1" xlink:href="#linear-gradient"/><linearGradient id="linear-gradient-20" x1="879.74" y1="156.89" x2="919.62" y2="156.89" xlink:href="#linear-gradient"/><linearGradient id="linear-gradient-21" x1="919.62" y1="156.89" x2="959.5" y2="156.89" xlink:href="#linear-gradient"/><linearGradient id="linear-gradient-22" x1="879.74" y1="122.36" x2="959.5" y2="122.36" xlink:href="#linear-gradient"/><linearGradient id="linear-gradient-23" x1="859.82" y1="531.08" x2="859.82" y2="571.39" xlink:href="#linear-gradient"/><linearGradient id="linear-gradient-24" x1="883.09" y1="571.39" x2="883.09" y2="531.08" xlink:href="#linear-gradient"/><linearGradient id="linear-gradient-25" x1="848.18" y1="531.08" x2="894.72" y2="531.08" xlink:href="#linear-gradient"/><linearGradient id="linear-gradient-26" x1="831.58" y1="556.87" x2="871.45" y2="556.87" xlink:href="#linear-gradient"/><linearGradient id="linear-gradient-27" x1="871.45" y1="556.87" x2="911.33" y2="556.87" xlink:href="#linear-gradient"/><linearGradient id="linear-gradient-28" x1="831.58" y1="522.34" x2="911.33" y2="522.34" xlink:href="#linear-gradient"/><linearGradient id="linear-gradient-29" x1="544.53" y1="286.43" x2="584.51" y2="286.43" gradientUnits="userSpaceOnUse"><stop offset="0" stop-color="#fff"/><stop offset="1" stop-color="#b6c6e3"/></linearGradient><linearGradient id="linear-gradient-30" x1="585.72" y1="523.76" x2="600.58" y2="523.76" gradientTransform="rotate(30 593.168 523.861)" gradientUnits="userSpaceOnUse"><stop offset="0" stop-color="#fff"/><stop offset="1" stop-color="#c5d1e9"/></linearGradient><linearGradient id="linear-gradient-31" x1="384.01" y1="496.4" x2="767.6" y2="496.4" gradientUnits="userSpaceOnUse"><stop offset="0" stop-color="#e2e8f4"/><stop offset="1" stop-color="#b6c6e3"/></linearGradient><linearGradient id="linear-gradient-32" x1="575.49" y1="575.81" x2="575.49" y2="156.05" gradientUnits="userSpaceOnUse"><stop offset="0" stop-color="#0091ff"/><stop offset="1" stop-color="#1e4488"/></linearGradient><linearGradient id="linear-gradient-33" x1="546.05" y1="207.09" x2="588.7" y2="207.09" xlink:href="#linear-gradient-29"/><linearGradient id="linear-gradient-34" x1="501.61" y1="343.74" x2="532.38" y2="343.74" xlink:href="#linear-gradient-29"/><linearGradient id="linear-gradient-35" x1="599.69" y1="401.87" x2="630.46" y2="401.87" xlink:href="#linear-gradient-29"/><linearGradient id="linear-gradient-36" x1="-14585.77" y1="292.12" x2="-14492.56" y2="292.12" gradientTransform="matrix(-1 0 0 1 -13721.86 0)" gradientUnits="userSpaceOnUse"><stop offset="0" stop-color="#ddeafa"/><stop offset="1" stop-color="#fff"/></linearGradient><linearGradient id="linear-gradient-37" x1="554.48" y1="902.85" x2="554.48" y2="729.79" gradientUnits="userSpaceOnUse"><stop offset="0" stop-color="#bbd6f5"/><stop offset="1" stop-color="#b6c6e3"/></linearGradient><linearGradient id="linear-gradient-38" x1="2222.98" y1="-2860.14" x2="2222.98" y2="-2930.39" gradientTransform="matrix(.87 .5 -1 .58 -4265.95 1355)" gradientUnits="userSpaceOnUse"><stop offset="0" stop-color="#4b78ba"/><stop offset="1" stop-color="#c5d1e9"/></linearGradient><linearGradient id="linear-gradient-39" x1="490.37" y1="795.05" x2="618.61" y2="795.05" gradientUnits="userSpaceOnUse"><stop offset="0" stop-color="#00dba6"/><stop offset="1" stop-color="#8281ff"/></linearGradient><linearGradient id="linear-gradient-40" x1="490.37" y1="800.93" x2="618.61" y2="800.93" xlink:href="#linear-gradient-39"/><linearGradient id="linear-gradient-41" x1="754.77" y1="780.8" x2="330.29" y2="780.8" xlink:href="#linear-gradient-37"/><linearGradient id="linear-gradient-42" x1="2143.14" y1="-2964.41" x2="2222.32" y2="-2895.84" gradientTransform="matrix(.87 .5 -1 .58 -4265.95 1355)" xlink:href="#linear-gradient-29"/><linearGradient id="linear-gradient-43" x1="500.64" y1="754.82" x2="608.31" y2="754.82" xlink:href="#linear-gradient-29"/><linearGradient id="linear-gradient-44" x1="608.61" y1="755.18" x2="500.14" y2="755.18" xlink:href="#linear-gradient-38"/><linearGradient id="linear-gradient-45" x1="885.52" y1="859.48" x2="885.52" y2="686.43" xlink:href="#linear-gradient-37"/><linearGradient id="linear-gradient-46" x1="2370.75" y1="-3063.21" x2="2370.75" y2="-3133.47" xlink:href="#linear-gradient-38"/><linearGradient id="linear-gradient-47" x1="821.42" y1="751.69" x2="949.66" y2="751.69" xlink:href="#linear-gradient-39"/><linearGradient id="linear-gradient-48" x1="821.42" y1="757.56" x2="949.66" y2="757.56" xlink:href="#linear-gradient-39"/><linearGradient id="linear-gradient-49" x1="1085.82" y1="737.44" x2="661.34" y2="737.44" xlink:href="#linear-gradient-37"/><linearGradient id="linear-gradient-50" x1="2290.9" y1="-3167.49" x2="2370.08" y2="-3098.91" gradientTransform="matrix(.87 .5 -1 .58 -4265.95 1355)" xlink:href="#linear-gradient-29"/><linearGradient id="linear-gradient-51" x1="831.68" y1="711.45" x2="939.36" y2="711.45" xlink:href="#linear-gradient-29"/><linearGradient id="linear-gradient-52" x1="939.65" y1="711.82" x2="831.18" y2="711.82" xlink:href="#linear-gradient-38"/><linearGradient id="linear-gradient-53" x1="208.4" y1="596.8" x2="208.4" y2="423.74" xlink:href="#linear-gradient-37"/><linearGradient id="linear-gradient-54" x1="1717.13" y1="-2952.15" x2="1717.13" y2="-3022.4" xlink:href="#linear-gradient-38"/><linearGradient id="linear-gradient-55" x1="144.3" y1="489" x2="272.54" y2="489" xlink:href="#linear-gradient-39"/><linearGradient id="linear-gradient-56" x1="144.3" y1="494.88" x2="272.54" y2="494.88" xlink:href="#linear-gradient-39"/><linearGradient id="linear-gradient-57" x1="408.7" y1="474.75" x2="-15.78" y2="474.75" xlink:href="#linear-gradient-37"/><linearGradient id="linear-gradient-58" x1="1637.28" y1="-3056.42" x2="1716.46" y2="-2987.85" gradientTransform="matrix(.87 .5 -1 .58 -4265.95 1355)" xlink:href="#linear-gradient-29"/><linearGradient id="linear-gradient-59" x1="154.57" y1="448.77" x2="262.24" y2="448.77" xlink:href="#linear-gradient-29"/><linearGradient id="linear-gradient-60" x1="262.53" y1="449.13" x2="154.06" y2="449.13" xlink:href="#linear-gradient-38"/><linearGradient id="linear-gradient-61" x1="110.26" y1="902.44" x2="110.26" y2="729.38" xlink:href="#linear-gradient-37"/><linearGradient id="linear-gradient-62" x1="1966.1" y1="-2638.38" x2="1966.1" y2="-2708.64" xlink:href="#linear-gradient-38"/><linearGradient id="linear-gradient-63" x1="46.16" y1="794.64" x2="174.4" y2="794.64" xlink:href="#linear-gradient-39"/><linearGradient id="linear-gradient-64" x1="46.16" y1="800.51" x2="174.4" y2="800.51" xlink:href="#linear-gradient-39"/><linearGradient id="linear-gradient-65" x1="310.56" y1="780.39" x2="-113.92" y2="780.39" xlink:href="#linear-gradient-37"/><linearGradient id="linear-gradient-66" x1="1886.26" y1="-2742.66" x2="1965.44" y2="-2674.09" gradientTransform="matrix(.87 .5 -1 .58 -4265.95 1355)" xlink:href="#linear-gradient-29"/><linearGradient id="linear-gradient-67" x1="56.43" y1="754.41" x2="164.1" y2="754.41" xlink:href="#linear-gradient-29"/><linearGradient id="linear-gradient-68" x1="164.39" y1="754.77" x2="55.92" y2="754.77" xlink:href="#linear-gradient-38"/><radialGradient id="radial-gradient" cx="2591.17" cy="-2305.36" r="16.73" gradientTransform="matrix(.87 .5 -.87 .5 -4079.07 335.14)" gradientUnits="userSpaceOnUse"><stop offset="0" stop-color="#fff"/><stop offset=".28" stop-color="#fff" stop-opacity=".66"/><stop offset=".54" stop-color="#fff" stop-opacity=".38"/><stop offset=".75" stop-color="#fff" stop-opacity=".17"/><stop offset=".91" stop-color="#fff" stop-opacity=".05"/><stop offset="1" stop-color="#fff" stop-opacity="0"/></radialGradient><radialGradient id="radial-gradient-2" cx="-12844.97" cy="1074.66" r="3.78" gradientTransform="matrix(-.53 -.54 -.24 1.17 -5715.48 -7793.98)" xlink:href="#radial-gradient"/><radialGradient id="radial-gradient-3" cx="3120.51" cy="-2211.02" r="34.74" gradientTransform="matrix(.87 .5 -.87 .5 -4074.48 339.58)" xlink:href="#radial-gradient"/><radialGradient id="radial-gradient-4" cx="3267.84" cy="-2444.97" r="34.74" gradientTransform="matrix(.87 .5 -.87 .5 -4074.48 339.58)" xlink:href="#radial-gradient"/><radialGradient id="radial-gradient-5" cx="2615.55" cy="-2317.38" r="34.74" gradientTransform="matrix(.87 .5 -.87 .5 -4074.48 339.58)" xlink:href="#radial-gradient"/><radialGradient id="radial-gradient-6" cx="2864.28" cy="-1955.61" r="34.74" gradientTransform="matrix(.87 .5 -.87 .5 -4074.48 339.58)" xlink:href="#radial-gradient"/><style>.cls-30{fill:#99c1f0}.cls-31,.cls-45{fill:#d3ddee}.cls-33{fill:#ddeafa}.cls-34{fill:#b6c6e3}.cls-50{fill:#fff}.cls-45{opacity:.28}.cls-47{fill:#4b78ba}.cls-61,.cls-62,.cls-63,.cls-64,.cls-65,.cls-66{fill:#4262d4}.cls-62{opacity:.09}.cls-63{opacity:.24}.cls-64{opacity:.57}.cls-65{opacity:.84}.cls-66{opacity:.11}</style></defs><g id="Header_Drive_Illus" data-name="Header Drive Illus"><g style="opacity:.5"><path style="stroke:url(#linear-gradient);stroke-width:1.1px;fill:none;stroke-miterlimit:10" d="m883 715.5-121-69.8-16.3 9.8-136.5-78.7"/><path style="stroke:url(#linear-gradient-2);stroke-width:1.1px;fill:none;stroke-miterlimit:10" d="m246.2 518.9 54.7 31.5 83.8-48.5 48.7-28 123.5 71.3"/><path style="stroke:url(#linear-gradient-3);stroke-width:1.1px;fill:none;stroke-miterlimit:10" d="m584.7 748.1 47.1-27.1-135.5-78.3L610.2 577"/><path style="stroke:url(#linear-gradient-4);stroke-width:1.1px;fill:none;stroke-miterlimit:10" d="M146 734.9 268.3 665l51.1 29.8 221.7-128.1"/></g><path style="fill:url(#linear-gradient-5)" d="M186.9 194.4 163.6 181v-26.9l23.3 13.5v26.8z"/><path style="fill:url(#linear-gradient-6)" d="m186.9 194.4 23.3-13.4v-26.9l-23.3 13.5v26.8z"/><path style="fill:url(#linear-gradient-7)" d="m186.9 167.6-23.3-13.5 23.3-13.4 23.3 13.4-23.3 13.5z"/><path style="fill:url(#linear-gradient-8);opacity:.5" d="M186.9 214.5 147 191.4v-46l39.9 23v46.1z"/><path style="fill:url(#linear-gradient-9);opacity:.5" d="m186.9 214.5 39.9-23.1v-46l-39.9 23v46.1z"/><path style="fill:url(#linear-gradient-10);opacity:.49" d="m186.9 168.4-39.9-23 39.9-23 39.9 23-39.9 23z"/><path style="fill:url(#linear-gradient-11)" d="m154.5 656.7-23.3-13.4v-26.9l23.3 13.5v26.8z"/><path style="fill:url(#linear-gradient-12)" d="m154.5 656.7 23.2-13.4v-26.9l-23.2 13.5v26.8z"/><path style="fill:url(#linear-gradient-13)" d="m154.5 629.9-23.3-13.5 23.3-13.4 23.2 13.4-23.2 13.5z"/><path style="fill:url(#linear-gradient-14);opacity:.5" d="m154.5 676.8-39.9-23.1v-46l39.9 23v46.1z"/><path style="fill:url(#linear-gradient-15);opacity:.5" d="m154.5 676.8 39.8-23.1v-46l-39.8 23v46.1z"/><path style="fill:url(#linear-gradient-16);opacity:.49" d="m154.5 630.7-39.9-23 39.9-23 39.8 23-39.8 23z"/><path style="fill:url(#linear-gradient-17)" d="M919.6 171.4 896.4 158v-26.9l23.2 13.4v26.9z"/><path style="fill:url(#linear-gradient-18)" d="m919.6 171.4 23.3-13.4v-26.9l-23.3 13.4v26.9z"/><path style="fill:url(#linear-gradient-19)" d="m919.6 144.5-23.2-13.4 23.2-13.4 23.3 13.4-23.3 13.4z"/><path style="fill:url(#linear-gradient-20);opacity:.5" d="m919.6 191.4-39.9-23v-46l39.9 23v46z"/><path style="fill:url(#linear-gradient-21);opacity:.5" d="m919.6 191.4 39.9-23v-46l-39.9 23v46z"/><path style="fill:url(#linear-gradient-22);opacity:.49" d="m919.6 145.4-39.9-23 39.9-23.1 39.9 23.1-39.9 23z"/><path style="fill:url(#linear-gradient-23)" d="M871.5 571.4 848.2 558v-26.9l23.3 13.4v26.9z"/><path style="fill:url(#linear-gradient-24)" d="m871.5 571.4 23.2-13.4v-26.9l-23.2 13.4v26.9z"/><path style="fill:url(#linear-gradient-25)" d="m871.5 544.5-23.3-13.4 23.3-13.5 23.2 13.5-23.2 13.4z"/><path style="fill:url(#linear-gradient-26);opacity:.5" d="m871.5 591.4-39.9-23v-46.1l39.9 23.1v46z"/><path style="fill:url(#linear-gradient-27);opacity:.5" d="m871.5 591.4 39.8-23v-46.1l-39.8 23.1v46z"/><path style="fill:url(#linear-gradient-28);opacity:.49" d="m871.5 545.4-39.9-23.1 39.9-23 39.8 23-39.8 23.1z"/><path class="cls-30" d="m584.5 313.3-53.3-30.7V221l53.3 30.8v61.5z"/><path class="cls-31" d="M547.6 258.5c-2.2 3-16.4 24.1-16.4 24.1l31.4 18.1Z"/><path style="fill:url(#linear-gradient-29)" d="m564.5 259.5-20 30.7 40 23.1-20-53.8z"/><ellipse class="cls-33" cx="543.7" cy="241.5" rx="3.6" ry="6.2" transform="rotate(-30 543.695 241.483)"/><path class="cls-34" d="M469.3 280.5Z"/><ellipse cx="605" cy="368.1" rx="1.8" ry="3" transform="matrix(.87 -.5 .5 .87 -103 351.81)" style="fill:#fcfcfc;opacity:.5"/><ellipse cx="593.1" cy="523.8" rx="5.6" ry="9.6" transform="rotate(-30 593.258 523.763)" style="stroke-width:1.23px;stroke:url(#linear-gradient-30);fill:none;stroke-miterlimit:10"/><ellipse cx="161.4" cy="478.1" rx="20.5" ry="11.8" style="fill:url(#radial-gradient)"/><path class="cls-34" d="M584.3 313.3zM533.1 219.8 531 221l2.1 1.2 51.2 29.6v61.5l2.1-1.2v-61.5l-53.3-30.8z"/><path style="stroke:#fcfcfc;stroke-width:2.89px;fill:none;stroke-miterlimit:10" d="m516.1 388-6.7-11"/><path class="cls-34" d="M586.1 618c-3.8 2.6-10.6 2.8-14.7.4l-67.1-38.7c-2-1.1-2.9-2.6-2.9-4.1v4.5a3.5 3.5 0 0 0 1.8 3.1l68.2 39.3a14.3 14.3 0 0 0 14.9-.4l47.9-32.9V585Z"/><path d="m630.3 587.6-11.8-91.7-48.8-28.2-12.6 77.7-52.2 25.9c-4.4 2.2-4.6 6.1-.6 8.4l67.2 38.7c4.1 2.4 10.8 2.2 14.6-.3l44.3-30.4Z" style="fill:#e2e8f4"/><path class="cls-34" d="m618.5 495.9 3.8-2.3 11.9 91.8-3.8 2.2-11.9-91.7zM586.1 618.1l44.3-30.4-73.3-42.4-52.2 25.9c-4.4 2.2-4.6 6.1-.6 8.4l67.2 38.7c4.1 2.5 10.8 2.3 14.6-.2Z"/><path class="cls-34" d="M750.7 620.8 389.6 412.4a11.5 11.5 0 0 1-5.6-9.8v-245a11.3 11.3 0 0 1 16.9-9.8L762 356.3a11.4 11.4 0 0 1 5.6 9.8v245a11.2 11.2 0 0 1-16.9 9.7Z"/><path class="cls-34" d="M767.4 353.2 406.3 144.7a11.3 11.3 0 0 0-10.1-.6 8.6 8.6 0 0 0-2.3 1.3l-2.8 1.6a11.4 11.4 0 0 1 9.8.7L762 356.3a11.1 11.1 0 0 1 5.6 9.7v245.1a11.1 11.1 0 0 1-3.8 8.4l1.7-1a10.6 10.6 0 0 0 3.3-1.8 11.2 11.2 0 0 0 4.2-8.8v-245a11.1 11.1 0 0 0-5.6-9.7Z"/><path d="M384 370.2v32.6a11.4 11.4 0 0 0 5.6 9.8l361.1 208.5a11.3 11.3 0 0 0 16.9-9.8v-19.6Z" style="fill:url(#linear-gradient-31)"/><path style="fill:url(#linear-gradient-32)" d="M757.3 575.8 393.7 365.2V156.1l363.6 210.6v209.1z"/><path d="M656.2 509.3 473.3 403.7a.8.8 0 0 1-.4-.7v-16.4a.8.8 0 0 1 1.2-.7L657 491.5a1 1 0 0 1 .4.7v16.4a.8.8 0 0 1-1.2.7Z" style="opacity:.19;fill:#fff"/><path d="M650.3 466.4 477 366.4a3 3 0 0 1-1.4-2.6V249.4a2.9 2.9 0 0 1 4.4-2.5l173.3 100a2.9 2.9 0 0 1 1.4 2.6v114.4a2.9 2.9 0 0 1-4.4 2.5Z" style="fill:#c5d1e9"/><path d="M654.7 371.6V348a2 2 0 0 0-.9-.9L479.6 246.5a3 3 0 0 0-4.4 2.6v18.8Z" style="fill:#f0f4f9"/><ellipse class="cls-34" cx="496.6" cy="271.3" rx="3" ry="5.2" transform="rotate(-30 496.52 271.242)"/><path class="cls-34" d="m603.7 332.2-70.5-40.8-.3-4.4 70.6 40.7.2 4.5z"/><path class="cls-45" d="m736.6 458.1-15.4-8.9a1.6 1.6 0 0 1-.7-1.3v-17.8a1.5 1.5 0 0 1 2.2-1.3l15.4 9a1.2 1.2 0 0 1 .7 1.2v17.8a1.4 1.4 0 0 1-2.2 1.3ZM736.6 486.4l-15.4-9a1.4 1.4 0 0 1-.7-1.2v-17.8a1.4 1.4 0 0 1 2.2-1.3l15.4 8.9a1.4 1.4 0 0 1 .7 1.3v17.8a1.5 1.5 0 0 1-2.2 1.3ZM736.6 429.9l-15.4-8.9a1.7 1.7 0 0 1-.7-1.3v-17.8a1.4 1.4 0 0 1 2.2-1.3l15.4 8.9a1.5 1.5 0 0 1 .7 1.3v17.8a1.5 1.5 0 0 1-2.2 1.3ZM736.6 401.6l-15.4-8.9a1.4 1.4 0 0 1-.7-1.2v-17.9a1.4 1.4 0 0 1 2.2-1.2l15.4 8.9a1.2 1.2 0 0 1 .7 1.2v17.9a1.4 1.4 0 0 1-2.2 1.2ZM712.3 415.7l-15.4-8.9a1.2 1.2 0 0 1-.7-1.2v-17.9a1.4 1.4 0 0 1 2.1-1.2l15.5 8.9a1.6 1.6 0 0 1 .7 1.3v17.8a1.4 1.4 0 0 1-2.2 1.2ZM712.3 387.5l-15.4-8.9a1.4 1.4 0 0 1-.7-1.3v-17.8a1.5 1.5 0 0 1 2.1-1.3l15.5 9a1.4 1.4 0 0 1 .7 1.2v17.8a1.4 1.4 0 0 1-2.2 1.3Z"/><g><path class="cls-34" d="M589.9 236.5 533 203.6V138l56.9 32.8v65.7z"/><path class="cls-31" d="M551.5 178.5c-2.3 3.2-17.5 25.7-17.5 25.7l33.5 19.4Z"/><path style="fill:url(#linear-gradient-33)" d="M567.3 178.4 546 211.2l42.7 24.6-21.4-57.4z"/><ellipse class="cls-33" cx="546" cy="161.5" rx="3.8" ry="6.6" transform="rotate(-30 546.118 161.532)"/><path class="cls-34" d="m535.3 136.8-2.3 1.3 2.3 1.3 54.6 31.5v65.6l2.2-1.2v-65.7l-56.8-32.8z"/></g><g><path class="cls-47" d="m533.2 364.9-41-23.7v-47.3l41 23.7v47.3z"/><path class="cls-31" d="m505.6 323.1-12.7 18.6 24.2 13.9Z"/><path style="fill:url(#linear-gradient-34)" d="m516.9 323-15.3 23.7 30.8 17.7-15.5-41.4z"/><ellipse class="cls-33" cx="501.6" cy="310.9" rx="2.8" ry="4.8" transform="rotate(-30 501.712 310.833)"/><path class="cls-34" d="m493.8 293-1.6 1 1.6.9 39.4 22.8V365l1.6-.9h.1v-47.4L493.8 293z"/></g><g><path class="cls-47" d="m581.7 394.9-41-23.7v-47.4l41 23.7v47.4z"/><path class="cls-34" d="m542.3 323-1.6.9 1.6.9 39.4 22.8v47.3l1.6-.9v-47.3l-41-23.7z"/></g><g><path class="cls-47" d="m631.3 423.1-41-23.7V352l41 23.7v47.4z"/><path class="cls-31" d="M603.7 381.3c-1.7 2.3-12.7 18.5-12.7 18.5l24.2 14Z"/><path style="fill:url(#linear-gradient-35)" d="m615 381.2-15.3 23.6 30.8 17.8-15.5-41.4z"/><ellipse class="cls-33" cx="599.7" cy="369" rx="2.8" ry="4.8" transform="rotate(-30 599.703 369.09)"/><path class="cls-34" d="m591.9 351.2-1.6.9 1.6 1 39.4 22.7v47.3l1.6-.9v-47.3l-41-23.7z"/></g><g><path class="cls-50" d="M566.7 369.3V368c0-.1 0-.2.1-.1l5 .3c.1 0 .1 0 0-.1l-5-5.4a.4.4 0 0 1-.1-.3V361c0-.1 0-.1.1-.1h.1l6.4 7.2c.1.1.2.2.2.3v1.3h-.1l-6.5-.3h-.2ZM562.3 367.7l-1.2-.7c-.1-.1-.2-.1-.2-.3l-3.8-14.8h.2l1.2.7.2.3 3.7 14.8c.1 0 0 .1-.1 0ZM552.1 361.1l-6.5-7.2a.4.4 0 0 1-.1-.3v-1.3c0-.1 0-.1.1-.1l6.5.3c.1 0 .1 0 .1.1h.1v1.4h-.1l-5.1-.3 5.1 5.4c0 .1.1.2.1.3v1.6c0 .1-.1.2-.1.1Z"/></g><ellipse cx="822.8" cy="346" rx="2.2" ry="4.9" transform="rotate(-50.4 823.697 345.942)" style="fill:url(#radial-gradient-2)"/><path style="fill:url(#linear-gradient-36)" d="m770.7 343.8 93.2 53.8V240.5l-93.2-53.8v157.1z"/><path class="cls-34" d="M828.9 346.1a23.5 23.5 0 0 1-3.8-11.9c0-7.1 5-10 11.1-6.4s11.2 12.2 11.2 19.3c0 3.3-1.2 5.8-3.1 7l5.8 19-6.3-5.6-2.4 5.9-4.6-16.5-5 10.5-3-8.4-6.3-.5Z"/><g><path class="cls-34" d="m784.8 218.7 65 37.5v-6.3l-65-37.5v6.3zM784.8 233.8l65 37.5v-3.2l-65-37.4v3.1zM784.8 241.8l65 37.5v-3.2l-65-37.5v3.2zM784.8 251l65 37.5v-3.2l-65-37.5v3.2zM784.8 260.8l65 37.5v-3.2l-65-37.5v3.2zM784.8 278.3l65 37.5v-3.2l-65-37.5v3.2zM784.8 285.3l65 37.5v-3.2l-65-37.5v3.2zM784.8 307.1l33.2 19.1v-3.1l-33.2-19.2v3.2zM784.8 314.7l33.2 19.1v-3.1l-33.2-19.2v3.2zM784.8 322.5l33.2 19.2v-3.2l-33.2-19.1v3.1z"/></g><path class="cls-34" d="m772.4 185.3 93.3 53.8v157.7l-2.2.6v-157l-91.1-52.6-2.1-1.3 2.1-1.2zM604.6 245.6 752.5 331V197.6l-147.9-85.4v133.4z"/><path class="cls-50" d="m618.7 244.8 117.6 67.9c3.2 1.9 5.9-.1 5.9-4.5v-85.5c0-4.4-2.7-9.4-5.9-11.3l-117.6-67.9c-3.2-1.9-5.9.1-5.9 4.5v85.5c0 4.4 2.7 9.4 5.9 11.3Z"/><path class="cls-30" d="m606.8 111 147.7 85.3v134l-2.1.7V197.6L661.3 145l-56.7-32.8 2.2-1.2z"/><g><path class="cls-50" d="M625.8 130.8v1.4c0 .1-.1.1-.2.1l-5-.4c-.1 0-.1.1 0 .1l5 5.5.2.2v1.4h-.2l-6.5-7.2-.2-.2v-1.3c0-.1.1-.1.1-.2l6.6.4h.2ZM630.1 132.5l1.2.6.2.3 3.8 14.8c0 .1 0 .2-.1.1l-1.3-.7v-.2l-3.9-14.8c0-.2 0-.2.1-.1ZM640.3 139.1l6.5 7.2a.4.4 0 0 1 .1.3v1.2c0 .1 0 .2-.1.2l-6.5-.3h-.1V146h.2l5 .4-5-5.5-.2-.2v-1.4h.2Z"/></g><g><path class="cls-34" d="m714 279-91-52.6v5.1l91 52.5v-5zM714 247.4l-91-52.5v5l91 52.5v-5zM666.8 229.1 623 203.8v5l43.8 25.3v-5zM682.5 252.9 623 218.5v5l59.5 34.4v-5zM682.5 207.2 623 172.8v5l59.5 34.4v-5zM647.6 194.4 623 180.1v5.1l24.6 14.2v-5zM647.6 178.1 623 163.9v5l24.6 14.2v-5z"/></g><g><path d="m615.5 800.4-1.8 1-56.1 32.4a6.2 6.2 0 0 1-6.2 0l-56.2-32.4-1.8-1a6.2 6.2 0 0 1-3-5.4v12.8a6.2 6.2 0 0 0 3 5.3l58 33.4a6.2 6.2 0 0 0 6.2 0l57.9-33.4a6.1 6.1 0 0 0 3.1-5.3V795a6.1 6.1 0 0 1-3.1 5.4Z" style="fill:url(#linear-gradient-37)"/><path d="m551.4 833.7-58-33.5a6.1 6.1 0 0 1 0-10.6l58-33.4a6.2 6.2 0 0 1 6.2 0l57.9 33.4a6.1 6.1 0 0 1 0 10.6l-57.9 33.5a6.2 6.2 0 0 1-6.2 0Z" style="fill:url(#linear-gradient-38)"/><path d="m551.4 833.8-58-33.4a6.2 6.2 0 0 1 0-10.7l58-33.4a6.2 6.2 0 0 1 6.2 0l57.9 33.4a6.2 6.2 0 0 1 0 10.7l-57.9 33.4a6.2 6.2 0 0 1-6.2 0Z" style="fill:url(#linear-gradient-39);opacity:.5"/><path d="m615.5 772.7-14.6 8.4-43.3 25a6.2 6.2 0 0 1-6.2 0l-43.3-25-14.7-8.4a6.2 6.2 0 0 1-3-5.3v27.5a6.1 6.1 0 0 0 3 5.3l58 33.5a6.2 6.2 0 0 0 6.2 0l57.9-33.5a6 6 0 0 0 3.1-5.3v-27.5a6.1 6.1 0 0 1-3.1 5.3Z" style="fill:url(#linear-gradient-40);opacity:.5"/><ellipse cx="554.5" cy="794.9" rx="42.7" ry="24.6" style="fill:url(#radial-gradient-3)"/><path d="m615.5 760-1.8 1-56.1 32.4a6.2 6.2 0 0 1-6.2 0L495.2 761l-1.8-1a6.2 6.2 0 0 1-3-5.3v12.7a6.2 6.2 0 0 0 3 5.3l58 33.4a6.2 6.2 0 0 0 6.2 0l57.9-33.4a6.1 6.1 0 0 0 3.1-5.3v-12.7a6.1 6.1 0 0 1-3.1 5.3Z" style="fill:url(#linear-gradient-41)"/><path d="m551.4 793.4-58-33.4a6.2 6.2 0 0 1 0-10.7l58-33.4a6.2 6.2 0 0 1 6.2 0l57.9 33.4a6.2 6.2 0 0 1 0 10.7l-57.9 33.4a6.2 6.2 0 0 1-6.2 0Z" style="fill:url(#linear-gradient-42)"/><path d="m551.9 787.3-48.7-28a5.2 5.2 0 0 1 0-8.9l48.7-28.1a5.3 5.3 0 0 1 5.2 0l48.6 28.1a5.1 5.1 0 0 1 0 8.9l-48.6 28a4.9 4.9 0 0 1-5.2 0Z" style="fill:url(#linear-gradient-43)"/><ellipse class="cls-61" cx="496.9" cy="765.6" rx=".6" ry="1" transform="rotate(-30 496.825 765.724)"/><ellipse class="cls-62" cx="499.3" cy="767" rx=".6" ry="1" transform="rotate(-30 499.287 766.984)"/><ellipse class="cls-63" cx="501.7" cy="768.5" rx=".6" ry="1" transform="rotate(-30 501.7 768.43)"/><ellipse class="cls-63" cx="504.2" cy="769.9" rx=".6" ry="1" transform="rotate(-30 504.112 769.876)"/><ellipse class="cls-61" cx="496.9" cy="767.9" rx=".6" ry="1" transform="rotate(-30 496.835 767.926)"/><ellipse class="cls-61" cx="499.3" cy="769.3" rx=".6" ry="1" transform="rotate(-30 499.247 769.373)"/><ellipse class="cls-63" cx="501.8" cy="770.7" rx=".6" ry="1" transform="rotate(-30 501.71 770.633)"/><ellipse class="cls-64" cx="504.2" cy="772.1" rx=".6" ry="1" transform="matrix(.87 -.5 .5 .87 -318.52 355.55)"/><ellipse class="cls-63" cx="496.9" cy="770.1" rx=".6" ry="1" transform="matrix(.87 -.5 .5 .87 -318.47 351.6)"/><ellipse class="cls-65" cx="499.3" cy="771.5" rx=".6" ry="1" transform="rotate(-30 499.307 771.389)"/><ellipse class="cls-66" cx="501.7" cy="772.9" rx=".6" ry="1" transform="rotate(-30 501.72 772.835)"/><ellipse class="cls-63" cx="504.1" cy="774.3" rx=".6" ry="1" transform="rotate(-30 504.132 774.282)"/><ellipse class="cls-61" cx="496.9" cy="772.4" rx=".6" ry="1" transform="matrix(.87 -.5 .5 .87 -319.61 351.92)"/><ellipse class="cls-63" cx="499.3" cy="773.8" rx=".6" ry="1" transform="rotate(-30 499.267 773.778)"/><ellipse class="cls-63" cx="501.7" cy="775.2" rx=".6" ry="1" transform="rotate(-30 501.68 775.225)"/><ellipse class="cls-61" cx="504.2" cy="776.6" rx=".6" ry="1" transform="rotate(-30 504.142 776.484)"/><path d="m551.8 787.7-48.7-28.1a5.2 5.2 0 0 1 0-8.9l48.7-28.1a5.3 5.3 0 0 1 5.2 0l48.6 28.1a5.1 5.1 0 0 1 0 8.9L557 787.7a5.3 5.3 0 0 1-5.2 0Z" style="stroke:url(#linear-gradient-44);stroke-width:.8px;fill:none;stroke-miterlimit:10"/></g><g><path d="m946.6 757-1.8 1-56.2 32.4a6.2 6.2 0 0 1-6.2 0L826.3 758l-1.8-1a6 6 0 0 1-3.1-5.3v12.7a6 6 0 0 0 3.1 5.3l57.9 33.4a6.2 6.2 0 0 0 6.2 0l58-33.4a6.1 6.1 0 0 0 3-5.3v-12.7a6.1 6.1 0 0 1-3 5.3Z" style="fill:url(#linear-gradient-45)"/><path d="m882.4 790.3-57.9-33.4a6.2 6.2 0 0 1 0-10.7l57.9-33.4a6.2 6.2 0 0 1 6.2 0l58 33.4a6.2 6.2 0 0 1 0 10.7l-58 33.4a6.2 6.2 0 0 1-6.2 0Z" style="fill:url(#linear-gradient-46)"/><path d="m882.5 790.4-58-33.4a6.1 6.1 0 0 1 0-10.6l58-33.5a6.1 6.1 0 0 1 6.1 0l58 33.5a6.1 6.1 0 0 1 0 10.6l-58 33.4a6.1 6.1 0 0 1-6.1 0Z" style="fill:url(#linear-gradient-47);opacity:.5"/><path d="m946.6 729.3-14.7 8.5-43.3 25a6.1 6.1 0 0 1-6.1 0l-43.4-25-14.6-8.5a6 6 0 0 1-3.1-5.3v27.5a6.1 6.1 0 0 0 3.1 5.4l58 33.4a6.1 6.1 0 0 0 6.1 0l58-33.4a6.3 6.3 0 0 0 3.1-5.4V724a6.2 6.2 0 0 1-3.1 5.3Z" style="fill:url(#linear-gradient-48);opacity:.5"/><ellipse cx="885.5" cy="751.5" rx="42.7" ry="24.6" style="fill:url(#radial-gradient-4)"/><path d="m946.6 716.6-1.8 1.1-56.2 32.3a6.2 6.2 0 0 1-6.2 0l-56.1-32.3-1.8-1.1a6 6 0 0 1-3.1-5.3V724a6 6 0 0 0 3.1 5.3l57.9 33.5a6.2 6.2 0 0 0 6.2 0l58-33.5a6.1 6.1 0 0 0 3-5.3v-12.7a6.1 6.1 0 0 1-3 5.3Z" style="fill:url(#linear-gradient-49)"/><path d="m882.4 750-57.9-33.4a6.1 6.1 0 0 1 0-10.6l57.9-33.5a6.8 6.8 0 0 1 6.2 0l58 33.5a6.1 6.1 0 0 1 0 10.6l-58 33.4a6.2 6.2 0 0 1-6.2 0Z" style="fill:url(#linear-gradient-50)"/><path d="m882.9 744-48.6-28.1a5.1 5.1 0 0 1 0-8.9l48.6-28.1a5.3 5.3 0 0 1 5.2 0l48.7 28.1a5.2 5.2 0 0 1 0 8.9L888.1 744a5.3 5.3 0 0 1-5.2 0Z" style="fill:url(#linear-gradient-51)"/><ellipse class="cls-61" cx="827.9" cy="722.3" rx=".6" ry="1" transform="rotate(-30 827.88 722.23)"/><ellipse class="cls-62" cx="830.4" cy="723.7" rx=".6" ry="1" transform="rotate(-30 830.292 723.676)"/><ellipse class="cls-63" cx="832.8" cy="725.1" rx=".6" ry="1" transform="rotate(-30 832.704 725.122)"/><ellipse class="cls-63" cx="835.2" cy="726.5" rx=".6" ry="1" transform="rotate(-30 835.116 726.569)"/><ellipse class="cls-61" cx="828" cy="724.6" rx=".6" ry="1" transform="rotate(-30 828.026 724.669)"/><ellipse class="cls-61" cx="830.4" cy="726" rx=".6" ry="1" transform="rotate(-30 830.488 725.929)"/><ellipse class="cls-63" cx="832.8" cy="727.4" rx=".6" ry="1" transform="rotate(-30 832.9 727.375)"/><ellipse class="cls-64" cx="835.2" cy="728.8" rx=".6" ry="1" transform="rotate(-30 835.313 728.821)"/><ellipse class="cls-63" cx="827.9" cy="726.7" rx=".6" ry="1" transform="matrix(.87 -.5 .5 .87 -252.44 511.31)"/><ellipse class="cls-65" cx="830.3" cy="728.1" rx=".6" ry="1" transform="rotate(-30 830.311 728.081)"/><ellipse class="cls-66" cx="832.8" cy="729.5" rx=".6" ry="1" transform="rotate(-30 832.724 729.528)"/><ellipse class="cls-63" cx="835.2" cy="730.9" rx=".6" ry="1" transform="rotate(-30 835.136 730.974)"/><ellipse class="cls-61" cx="827.9" cy="729" rx=".6" ry="1" transform="rotate(-30 827.859 729.024)"/><ellipse class="cls-63" cx="830.4" cy="730.4" rx=".6" ry="1" transform="rotate(-30 830.271 730.47)"/><ellipse class="cls-63" cx="832.8" cy="731.8" rx=".6" ry="1" transform="rotate(-30 832.733 731.73)"/><ellipse class="cls-61" cx="835.2" cy="733.2" rx=".6" ry="1" transform="rotate(-30 835.146 733.177)"/><path d="m882.8 744.4-48.6-28.1a5.1 5.1 0 0 1 0-8.9l48.6-28.1a5.3 5.3 0 0 1 5.2 0l48.7 28.1a5.2 5.2 0 0 1 0 8.9L888 744.4a5.3 5.3 0 0 1-5.2 0Z" style="stroke:url(#linear-gradient-52);stroke-width:.8px;fill:none;stroke-miterlimit:10"/></g><g><path d="m269.5 494.3-1.8 1.1-56.2 32.3a6.2 6.2 0 0 1-6.2 0l-56.1-32.3-1.8-1.1a6 6 0 0 1-3.1-5.3v12.7a6 6 0 0 0 3.1 5.3l57.9 33.5a6.2 6.2 0 0 0 6.2 0l58-33.5a6.1 6.1 0 0 0 3-5.3V489a6.1 6.1 0 0 1-3 5.3Z" style="fill:url(#linear-gradient-53)"/><path d="m205.3 527.6-57.9-33.4a6.2 6.2 0 0 1 0-10.7l57.9-33.4a6.2 6.2 0 0 1 6.2 0l58 33.4a6.3 6.3 0 0 1 0 10.7l-58 33.4a6.2 6.2 0 0 1-6.2 0Z" style="fill:url(#linear-gradient-54)"/><path d="m205.3 527.7-57.9-33.4a6.1 6.1 0 0 1 0-10.6l57.9-33.4a6.2 6.2 0 0 1 6.2 0l58 33.4a6.1 6.1 0 0 1 0 10.6l-58 33.4a6.2 6.2 0 0 1-6.2 0Z" style="fill:url(#linear-gradient-55);opacity:.5"/><path d="m269.5 466.6-14.7 8.5-43.3 25a6.2 6.2 0 0 1-6.2 0l-43.3-25-14.6-8.5a5.9 5.9 0 0 1-3.1-5.3v27.6a6.1 6.1 0 0 0 3.1 5.3l57.9 33.4a6.2 6.2 0 0 0 6.2 0l58-33.4a6.2 6.2 0 0 0 3-5.3v-27.6a6 6 0 0 1-3 5.3Z" style="fill:url(#linear-gradient-56);opacity:.5"/><ellipse cx="208.4" cy="488.9" rx="42.7" ry="24.6" style="fill:url(#radial-gradient-5)"/><path d="m269.5 453.9-1.8 1.1-56.2 32.4a6.2 6.2 0 0 1-6.2 0L149.2 455l-1.8-1.1a6 6 0 0 1-3.1-5.3v12.7a5.9 5.9 0 0 0 3.1 5.3l57.9 33.5a6.2 6.2 0 0 0 6.2 0l58-33.5a6 6 0 0 0 3-5.3v-12.7a6.1 6.1 0 0 1-3 5.3Z" style="fill:url(#linear-gradient-57)"/><path d="m205.3 487.4-57.9-33.5a6.1 6.1 0 0 1 0-10.6l57.9-33.4a6.2 6.2 0 0 1 6.2 0l58 33.4a6.2 6.2 0 0 1 0 10.6l-58 33.5a6.2 6.2 0 0 1-6.2 0Z" style="fill:url(#linear-gradient-58)"/><path d="m205.8 481.3-48.7-28.1a5.2 5.2 0 0 1 0-8.9l48.7-28.1a5.3 5.3 0 0 1 5.2 0l48.7 28.1a5.2 5.2 0 0 1 0 8.9L211 481.3a5.3 5.3 0 0 1-5.2 0Z" style="fill:url(#linear-gradient-59)"/><ellipse class="cls-61" cx="150.8" cy="459.6" rx=".6" ry="1" transform="rotate(-30 150.845 459.619)"/><ellipse class="cls-62" cx="153.2" cy="461" rx=".6" ry="1" transform="rotate(-30 153.258 461.065)"/><ellipse class="cls-63" cx="155.7" cy="462.4" rx=".6" ry="1" transform="rotate(-30 155.72 462.325)"/><ellipse class="cls-63" cx="158.1" cy="463.8" rx=".6" ry="1" transform="rotate(-30 158.133 463.772)"/><ellipse class="cls-61" cx="150.8" cy="461.9" rx=".6" ry="1" transform="rotate(-30 150.855 461.822)"/><ellipse class="cls-61" cx="153.3" cy="463.3" rx=".6" ry="1" transform="rotate(-30 153.268 463.268)"/><ellipse class="cls-63" cx="155.7" cy="464.7" rx=".6" ry="1" transform="rotate(-30 155.68 464.714)"/><ellipse class="cls-64" cx="158.1" cy="466.1" rx=".6" ry="1" transform="rotate(-30 158.093 466.16)"/><ellipse class="cls-63" cx="150.8" cy="464" rx=".6" ry="1" transform="matrix(.87 -.5 .5 .87 -211.81 137.56)"/><ellipse class="cls-65" cx="153.2" cy="465.4" rx=".6" ry="1" transform="matrix(.87 -.5 .5 .87 -212.19 138.96)"/><ellipse class="cls-66" cx="155.6" cy="466.8" rx=".6" ry="1" transform="rotate(-30 155.69 466.917)"/><ellipse class="cls-63" cx="158.1" cy="468.2" rx=".6" ry="1" transform="matrix(.87 -.5 .5 .87 -212.94 141.77)"/><ellipse class="cls-61" cx="150.8" cy="466.3" rx=".6" ry="1" transform="rotate(-30 150.875 466.227)"/><ellipse class="cls-63" cx="153.2" cy="467.7" rx=".6" ry="1" transform="rotate(-30 153.287 467.673)"/><ellipse class="cls-63" cx="155.7" cy="469.1" rx=".6" ry="1" transform="rotate(-30 155.7 469.12)"/><ellipse class="cls-61" cx="158.1" cy="470.5" rx=".6" ry="1" transform="rotate(-30 158.112 470.566)"/><path d="M205.7 481.7 157 453.6a5.2 5.2 0 0 1 0-8.9l48.7-28.1a5.3 5.3 0 0 1 5.2 0l48.7 28.1a5.2 5.2 0 0 1 0 8.9l-48.7 28.1a5.3 5.3 0 0 1-5.2 0Z" style="stroke:url(#linear-gradient-60);stroke-width:.8px;fill:none;stroke-miterlimit:10"/></g><g><path d="m171.3 800-1.8 1-56.2 32.4a6.1 6.1 0 0 1-6.1 0L51 801l-1.8-1a6.3 6.3 0 0 1-3.1-5.4v12.7a6.3 6.3 0 0 0 3.1 5.4l58 33.4a6.1 6.1 0 0 0 6.1 0l58-33.4a6.1 6.1 0 0 0 3.1-5.4v-12.7a6.1 6.1 0 0 1-3.1 5.4Z" style="fill:url(#linear-gradient-61)"/><path d="m107.2 833.2-58-33.4a6.1 6.1 0 0 1 0-10.6l58-33.4a6.1 6.1 0 0 1 6.1 0l58 33.4a6.1 6.1 0 0 1 0 10.6l-58 33.4a6.1 6.1 0 0 1-6.1 0Z" style="fill:url(#linear-gradient-62)"/><path d="m107.2 833.4-58-33.4a6.2 6.2 0 0 1 0-10.7l58-33.4a6.2 6.2 0 0 1 6.2 0l57.9 33.4a6.2 6.2 0 0 1 0 10.7l-57.9 33.4a6.2 6.2 0 0 1-6.2 0Z" style="fill:url(#linear-gradient-63);opacity:.5"/><path d="m171.3 772.3-14.6 8.4-43.3 25a6.2 6.2 0 0 1-6.2 0l-43.3-25-14.7-8.4a6.2 6.2 0 0 1-3-5.3v27.5a6.1 6.1 0 0 0 3 5.3l58 33.4a6.2 6.2 0 0 0 6.2 0l57.9-33.4a6 6 0 0 0 3.1-5.3V767a6.1 6.1 0 0 1-3.1 5.3Z" style="fill:url(#linear-gradient-64);opacity:.5"/><ellipse cx="110.3" cy="794.5" rx="42.7" ry="24.6" style="fill:url(#radial-gradient-6)"/><path d="m171.3 759.6-1.8 1-56.2 32.4a6.1 6.1 0 0 1-6.1 0L51 760.6l-1.8-1a6.3 6.3 0 0 1-3.1-5.4V767a6.3 6.3 0 0 0 3.1 5.3l58 33.4a6.1 6.1 0 0 0 6.1 0l58-33.4a6.1 6.1 0 0 0 3.1-5.3v-12.8a6.1 6.1 0 0 1-3.1 5.4Z" style="fill:url(#linear-gradient-65)"/><path d="m107.2 793-58-33.4a6.2 6.2 0 0 1 0-10.7l58-33.4a6.1 6.1 0 0 1 6.1 0l58 33.4a6.2 6.2 0 0 1 0 10.7l-58 33.4a6.1 6.1 0 0 1-6.1 0Z" style="fill:url(#linear-gradient-66)"/><path d="m107.7 786.9-48.7-28a5.2 5.2 0 0 1 0-9l48.7-28a5.2 5.2 0 0 1 5.1 0l48.7 28a5.2 5.2 0 0 1 0 9l-48.7 28a4.7 4.7 0 0 1-5.1 0Z" style="fill:url(#linear-gradient-67)"/><ellipse class="cls-61" cx="52.7" cy="765.2" rx=".6" ry="1" transform="rotate(-30 52.73 765.33)"/><ellipse class="cls-62" cx="55.1" cy="766.6" rx=".6" ry="1" transform="rotate(-30 55.193 766.589)"/><ellipse class="cls-63" cx="57.5" cy="768" rx=".6" ry="1" transform="rotate(-30 57.606 768.035)"/><ellipse class="cls-63" cx="60" cy="769.4" rx=".6" ry="1" transform="rotate(-30 60.018 769.482)"/><ellipse class="cls-61" cx="52.7" cy="767.5" rx=".6" ry="1" transform="rotate(-30 52.74 767.532)"/><ellipse class="cls-61" cx="55.1" cy="768.9" rx=".6" ry="1" transform="rotate(-30 55.153 768.978)"/><ellipse class="cls-63" cx="57.6" cy="770.3" rx=".6" ry="1" transform="rotate(-30 57.565 770.425)"/><ellipse class="cls-64" cx="60" cy="771.7" rx=".6" ry="1" transform="rotate(-30 60.028 771.684)"/><ellipse class="cls-63" cx="52.6" cy="769.7" rx=".6" ry="1" transform="rotate(-30 52.564 769.684)"/><ellipse class="cls-65" cx="55.1" cy="771.1" rx=".6" ry="1" transform="rotate(-30 54.976 771.13)"/><ellipse class="cls-66" cx="57.5" cy="772.5" rx=".6" ry="1" transform="rotate(-30 57.439 772.39)"/><ellipse class="cls-63" cx="59.9" cy="773.9" rx=".6" ry="1" transform="rotate(-30 59.851 773.837)"/><ellipse class="cls-61" cx="52.7" cy="771.9" rx=".6" ry="1" transform="rotate(-30 52.76 771.937)"/><ellipse class="cls-63" cx="55.1" cy="773.3" rx=".6" ry="1" transform="rotate(-30 55.173 773.383)"/><ellipse class="cls-63" cx="57.5" cy="774.7" rx=".6" ry="1" transform="rotate(-30 57.585 774.83)"/><ellipse class="cls-61" cx="60" cy="776.2" rx=".6" ry="1" transform="rotate(-30 60.047 776.09)"/><path d="m107.6 787.3-48.7-28.1a5.2 5.2 0 0 1 0-8.9l48.7-28.1a5.2 5.2 0 0 1 5.1 0l48.7 28.1a5.1 5.1 0 0 1 0 8.9l-48.7 28.1a5.2 5.2 0 0 1-5.1 0Z" style="stroke:url(#linear-gradient-68);stroke-width:.8px;fill:none;stroke-miterlimit:10"/></g></g></svg>