<svg xmlns="http://www.w3.org/2000/svg" xmlns:xlink="http://www.w3.org/1999/xlink" viewBox="0 0 540 502"><defs><linearGradient id="linear-gradient" x1="42.82" y1="261.66" x2="537.6" y2="261.66" gradientUnits="userSpaceOnUse"><stop offset="0" stop-color="#00ffda"/><stop offset="1" stop-color="#843fff"/></linearGradient><linearGradient id="linear-gradient-2" x1="175.19" y1="132.09" x2="369.76" y2="132.09" gradientTransform="rotate(12.5 408.67 238.463)" gradientUnits="userSpaceOnUse"><stop offset="0" stop-color="#9cd7ff"/><stop offset="1" stop-color="#4b78ba"/></linearGradient><linearGradient id="linear-gradient-3" x1="190.83" y1="110.51" x2="272.67" y2="110.51" gradientTransform="rotate(12.5 408.67 238.463)" gradientUnits="userSpaceOnUse"><stop offset="0" stop-color="#00ffda"/><stop offset="1" stop-color="#00caed"/></linearGradient><linearGradient id="linear-gradient-4" x1="270.29" y1="179.59" x2="350" y2="179.59" xlink:href="#linear-gradient-3"/><linearGradient id="linear-gradient-5" x1="245.12" y1="53.36" x2="273.16" y2="53.36" xlink:href="#linear-gradient-3"/><linearGradient id="linear-gradient-6" x1="327.25" y1="89.24" x2="366.88" y2="89.24" xlink:href="#linear-gradient-3"/><linearGradient id="linear-gradient-7" x1="225.21" y1="337.97" x2="281.08" y2="337.97" gradientTransform="rotate(26.6 379.085 91.066)" gradientUnits="userSpaceOnUse"><stop offset=".01" stop-color="#6f90bf"/><stop offset="1" stop-color="#5413ff"/></linearGradient><linearGradient id="linear-gradient-8" x1="247.52" y1="330.34" x2="314.63" y2="330.34" xlink:href="#linear-gradient-7"/><linearGradient id="linear-gradient-9" x1="375.72" y1="437.01" x2="383.83" y2="437.01" gradientTransform="rotate(30 379.71 437.057)" gradientUnits="userSpaceOnUse"><stop offset="0" stop-color="#fff"/><stop offset="1" stop-color="#c5d1e9"/></linearGradient><linearGradient id="linear-gradient-10" x1="269.52" y1="359.29" x2="477.92" y2="359.29" gradientUnits="userSpaceOnUse"><stop offset="0" stop-color="#b6c6e3"/><stop offset="1" stop-color="#6f90bf"/></linearGradient><linearGradient id="linear-gradient-11" x1="265.67" y1="422.08" x2="474.96" y2="422.08" gradientUnits="userSpaceOnUse"><stop offset="0" stop-color="#e2e8f4"/><stop offset="1" stop-color="#b6c6e3"/></linearGradient><linearGradient id="linear-gradient-12" x1="370.14" y1="465.41" x2="370.14" y2="236.38" gradientUnits="userSpaceOnUse"><stop offset="0" stop-color="#77aceb"/><stop offset="1" stop-color="#0094ff"/></linearGradient><linearGradient id="linear-gradient-13" x1="402.79" y1="205.95" x2="407.59" y2="205.95" gradientTransform="scale(-1 1) rotate(-60.1 7.563 888.48)" xlink:href="#linear-gradient-9"/><linearGradient id="linear-gradient-14" x1="339.79" y1="159.85" x2="463.4" y2="159.85" gradientTransform="matrix(-1 0 0 1 793.41 0)" xlink:href="#linear-gradient-10"/><linearGradient id="linear-gradient-15" x1="337.51" y1="197.09" x2="461.65" y2="197.09" gradientTransform="matrix(-1 0 0 1 793.41 0)" xlink:href="#linear-gradient-11"/><linearGradient id="linear-gradient-16" x1="399.47" y1="222.79" x2="399.47" y2="86.95" gradientTransform="matrix(-1 0 0 1 793.41 0)" xlink:href="#linear-gradient-12"/><style>.cls-7{fill:#085ed5}.cls-9{fill:#529bea}.cls-22{fill:#9cd7ff}.cls-15{fill:#1e4489}.cls-17{fill:#b6c6e3}.cls-18{fill:#e2e8f4}.cls-22{opacity:.41}</style></defs><g id="Header_Manager_Illus" data-name="Header Manager Illus"><path d="M311 56.9c79.2-18.1 157.4 6.4 197.8 62.4s27.4 123.7 23.7 141.9C513 357.9 429.4 407.5 407.8 420.4c-83.8 49.7-249.2 90-326.9-8.7-57.3-72.6-46.2-194 8.6-249.4 17.6-17.9 56.2-34.9 133.3-68.8C259.4 77.3 290 65 311 56.9Z" style="opacity:.3;fill:url(#linear-gradient)"/><circle cx="298.8" cy="105" r="97.3" style="fill:url(#linear-gradient-2)"/><path d="M235.5 65.4c-.2.4-14.2 11.8-14.2 11.8a83.9 83.9 0 0 0 1.9 16.7c1.8 3.8 2.8 5.8 5 9.9l4.5-.5c-1.4-3.5-2.1-5.3-3.3-8.6l2.7-.4a120.3 120.3 0 0 0 2.5 15.4c6.1 3.9 9.2 6.1 15.4 10.5l8.9 1.8 7.5 4.5 7.8 6.4 15.5 1.9-1.8-3.4-11.2-.6v-7.7l-3.7-1.6-6.8 1.4 1.3-3.8 2.2-4.7 5.5-1.8-2.5-1.6-8.4 1.3-3.2 5.3-7.7-2.2c-1.3-4-1.9-6-3.1-9.9 1.6-3.4 2.5-5 4.2-8.4l10.8 1.9 1-3.5 10.8 1.5 3.8 10h1.9l3-7.9-4.7-3 4.7-5.6c2.4-5.9 3.5-8.9 5.9-14.9 6.2-2.9 9.3-4.4 15.4-7.1.3-2.2.4-3.4.7-5.6 0 0-4.7 2.3-5.2.7s-.5-3.5-1.1-3.4-5.8 2.3-5.8 2.3c.9-2.9 1.4-4.4 2.3-7.4l10.1-.4s-2.8-4.1-3.9-4.9-11.7-9.4-11.7-9.4-3.4-1.2-3.9-.1-1.4 7.3-1.4 7.3l1.7 1.6-4.9 5-5-.6c-3.3-1.8-4.9-2.6-8-4.1l4-8.3 12.3-7.4-2.6-6.1-7.8-5.1c-3.6 1.2-5.4 1.9-9 3.4-1.1 2.9-1.6 4.3-2.5 7.2l2.6 3.7c-3.8-2.8-5.6-4-8.7-6-.2-1.5-.2-2.3-.3-3.8l-9.7 6.8-7.9 6.8a38.1 38.1 0 0 1-2.4 3.2l-7.3 5.1-4.2 2.1s4.2.5 4.8.2l10.1-6-2.2 5.8s-7.9 7.3-8 7.8 3.3 6.5 3.3 6.5Z" style="fill:url(#linear-gradient-3)"/><path d="M294.4 114.6c7.6 1.7 22.3 4.4 22.3 4.4.1 4.5.2 6.7.2 11.2-6.8.9-10.2 1.3-17 1.9-4.6 6.7-6.9 10.1-11 16.5-1.4 4.4-2.1 6.6-3.3 11 3.6 4.6 5.3 6.9 8.6 11.5 4.6 1.9 6.9 2.7 11.4 4.3a191.6 191.6 0 0 0-11.8 21.1 36.6 36.6 0 0 0 4.1 2.6c10.5-2.2 22.7-10.3 33.5-16.5 0 0 3.3-12.5 4.2-12.9l21-11.9c5.6-7.8 8.5-11.5 14.1-18.7a115.7 115.7 0 0 1-11.6-5.9l-8.9 7.3a207.1 207.1 0 0 1-19.7-7.2l-8.7-4.1 1.5-9.8-3.5-6.7Z" style="fill:url(#linear-gradient-4)"/><path d="M292.1 12.8a47.3 47.3 0 0 1 5.4-2.2c4.6 2.3 7 3.6 12.1 6.5 1.6 5.4 2.4 8.2 4.2 13.6 0 0 1 6.8.5 7.1s-4.4 2.5-5 2.4a37.9 37.9 0 0 1-5.9-3.5c-.7-.9-6.7-12-6.7-12l-7.2-4.6c1.1-2.9 1.6-4.4 2.6-7.3Z" style="fill:url(#linear-gradient-5)"/><path d="M366.3 53.5c-.2.2 5.6 24.5 5.6 24.5 3.7 2.5 5.6 3.7 9.3 6a85.5 85.5 0 0 1-1.6 10.8c3.7 3.6 5.5 5.4 9 8.6 0 0 7 .8 7.1.4s-1.6-13.2-2-15-5.6-13.2-6.1-13.8c-6-7-21.3-21.5-21.3-21.5Z" style="fill:url(#linear-gradient-6)"/><path class="cls-7" d="M311.1 97.7 299 87.4a26 26 0 0 0 2.6-7.4 25.6 25.6 0 1 0-8.1 14.5l11.8 10.1a4.5 4.5 0 1 0 5.8-6.9Zm-38.2-3.8a18.9 18.9 0 1 1 22-15.2 18.9 18.9 0 0 1-22 15.2Z"/><path style="fill:#99c1f0" d="m133.2 273.7-93 29.8-37.8-118 57-18.3 46.6 21.5 27.2 85z"/><path class="cls-9" d="m59.4 167.2 46.6 21.5-18 5.8-18 5.7-5.2-16-5.4-17z"/><path transform="rotate(26.6 179.303 245.493)" style="fill:#bbd6f5" d="M135 202.6h89.1v86.64H135z"/><path style="fill:url(#linear-gradient-7)" d="m167.1 233.8 1.7 27.9 1.6 27.8-24.9-12.4-25-12.5 23.3-15.4 23.3-15.4z"/><path style="fill:url(#linear-gradient-8)" d="m199 232.4.7 36.2.6 36.1-30-15-30-15 29.4-21.1 29.3-21.2z"/><rect class="cls-7" x="51.2" y="262.7" width="115.7" height="90.25" rx="7.2" transform="rotate(-15.1 109.58 308.569)"/><path d="m60.4 291.5-5.6-2.2 3.8-4.7 3.7-4.7.5 1.8-1.7 2.2-3.8 4.7 5.6 2.2 2.6 1 .5 1.9Zm18.5-4.9 3.8-4.7-5.7-2.2-5.6-2.2.5 1.9 2.6 1 5.6 2.2-3.7 4.7-1.8 2.2.6 1.9Zm-7.2 5.8 1.9-.5-7.9-12.9-1.9.5Z" style="fill:#9cd7ff"/><path transform="rotate(-15.1 111.925 316.94)" style="fill:#fff" d="M62.7 289.4h97.2v53.58H62.7z"/><g><path class="cls-9" transform="rotate(-15.1 96.044 300.633)" d="M64.6 298.4h62v2.63h-62z"/><path class="cls-9" transform="rotate(-15.1 93.912 308.027)" d="M66.5 306h54.2v2.63H66.5z"/><path class="cls-9" transform="rotate(-15.1 82.177 318.372)" d="M68.7 316.2h26v2.63h-26z"/><path class="cls-9" transform="rotate(-15.1 91.962 322.74)" d="M70.2 320.5h42.4v2.63H70.2z"/><path class="cls-9" transform="rotate(-15.1 82.263 332.203)" d="M72.4 330.1h19.2v2.63H72.4z"/><path class="cls-9" transform="rotate(-15.1 110.73 331.753)" d="M73.2 329.4h74.5v2.63H73.2z"/><path class="cls-9" transform="rotate(-15.1 117.347 336.853)" d="M74.8 334.7h83.9v2.63H74.8z"/></g><g><path class="cls-15" d="M224.1 382.5v-39.1a2 2 0 0 0-2-1.9h-19.8a2 2 0 0 0-2 1.9v39.1a2 2 0 0 1-2 1.9h-11.4a1.9 1.9 0 0 0-1.6 3l12.3 16.7 13 17.6a2.1 2.1 0 0 0 3.2 0l12.9-17.6 12.3-16.7a1.9 1.9 0 0 0-1.6-3H226a1.9 1.9 0 0 1-1.9-1.9Z"/><rect class="cls-15" x="168" y="433.3" width="88.3" height="8.08" rx="2.3"/></g><g><ellipse cx="379.8" cy="437" rx="3" ry="5.3" transform="rotate(-30 379.72 436.946)" style="stroke-width:.67px;stroke:url(#linear-gradient-9);fill:none;stroke-miterlimit:10"/><path class="cls-17" d="M375 322.2h-.1.1zM375.9 488.5a8.4 8.4 0 0 1-8 .2l-36.6-21.1a2.9 2.9 0 0 1-1.6-2.3v2.5a1.8 1.8 0 0 0 1 1.6l37.2 21.5a7.6 7.6 0 0 0 8.1-.2l26.2-18v-2.3Z"/><path class="cls-18" d="m400.1 471.9-6.5-50.1-26.6-15.4-6.9 42.4-28.5 14.2c-2.4 1.2-2.5 3.3-.3 4.6l36.6 21.1a8.4 8.4 0 0 0 8-.2l24.2-16.6Z"/><path class="cls-17" d="m393.6 421.8 2.1-1.2 6.5 50-2.1 1.3-6.5-50.1zM375.9 488.5l24.2-16.6-40-23.1-28.5 14.2c-2.4 1.2-2.5 3.3-.3 4.6l36.6 21.1a8.4 8.4 0 0 0 8-.2Z"/><path class="cls-17" d="m465.7 490-197-113.8a6 6 0 0 1-3-5.3V237.2a6.1 6.1 0 0 1 9.2-5.3l197 113.7a6.3 6.3 0 0 1 3.1 5.4v133.7a6.2 6.2 0 0 1-9.3 5.3Z"/><path d="m474.8 343.9-197-113.7a5.7 5.7 0 0 0-5.5-.3l-1.3.7-1.5.9a6.1 6.1 0 0 1 5.4.4l197 113.7a6.3 6.3 0 0 1 3.1 5.4v133.6a6.2 6.2 0 0 1-2.1 4.6l.9-.5a4 4 0 0 0 1.8-1 6 6 0 0 0 2.3-4.8V349.2a6.3 6.3 0 0 0-3.1-5.3Z" style="fill:url(#linear-gradient-10)"/><path d="M265.7 353.2V371a6.2 6.2 0 0 0 3 5.4l197 113.7a6.2 6.2 0 0 0 9.3-5.3v-10.7Z" style="fill:url(#linear-gradient-11)"/><path style="fill:url(#linear-gradient-12)" d="M469.3 465.4 271 350.5V236.4l198.3 114.9v114.1z"/><path class="cls-22" d="m307.4 257.5 24.1 13.9 32.2 132.8-30.9-17.9-25.4-128.8zM339.1 275.9l16.7 9.7 31.9 132.5-18.2-10.5-30.4-131.7z"/></g><g><ellipse cx="388.2" cy="205.9" rx="3.1" ry="1.8" transform="rotate(-60 388.258 205.917)" style="stroke-width:.4px;stroke:url(#linear-gradient-13);fill:none;stroke-miterlimit:10"/><ellipse cx="345" cy="248" rx=".2" ry=".1" transform="rotate(-60 345.056 247.946)" style="fill:#4262d4"/><path class="cls-17" d="M391.1 137.8zM390.5 236.5a5.4 5.4 0 0 0 4.8.1l21.7-12.5a1.7 1.7 0 0 0 .9-1.4v1.5a1.1 1.1 0 0 1-.6 1l-22.1 12.7a4.6 4.6 0 0 1-4.8-.1l-15.5-10.7v-1.3Z"/><path class="cls-18" d="m376.2 226.6 3.8-29.7 15.8-9.1 4.1 25.1 16.9 8.4c1.4.7 1.5 2 .2 2.8l-21.8 12.5a4.9 4.9 0 0 1-4.7-.1l-14.3-9.9Z"/><path class="cls-17" d="m380 196.9-1.2-.7-3.9 29.7 1.3.7 3.8-29.7z"/><path class="cls-17" d="m390.5 236.5-14.3-9.9 23.7-13.7 16.9 8.4c1.4.7 1.5 2 .2 2.8l-21.8 12.5a4.9 4.9 0 0 1-4.7-.1ZM337.2 237.4l116.9-67.5a3.7 3.7 0 0 0 1.8-3.2V87.4a3.6 3.6 0 0 0-5.5-3.1l-116.8 67.5a3.5 3.5 0 0 0-1.8 3.1v79.3a3.6 3.6 0 0 0 5.4 3.2Z"/><path d="m331.8 150.7 116.9-67.4a3.6 3.6 0 0 1 3.2-.2h.1l.7.4.9.6a3.6 3.6 0 0 0-3.2.2l-116.8 67.4a3.8 3.8 0 0 0-1.8 3.2v79.3a3.3 3.3 0 0 0 1.2 2.7l-.6-.3a2.7 2.7 0 0 1-1-.6 3.5 3.5 0 0 1-1.4-2.8v-79.3a3.8 3.8 0 0 1 1.8-3.2Z" style="fill:url(#linear-gradient-14)"/><path d="M455.9 156.3v10.5a3.8 3.8 0 0 1-1.8 3.2l-116.9 67.4a3.6 3.6 0 0 1-5.4-3.1v-6.4Z" style="fill:url(#linear-gradient-15)"/><path style="fill:url(#linear-gradient-16)" d="m335.1 222.8 117.7-68.2V86.9l-117.7 68.2v67.7z"/><path class="cls-22" d="m431.1 99.5-14.2 8.2-19.1 78.8 18.3-10.6 15-76.4zM412.3 110.4l-9.9 5.7-18.9 78.6 10.8-6.2 18-78.1z"/></g></g></svg>