<svg xmlns="http://www.w3.org/2000/svg" xmlns:xlink="http://www.w3.org/1999/xlink" viewBox="0 0 495.05271 388.36801">
  <defs>
    <style>
      .cls-1 {
        fill: #d2e1f1;
      }

      .cls-2 {
        fill: #7aaadb;
      }

      .cls-3 {
        opacity: 0.49;
      }

      .cls-16, .cls-17, .cls-18, .cls-19, .cls-20, .cls-21, .cls-4, .cls-5 {
        fill: none;
      }

      .cls-16, .cls-18, .cls-20, .cls-4 {
        stroke: #5d98d1;
      }

      .cls-10, .cls-11, .cls-12, .cls-14, .cls-16, .cls-17, .cls-18, .cls-19, .cls-20, .cls-21, .cls-4, .cls-5 {
        stroke-miterlimit: 10;
      }

      .cls-4, .cls-5 {
        stroke-width: 1.2877px;
      }

      .cls-17, .cls-19, .cls-21, .cls-5 {
        stroke: #1a4688;
      }

      .cls-12, .cls-6 {
        fill: #1d4588;
      }

      .cls-7 {
        fill: url(#linear-gradient);
      }

      .cls-13, .cls-8 {
        fill: #d1e1f2;
      }

      .cls-8 {
        fill-rule: evenodd;
      }

      .cls-9 {
        fill: #1a4789;
      }

      .cls-10 {
        fill: #4b78ba;
        stroke: #1a4789;
        stroke-width: 1.94046px;
      }

      .cls-11, .cls-14 {
        fill: #5d98d1;
      }

      .cls-11, .cls-12, .cls-14 {
        stroke: #1d4588;
      }

      .cls-11 {
        stroke-width: 0.92133px;
      }

      .cls-12, .cls-14 {
        stroke-width: 0.97023px;
      }

      .cls-15 {
        fill: #d6e5f2;
      }

      .cls-16, .cls-17 {
        stroke-width: 1.07311px;
      }

      .cls-18, .cls-19 {
        stroke-width: 0.8051px;
      }

      .cls-20, .cls-21 {
        stroke-width: 0.95516px;
      }
    </style>
    <linearGradient id="linear-gradient" x1="-303.38985" y1="242.49586" x2="-302.88985" y2="242.49586" gradientUnits="userSpaceOnUse">
      <stop offset="0" stop-color="#7baadb"/>
      <stop offset="1" stop-color="#4b78ba"/>
    </linearGradient>
  </defs>
  <g id="Network_Part" data-name="Network Part">
    <g>
      <g>
        <polygon class="cls-1" points="184.486 156.348 150.365 136.648 150.365 97.248 184.486 116.948 184.486 156.348"/>
        <polygon class="cls-1" points="184.486 116.948 150.365 97.248 184.486 77.548 218.607 97.248 184.486 116.948"/>
        <polygon class="cls-1" points="218.607 136.44 184.486 156.348 184.486 116.948 218.607 97.248 218.607 136.44"/>
        <polygon class="cls-2" points="184.486 138.51 166.34 128.034 166.34 107.08 184.486 117.557 184.486 138.51"/>
        <polygon class="cls-2" points="184.486 117.557 166.34 107.08 184.486 96.604 202.632 107.08 184.486 117.557"/>
        <polygon class="cls-2" points="202.632 127.923 184.486 138.51 184.486 117.557 202.632 107.08 202.632 127.923"/>
        <g class="cls-3">
          <polyline class="cls-4" points="150.365 97.248 184.486 117.557 184.486 156.348"/>
          <line class="cls-4" x1="218.60736" y1="97.24807" x2="184.48606" y2="117.55705"/>
        </g>
        <polygon class="cls-5" points="218.607 97.248 184.486 77.548 150.365 97.248 150.365 136.648 184.486 156.348 218.607 136.44 218.607 97.248"/>
      </g>
      <g>
        <path class="cls-6" d="M55.86812,114.29773H416.83324a9.95751,9.95751,0,0,1,9.95751,9.95751V370.05067a9.95751,9.95751,0,0,1-9.95751,9.95751H55.86812a9.95739,9.95739,0,0,1-9.95739-9.95739V124.25512A9.95739,9.95739,0,0,1,55.86812,114.29773Z"/>
        <path class="cls-6" d="M416.83336,114.29773v-.48511H55.86824a10.44273,10.44273,0,0,0-10.44262,10.44262V370.05067a10.44269,10.44269,0,0,0,10.44262,10.44259H416.83336a10.44259,10.44259,0,0,0,10.44239-10.44259V124.25524a10.44261,10.44261,0,0,0-10.44239-10.44262v.97017a9.47238,9.47238,0,0,1,9.47228,9.47245V370.05067a9.47233,9.47233,0,0,1-9.47228,9.47239H55.86824a9.47256,9.47256,0,0,1-9.47251-9.47239V124.25524a9.47256,9.47256,0,0,1,9.47251-9.47245H416.83336Z"/>
      </g>
      <rect class="cls-7" x="58.17756" y="128.66217" width="355.4775" height="227.66738"/>
      <path class="cls-8" d="M494.57513,73.5638c-.00153.02976-.00255.05921-.00255.08867v-.08719Z"/>
      <path class="cls-9" d="M5.58488,381.059l460.66286.1698a64.1129,64.1129,0,0,1-9.61913,3.71818,82.7634,82.7634,0,0,1-23.67749,3.32069c-13.00526.04276-173.59971.20268-394.17015,0a82.85045,82.85045,0,0,1-22.013-3.08321A76.57461,76.57461,0,0,1,5.58488,381.059Z"/>
      <path class="cls-10" d="M236.3507,371.69134H.97023v1.333c0,4.7465,4.66173,8.59428,10.41224,8.59428H461.31892c5.75057,0,10.41225-3.84778,10.41225-8.59428v-1.333Z"/>
      <rect class="cls-11" x="12.65314" y="91.50276" width="109.63403" height="109.63403"/>
      <rect class="cls-12" x="234.85747" y="144.35762" width="109.63403" height="121.57973"/>
      <polygon class="cls-13" points="22.462 188.827 48.893 124.567 78.5 188.827 22.462 188.827"/>
      <polygon class="cls-13" points="85.104 144.101 53.048 188.827 112.478 188.827 85.104 144.101"/>
      <circle class="cls-13" cx="95.36077" cy="124.97474" r="8.02677"/>
      <rect class="cls-14" x="246.14369" y="171.81081" width="87.59408" height="81.08529"/>
      <g>
        <path class="cls-15" d="M255.90906,163.50419a.17167.17167,0,0,1-.17481-.00879l-7.03808-3.21094a.27127.27127,0,0,1-.15674-.24609v-1.42872a.24941.24941,0,0,1,.15674-.24707l7.03808-3.21093a.26588.26588,0,0,1,.105-.03516c.09278,0,.13965.06543.13965.19434V156.845a.27128.27128,0,0,1-.15722.24707l-5.082,2.16992q-.10473.05272,0,.10547l5.082,2.1875a.25.25,0,0,1,.15722.24707v1.53418A.18315.18315,0,0,1,255.90906,163.50419Z"/>
        <path class="cls-15" d="M260.5365,164.06864a.19554.19554,0,0,1-.01709-.18555l4.27832-11.92383a.21979.21979,0,0,1,.22705-.17578h1.58936a.16912.16912,0,0,1,.1748.2461l-4.27881,11.92382a.21935.21935,0,0,1-.22705.17676h-1.58935A.19549.19549,0,0,1,260.5365,164.06864Z"/>
        <path class="cls-15" d="M272.04529,163.53055c-.09326,0-.13965-.06445-.13965-.19433V161.802a.25025.25025,0,0,1,.15674-.24707l5.082-2.1875q.10546-.05274,0-.10547l-5.082-2.16992a.27164.27164,0,0,1-.15674-.24707v-1.53418a.18421.18421,0,0,1,.06982-.168.17072.17072,0,0,1,.17432.00879l7.03809,3.21093a.24915.24915,0,0,1,.15722.24707v1.42872a.27092.27092,0,0,1-.15722.24609l-7.03809,3.21094A.26674.26674,0,0,1,272.04529,163.53055Z"/>
      </g>
      <rect class="cls-13" x="252.59934" y="178.75355" width="59.31341" height="2.38694"/>
      <rect class="cls-13" x="252.14527" y="208.1348" width="59.31341" height="2.38694"/>
      <rect class="cls-13" x="252.14527" y="213.94272" width="59.31341" height="2.38694"/>
      <rect class="cls-13" x="252.25916" y="232.13859" width="59.31341" height="2.38694"/>
      <rect class="cls-13" x="252.25916" y="237.94651" width="59.31341" height="2.38694"/>
      <rect class="cls-13" x="252.14527" y="219.92147" width="43.56034" height="2.38694"/>
      <rect class="cls-13" x="252.59934" y="184.66968" width="59.31341" height="2.38694"/>
      <rect class="cls-13" x="252.59934" y="190.84303" width="42.92619" height="2.38694"/>
      <g>
        <polygon class="cls-1" points="162.865 264.568 134.429 248.151 134.429 215.317 162.865 231.734 162.865 264.568"/>
        <polygon class="cls-1" points="162.865 231.734 134.429 215.317 162.864 198.9 191.3 215.317 162.865 231.734"/>
        <polygon class="cls-1" points="191.3 247.977 162.865 264.568 162.865 231.734 191.3 215.317 191.3 247.977"/>
        <polygon class="cls-2" points="162.865 249.703 147.742 240.972 147.742 223.51 162.865 232.241 162.865 249.703"/>
        <polygon class="cls-2" points="162.865 232.241 147.742 223.51 162.864 214.78 177.987 223.511 162.865 232.241"/>
        <polygon class="cls-2" points="177.987 240.88 162.865 249.703 162.865 232.241 177.987 223.511 177.987 240.88"/>
        <g class="cls-3">
          <polyline class="cls-16" points="134.429 215.317 162.865 232.241 162.865 264.568"/>
          <line class="cls-16" x1="191.29958" y1="215.31672" x2="162.86455" y2="232.24123"/>
        </g>
        <polygon class="cls-17" points="191.3 215.317 162.864 198.9 134.429 215.317 134.429 248.151 162.865 264.568 191.3 247.977 191.3 215.317"/>
      </g>
      <g>
        <polygon class="cls-1" points="362.097 85.77 327.976 66.07 327.976 26.67 362.097 46.37 362.097 85.77"/>
        <polygon class="cls-1" points="362.097 46.37 327.976 26.67 362.097 6.97 396.218 26.67 362.097 46.37"/>
        <polygon class="cls-1" points="396.218 65.861 362.097 85.77 362.097 46.37 396.218 26.67 396.218 65.861"/>
        <polygon class="cls-2" points="362.097 67.932 343.951 57.456 343.951 36.502 362.097 46.979 362.097 67.932"/>
        <polygon class="cls-2" points="362.097 46.979 343.951 36.502 362.097 26.026 380.243 36.502 362.097 46.979"/>
        <polygon class="cls-2" points="380.243 57.345 362.097 67.932 362.097 46.979 380.243 36.502 380.243 57.345"/>
        <g class="cls-3">
          <polyline class="cls-4" points="327.976 26.67 362.097 46.979 362.097 85.77"/>
          <line class="cls-4" x1="396.21826" y1="26.67001" x2="362.09695" y2="46.97899"/>
        </g>
        <polygon class="cls-5" points="396.218 26.67 362.097 6.97 327.976 26.67 327.976 66.07 362.097 85.77 396.218 65.861 396.218 26.67"/>
      </g>
      <g>
        <polygon class="cls-1" points="473.242 171.307 451.908 158.99 451.908 134.356 473.242 146.673 473.242 171.307"/>
        <polygon class="cls-1" points="473.242 146.673 451.908 134.356 473.242 122.039 494.575 134.356 473.242 146.673"/>
        <polygon class="cls-1" points="494.575 158.859 473.242 171.307 473.242 146.673 494.575 134.356 494.575 158.859"/>
        <polygon class="cls-2" points="473.242 160.154 461.896 153.604 461.896 140.503 473.242 147.054 473.242 160.154"/>
        <polygon class="cls-2" points="473.242 147.054 461.896 140.503 473.242 133.953 484.587 140.503 473.242 147.054"/>
        <polygon class="cls-2" points="484.587 153.534 473.242 160.154 473.242 147.054 484.587 140.503 484.587 153.534"/>
        <g class="cls-3">
          <polyline class="cls-18" points="451.908 134.356 473.242 147.054 473.242 171.307"/>
          <line class="cls-18" x1="494.57513" y1="134.35595" x2="473.2417" y2="147.05359"/>
        </g>
        <polygon class="cls-19" points="494.575 134.356 473.242 122.039 451.908 134.356 451.908 158.99 473.242 171.307 494.575 158.859 494.575 134.356"/>
      </g>
      <g>
        <polygon class="cls-1" points="333.738 327.927 299.616 308.227 299.616 268.827 333.738 288.528 333.738 327.927"/>
        <polygon class="cls-1" points="333.738 288.527 299.616 268.827 333.738 249.128 367.859 268.828 333.738 288.527"/>
        <polygon class="cls-1" points="367.859 308.019 333.738 327.927 333.738 288.528 367.859 268.828 367.859 308.019"/>
        <polygon class="cls-2" points="333.738 310.09 315.592 299.613 315.592 278.66 333.738 289.137 333.738 310.09"/>
        <polygon class="cls-2" points="333.738 289.137 315.592 278.66 333.738 268.183 351.884 278.66 333.738 289.137"/>
        <polygon class="cls-2" points="351.884 299.502 333.738 310.09 333.738 289.137 351.884 278.66 351.884 299.502"/>
        <g class="cls-3">
          <polyline class="cls-4" points="299.616 268.827 333.738 289.137 333.738 327.927"/>
          <line class="cls-4" x1="367.85914" y1="268.82755" x2="333.73783" y2="289.13653"/>
        </g>
        <polygon class="cls-5" points="367.859 268.828 333.738 249.128 299.616 268.827 299.616 308.227 333.738 327.927 367.859 308.019 367.859 268.828"/>
      </g>
      <g>
        <polygon class="cls-1" points="278.142 103.558 256.808 91.241 256.808 66.607 278.142 78.924 278.142 103.558"/>
        <polygon class="cls-1" points="278.142 78.924 256.808 66.607 278.142 54.29 299.475 66.607 278.142 78.924"/>
        <polygon class="cls-1" points="299.475 91.11 278.142 103.558 278.142 78.924 299.475 66.607 299.475 91.11"/>
        <polygon class="cls-2" points="278.142 92.405 266.797 85.855 266.797 72.754 278.142 79.305 278.142 92.405"/>
        <polygon class="cls-2" points="278.142 79.305 266.797 72.754 278.142 66.204 289.487 72.754 278.142 79.305"/>
        <polygon class="cls-2" points="289.487 85.786 278.142 92.405 278.142 79.305 289.487 72.754 289.487 85.786"/>
        <g class="cls-3">
          <polyline class="cls-18" points="256.808 66.607 278.142 79.305 278.142 103.558"/>
          <line class="cls-18" x1="299.47531" y1="66.60696" x2="278.14188" y2="79.3046"/>
        </g>
        <polygon class="cls-19" points="299.475 66.607 278.142 54.29 256.808 66.607 256.808 91.241 278.142 103.558 299.475 91.11 299.475 66.607"/>
      </g>
      <g>
        <polygon class="cls-1" points="205.801 59.002 180.491 44.389 180.491 15.164 205.801 29.777 205.801 59.002"/>
        <polygon class="cls-1" points="205.801 29.777 180.491 15.164 205.8 0.551 231.11 15.164 205.801 29.777"/>
        <polygon class="cls-1" points="231.11 44.234 205.801 59.002 205.801 29.777 231.11 15.164 231.11 44.234"/>
        <polygon class="cls-2" points="205.8 45.77 192.341 37.999 192.341 22.457 205.8 30.228 205.8 45.77"/>
        <polygon class="cls-2" points="205.8 30.228 192.341 22.457 205.8 14.686 219.26 22.457 205.8 30.228"/>
        <polygon class="cls-2" points="219.26 37.917 205.8 45.77 205.8 30.228 219.26 22.457 219.26 37.917"/>
        <g class="cls-3">
          <polyline class="cls-20" points="180.491 15.164 205.8 30.228 205.801 59.002"/>
          <line class="cls-20" x1="231.11011" y1="15.16404" x2="205.80049" y2="30.22831"/>
        </g>
        <polygon class="cls-21" points="231.11 15.164 205.8 0.551 180.491 15.164 180.491 44.389 205.801 59.002 231.11 44.234 231.11 15.164"/>
      </g>
      <g>
        <polygon class="cls-1" points="469.266 265.832 443.956 251.219 443.956 221.994 469.266 236.607 469.266 265.832"/>
        <polygon class="cls-1" points="469.266 236.607 443.956 221.994 469.265 207.381 494.575 221.994 469.266 236.607"/>
        <polygon class="cls-1" points="494.575 251.064 469.266 265.832 469.266 236.607 494.575 221.994 494.575 251.064"/>
        <polygon class="cls-2" points="469.266 252.6 455.806 244.829 455.806 229.287 469.266 237.058 469.266 252.6"/>
        <polygon class="cls-2" points="469.266 237.058 455.806 229.287 469.265 221.516 482.725 229.287 469.266 237.058"/>
        <polygon class="cls-2" points="482.725 244.747 469.266 252.6 469.266 237.058 482.725 229.287 482.725 244.747"/>
        <g class="cls-3">
          <polyline class="cls-20" points="443.956 221.994 469.266 237.058 469.266 265.832"/>
          <line class="cls-20" x1="494.57513" y1="221.99408" x2="469.26551" y2="237.05835"/>
        </g>
        <polygon class="cls-21" points="494.575 221.994 469.265 207.381 443.956 221.994 443.956 251.219 469.266 265.832 494.575 251.064 494.575 221.994"/>
      </g>
      <g>
        <polygon class="cls-1" points="391.962 205.989 366.652 191.377 366.652 162.152 391.962 176.764 391.962 205.989"/>
        <polygon class="cls-1" points="391.962 176.764 366.652 162.152 391.961 147.539 417.271 162.152 391.962 176.764"/>
        <polygon class="cls-1" points="417.271 191.222 391.962 205.989 391.962 176.764 417.271 162.152 417.271 191.222"/>
        <polygon class="cls-2" points="391.962 192.758 378.502 184.987 378.502 169.445 391.962 177.216 391.962 192.758"/>
        <polygon class="cls-2" points="391.962 177.216 378.502 169.445 391.961 161.674 405.421 169.445 391.962 177.216"/>
        <polygon class="cls-2" points="405.421 184.905 391.962 192.758 391.962 177.216 405.421 169.445 405.421 184.905"/>
        <g class="cls-3">
          <polyline class="cls-20" points="366.652 162.152 391.962 177.216 391.962 205.989"/>
          <line class="cls-20" x1="417.27113" y1="162.15182" x2="391.96151" y2="177.21609"/>
        </g>
        <polygon class="cls-21" points="417.271 162.152 391.961 147.539 366.652 162.152 366.652 191.377 391.962 205.989 417.271 191.222 417.271 162.152"/>
      </g>
    </g>
  </g>
</svg>
