<svg xmlns="http://www.w3.org/2000/svg" xmlns:xlink="http://www.w3.org/1999/xlink" viewBox="0 0 344 265"><defs><linearGradient id="linear-gradient" x1="263.1" y1="162.34" x2="263.1" y2="187.87" gradientUnits="userSpaceOnUse"><stop offset="0" stop-color="#ddeafa"/><stop offset="1" stop-color="#5413ff"/></linearGradient><linearGradient id="linear-gradient-2" x1="277.84" y1="187.87" x2="277.84" y2="162.34" xlink:href="#linear-gradient"/><linearGradient id="linear-gradient-3" x1="255.73" y1="162.33" x2="285.21" y2="162.33" xlink:href="#linear-gradient"/><linearGradient id="linear-gradient-4" x1="245.21" y1="178.67" x2="270.47" y2="178.67" xlink:href="#linear-gradient"/><linearGradient id="linear-gradient-5" x1="270.47" y1="178.67" x2="295.72" y2="178.67" xlink:href="#linear-gradient"/><linearGradient id="linear-gradient-6" x1="245.21" y1="156.79" x2="295.72" y2="156.79" xlink:href="#linear-gradient"/><linearGradient id="linear-gradient-7" x1="104.66" y1="197.93" x2="104.66" y2="224.66" xlink:href="#linear-gradient"/><linearGradient id="linear-gradient-8" x1="120.1" y1="224.66" x2="120.1" y2="197.93" xlink:href="#linear-gradient"/><linearGradient id="linear-gradient-9" x1="96.95" y1="197.93" x2="127.81" y2="197.93" xlink:href="#linear-gradient"/><linearGradient id="linear-gradient-10" x1="85.93" y1="215.03" x2="112.38" y2="215.03" xlink:href="#linear-gradient"/><linearGradient id="linear-gradient-11" x1="112.38" y1="215.03" x2="138.83" y2="215.03" xlink:href="#linear-gradient"/><linearGradient id="linear-gradient-12" x1="85.93" y1="192.13" x2="138.83" y2="192.13" xlink:href="#linear-gradient"/><linearGradient id="linear-gradient-13" x1="163.97" y1="45.05" x2="163.97" y2="71.78" xlink:href="#linear-gradient"/><linearGradient id="linear-gradient-14" x1="179.4" y1="71.78" x2="179.4" y2="45.05" xlink:href="#linear-gradient"/><linearGradient id="linear-gradient-15" x1="156.25" y1="45.05" x2="187.12" y2="45.05" xlink:href="#linear-gradient"/><linearGradient id="linear-gradient-16" x1="145.24" y1="62.15" x2="171.69" y2="62.15" xlink:href="#linear-gradient"/><linearGradient id="linear-gradient-17" x1="171.69" y1="62.15" x2="198.13" y2="62.15" xlink:href="#linear-gradient"/><linearGradient id="linear-gradient-18" x1="145.24" y1="39.25" x2="198.13" y2="39.25" xlink:href="#linear-gradient"/><linearGradient id="linear-gradient-19" x1="-150.95" y1="509.42" x2="-88.34" y2="509.42" gradientTransform="matrix(.89 -.58 -.45 1.41 413.01 -712.53)" gradientUnits="userSpaceOnUse"><stop offset="0" stop-color="#d6e5f3"/><stop offset="1" stop-color="#6f90bf"/></linearGradient><linearGradient id="linear-gradient-20" x1="-115.56" y1="575.1" x2="-56.83" y2="575.1" gradientTransform="matrix(.89 -.58 -.45 1.41 413.01 -712.53)" gradientUnits="userSpaceOnUse"><stop offset="0" stop-color="#529bea"/><stop offset="1" stop-color="#00caed"/></linearGradient><style>.cls-1{fill:#d6e5f3}.cls-4{fill:#bbd6f5}.cls-5{fill:#ddeafa}.cls-26{fill:#fff}</style></defs><g id="Manager"><path class="cls-1" d="M127.8 111.1Z"/><ellipse cx="222.4" cy="172.2" rx="1.2" ry="2.1" transform="rotate(-30 222.457 172.207)" style="opacity:.5;fill:#bbd6f5"/><path class="cls-1" d="M208 134v-.1.1z"/><path style="fill:none;stroke:#bbd6f5;stroke-miterlimit:10;stroke-width:2.01px" d="m160.5 186-4.7-7.6"/><path class="cls-1" d="M254.1 240.7 133.2 171a2.2 2.2 0 0 1-1-1.8V89.4a2 2 0 0 1 3-1.8l120.9 69.8a2.1 2.1 0 0 1 1 1.8V239a2 2 0 0 1-3 1.7Z"/><path class="cls-4" d="M257.1 174.6v-16.5l-.6-.6L135 87.4a2.1 2.1 0 0 0-3.1 1.8v13.1Z"/><ellipse class="cls-5" cx="146.8" cy="104.7" rx="2.1" ry="3.6" transform="rotate(-30 146.74 104.719)"/><path class="cls-5" d="m221.5 147.1-49.2-28.4-.1-3.1 49.2 28.4.1 3.1z"/><path class="cls-4" d="m154.8 133.6-15.5-8.9v-10.9l15.5 9v10.8zM173.7 144.5l-15.6-8.9v-10.9l15.6 8.9v10.9zM192.5 155.4l-15.5-9v-10.8l15.5 8.9v10.9zM211.3 166.3l-15.5-9v-10.8l15.5 8.9v10.9zM230.2 177.2l-15.5-9v-10.9l15.5 9v10.9zM249 188l-15.5-8.9v-10.9l15.5 9V188zM154.8 147.9l-15.5-9v-10.8l15.5 8.9v10.9zM173.7 158.8l-15.6-9v-10.9l15.6 9v10.9zM192.5 169.6l-15.5-8.9v-10.9l15.5 9v10.8zM211.3 180.5l-15.5-8.9v-10.9l15.5 9v10.8zM230.2 191.4l-15.5-9v-10.8l15.5 8.9v10.9zM249 202.3l-15.5-9v-10.8l15.5 8.9v10.9zM154.6 162l-15.5-8.9v-10.9l15.5 9V162zM173.5 172.9l-15.5-9v-10.8l15.5 8.9v10.9zM192.3 183.8l-15.5-9V164l15.5 8.9v10.9zM211.2 194.7l-15.5-9v-10.9l15.5 9v10.9zM230 205.6l-15.5-9v-10.9l15.5 9v10.9zM248.9 216.4l-15.5-8.9v-10.9l15.5 9v10.8zM154.6 176.3l-15.5-9v-10.8l15.5 8.9v10.9zM173.5 187.2l-15.5-9v-10.9l15.5 9v10.9zM192.3 198l-15.5-8.9v-10.9l15.5 9V198zM211.2 208.9l-15.5-8.9v-10.9l15.5 9v10.8zM230 219.8l-15.5-9V200l15.5 8.9v10.9zM248.9 230.7l-15.5-9v-10.8l15.5 8.9v10.9z"/><g><path style="fill:url(#linear-gradient)" d="m270.5 187.9-14.8-8.5v-17.1l14.8 8.5v17.1z"/><path style="fill:url(#linear-gradient-2)" d="m270.5 187.9 14.7-8.5v-17.1l-14.7 8.5v17.1z"/><path style="fill:url(#linear-gradient-3)" d="m270.5 170.8-14.8-8.5 14.8-8.5 14.7 8.5-14.7 8.5z"/><path style="fill:url(#linear-gradient-4);opacity:.5" d="M270.5 200.5 245.2 186v-29.2l25.3 14.6v29.1z"/><path style="fill:url(#linear-gradient-5);opacity:.5" d="m270.5 200.5 25.2-14.5v-29.2l-25.2 14.6v29.1z"/><path style="fill:url(#linear-gradient-6);opacity:.49" d="m270.5 171.4-25.3-14.6 25.3-14.6 25.2 14.6-25.2 14.6z"/></g><g><path style="fill:url(#linear-gradient-7)" d="m112.4 224.7-15.5-9v-17.8l15.5 8.9v17.9z"/><path style="fill:url(#linear-gradient-8)" d="m112.4 224.7 15.4-9v-17.8l-15.4 8.9v17.9z"/><path style="fill:url(#linear-gradient-9)" d="m112.4 206.8-15.5-8.9 15.5-8.9 15.4 8.9-15.4 8.9z"/><path style="fill:url(#linear-gradient-10);opacity:.5" d="m112.4 237.9-26.5-15.2v-30.6l26.5 15.3v30.5z"/><path style="fill:url(#linear-gradient-11);opacity:.5" d="m112.4 237.9 26.4-15.2v-30.6l-26.4 15.3v30.5z"/><path style="fill:url(#linear-gradient-12);opacity:.49" d="m112.4 207.4-26.5-15.3 26.5-15.2 26.4 15.2-26.4 15.3z"/></g><g><path style="fill:url(#linear-gradient-13)" d="m171.7 71.8-15.4-8.9V45l15.4 9v17.8z"/><path style="fill:url(#linear-gradient-14)" d="m171.7 71.8 15.4-8.9V45l-15.4 9v17.8z"/><path style="fill:url(#linear-gradient-15)" d="m171.7 54-15.4-9 15.4-8.9 15.4 8.9-15.4 9z"/><path style="fill:url(#linear-gradient-16);opacity:.5" d="m171.7 85.1-26.5-15.3V39.2l26.5 15.3v30.6z"/><path style="fill:url(#linear-gradient-17);opacity:.5" d="m171.7 85.1 26.4-15.3V39.2l-26.4 15.3v30.6z"/><path style="fill:url(#linear-gradient-18);opacity:.49" d="m171.7 54.5-26.5-15.3L171.7 24l26.4 15.2-26.4 15.3z"/></g><path d="m103.2 148.7-51.7 29.8c-1.8 1-3.2-.1-3.2-2.5V71.5c0-2.3 1.4-5.1 3.2-6.1l51.7-29.8c1.8-1 3.2.1 3.2 2.4v104.5a7.8 7.8 0 0 1-3.2 6.2Z" style="fill:#b6c6e3"/><path d="m96.7 80-39 22.5c-1.8 1-3.2-.1-3.2-2.5V79.2a7.5 7.5 0 0 1 3.3-6.1l38.9-22.5c1.8-1 3.2.1 3.2 2.5v20.8a7.9 7.9 0 0 1-3.2 6.1Z" style="fill:url(#linear-gradient-19)"/><path class="cls-26" d="m97.9 100.4-42.2 24.3c-1.1.7-2 0-2-1.4v-5.5a4.6 4.6 0 0 1 2-3.7l42.2-24.4c1.1-.6 2 .1 2 1.5v5.5a4.6 4.6 0 0 1-2 3.7ZM99.9 112.7v-5.4c0-1.5-.8-2.1-1.9-1.5l-42.3 24.3a4.9 4.9 0 0 0-1.9 3.8v5.4c0 1.4.8 2.1 1.9 1.5L98 116.4a4.4 4.4 0 0 0 1.9-3.7Z"/><path d="m99.6 142.7-44.1 25.4c-1.1.6-2-.1-2-1.6v-5.6a4.9 4.9 0 0 1 2-3.9l44.1-25.4c1.2-.7 2.1 0 2.1 1.5v5.7a4.8 4.8 0 0 1-2.1 3.9Z" style="fill:url(#linear-gradient-20)"/><path class="cls-1" d="m77.1 100.1-22.8 13.2v-2.4l22.8-13.2v2.4zM77.2 116.5l-22.8 13.1v-2.4l22.8-13.1v2.4z"/><ellipse class="cls-1" cx="69.6" cy="143.3" rx="2.9" ry="1.7" transform="rotate(-60 69.579 143.286)"/><ellipse class="cls-1" cx="75.8" cy="139.7" rx="2.9" ry="1.7" transform="rotate(-60 75.846 139.63)"/><ellipse class="cls-1" cx="82" cy="135.9" rx="2.9" ry="1.7" transform="rotate(-60 81.94 135.874)"/><g><path class="cls-1" d="m92.2 49.9-2.3 1.4q-.3.2-.3-.3v-2.1a.6.6 0 0 1 .3-.6l2.3-1.4q.3-.1.3.3v2.1a.6.6 0 0 1-.3.6ZM96.1 47.7 93.8 49c-.2.1-.3 0-.3-.2v-2.2a.7.7 0 0 1 .3-.6l2.4-1.3c.1-.1.3 0 .3.2v2.2a.8.8 0 0 1-.4.6ZM100.1 45.4l-2.4 1.3c-.1.1-.3 0-.3-.2v-2.2a.9.9 0 0 1 .3-.5l2.4-1.4c.1-.1.3 0 .3.2v2.2a1.1 1.1 0 0 1-.3.6Z"/></g><path style="fill:#529bea" d="m65.2 86.2-6.3 3.6v-6.5l6.3-3.6v6.5z"/></g></svg>