<svg id="Layer_1" data-name="Layer 1" xmlns="http://www.w3.org/2000/svg" xmlns:xlink="http://www.w3.org/1999/xlink" viewBox="0 0 642.43769 221.82093">
  <defs>
    <style>
      .cls-1 {
        fill: #d2e1f1;
      }

      .cls-2 {
        fill: #7aaadb;
      }

      .cls-3 {
        opacity: 0.49;
      }

      .cls-4, .cls-5 {
        fill: none;
        stroke-width: 0.5px;
      }

      .cls-4 {
        stroke: #5d98d1;
      }

      .cls-4, .cls-5, .cls-6 {
        stroke-miterlimit: 10;
      }

      .cls-5 {
        stroke: #1a4688;
      }

      .cls-6 {
        stroke: #1d4588;
        stroke-width: 3px;
        fill: url(#linear-gradient);
      }
    </style>
    <linearGradient id="linear-gradient" x1="312.50154" y1="96.51149" x2="481.55319" y2="96.51149" gradientUnits="userSpaceOnUse">
      <stop offset="0" stop-color="#1d4588"/>
      <stop offset="1" stop-color="#4b78ba"/>
    </linearGradient>
  </defs>
  <g>
    <g>
      <polygon class="cls-1" points="183.283 80.438 149.162 60.738 149.162 21.338 183.283 41.038 183.283 80.438"/>
      <polygon class="cls-1" points="183.283 41.038 149.162 21.338 183.283 1.638 217.404 21.338 183.283 41.038"/>
      <polygon class="cls-1" points="217.404 60.529 183.283 80.438 183.283 41.038 217.404 21.338 217.404 60.529"/>
      <polygon class="cls-2" points="183.283 62.6 165.137 52.123 165.137 31.17 183.283 41.647 183.283 62.6"/>
      <polygon class="cls-2" points="183.283 41.647 165.137 31.17 183.283 20.694 201.429 31.17 183.283 41.647"/>
      <polygon class="cls-2" points="201.429 52.013 183.283 62.6 183.283 41.647 201.429 31.17 201.429 52.013"/>
      <g class="cls-3">
        <polyline class="cls-4" points="149.162 21.338 183.283 41.647 183.283 80.438"/>
        <line class="cls-4" x1="217.40426" y1="21.33794" x2="183.28295" y2="41.64693"/>
      </g>
      <polygon class="cls-5" points="217.404 21.338 183.283 1.638 149.162 21.338 149.162 60.738 183.283 80.438 217.404 60.529 217.404 21.338"/>
    </g>
    <g>
      <polygon class="cls-1" points="604.68 212.946 567.172 191.291 567.172 147.981 604.68 169.636 604.68 212.946"/>
      <polygon class="cls-1" points="604.68 169.636 567.172 147.981 604.68 126.326 642.188 147.981 604.68 169.636"/>
      <polygon class="cls-1" points="642.188 191.062 604.68 212.946 604.68 169.636 642.188 147.981 642.188 191.062"/>
      <polygon class="cls-2" points="604.68 193.338 584.733 181.822 584.733 158.789 604.68 170.305 604.68 193.338"/>
      <polygon class="cls-2" points="604.68 170.305 584.733 158.789 604.68 147.273 624.627 158.789 604.68 170.305"/>
      <polygon class="cls-2" points="624.627 181.7 604.68 193.338 604.68 170.305 624.627 158.789 624.627 181.7"/>
      <g class="cls-3">
        <polyline class="cls-4" points="567.172 147.981 604.68 170.305 604.68 212.946"/>
        <line class="cls-4" x1="642.18769" y1="147.98083" x2="604.67996" y2="170.30541"/>
      </g>
      <polygon class="cls-5" points="642.188 147.981 604.68 126.326 567.172 147.981 567.172 191.291 604.68 212.946 642.188 191.062 642.188 147.981"/>
    </g>
    <g>
      <polygon class="cls-1" points="523.416 117.553 472.639 88.237 472.639 29.605 523.416 58.921 523.416 117.553"/>
      <polygon class="cls-1" points="523.416 58.921 472.639 29.605 523.415 0.289 574.192 29.605 523.416 58.921"/>
      <polygon class="cls-1" points="574.192 87.927 523.416 117.553 523.416 58.921 574.192 29.605 574.192 87.927"/>
      <polygon class="cls-2" points="523.416 91.008 496.412 75.418 496.412 44.237 523.416 59.827 523.416 91.008"/>
      <polygon class="cls-2" points="523.416 59.827 496.412 44.237 523.415 28.646 550.419 44.237 523.416 59.827"/>
      <polygon class="cls-2" points="550.419 75.253 523.416 91.008 523.416 59.827 550.419 44.237 550.419 75.253"/>
      <g class="cls-3">
        <polyline class="cls-4" points="472.639 29.605 523.416 59.827 523.416 117.553"/>
        <line class="cls-4" x1="574.19249" y1="29.60485" x2="523.41562" y2="59.82721"/>
      </g>
      <polygon class="cls-5" points="574.192 29.605 523.415 0.289 472.639 29.605 472.639 88.237 523.416 117.553 574.192 87.927 574.192 29.605"/>
    </g>
    <g>
      <polygon class="cls-1" points="131.04 221.532 88.066 196.721 88.066 147.1 131.04 171.911 131.04 221.532"/>
      <polygon class="cls-1" points="131.04 171.91 88.066 147.1 131.039 122.289 174.013 147.1 131.04 171.91"/>
      <polygon class="cls-1" points="174.013 196.459 131.04 221.532 131.04 171.911 174.013 147.1 174.013 196.459"/>
      <polygon class="cls-2" points="131.04 199.067 108.186 185.872 108.186 159.483 131.04 172.678 131.04 199.067"/>
      <polygon class="cls-2" points="131.04 172.677 108.186 159.483 131.04 146.288 153.893 159.483 131.04 172.677"/>
      <polygon class="cls-2" points="153.893 185.732 131.04 199.067 131.04 172.678 153.893 159.483 153.893 185.732"/>
      <g class="cls-3">
        <polyline class="cls-4" points="88.066 147.1 131.04 172.678 131.04 221.532"/>
        <line class="cls-4" x1="174.01304" y1="147.09981" x2="131.03968" y2="172.67753"/>
      </g>
      <polygon class="cls-5" points="174.013 147.1 131.039 122.289 88.066 147.1 88.066 196.721 131.04 221.532 174.013 196.459 174.013 147.1"/>
    </g>
    <g>
      <polygon class="cls-1" points="44.158 106.319 0.25 80.969 0.25 30.269 44.158 55.619 44.158 106.319"/>
      <polygon class="cls-1" points="44.158 55.619 0.25 30.268 44.158 4.918 88.066 30.269 44.158 55.619"/>
      <polygon class="cls-1" points="88.066 80.701 44.158 106.319 44.158 55.619 88.066 30.269 88.066 80.701"/>
      <polygon class="cls-2" points="44.158 83.366 20.807 69.884 20.807 42.921 44.158 56.403 44.158 83.366"/>
      <polygon class="cls-2" points="44.158 56.403 20.807 42.921 44.158 29.439 67.509 42.921 44.158 56.403"/>
      <polygon class="cls-2" points="67.509 69.741 44.158 83.366 44.158 56.403 67.509 42.921 67.509 69.741"/>
      <g class="cls-3">
        <polyline class="cls-4" points="0.25 30.269 44.158 56.403 44.158 106.32"/>
        <line class="cls-4" x1="88.06617" y1="30.26862" x2="44.15816" y2="56.40264"/>
      </g>
      <polygon class="cls-5" points="88.066 30.269 44.158 4.918 0.25 30.269 0.25 80.969 44.158 106.32 88.066 80.701 88.066 30.269"/>
    </g>
    <g>
      <polygon class="cls-1" points="320.946 210.778 247.512 168.381 247.512 83.587 320.946 125.985 320.946 210.778"/>
      <polygon class="cls-1" points="320.946 125.984 247.512 83.587 320.945 41.19 394.379 83.588 320.946 125.984"/>
      <polygon class="cls-1" points="394.379 167.933 320.946 210.778 320.946 125.985 394.379 83.588 394.379 167.933"/>
      <polygon class="cls-2" points="320.946 172.389 281.893 149.842 281.893 104.748 320.946 127.295 320.946 172.389"/>
      <polygon class="cls-2" points="320.946 127.295 281.893 104.748 320.945 82.201 359.998 104.748 320.946 127.295"/>
      <polygon class="cls-2" points="359.998 149.604 320.946 172.389 320.946 127.295 359.998 104.748 359.998 149.604"/>
      <g class="cls-3">
        <polyline class="cls-4" points="247.512 83.587 320.946 127.295 320.946 210.778"/>
        <line class="cls-4" x1="394.37941" y1="83.5876" x2="320.94573" y2="127.29527"/>
      </g>
      <polygon class="cls-5" points="394.379 83.588 320.945 41.19 247.512 83.587 247.512 168.381 320.946 210.778 394.379 167.933 394.379 83.588"/>
    </g>
    <path class="cls-6" d="M477.0182,148.33708,436.07387,118.485a64.76192,64.76192,0,1,0-13.152,17.94384l40.11786,29.24958a11.1451,11.1451,0,1,0,13.97845-17.34131ZM327.8033,89.86631a49.03709,49.03709,0,1,1,27.71783,44.951A50.3131,50.3131,0,0,1,327.8033,89.86631Z"/>
  </g>
</svg>
