<svg xmlns="http://www.w3.org/2000/svg" viewBox="0 0 225 271.22927">
  <defs>
    <style>
      .cls-1, .cls-9 {
        fill: #1d4588;
      }

      .cls-1 {
        stroke: #7baadb;
        stroke-width: 0.88831px;
      }

      .cls-1, .cls-2, .cls-3, .cls-4, .cls-5, .cls-6, .cls-7 {
        stroke-miterlimit: 10;
      }

      .cls-2, .cls-3, .cls-7, .cls-8 {
        fill: #4b78ba;
      }

      .cls-2, .cls-3, .cls-7 {
        stroke: #1d4588;
      }

      .cls-2 {
        stroke-width: 1.96604px;
      }

      .cls-3 {
        stroke-width: 2.06953px;
      }

      .cls-4, .cls-5, .cls-6 {
        fill: #d6e5f2;
        stroke: #5d98d1;
      }

      .cls-4 {
        stroke-width: 1.77197px;
      }

      .cls-5 {
        stroke-width: 1.94524px;
      }

      .cls-6 {
        stroke-width: 1.59443px;
      }

      .cls-7 {
        stroke-width: 2.01918px;
      }
    </style>
  </defs>
  <g id="For_PPT" data-name="For PPT">
    <g>
      <rect class="cls-1" x="2.266" y="11.9355" width="96.60326" height="156.53959" rx="6.34543"/>
      <rect class="cls-2" x="11.61483" y="29.09374" width="77.90561" height="47.87471" rx="7.32576"/>
      <rect class="cls-3" x="13.96712" y="111.41425" width="73.20102" height="10.34195"/>
      <rect class="cls-3" x="13.96712" y="94.8185" width="73.20102" height="10.34195"/>
      <g>
        <circle class="cls-4" cx="114.103" cy="133.68508" r="18.20103"/>
        <circle class="cls-4" cx="114.103" cy="133.68508" r="12.65722"/>
      </g>
      <g>
        <circle class="cls-5" cx="142.83847" cy="73.72184" r="24.64095"/>
        <circle class="cls-5" cx="142.83847" cy="73.72184" r="17.13562"/>
      </g>
      <g>
        <circle class="cls-6" cx="196.07815" cy="33.2903" r="27.74058"/>
        <circle class="cls-6" cx="196.07815" cy="33.2903" r="19.29114"/>
      </g>
      <rect class="cls-7" x="26.00549" y="146.22012" width="49.12429" height="11.46786" rx="5.73392"/>
      <circle class="cls-8" cx="84.78447" cy="20.76099" r="3.51361"/>
      <circle class="cls-8" cx="75.61141" cy="20.76099" r="3.21108"/>
      <polygon class="cls-8" points="203.949 136.492 143.29 70.655 150.45 160.313 171.82 136.32 203.949 136.492"/>
    </g>
    <g>
      <path class="cls-9" d="M19.25168,210.06948a.31432.31432,0,0,1-.23027.09456H9.78305a.12017.12017,0,0,0-.1362.13571v5.066a.12.12,0,0,0,.1362.13571H15.9867a.32368.32368,0,0,1,.32532.32483v2.05923a.32368.32368,0,0,1-.32532.32483H9.78305a.12017.12017,0,0,0-.1362.13572v5.22866a.11964.11964,0,0,0,.1362.13523h9.23836a.32287.32287,0,0,1,.32434.32532V226.094a.32287.32287,0,0,1-.32434.32532H6.82968a.32452.32452,0,0,1-.32533-.32532V207.78a.32369.32369,0,0,1,.32533-.32483H19.02141a.322.322,0,0,1,.32434.32483v2.05923A.31426.31426,0,0,1,19.25168,210.06948Z"/>
      <path class="cls-9" d="M30.53408,212.95475a4.72164,4.72164,0,0,1,2.00484,1.63886,4.1337,4.1337,0,0,1,.70454,2.37083V226.094a.32452.32452,0,0,1-.32532.32532H30.42629a.32452.32452,0,0,1-.32532-.32532v-.86671c0-.05438-.01764-.08574-.0539-.095a.11449.11449,0,0,0-.10876.04067,4.92977,4.92977,0,0,1-3.847,1.463,5.25594,5.25594,0,0,1-3.34533-1.02936,3.64808,3.64808,0,0,1-1.314-3.06117,3.97374,3.97374,0,0,1,1.47669-3.29192,6.51349,6.51349,0,0,1,4.15863-1.17831h2.8985a.11968.11968,0,0,0,.13523-.13572v-.65015a2.13394,2.13394,0,0,0-.62321-1.63886,2.652,2.652,0,0,0-1.86962-.58254,3.32816,3.32816,0,0,0-1.6658.3655,1.58882,1.58882,0,0,0-.79861,1.01614q-.08231.32482-.3802.27094l-2.62707-.32533a.57642.57642,0,0,1-.23027-.09455.15487.15487,0,0,1-.06859-.17589,3.799,3.799,0,0,1,1.77457-2.70939,6.82358,6.82358,0,0,1,3.91562-1.0568A7.14312,7.14312,0,0,1,30.53408,212.95475ZM29.15244,223.439a2.14231,2.14231,0,0,0,.94853-1.7878v-1.27336a.11953.11953,0,0,0-.13523-.13523H27.68947a4.08761,4.08761,0,0,0-2.26157.54139,1.73885,1.73885,0,0,0-.82605,1.5443,1.57194,1.57194,0,0,0,.636,1.341,2.6702,2.6702,0,0,0,1.63935.47427A3.70634,3.70634,0,0,0,29.15244,223.439Z"/>
      <path class="cls-9" d="M38.53974,226.0808a4.63217,4.63217,0,0,1-1.99113-1.38164,3.0677,3.0677,0,0,1-.70454-1.96418v-.244a.32369.32369,0,0,1,.32533-.32483h2.38406a.32369.32369,0,0,1,.32532.32483v.05438a1.42275,1.42275,0,0,0,.74471,1.17832,3.30132,3.30132,0,0,0,1.88334.50121,3.14521,3.14521,0,0,0,1.76085-.44683,1.318,1.318,0,0,0,.67711-1.12442,1.00806,1.00806,0,0,0-.5556-.93481,9.00439,9.00439,0,0,0-1.801-.66387l-1.02986-.32483a15.16763,15.16763,0,0,1-2.33016-.8672,4.64358,4.64358,0,0,1-1.5982-1.25964,3.13839,3.13839,0,0,1-.65064-2.04551,3.59009,3.59009,0,0,1,1.4904-3.0205,6.357,6.357,0,0,1,3.92836-1.12442,7.37918,7.37918,0,0,1,2.8985.52816,4.44829,4.44829,0,0,1,1.92352,1.463,3.53305,3.53305,0,0,1,.67808,2.12684.32452.32452,0,0,1-.32532.32532H44.27011a.32451.32451,0,0,1-.32532-.32532,1.39516,1.39516,0,0,0-.69082-1.17831,3.2847,3.2847,0,0,0-1.88334-.47427,3.34677,3.34677,0,0,0-1.7197.39294,1.21786,1.21786,0,0,0-.66436,1.097,1.06915,1.06915,0,0,0,.63692.9887,11.23707,11.23707,0,0,0,2.12635.7452l.59675.16267a19.22724,19.22724,0,0,1,2.41052.88042,4.7092,4.7092,0,0,1,1.65307,1.24642,3.09823,3.09823,0,0,1,.6771,2.07245,3.524,3.524,0,0,1-1.51687,3.0205,6.74678,6.74678,0,0,1-4.03712,1.09747A8.2173,8.2173,0,0,1,38.53974,226.0808Z"/>
      <path class="cls-9" d="M48.414,231.71563a.45626.45626,0,0,1-.05389-.23027v-1.95047a.32452.32452,0,0,1,.32532-.32532h.02744a6.32025,6.32025,0,0,0,1.73341-.23027,2.01224,2.01224,0,0,0,1.02986-.77166,5.72414,5.72414,0,0,0,.731-1.707.25012.25012,0,0,0,0-.16266L47.73694,212.9278a.30868.30868,0,0,1-.02646-.13571q0-.244.27045-.244h2.65549a.358.358,0,0,1,.37922.27093l2.7084,9.53674c.01862.05389.04507.08084.08133.08084s.06369-.02695.08133-.08084l2.70938-9.53674a.35663.35663,0,0,1,.37922-.27093h2.57416a.26436.26436,0,0,1,.23027.095.33371.33371,0,0,1,.01372.28466l-4.76812,14.25a12.83828,12.83828,0,0,1-1.32775,2.872A3.55809,3.55809,0,0,1,51.923,231.404a9.759,9.759,0,0,1-3.18365.40665h-.18911A.15777.15777,0,0,1,48.414,231.71563Z"/>
      <path class="cls-9" d="M80.38377,207.45514h2.49185a.31628.31628,0,0,1,.23028.09456.31288.31288,0,0,1,.095.23027V226.094a.32451.32451,0,0,1-.32532.32532H80.38377a.32452.32452,0,0,1-.32532-.32532V213.1713a.10559.10559,0,0,0-.06761-.10827c-.04507-.01764-.07741,0-.09505.05438l-3.38648,5.20123a.42339.42339,0,0,1-.37922.217H74.88368a.42339.42339,0,0,1-.37922-.217l-3.41392-5.17428c-.01763-.05439-.05-.072-.09407-.05439a.10579.10579,0,0,0-.06859.10877V226.094a.32287.32287,0,0,1-.32434.32532H68.11071a.32452.32452,0,0,1-.32532-.32532V207.78a.32369.32369,0,0,1,.32532-.32483h2.49283a.42593.42593,0,0,1,.37922.21656l4.41536,6.69163a.15471.15471,0,0,0,.10877.05439.08652.08652,0,0,0,.08133-.05439l4.41634-6.69163A.42483.42483,0,0,1,80.38377,207.45514Z"/>
      <path class="cls-9" d="M95.1477,212.95475a4.72173,4.72173,0,0,1,2.00485,1.63886,4.13378,4.13378,0,0,1,.70454,2.37083V226.094a.32452.32452,0,0,1-.32533.32532H95.03992a.32452.32452,0,0,1-.32533-.32532v-.86671c0-.05438-.01763-.08574-.05389-.095a.11452.11452,0,0,0-.10877.04067,4.92974,4.92974,0,0,1-3.847,1.463,5.25589,5.25589,0,0,1-3.34532-1.02936,3.64808,3.64808,0,0,1-1.314-3.06117,3.97371,3.97371,0,0,1,1.47669-3.29192,6.51347,6.51347,0,0,1,4.15863-1.17831h2.8985a.11968.11968,0,0,0,.13522-.13572v-.65015a2.13393,2.13393,0,0,0-.6232-1.63886,2.652,2.652,0,0,0-1.86962-.58254,3.32821,3.32821,0,0,0-1.66581.3655,1.58877,1.58877,0,0,0-.7986,1.01614q-.08232.32482-.3802.27094l-2.62707-.32533a.57642.57642,0,0,1-.23027-.09455.15487.15487,0,0,1-.0686-.17589,3.79906,3.79906,0,0,1,1.77458-2.70939,6.82356,6.82356,0,0,1,3.91562-1.0568A7.14307,7.14307,0,0,1,95.1477,212.95475ZM93.76607,223.439a2.1423,2.1423,0,0,0,.94852-1.7878v-1.27336a.11952.11952,0,0,0-.13522-.13523H92.3031a4.08767,4.08767,0,0,0-2.26158.54139,1.73886,1.73886,0,0,0-.826,1.5443,1.57193,1.57193,0,0,0,.63594,1.341,2.67022,2.67022,0,0,0,1.63935.47427A3.70635,3.70635,0,0,0,93.76607,223.439Z"/>
      <path class="cls-9" d="M111.14531,213.65929a4.76671,4.76671,0,0,1,1.314,3.54865V226.094a.32285.32285,0,0,1-.32434.32532h-2.49283a.32452.32452,0,0,1-.32532-.32532v-8.23594a2.87967,2.87967,0,0,0-.70453-2.01807,2.40688,2.40688,0,0,0-1.86865-.77215,2.4747,2.4747,0,0,0-1.88333.75843,2.796,2.796,0,0,0-.71826,2.00485V226.094a.32287.32287,0,0,1-.32434.32532H101.3249a.32452.32452,0,0,1-.32532-.32532V212.90036a.32369.32369,0,0,1,.32532-.32483h2.49283a.322.322,0,0,1,.32434.32483v.8672a.10758.10758,0,0,0,.05487.10828c.03528.01813.06272,0,.08133-.05438a3.9491,3.9491,0,0,1,3.359-1.463A4.76749,4.76749,0,0,1,111.14531,213.65929Z"/>
      <path class="cls-9" d="M124.02688,212.95475a4.72164,4.72164,0,0,1,2.00484,1.63886,4.1337,4.1337,0,0,1,.70454,2.37083V226.094a.32452.32452,0,0,1-.32532.32532h-2.49185a.32452.32452,0,0,1-.32532-.32532v-.86671c0-.05438-.01764-.08574-.05389-.095a.1145.1145,0,0,0-.10877.04067,4.92977,4.92977,0,0,1-3.847,1.463,5.25594,5.25594,0,0,1-3.34533-1.02936,3.64807,3.64807,0,0,1-1.314-3.06117,3.97373,3.97373,0,0,1,1.47668-3.29192,6.5135,6.5135,0,0,1,4.15864-1.17831h2.8985a.11968.11968,0,0,0,.13522-.13572v-.65015a2.13394,2.13394,0,0,0-.62321-1.63886,2.652,2.652,0,0,0-1.86962-.58254,3.32816,3.32816,0,0,0-1.6658.3655,1.58882,1.58882,0,0,0-.79861,1.01614q-.0823.32482-.38019.27094l-2.62708-.32533a.57642.57642,0,0,1-.23027-.09455.15487.15487,0,0,1-.06859-.17589,3.799,3.799,0,0,1,1.77457-2.70939,6.82361,6.82361,0,0,1,3.91562-1.0568A7.14312,7.14312,0,0,1,124.02688,212.95475ZM122.64524,223.439a2.14229,2.14229,0,0,0,.94853-1.7878v-1.27336a.11953.11953,0,0,0-.13522-.13523h-2.27628a4.08761,4.08761,0,0,0-2.26157.54139,1.73885,1.73885,0,0,0-.826,1.5443,1.57194,1.57194,0,0,0,.63595,1.341,2.67022,2.67022,0,0,0,1.63935.47427A3.70634,3.70634,0,0,0,122.64524,223.439Z"/>
      <path class="cls-9" d="M138.45373,212.67009a.31309.31309,0,0,1,.23027-.09456h2.49185a.32369.32369,0,0,1,.32532.32483v12.5979q0,3.38648-1.93723,4.83573a8.26715,8.26715,0,0,1-5.07973,1.44974q-.83926,0-1.65208-.08133a.30562.30562,0,0,1-.29789-.35227l.08133-2.2214c0-.19891.12543-.29837.37922-.29837a13.75477,13.75477,0,0,0,1.40809.08133,4.633,4.633,0,0,0,2.99355-.7991,3.32678,3.32678,0,0,0,.96225-2.69566v-.21656c0-.05438-.01862-.08574-.05389-.095a.1145.1145,0,0,0-.10877.04067,4.0831,4.0831,0,0,1-3.14249,1.192,6.06078,6.06078,0,0,1-3.22383-.89415,4.68123,4.68123,0,0,1-2.03228-2.73633,12.586,12.586,0,0,1-.35178-3.27771,10.55232,10.55232,0,0,1,.43311-3.44087,5.24219,5.24219,0,0,1,1.86962-2.64128,5.06926,5.06926,0,0,1,3.11506-.98919,4.395,4.395,0,0,1,3.33259,1.24641q.05437.08159.10877.05439a.111.111,0,0,0,.05389-.10877v-.65016A.31287.31287,0,0,1,138.45373,212.67009Zm-.13523,8.26337q.03969-.474.04018-1.53107,0-1.02888-.04018-1.47619a4.25566,4.25566,0,0,0-.17638-.88043,2.70168,2.70168,0,0,0-4.22624-1.436,3.00931,3.00931,0,0,0-.976,1.436,6.46551,6.46551,0,0,0-.32434,2.38406,7.09213,7.09213,0,0,0,.27045,2.35662,2.818,2.818,0,0,0,.9887,1.42231,2.72747,2.72747,0,0,0,1.72068.55559,2.47084,2.47084,0,0,0,2.57318-1.95046A5.11715,5.11715,0,0,0,138.3185,220.93346Z"/>
      <path class="cls-9" d="M156.53751,219.45678l-.02744.83976a.28712.28712,0,0,1-.32434.32532H147.7058a.11913.11913,0,0,0-.13522.13522,3.885,3.885,0,0,0,.243,1.219q.65113,1.9512,3.16993,1.9779a3.414,3.414,0,0,0,2.92594-1.51735.31878.31878,0,0,1,.27142-.16217.2587.2587,0,0,1,.18912.08133l1.67953,1.38163a.288.288,0,0,1,.08133.43311,5.53079,5.53079,0,0,1-2.23512,1.84268,7.25675,7.25675,0,0,1-3.10134.65015,6.50458,6.50458,0,0,1-3.5903-.94853,5.453,5.453,0,0,1-2.15379-2.655,10.64951,10.64951,0,0,1-.6232-4.06358,8.24232,8.24232,0,0,1,.32532-2.54672,5.437,5.437,0,0,1,2.046-2.99355,5.96747,5.96747,0,0,1,3.61676-1.09747q5.33694,0,6.01355,5.58093A9.62931,9.62931,0,0,1,156.53751,219.45678Zm-7.78911-3.8877a2.65044,2.65044,0,0,0-.93481,1.39536,4.73393,4.73393,0,0,0-.21655,1.192c-.03626.09064,0,.13522.10876.13522h5.49912a.12.12,0,0,0,.1362-.13522,5.25432,5.25432,0,0,0-.16266-1.02986,2.63131,2.63131,0,0,0-.96225-1.51686,2.90472,2.90472,0,0,0-1.801-.54188A2.68722,2.68722,0,0,0,148.7484,215.56908Z"/>
      <path class="cls-9" d="M177.49235,213.61862a4.93461,4.93461,0,0,1,1.1788,3.508V226.094a.32451.32451,0,0,1-.32532.32532h-2.46539a.32452.32452,0,0,1-.32532-.32532v-8.31678a2.83426,2.83426,0,0,0-.66338-1.9779,2.27991,2.27991,0,0,0-1.77457-.73148,2.40737,2.40737,0,0,0-1.81475.73148,2.68982,2.68982,0,0,0-.70454,1.95047V226.094a.32452.32452,0,0,1-.32532.32532h-2.46539a.32451.32451,0,0,1-.32532-.32532v-8.31678a2.79554,2.79554,0,0,0-.6771-1.9779,2.32255,2.32255,0,0,0-1.7883-.73148,2.33808,2.33808,0,0,0-2.46539,2.2214V226.094a.32287.32287,0,0,1-.32434.32532h-2.49283a.32452.32452,0,0,1-.32532-.32532V212.90036a.32369.32369,0,0,1,.32532-.32483h2.49283a.322.322,0,0,1,.32434.32483v.89415a.10714.10714,0,0,0,.05488.10828c.03527.01812.07153,0,.10778-.0539a3.61237,3.61237,0,0,1,1.47669-1.12442,5.07154,5.07154,0,0,1,1.96467-.366,4.82689,4.82689,0,0,1,2.32919.54187,3.71039,3.71039,0,0,1,1.5443,1.57125c.05389.07251.11758.07251.19009,0a3.71339,3.71339,0,0,1,1.65209-1.59819,5.31533,5.31533,0,0,1,2.3576-.51493A4.25012,4.25012,0,0,1,177.49235,213.61862Z"/>
      <path class="cls-9" d="M193.54483,219.45678l-.02744.83976a.28711.28711,0,0,1-.32434.32532h-8.47992a.11914.11914,0,0,0-.13523.13522,3.88559,3.88559,0,0,0,.243,1.219q.65113,1.9512,3.16993,1.9779a3.414,3.414,0,0,0,2.92594-1.51735.31878.31878,0,0,1,.27143-.16217.2587.2587,0,0,1,.18911.08133l1.67953,1.38163a.288.288,0,0,1,.08133.43311,5.53079,5.53079,0,0,1-2.23512,1.84268,7.25675,7.25675,0,0,1-3.10134.65015,6.50458,6.50458,0,0,1-3.5903-.94853,5.45291,5.45291,0,0,1-2.15378-2.655,10.64949,10.64949,0,0,1-.62321-4.06358,8.24232,8.24232,0,0,1,.32532-2.54672,5.437,5.437,0,0,1,2.046-2.99355,5.96747,5.96747,0,0,1,3.61676-1.09747q5.33694,0,6.01355,5.58093A9.62812,9.62812,0,0,1,193.54483,219.45678Zm-7.78911-3.8877a2.6505,2.6505,0,0,0-.93481,1.39536,4.73438,4.73438,0,0,0-.21655,1.192c-.03626.09064,0,.13522.10877.13522h5.49911a.12.12,0,0,0,.13621-.13522,5.25419,5.25419,0,0,0-.16267-1.02986,2.63135,2.63135,0,0,0-.96224-1.51686,2.90477,2.90477,0,0,0-1.801-.54188A2.68724,2.68724,0,0,0,185.75572,215.56908Z"/>
      <path class="cls-9" d="M206.56163,213.65929a4.76675,4.76675,0,0,1,1.314,3.54865V226.094a.32287.32287,0,0,1-.32434.32532h-2.49283a.32452.32452,0,0,1-.32532-.32532v-8.23594a2.87963,2.87963,0,0,0-.70454-2.01807,2.40684,2.40684,0,0,0-1.86864-.77215,2.47472,2.47472,0,0,0-1.88334.75843,2.796,2.796,0,0,0-.71825,2.00485V226.094a.32287.32287,0,0,1-.32435.32532h-2.49282a.32452.32452,0,0,1-.32533-.32532V212.90036a.32369.32369,0,0,1,.32533-.32483H199.234a.322.322,0,0,1,.32435.32483v.8672a.10756.10756,0,0,0,.05487.10828c.03528.01813.06271,0,.08133-.05438a3.94908,3.94908,0,0,1,3.359-1.463A4.7675,4.7675,0,0,1,206.56163,213.65929Z"/>
      <path class="cls-9" d="M218.4006,215.02721a.31289.31289,0,0,1-.23028.095h-2.76327a.11914.11914,0,0,0-.13523.13523v6.529a2.086,2.086,0,0,0,.44683,1.49041,1.9087,1.9087,0,0,0,1.42182.46054h.8133a.32369.32369,0,0,1,.32532.32484V226.094a.33405.33405,0,0,1-.32532.35227l-1.40907.02743a5.65179,5.65179,0,0,1-3.19639-.73148,3.19853,3.19853,0,0,1-1.08375-2.76377v-7.721a.11953.11953,0,0,0-.13523-.13523H210.585a.32451.32451,0,0,1-.32532-.32532v-1.89657a.32369.32369,0,0,1,.32532-.32483h1.5443a.11968.11968,0,0,0,.13523-.13571v-3.16944a.32452.32452,0,0,1,.32532-.32532h2.35662a.32451.32451,0,0,1,.32532.32532v3.16944a.11929.11929,0,0,0,.13523.13571h2.76327a.32369.32369,0,0,1,.32533.32483v1.89657A.31514.31514,0,0,1,218.4006,215.02721Z"/>
      <path class="cls-9" d="M30.71046,255.65471a5.72733,5.72733,0,0,1-2.15379-3.00726,10.237,10.237,0,0,1-.46055-3.0886,10.12508,10.12508,0,0,1,.43409-3.0886,5.56559,5.56559,0,0,1,2.16751-2.95288,6.40912,6.40912,0,0,1,3.71082-1.05681,6.03711,6.03711,0,0,1,3.56287,1.05681,5.65035,5.65035,0,0,1,2.12733,2.92593,8.8159,8.8159,0,0,1,.487,3.0886,9.7385,9.7385,0,0,1-.46055,3.08811,5.82549,5.82549,0,0,1-2.14007,3.021,5.985,5.985,0,0,1-3.603,1.097A6.19342,6.19342,0,0,1,30.71046,255.65471Zm5.39132-2.19445a3.20159,3.20159,0,0,0,1.04358-1.59868,8.01517,8.01517,0,0,0,.27045-2.27579,7.51568,7.51568,0,0,0-.27045-2.27578,2.94578,2.94578,0,0,0-1.02986-1.58447,2.869,2.869,0,0,0-1.78829-.5556,2.7836,2.7836,0,0,0-1.73341.5556A3.08494,3.08494,0,0,0,31.53748,247.31a9.67629,9.67629,0,0,0,0,4.55157,2.98048,2.98048,0,0,0,1.0426,1.59868,2.88273,2.88273,0,0,0,1.802.56882A2.68455,2.68455,0,0,0,36.10178,253.46026Z"/>
      <path class="cls-9" d="M50.705,242.74522a.31576.31576,0,0,1,.09407.23027v2.14007a.32287.32287,0,0,1-.32434.32532H47.79181a.11952.11952,0,0,0-.13522.13522v10.62a.32452.32452,0,0,1-.32532.32532H44.83942a.32452.32452,0,0,1-.32532-.32532v-10.62a.11953.11953,0,0,0-.13523-.13522H42.69935a.32452.32452,0,0,1-.32532-.32532v-2.14007a.32452.32452,0,0,1,.32532-.32532h1.67952a.11934.11934,0,0,0,.13523-.13523v-.48749a6.45152,6.45152,0,0,1,.46054-2.7231,2.67071,2.67071,0,0,1,1.51687-1.36792,8.29746,8.29746,0,0,1,2.98081-.37922h.94755a.31624.31624,0,0,1,.23027.09456.31291.31291,0,0,1,.09505.23028v1.89656a.32452.32452,0,0,1-.32532.32533h-.70454a2.21778,2.21778,0,0,0-1.61191.46054,2.41653,2.41653,0,0,0-.44683,1.67953v.27093a.11933.11933,0,0,0,.13522.13523h2.68293A.31473.31473,0,0,1,50.705,242.74522Z"/>
      <path class="cls-9" d="M63.81686,256.39943a.31132.31132,0,0,1-.09505-.23028v-7.26046a.387.387,0,0,0-.02646-.16266l-5.58143-10.8096a.41062.41062,0,0,1-.05389-.16266c0-.144.099-.21656.29789-.21656h2.68194a.38421.38421,0,0,1,.37922.24351l3.79313,7.55883c.0539.07251.10779.07251.16266,0l3.8196-7.55883a.41773.41773,0,0,1,.37921-.24351h2.70938a.28179.28179,0,0,1,.25771.10828.2706.2706,0,0,1-.01371.27094L66.91917,248.746a.40258.40258,0,0,0-.05487.16266v7.26046a.32285.32285,0,0,1-.32434.32532H64.04713A.30978.30978,0,0,1,63.81686,256.39943Z"/>
      <path class="cls-9" d="M75.33051,255.65471a5.72733,5.72733,0,0,1-2.15379-3.00726,10.237,10.237,0,0,1-.46055-3.0886,10.12508,10.12508,0,0,1,.43409-3.0886,5.56559,5.56559,0,0,1,2.16751-2.95288,6.40912,6.40912,0,0,1,3.71082-1.05681,6.03711,6.03711,0,0,1,3.56287,1.05681,5.6503,5.6503,0,0,1,2.12733,2.92593,8.8159,8.8159,0,0,1,.487,3.0886,9.7385,9.7385,0,0,1-.46055,3.08811,5.82549,5.82549,0,0,1-2.14007,3.021,5.985,5.985,0,0,1-3.603,1.097A6.19342,6.19342,0,0,1,75.33051,255.65471Zm5.39132-2.19445a3.20159,3.20159,0,0,0,1.04358-1.59868,8.01517,8.01517,0,0,0,.27045-2.27579,7.51568,7.51568,0,0,0-.27045-2.27578,2.94578,2.94578,0,0,0-1.02986-1.58447,2.869,2.869,0,0,0-1.78829-.5556,2.7836,2.7836,0,0,0-1.73341.5556A3.08494,3.08494,0,0,0,76.15753,247.31a9.67629,9.67629,0,0,0,0,4.55157,2.98048,2.98048,0,0,0,1.0426,1.59868,2.88273,2.88273,0,0,0,1.802.56882A2.68455,2.68455,0,0,0,80.72183,253.46026Z"/>
      <path class="cls-9" d="M96.46271,242.77216a.31309.31309,0,0,1,.23027-.09456h2.46539a.322.322,0,0,1,.32435.32484V256.1961a.32287.32287,0,0,1-.32435.32532H96.693a.32452.32452,0,0,1-.32532-.32532v-.86671a.1102.1102,0,0,0-.05389-.10828c-.03724-.01763-.07251,0-.10877.0539a3.95093,3.95093,0,0,1-3.33259,1.436,5.12929,5.12929,0,0,1-3.45409-1.192,4.21119,4.21119,0,0,1-1.39536-3.38648v-9.13008a.32369.32369,0,0,1,.32532-.32484h2.49283a.322.322,0,0,1,.32434.32484v8.23593a2.97263,2.97263,0,0,0,.66436,2.03179,2.33258,2.33258,0,0,0,1.85591.75892,2.58156,2.58156,0,0,0,1.95-.75892,2.801,2.801,0,0,0,.732-2.03179v-8.23593A.31291.31291,0,0,1,96.46271,242.77216Z"/>
      <path class="cls-9" d="M110.80725,242.86721a.33748.33748,0,0,1,.16266.40616l-.46055,2.43845c-.01861.21655-.145.28025-.38019.18961a3.00225,3.00225,0,0,0-.94755-.13572,4.06923,4.06923,0,0,0-.54188.02744,2.80213,2.80213,0,0,0-1.89706.7991,2.596,2.596,0,0,0-.75843,1.93723v7.66662a.32287.32287,0,0,1-.32434.32532h-2.49283a.32452.32452,0,0,1-.32532-.32532V243.00244a.32369.32369,0,0,1,.32532-.32484h2.49283a.322.322,0,0,1,.32434.32484v1.21946c0,.072.01372.11269.04116.12151.02646.00931.05781-.01323.09505-.06761a3.57659,3.57659,0,0,1,3.169-1.76086A3.14248,3.14248,0,0,1,110.80725,242.86721Z"/>
      <path class="cls-9" d="M121.50759,255.93888a5.75681,5.75681,0,0,1-2.38406-2.23512,6.47988,6.47988,0,0,1-.83976-3.3321V243.68a6.48544,6.48544,0,0,1,.83976-3.33259,5.67964,5.67964,0,0,1,2.38406-2.2214,7.78721,7.78721,0,0,1,3.57659-.78587,7.9531,7.9531,0,0,1,3.54914.75892,5.615,5.615,0,0,1,2.38406,2.14007,6.03637,6.03637,0,0,1,.83976,3.19688.32452.32452,0,0,1-.32532.32532l-2.49185.13522c-.21753,0-.32532-.099-.32532-.29788a3.45586,3.45586,0,0,0-.9887-2.57367,3.59963,3.59963,0,0,0-2.64177-.97548,3.64516,3.64516,0,0,0-2.65549.97548,3.42783,3.42783,0,0,0-1.00243,2.57367v6.90819a3.39342,3.39342,0,0,0,1.00243,2.54672,4.10566,4.10566,0,0,0,5.29726.01372,3.4102,3.4102,0,0,0,.9887-2.56044c0-.19843.10779-.29789.32532-.29789l2.49185.10828a.34444.34444,0,0,1,.23027.08133.243.243,0,0,1,.095.18961,6.15651,6.15651,0,0,1-.83976,3.23754,5.58559,5.58559,0,0,1-2.38406,2.15379,7.94638,7.94638,0,0,1-3.54914.75843A7.674,7.674,0,0,1,121.50759,255.93888Z"/>
      <path class="cls-9" d="M142.88379,242.86721a.33748.33748,0,0,1,.16266.40616l-.46055,2.43845c-.01861.21655-.145.28025-.38019.18961a3.00225,3.00225,0,0,0-.94755-.13572,4.06923,4.06923,0,0,0-.54188.02744,2.80209,2.80209,0,0,0-1.89705.7991,2.59592,2.59592,0,0,0-.75844,1.93723v7.66662a.32285.32285,0,0,1-.32434.32532h-2.49283a.32452.32452,0,0,1-.32532-.32532V243.00244a.32369.32369,0,0,1,.32532-.32484h2.49283a.322.322,0,0,1,.32434.32484v1.21946c0,.072.01372.11269.04116.12151.02646.00931.05781-.01323.09505-.06761a3.57659,3.57659,0,0,1,3.16895-1.76086A3.14248,3.14248,0,0,1,142.88379,242.86721Z"/>
      <path class="cls-9" d="M145.1581,261.8177a.45626.45626,0,0,1-.05389-.23027V259.637a.32452.32452,0,0,1,.32532-.32533h.02744a6.31947,6.31947,0,0,0,1.73341-.23027,2.01216,2.01216,0,0,0,1.02986-.77166,5.724,5.724,0,0,0,.731-1.707.25.25,0,0,0,0-.16266L144.481,243.02987a.30868.30868,0,0,1-.02646-.13571q0-.244.27045-.244h2.65549a.358.358,0,0,1,.37922.27094l2.7084,9.53673c.01862.05389.04507.08084.08133.08084s.06369-.02695.08133-.08084l2.70938-9.53673a.35664.35664,0,0,1,.37922-.27094h2.57416a.26432.26432,0,0,1,.23027.095.33368.33368,0,0,1,.01372.28465l-4.76812,14.25a12.83861,12.83861,0,0,1-1.32775,2.87205,3.55813,3.55813,0,0,1-1.77457,1.3542,9.75869,9.75869,0,0,1-3.18365.40665h-.18911A.15777.15777,0,0,1,145.1581,261.8177Z"/>
      <path class="cls-9" d="M171.031,249.64018a10.48134,10.48134,0,0,1-.46055,3.30515,5.63381,5.63381,0,0,1-1.90979,2.79022,5.31162,5.31162,0,0,1-3.31887,1.00243,3.83909,3.83909,0,0,1-3.0886-1.38164.08866.08866,0,0,0-.10779-.02695.109.109,0,0,0-.05389.10828v5.87882a.32452.32452,0,0,1-.32532.32532h-2.49283a.32451.32451,0,0,1-.32532-.32532v-18.314a.3129.3129,0,0,1,.095-.23028.31628.31628,0,0,1,.23028-.09456h2.49283a.32369.32369,0,0,1,.32532.32484v.81281a.10814.10814,0,0,0,.05389.10828c.03626.01862.07153,0,.10779-.0539a3.8863,3.8863,0,0,1,3.116-1.40907,5.24386,5.24386,0,0,1,3.25126,1.00242,5.61139,5.61139,0,0,1,1.92352,2.79072A10.24384,10.24384,0,0,1,171.031,249.64018Zm-3.19639-.05439a6.29138,6.29138,0,0,0-.65064-3.11554,2.48248,2.48248,0,0,0-2.30273-1.32725,2.26764,2.26764,0,0,0-2.11263,1.3003,8.18835,8.18835,0,0,0,.05389,6.39375,2.23246,2.23246,0,0,0,2.03228,1.192,2.41168,2.41168,0,0,0,2.16751-1.13813A5.97706,5.97706,0,0,0,167.8346,249.58579Z"/>
      <path class="cls-9" d="M181.31194,245.12928a.31287.31287,0,0,1-.23027.09505H178.3184a.11914.11914,0,0,0-.13523.13522v6.529a2.086,2.086,0,0,0,.44683,1.49041,1.90867,1.90867,0,0,0,1.42181.46055h.81331a.32368.32368,0,0,1,.32532.32483v2.03179a.334.334,0,0,1-.32532.35227l-1.40908.02744a5.65175,5.65175,0,0,1-3.19638-.73149,3.19855,3.19855,0,0,1-1.08376-2.76377v-7.721a.11952.11952,0,0,0-.13522-.13522h-1.5443a.32452.32452,0,0,1-.32532-.32533v-1.89656a.32369.32369,0,0,1,.32532-.32484h1.5443a.11967.11967,0,0,0,.13522-.13571v-3.16944a.32452.32452,0,0,1,.32533-.32532h2.35662a.32452.32452,0,0,1,.32532.32532v3.16944a.11929.11929,0,0,0,.13523.13571h2.76327a.32369.32369,0,0,1,.32532.32484V244.899A.3151.3151,0,0,1,181.31194,245.12928Z"/>
      <path class="cls-9" d="M186.134,255.65471a5.72733,5.72733,0,0,1-2.15379-3.00726,10.23734,10.23734,0,0,1-.46054-3.0886,10.12477,10.12477,0,0,1,.43409-3.0886,5.56557,5.56557,0,0,1,2.1675-2.95288,6.40915,6.40915,0,0,1,3.71083-1.05681,6.03706,6.03706,0,0,1,3.56286,1.05681,5.6503,5.6503,0,0,1,2.12733,2.92593,8.8159,8.8159,0,0,1,.487,3.0886,9.73879,9.73879,0,0,1-.46054,3.08811,5.82561,5.82561,0,0,1-2.14007,3.021,5.985,5.985,0,0,1-3.603,1.097A6.19344,6.19344,0,0,1,186.134,255.65471Zm5.39133-2.19445a3.20172,3.20172,0,0,0,1.04358-1.59868,8.01557,8.01557,0,0,0,.27044-2.27579,7.51605,7.51605,0,0,0-.27044-2.27578,2.94589,2.94589,0,0,0-1.02986-1.58447,2.869,2.869,0,0,0-1.78829-.5556,2.78361,2.78361,0,0,0-1.73342.5556A3.08506,3.08506,0,0,0,186.961,247.31a9.67629,9.67629,0,0,0,0,4.55157,2.98048,2.98048,0,0,0,1.0426,1.59868,2.88273,2.88273,0,0,0,1.802.56882A2.68459,2.68459,0,0,0,191.52529,253.46026Z"/>
    </g>
  </g>
</svg>
