<svg xmlns="http://www.w3.org/2000/svg" viewBox="0 0 228.58727 328.57492">
  <defs>
    <style>
      .cls-1 {
        fill: #f0f8fd;
      }

      .cls-2 {
        fill: #a2d5f3;
      }

      .cls-2, .cls-4, .cls-5, .cls-6 {
        stroke: #1d4588;
        stroke-miterlimit: 10;
      }

      .cls-2, .cls-4 {
        stroke-width: 1.51893px;
      }

      .cls-3, .cls-5, .cls-6 {
        fill: none;
      }

      .cls-4 {
        fill: #7baadb;
      }

      .cls-5, .cls-6 {
        stroke-linecap: round;
      }

      .cls-5 {
        stroke-width: 2.78232px;
      }

      .cls-6 {
        stroke-width: 0.92744px;
      }

      .cls-7 {
        fill: #1d4588;
      }
    </style>
  </defs>
  <g id="Network_Part" data-name="Network Part">
    <g>
      <g>
        <circle class="cls-1" cx="164.38964" cy="110.63851" r="52.08734"/>
        <path class="cls-2" d="M101.46466,110.63851A63.4173,63.4173,0,0,1,134.4135,55.00128H24.45075a9.99459,9.99459,0,1,0,0,19.98917h60.868a9.52142,9.52142,0,0,1,2.03451,18.82186H52.16648a9.99473,9.99473,0,0,0-2.91275,19.55554H10.843a10.07794,10.07794,0,1,0,0,20.15588H71.09951v.03341H94.046a8.02412,8.02412,0,0,1,1.85661,15.83112H57.93643a8.44375,8.44375,0,1,0,0,16.88749H134.4135A63.41769,63.41769,0,0,1,101.46466,110.63851Z"/>
        <circle class="cls-3" cx="164.38964" cy="110.63851" r="52.08731"/>
        <path class="cls-4" d="M164.38964,46.95241a63.43813,63.43813,0,1,0,63.43816,63.43816A63.43814,63.43814,0,0,0,164.38964,46.95241Zm0,115.52553A52.08737,52.08737,0,1,1,216.477,110.39057,52.08733,52.08733,0,0,1,164.38964,162.47794Z"/>
        <line class="cls-5" x1="164.23498" y1="110.09763" x2="181.55032" y2="127.41297"/>
        <line class="cls-5" x1="164.23498" y1="80.31538" x2="164.23498" y2="109.57584"/>
        <line class="cls-6" x1="164.38964" y1="63.7009" x2="164.38964" y2="68.80617"/>
        <line class="cls-6" x1="164.38964" y1="152.58284" x2="164.38964" y2="157.68811"/>
        <line class="cls-6" x1="122.62971" y1="109.85573" x2="117.52444" y2="109.85573"/>
        <line class="cls-6" x1="212.26512" y1="109.85573" x2="207.15985" y2="109.85573"/>
        <circle class="cls-7" cx="164.23498" cy="109.85573" r="2.81503"/>
      </g>
      <g>
        <path class="cls-7" d="M93.10688,266.96349a.4077.4077,0,0,1-.29926.12383H80.83144a.1556.1556,0,0,0-.176.17658v6.586a.1556.1556,0,0,0,.176.17658h8.06629a.41987.41987,0,0,1,.42252.422v2.67729a.42181.42181,0,0,1-.42252.42309H80.83144a.15524.15524,0,0,0-.176.17543v10.074a.42181.42181,0,0,1-.42252.42309H76.99208a.4218.4218,0,0,1-.42252-.42309V263.98808a.4218.4218,0,0,1,.42252-.42309H92.80762a.42181.42181,0,0,1,.42252.42309v2.67615A.40575.40575,0,0,1,93.10688,266.96349Z"/>
        <path class="cls-7" d="M108.83356,287.86933l-1.16208-3.76885c-.04758-.094-.10548-.141-.176-.141H98.196c-.06994,0-.129.047-.176.141L96.858,287.86933a.44217.44217,0,0,1-.45807.352H92.87756a.39371.39371,0,0,1-.317-.12383.38263.38263,0,0,1-.035-.36921l7.6432-23.81131a.44283.44283,0,0,1,.45806-.352h4.40292a.44325.44325,0,0,1,.45807.352L113.166,287.7283a.39187.39187,0,0,1,.03554.17658q0,.31646-.38754.31646h-3.52234A.44176.44176,0,0,1,108.83356,287.86933Zm-9.58037-7.11576h7.15016c.141,0,.18747-.06994.141-.211L102.916,268.743c-.02351-.094-.05848-.141-.10549-.141s-.08256.047-.10549.141L99.11216,280.5426C99.08866,280.68363,99.13509,280.75357,99.25319,280.75357Z"/>
        <path class="cls-7" d="M118.5561,287.62282a7.21561,7.21561,0,0,1-3.15256-2.46633,6.34427,6.34427,0,0,1-1.10991-3.73331v-.88058a.4228.4228,0,0,1,.4231-.42309h3.13478a.4218.4218,0,0,1,.42252.42309v.66961a3.24083,3.24083,0,0,0,1.44414,2.6945,6.4737,6.4737,0,0,0,3.94543,1.07435,4.935,4.935,0,0,0,3.24027-.91612,2.93758,2.93758,0,0,0,1.09271-2.35969,2.45863,2.45863,0,0,0-.59967-1.67288,5.582,5.582,0,0,0-1.70843-1.25094q-1.10932-.5624-3.32856-1.40916a34.69407,34.69407,0,0,1-4.05034-1.72562,7.54932,7.54932,0,0,1-2.589-2.20146,5.63264,5.63264,0,0,1-1.03939-3.4696,5.92448,5.92448,0,0,1,2.25421-4.896,9.38667,9.38667,0,0,1,6.0242-1.79671,11.23052,11.23052,0,0,1,4.66664.91612,7.4472,7.4472,0,0,1,3.152,2.55347,6.51257,6.51257,0,0,1,1.1271,3.7872v.59852a.41891.41891,0,0,1-.42194.42195H128.313a.42085.42085,0,0,1-.4231-.42195v-.38755a3.53165,3.53165,0,0,0-1.35527-2.8,5.64034,5.64034,0,0,0-3.75166-1.14545,4.91194,4.91194,0,0,0-3.0121.81064,2.69777,2.69777,0,0,0-1.07436,2.28975,2.586,2.586,0,0,0,.56413,1.72562,5.05841,5.05841,0,0,0,1.69065,1.21539q1.12739.54521,3.48737,1.39082a39.90878,39.90878,0,0,1,3.99817,1.72563,7.70573,7.70573,0,0,1,2.57066,2.16706,5.50407,5.50407,0,0,1,1.07436,3.46959,6.10474,6.10474,0,0,1-2.34249,5.037,9.989,9.989,0,0,1-6.39226,1.86665A12.029,12.029,0,0,1,118.5561,287.62282Z"/>
        <path class="cls-7" d="M152.24818,263.68882a.40927.40927,0,0,1,.12268.29926v2.7117a.42083.42083,0,0,1-.42194.42309h-6.4817a.15541.15541,0,0,0-.17657.17543v20.5a.42085.42085,0,0,1-.422.42309h-3.24027a.40847.40847,0,0,1-.30041-.12383.40309.40309,0,0,1-.12268-.29926v-20.5a.15542.15542,0,0,0-.17658-.17543h-6.234a.42278.42278,0,0,1-.42309-.42309v-2.7117a.42278.42278,0,0,1,.42309-.42309h17.15419A.40774.40774,0,0,1,152.24818,263.68882Z"/>
      </g>
    </g>
  </g>
  <g id="For_PPT" data-name="For PPT">
    <rect class="cls-3" x="0.108" y="0.31173" width="228.37128" height="327.90984"/>
  </g>
</svg>
