<svg width="100%" height="100%" viewBox="0 0 142 142" fill="none" xmlns="http://www.w3.org/2000/svg"><path d="M71 142c39.212 0 71-31.788 71-71S110.212 0 71 0 0 31.788 0 71s31.788 71 71 71Z" fill="#7198E7"/><path d="M71 136c35.899 0 65-29.101 65-65 0-35.898-29.101-65-65-65C35.102 6 6 35.102 6 71c0 35.899 29.102 65 65 65Z" fill="url(#a)"/><path d="M103.933 69.683H93.836a3.9 3.9 0 0 0-2.175-1.924V51.933a1.3 1.3 0 1 0-2.6 0V67.76a3.882 3.882 0 0 0-2.306 5.15 3.891 3.891 0 0 0 3.606 2.407 3.883 3.883 0 0 0 3.467-2.167h10.105a1.734 1.734 0 1 0 0-3.466Z" fill="#5070D4"/><path d="M94.668 37.564v-3.623a1.291 1.291 0 0 0-1.291-1.291H87.31a1.291 1.291 0 0 0-1.291 1.291v3.623a34.129 34.129 0 0 0-24.033 14.829h-44.2a3.9 3.9 0 0 0-3.9 3.9 3.89 3.89 0 0 0 3.9 3.9h40.326a33.793 33.793 0 0 0-1.664 7.34H25.369a3.9 3.9 0 0 0-3.9 3.9 3.893 3.893 0 0 0 3.9 3.9h31.079a33.592 33.592 0 0 0 1.673 7.324H7.057a64.425 64.425 0 0 0 1.906 7.8H60.8a3.892 3.892 0 0 0 1.1-.174 34.091 34.091 0 0 0 28.462 15.288 34.135 34.135 0 0 0 34.138-34.155 34.144 34.144 0 0 0-29.831-33.852Zm-4.333 61.204a27.378 27.378 0 0 1-27.352-27.352A27.378 27.378 0 0 1 90.36 44.064a27.385 27.385 0 0 1 27.352 27.352 27.378 27.378 0 0 1-27.352 27.317l-.026.035Z" fill="#5070D4"/><defs><radialGradient id="a" cx="0" cy="0" r="1" gradientUnits="userSpaceOnUse" gradientTransform="matrix(0 67.5 -82.5462 0 71 71)"><stop stop-color="#fff"/><stop offset="1" stop-color="#A7D3F2"/></radialGradient></defs></svg>