<svg xmlns="http://www.w3.org/2000/svg" viewBox="0 0 225 271.22927">
  <defs>
    <style>
      .cls-1, .cls-6 {
        fill: #1d4588;
      }

      .cls-2, .cls-4, .cls-7 {
        fill: none;
      }

      .cls-2, .cls-7 {
        stroke: #1d4588;
        stroke-linecap: round;
      }

      .cls-2, .cls-6, .cls-7 {
        stroke-miterlimit: 10;
      }

      .cls-2 {
        stroke-width: 3.17278px;
      }

      .cls-3 {
        fill: #4b78ba;
      }

      .cls-5 {
        fill: #a2d5f3;
      }

      .cls-6 {
        stroke: #7baadb;
        stroke-width: 1.5781px;
      }

      .cls-7 {
        stroke-width: 2.91576px;
      }
    </style>
  </defs>
  <g id="For_PPT" data-name="For PPT">
    <g>
      <path class="cls-1" d="M100.958,210.22581a.31326.31326,0,0,1-.22949.09424H91.54883a.11976.11976,0,0,0-.13574.13525v5.04883a.11957.11957,0,0,0,.13574.13525h6.18262a.32258.32258,0,0,1,.32421.32373v2.05225a.32258.32258,0,0,1-.32421.32373H91.54883a.11977.11977,0,0,0-.13574.13526V226.196a.32176.32176,0,0,1-.32325.32421H88.60547a.32341.32341,0,0,1-.32422-.32421v-18.252a.3226.3226,0,0,1,.32422-.32373h12.12305a.32258.32258,0,0,1,.32421.32373v2.05225A.314.314,0,0,1,100.958,210.22581Z"/>
      <path class="cls-1" d="M110.28516,213.1013a4.70569,4.70569,0,0,1,1.998,1.6333,4.11976,4.11976,0,0,1,.70215,2.36279V226.196a.32341.32341,0,0,1-.32422.32421h-2.4834a.3234.3234,0,0,1-.32421-.32421v-.86377c0-.0542-.01758-.08545-.05372-.09473a.1141.1141,0,0,0-.10839.04053,4.91306,4.91306,0,0,1-3.834,1.458,5.238,5.238,0,0,1-3.334-1.02587,3.63571,3.63571,0,0,1-1.30957-3.05079,3.96025,3.96025,0,0,1,1.47168-3.28076,6.49144,6.49144,0,0,1,4.14453-1.17431h2.88867a.11928.11928,0,0,0,.13477-.13526v-.648a2.1267,2.1267,0,0,0-.6211-1.6333,2.643,2.643,0,0,0-1.86328-.58056,3.317,3.317,0,0,0-1.66016.36425,1.58343,1.58343,0,0,0-.79589,1.0127q-.082.32373-.37891.27L101.916,216.53a.57465.57465,0,0,1-.2295-.09424.15435.15435,0,0,1-.06836-.17529,3.78616,3.78616,0,0,1,1.76856-2.7002,6.8004,6.8004,0,0,1,3.90234-1.05322A7.119,7.119,0,0,1,110.28516,213.1013ZM108.9082,223.55a2.135,2.135,0,0,0,.94532-1.78174v-1.269a.11912.11912,0,0,0-.13477-.13477H107.4502a4.07384,4.07384,0,0,0-2.25391.53955,1.733,1.733,0,0,0-.82324,1.53907,1.56657,1.56657,0,0,0,.63379,1.33642,2.66118,2.66118,0,0,0,1.63378.47266A3.69373,3.69373,0,0,0,108.9082,223.55Z"/>
      <path class="cls-1" d="M118.26367,226.18284a4.61641,4.61641,0,0,1-1.98437-1.37695,3.05725,3.05725,0,0,1-.70215-1.95752v-.24317a.3226.3226,0,0,1,.32422-.32373h2.376a.32259.32259,0,0,1,.32422.32373v.0542a1.4179,1.4179,0,0,0,.74219,1.17432,3.29008,3.29008,0,0,0,1.87695.49951,3.13461,3.13461,0,0,0,1.75489-.44531,1.3135,1.3135,0,0,0,.6748-1.12061,1.00464,1.00464,0,0,0-.55371-.93164,8.97389,8.97389,0,0,0-1.79492-.66162l-1.02637-.32373a15.11628,15.11628,0,0,1-2.32227-.86426,4.62765,4.62765,0,0,1-1.59277-1.25537,3.12775,3.12775,0,0,1-.64844-2.03857,3.57793,3.57793,0,0,1,1.48536-3.01026,6.33538,6.33538,0,0,1,3.915-1.1206,7.35413,7.35413,0,0,1,2.88868.52637,4.43326,4.43326,0,0,1,1.917,1.458,3.52115,3.52115,0,0,1,.67578,2.11963.32341.32341,0,0,1-.32422.32422h-2.29492a.32341.32341,0,0,1-.32422-.32422,1.39042,1.39042,0,0,0-.68848-1.17431,3.27358,3.27358,0,0,0-1.877-.47266,3.33546,3.33546,0,0,0-1.71387.3916,1.21376,1.21376,0,0,0-.66211,1.09326,1.06556,1.06556,0,0,0,.63477.98536,11.20034,11.20034,0,0,0,2.11914.74267l.59473.16211a19.164,19.164,0,0,1,2.40234.87744,4.69313,4.69313,0,0,1,1.64746,1.24219,3.08771,3.08771,0,0,1,.67481,2.06543,3.512,3.512,0,0,1-1.51172,3.01025,6.72385,6.72385,0,0,1-4.02344,1.09375A8.18938,8.18938,0,0,1,118.26367,226.18284Z"/>
      <path class="cls-1" d="M136.624,215.16673a.31181.31181,0,0,1-.22949.09472h-2.75391a.11873.11873,0,0,0-.13476.13477v6.50684a2.07893,2.07893,0,0,0,.44531,1.48535,1.90221,1.90221,0,0,0,1.417.459h.81055a.3226.3226,0,0,1,.32422.32373V226.196a.33291.33291,0,0,1-.32422.35107l-1.4043.02734a5.63258,5.63258,0,0,1-3.18554-.729,3.18772,3.18772,0,0,1-1.08008-2.7544v-7.69482a.11912.11912,0,0,0-.13477-.13477H128.835a.32341.32341,0,0,1-.32422-.32421V213.0471a.3226.3226,0,0,1,.32422-.32373H130.374a.11927.11927,0,0,0,.13477-.13526v-3.15869a.32343.32343,0,0,1,.32422-.32422h2.34863a.32343.32343,0,0,1,.32422.32422v3.15869a.11888.11888,0,0,0,.13476.13526h2.75391a.3226.3226,0,0,1,.32422.32373v1.89014A.314.314,0,0,1,136.624,215.16673Z"/>
    </g>
    <g>
      <line class="cls-2" x1="207.48828" y1="86.45194" x2="202.13816" y2="86.45194"/>
      <path class="cls-3" d="M106.01146,88.28384c0-25.13415,5.20364-41.25575,21.23453-58.81011H26.03017a10.47393,10.47393,0,1,0,0,20.94786H75.79665a9.97807,9.97807,0,0,1,2.13209,19.72456H41.05443A10.47407,10.47407,0,0,0,38.002,90.63957H11.7698a10.56129,10.56129,0,1,0,0,21.12257H60.89549v.035H84.94243a8.409,8.409,0,0,1,1.94565,16.59039h-39.787a8.84871,8.84871,0,1,0,0,17.69741H127.246C112.65873,126.41814,106.01146,113.41783,106.01146,88.28384Z"/>
      <circle class="cls-4" cx="157.31671" cy="87.27227" r="54.58541"/>
      <circle class="cls-5" cx="157.31671" cy="87.27227" r="54.58545"/>
      <path class="cls-6" d="M157.31671,20.53177a66.48064,66.48064,0,1,0,66.48063,66.48066A66.48064,66.48064,0,0,0,157.31671,20.53177Zm0,121.06615a54.58549,54.58549,0,1,1,54.5854-54.58549A54.58545,54.58545,0,0,1,157.31671,141.59792Z"/>
      <line class="cls-7" x1="157.15463" y1="86.70544" x2="175.30041" y2="104.85123"/>
      <line class="cls-7" x1="157.15463" y1="55.49483" x2="157.15463" y2="86.15863"/>
      <line class="cls-2" x1="157.31671" y1="38.08352" x2="157.31671" y2="43.43364"/>
      <line class="cls-2" x1="157.31671" y1="131.22825" x2="157.31671" y2="136.57837"/>
      <circle class="cls-1" cx="157.15463" cy="86.45194" r="2.95004"/>
      <line class="cls-2" x1="107.66154" y1="85.62922" x2="114.52833" y2="85.62922"/>
      <line class="cls-2" x1="197.838" y1="85.62922" x2="204.70478" y2="85.62922"/>
    </g>
  </g>
</svg>
