<svg  viewBox="0 0 142 142" fill="none" xmlns="http://www.w3.org/2000/svg">
<path d="M71 142C110.212 142 142 110.212 142 71C142 31.7878 110.212 0 71 0C31.7878 0 0 31.7878 0 71C0 110.212 31.7878 142 71 142Z" fill="#7198E7"/>
<path d="M71 136C106.899 136 136 106.899 136 71C136 35.1015 106.899 6 71 6C35.1015 6 6 35.1015 6 71C6 106.899 35.1015 136 71 136Z" fill="url(#paint0_radial_1890_7415)"/>
<path d="M101.741 60.704C99.7266 62.8084 97.072 64.186 94.1919 64.6213C94.0012 64.6993 93.9145 64.812 93.9145 64.9593L94.0272 68.5126C94.0249 68.6912 93.953 68.8619 93.8267 68.9882C93.7004 69.1145 93.5298 69.1864 93.3512 69.1887H86.4785C86.3883 69.1899 86.2989 69.1729 86.2154 69.1387C86.132 69.1044 86.0564 69.0536 85.9932 68.9893C85.9307 68.927 85.8816 68.8526 85.8488 68.7706C85.816 68.6887 85.8003 68.6009 85.8025 68.5126L85.9152 64.8466C85.9152 64.7022 85.8198 64.5895 85.6292 64.5086C82.7708 63.964 80.1687 62.5001 78.2192 60.34C76.4188 58.2245 75.4676 55.516 75.5498 52.7393V51.6646C75.5471 51.5763 75.5626 51.4884 75.5954 51.4064C75.6282 51.3244 75.6776 51.25 75.7405 51.188C75.8037 51.1237 75.8794 51.0729 75.9628 51.0386C76.0462 51.0044 76.1357 50.9874 76.2258 50.9886H83.6618C83.7506 50.988 83.8386 51.0054 83.9205 51.0396C84.0025 51.0739 84.0766 51.1243 84.1385 51.188C84.2026 51.2496 84.2533 51.3237 84.2876 51.4057C84.3219 51.4876 84.339 51.5758 84.3378 51.6646V52.3406C84.3546 52.9863 84.5274 53.6182 84.8413 54.1826C85.1551 54.747 85.6009 55.2271 86.1405 55.582C87.5394 56.5635 89.2266 57.0487 90.9332 56.96C92.1821 57.057 93.4212 56.676 94.3998 55.894C94.7518 55.5836 95.0341 55.2023 95.2283 54.7751C95.4224 54.348 95.5241 53.8845 95.5265 53.4153C95.5462 52.9322 95.433 52.4528 95.1992 52.0296C94.9654 51.6063 94.62 51.2552 94.2005 51.0146C92.6999 50.2061 91.1273 49.5388 89.5032 49.0213C89.1063 48.9095 88.7157 48.7765 88.3332 48.6226C86.2427 47.9249 84.2135 47.0553 82.2665 46.0226C80.5258 45.0916 79.0155 43.7827 77.8465 42.192C76.5821 40.428 75.939 38.2942 76.0178 36.1253C75.9349 33.4784 76.8647 30.8995 78.6178 28.9146C80.4802 26.9111 82.939 25.5617 85.6292 25.0666C85.7765 25.0666 85.8545 24.9193 85.8545 24.7286L85.8025 20.56C85.7998 20.4717 85.8153 20.3838 85.8481 20.3017C85.8809 20.2197 85.9303 20.1453 85.9932 20.0833C86.0564 20.019 86.132 19.9682 86.2154 19.9339C86.2989 19.8997 86.3883 19.8827 86.4785 19.884H93.2905C93.4691 19.8862 93.6397 19.9582 93.766 20.0845C93.8923 20.2108 93.9643 20.3814 93.9665 20.56L93.8539 24.7893C93.8449 24.8633 93.8626 24.938 93.904 25C93.9453 25.062 94.0075 25.1072 94.0792 25.1273C96.9478 25.7454 99.5439 27.2636 101.489 29.4606C103.342 31.6111 104.336 34.3703 104.28 37.2086V38.0666C104.281 38.1555 104.264 38.2437 104.23 38.3256C104.195 38.4076 104.145 38.4817 104.081 38.5433C104.02 38.6082 103.946 38.6595 103.863 38.6939C103.781 38.7282 103.693 38.7448 103.604 38.7426H96.1332C96.044 38.746 95.9552 38.7298 95.8729 38.6954C95.7906 38.661 95.7168 38.6091 95.6565 38.5433C95.5925 38.4817 95.5417 38.4076 95.5075 38.3256C95.4732 38.2437 95.4561 38.1555 95.4572 38.0666V37.6766C95.4457 37.0131 95.291 36.3599 95.0038 35.7616C94.7167 35.1633 94.3037 34.634 93.7932 34.21C92.5527 33.1478 90.9521 32.6019 89.3212 32.6846C88.156 32.6113 86.9982 32.9152 86.0192 33.5513C85.6245 33.8424 85.308 34.2266 85.0978 34.6696C84.8876 35.1127 84.7903 35.6009 84.8145 36.0906C84.7893 36.8473 85.0597 37.584 85.5685 38.1446C86.2401 38.7941 87.0361 39.3012 87.9085 39.6353C88.9543 40.086 90.5894 40.7071 92.8138 41.4986C95.3272 42.4 97.2887 43.1886 98.6985 43.8646C100.249 44.6559 101.604 45.7806 102.668 47.158C103.974 48.8761 104.634 50.9994 104.531 53.1553C104.609 55.9373 103.609 58.6418 101.741 60.704Z" fill="#5070D4"/>
<path d="M54.7594 66.6666H44.3594V130.289C47.7152 131.805 51.1945 133.031 54.7594 133.955V66.6666Z" fill="#5070D4"/>
<path d="M22.918 114.732C26.0451 118.166 29.5317 121.255 33.318 123.945V58H22.918V114.732Z" fill="#5070D4"/>
<path d="M76.1998 135.775V75.3334H65.7998V135.775C67.5331 135.913 69.2665 136 70.9998 136C72.7331 136 74.4665 135.913 76.1998 135.775Z" fill="#5070D4"/>
<path d="M97.6412 83.6187H87.2412V133.955C90.8061 133.031 94.2854 131.805 97.6412 130.289V83.6187Z" fill="#5070D4"/>
<path d="M119.083 114.732V92.2853H108.683V123.945C112.469 121.255 115.955 118.166 119.083 114.732Z" fill="#5070D4"/>
<defs>
<radialGradient id="paint0_radial_1890_7415" cx="0" cy="0" r="1" gradientUnits="userSpaceOnUse" gradientTransform="translate(71 71) rotate(90) scale(67.5 82.5462)">
<stop stop-color="white"/>
<stop offset="1" stop-color="#A7D3F2"/>
</radialGradient>
</defs>
</svg>
