<svg xmlns="http://www.w3.org/2000/svg" viewBox="0 0 297 212"><defs><linearGradient id="linear-gradient" x1="207.73" y1="201.96" x2="207.73" y2="125.16" gradientUnits="userSpaceOnUse"><stop offset="0" stop-color="#00caed"/><stop offset=".99" stop-color="#0094ff"/></linearGradient><linearGradient id="linear-gradient-2" x1="234" y1="139.42" x2="234" y2="201.96" gradientUnits="userSpaceOnUse"><stop offset="0" stop-color="#34298f"/><stop offset=".99" stop-color="#0a9bfc"/></linearGradient><linearGradient id="linear-gradient-3" x1="155.18" y1="125.62" x2="155.18" y2="201.96" gradientUnits="userSpaceOnUse"><stop offset="0" stop-color="#085ed5"/><stop offset="1" stop-color="#529bea"/></linearGradient><linearGradient id="linear-gradient-4" x1="181.45" y1="93.14" x2="181.45" y2="201.96" gradientUnits="userSpaceOnUse"><stop offset="0" stop-color="#5413ff"/><stop offset="1" stop-color="#557cff"/></linearGradient><linearGradient id="linear-gradient-5" x1="63.62" y1="76.14" x2="145.61" y2="76.14" gradientUnits="userSpaceOnUse"><stop offset="0" stop-color="#557cff"/><stop offset="1" stop-color="#5413ff"/></linearGradient><style>.cls-1,.cls-2{fill:#f0f4f9;stroke:#b6c6e3;stroke-width:1.08px;stroke-miterlimit:10}.cls-2{fill:none;stroke:#557cff;stroke-width:3.16px}.cls-8{fill:#0094ff}.cls-11{fill:#26b4d8}</style></defs><g id="Header_Manager_Illus" data-name="Header Manager Illus"><path class="cls-1" d="M53.8 97.3h192.7M157.6 8.7v192.7M172.4 8.7v192.7M187.2 8.7v192.7M202 8.7v192.7M216.9 8.7v192.7M231.7 8.7v192.7M246.5 8.7v192.7M142.8 8.7v192.7M127.9 8.7v192.7M98.3 8.7v192.7M113.1 8.7v192.7M83.5 8.7v192.7M68.6 8.7v192.7M53.8 8.7v192.7M246.5 112.5H53.8M246.5 127.3H53.8M246.5 142.1H53.8M246.5 156.9H53.8M246.5 171.7H53.8M246.5 186.6H53.8M246.5 201.4H53.8M246.5 97.6H53.8M246.5 82.8H53.8M246.5 53.2H53.8M246.5 68H53.8M246.5 38.3H53.8M246.5 23.5H53.8M246.5 8.7H53.8"/><g><path class="cls-2" d="M69.8 107.3q-.1-3 0-6.3"/><path d="M69.8 94.7C70.3 66.1 73 26.8 83 26.2c13.6-.7 20.5 142 30.4 142 13.7 0 21.6-143.8 37.6-143.8 13.4 0 11.4 80.3 27.3 80.3 17.7 0 21.2-53.7 36.2-53.9 11.1-.2 21.2 27.6 29.9 63.2" style="stroke-dasharray:12.55 6.28;fill:none;stroke:#557cff;stroke-width:3.16px;stroke-miterlimit:10"/><path class="cls-2" d="M245.1 117.1c.5 2 .9 4.1 1.4 6.1"/></g><path style="fill:url(#linear-gradient)" d="M194.6 125.2h26.3V202h-26.3z"/><path style="fill:url(#linear-gradient-2)" d="M220.9 139.4h26.3v62.54h-26.3z"/><path style="fill:url(#linear-gradient-3)" d="M142 125.6h26.3v76.34H142z"/><path style="fill:url(#linear-gradient-4)" d="M168.3 93.1h26.3v108.83h-26.3z"/><path class="cls-8" d="M89.8 75.9 74 22.6A55.1 55.1 0 0 0 43.6 45l46.2 31Z"/><path d="M145.6 76a55.8 55.8 0 0 0-50.7-55.5L89.8 76h.2l-.2.3c-1.9 3.5-22.8 43.1-26.2 48.8a56.5 56.5 0 0 0 26.2 6.5h.1A55.7 55.7 0 0 0 145.6 76Z" style="fill:url(#linear-gradient-5)"/><path d="M89.9 20.3h-.1A54.9 54.9 0 0 0 74 22.6l15.8 53.3 5.1-55.5Z" style="fill:#00dba6"/><path class="cls-11" d="m89.8 76.4.2-.3h-.2ZM89.8 76h.1-.1z"/><path class="cls-8" d="M43.6 45a55.7 55.7 0 0 0-9.5 31 55.9 55.9 0 0 0 29.5 49.2c3.4-5.7 24.3-45.3 26.2-48.8V76Z"/></g></svg>