<svg  viewBox="0 0 142 142" fill="none" xmlns="http://www.w3.org/2000/svg">
<path d="M71 142C110.212 142 142 110.212 142 71C142 31.7878 110.212 0 71 0C31.7878 0 0 31.7878 0 71C0 110.212 31.7878 142 71 142Z" fill="#7198E7"/>
<path d="M71 136C106.899 136 136 106.899 136 71C136 35.1015 106.899 6 71 6C35.1015 6 6 35.1015 6 71C6 106.899 35.1015 136 71 136Z" fill="url(#paint0_radial_1898_6125)"/>
<path d="M118.32 92.9094L120.444 88.16L105.017 81.2787L106.967 76.8847L122.402 83.766L124.517 79.0167L109.134 72.1354L110.72 68.5734L102.807 65.046L93.5335 85.8114V53.788H37.2002V105.788H84.5982L82.2669 111.118C79.2437 110.753 76.1827 111.355 73.5224 112.837C70.8621 114.318 68.7391 116.604 67.4575 119.366C66.176 122.128 65.8017 125.225 66.3883 128.213C66.9748 131.202 68.4922 133.927 70.7229 136H71.0002C72.7942 136 74.5622 135.905 76.3215 135.766L76.0269 135.653C74.0095 134.755 72.3037 133.279 71.1254 131.412C69.947 129.544 69.349 127.369 69.407 125.162C69.465 122.955 70.1764 120.814 71.4511 119.011C72.7259 117.208 74.5068 115.823 76.5685 115.033C78.6303 114.242 80.8802 114.081 83.0337 114.569C85.1872 115.057 87.1476 116.173 88.6668 117.775C90.186 119.378 91.1958 121.395 91.5684 123.571C91.941 125.748 91.6598 127.986 90.7602 130.003C90.1345 131.419 89.2159 132.686 88.0649 133.721C89.8675 133.227 91.6529 132.681 93.3949 132.039C93.5162 131.805 93.6462 131.58 93.7502 131.337C95.0015 128.532 95.3257 125.402 94.6758 122.4C94.0258 119.398 92.4356 116.682 90.1362 114.645L102.894 86.0454L118.32 92.9094ZM67.9322 77.5V94.4H62.7322V77.5C61.3636 76.9027 60.2423 75.8523 59.557 74.5255C58.8717 73.1988 58.6642 71.6765 58.9693 70.2147C59.2744 68.7528 60.0735 67.4407 61.2323 66.4988C62.3911 65.5569 63.8389 65.0427 65.3322 65.0427C66.8255 65.0427 68.2733 65.5569 69.4321 66.4988C70.5909 67.4407 71.39 68.7528 71.6951 70.2147C72.0002 71.6765 71.7926 73.1988 71.1074 74.5255C70.4221 75.8523 69.3008 76.9027 67.9322 77.5V77.5Z" fill="#5070D4"/>
<path d="M89.1998 129.301C89.9601 127.598 90.1982 125.708 89.8842 123.869C89.5702 122.031 88.7181 120.327 87.4357 118.973C86.1532 117.619 84.4981 116.676 82.6795 116.262C80.861 115.849 78.9607 115.984 77.2189 116.651C75.4772 117.317 73.9723 118.485 72.8944 120.007C71.8166 121.529 71.2143 123.337 71.1636 125.201C71.113 127.065 71.6163 128.903 72.6099 130.481C73.6036 132.059 75.0429 133.307 76.7458 134.067C79.03 135.082 81.6232 135.15 83.9575 134.257C86.2918 133.363 88.1768 131.581 89.1998 129.301V129.301Z" fill="#5070D4"/>
<path d="M63.2002 25.3267C60.3662 25.5347 51.6822 26.1934 44.8182 32.9447C37.5642 40.086 37.2002 49.2814 37.2002 51.3267H44.5409C44.6068 46.2422 46.6235 41.3773 50.1742 37.7374C55.2442 32.7107 61.6749 32.2514 63.7635 32.104C64.831 32.0248 65.9028 32.0248 66.9702 32.104C72.0639 32.1109 76.9465 34.1392 80.5459 37.7434C84.1452 41.3476 86.1669 46.233 86.1669 51.3267H93.5335C93.5335 44.4311 90.7943 37.8179 85.9183 32.9419C81.0424 28.066 74.4292 25.3267 67.5335 25.3267C66.0907 25.2299 64.643 25.2299 63.2002 25.3267V25.3267Z" fill="#5070D4"/>
<defs>
<radialGradient id="paint0_radial_1898_6125" cx="0" cy="0" r="1" gradientUnits="userSpaceOnUse" gradientTransform="translate(71 71) rotate(90) scale(67.5 82.5462)">
<stop stop-color="white"/>
<stop offset="1" stop-color="#A7D3F2"/>
</radialGradient>
</defs>
</svg>
