<svg id="Layer_1" data-name="Layer 1" xmlns="http://www.w3.org/2000/svg" viewBox="0 0 194.415 233.935"><defs><style>.cls-1{fill:#000205}.cls-2{fill:#fff}</style></defs><path class="cls-1" d="M66.766 56.74a51.616 51.616 0 0 1-11.76 37.167 174.366 174.366 0 0 0-21.592 33.327s-9.479 17.798-5.968 32.63c3.51 14.831 10.883 60.373 46.869 60.373 0 0-.527.698 18.958-2.443a50.182 50.182 0 0 1 13.341.35 119.314 119.314 0 0 0 16.5 1.046l11.059-3.664 40.198-52.347a51.189 51.189 0 0 0 .176-30.187c-4.915-15.704-15.974-31.233-20.889-36.642 0 0-10.708-11.168-15.272-23.208 0 0-3.511-4.71-1.931-20.59 0 0 2.282-23.381-8.601-39.26 0 0-5.618-12.388-27.033-11.516 0 0-27.56-.174-32.826 21.462 0 0-4.213 12.04-1.229 33.502Z"/><path class="cls-2" d="M131.113 171.42c1.027-6.74 2.66-10.547 6.43-12.97 7.137-4.588 15.005-.19 15.296 0 1.154.76 1.55 1.765 2.927 2.595 5.266 3.173 10.417 2.523 14.809 2.837 4.267.305 6.429 1.635 7.537 3.325.85 1.297 1.958 1.771 2.66 6.208 1.682 10.618 4.526 12.155 5.875 13.745a31.498 31.498 0 0 1 2.217 2.66c1.366 1.901 2.896 4.01 3.104 6.54a7.82 7.82 0 0 1-1.663 5.653c-5.154 5.321-9.814 4.664-18.733 10.53-1.98 1.303-4.793 3.825-10.42 8.869-4.55 4.079-5.922 5.607-9.089 7.316a22.215 22.215 0 0 1-10.641 3.214c-1.577.023-7.91.118-12.858-4.545-5.433-5.117-5.725-12.695-5.1-16.294.168-.963.657-3.115 1.22-5.21.76-2.83 1.444-4.772 1.773-5.764a95.316 95.316 0 0 0 3.243-11.334c1.413-6.401.472-11.204 1.413-17.375ZM75.189 59.356s-6.32-4.362-3.51-17.274c0 0 2.106-5.584 6.318-6.107 0 0 5.091-.873 7.9 5.583A21.518 21.518 0 0 1 87.3 53.424L76.593 61.1ZM96.785 54.475s-3.862-6.805 1.756-16.402a10.38 10.38 0 0 1 9.128-4.363c5.968.524 9.654 7.852 9.654 7.852s2.633 7.329.351 12.913c-2.282 5.583-4.564 6.98-4.564 6.98ZM155.764 146.251a.697.697 0 0 1-.034.28.69.69 0 0 1-.142.243l-4.388-1.745v-.349l1.58.524Z"/><path class="cls-2" d="m168.402 163.531-21.24-12.912c.877 18.67-7.724 23.032-14.921 39.085-7.197 16.054-35.985 19.543-35.985 19.543-28.262-.698-38.268-25.126-38.268-25.126a92.099 92.099 0 0 1-7.372-22.335c-8.075-6.63-8.777-11.342-9.128-16.053s-.351-9.946 2.984-19.019a87.722 87.722 0 0 1 7.548-15.18l2.282-3.49s.527-.699.878-.699c.35 0 .527.524-.176 1.92-.702 1.396-3.51 6.107-4.564 8.201-1.053 2.094-4.564 12.563-4.564 12.563-3.861 15.704 3.862 23.556 3.862 23.556.351-12.04 4.213-24.079 9.83-36.294a131.321 131.321 0 0 0 11.937-27.918c4.564-16.053 1.404-19.194 1.404-19.194l44.587-1.221s2.106 6.107 4.915 15.006c2.808 8.899 12.99 30.535 12.99 30.535 5.617 9.423 10.181 26.872 10.707 29.49a18.55 18.55 0 0 1 5.091.348c.527-2.268 2.984-13.087-.351-21.637 0 0-5.617-11.69-8.075-14.133l-3.686-3.839c-.527-.523-.702-1.919.526-1.396 1.229.524 4.389 4.362 4.389 4.362a92.69 92.69 0 0 1 7.021 10.47c1.931 4.362 3.862 7.852 4.74 12.388a25.32 25.32 0 0 1 .702 8.027 41.895 41.895 0 0 1-.878 7.503c3.687 1.57 6.846 3.315 6.846 3.315s7.373 4.014 7.724 8.201a9.563 9.563 0 0 1-1.755 5.933Z"/><path class="cls-1" d="M79.902 57.734c2.016-.283 3.22-3.53 2.691-7.25-.529-3.72-2.592-6.507-4.608-6.224-2.015.283-3.22 3.53-2.69 7.25.529 3.72 2.592 6.508 4.607 6.224ZM111.6 50.564c.239-4.233-1.844-7.792-4.651-7.948s-5.276 3.15-5.514 7.383c-.238 4.234 1.845 7.792 4.652 7.948s5.275-3.15 5.513-7.383ZM44.999 156.021a31.886 31.886 0 0 0 9.479 8.201 47.23 47.23 0 0 1 10.357 7.503s9.654 8.376 9.83 15.006c.175 6.631-6.495 6.805-6.495 6.805H61.5s-33.704-8.899-34.582-39.085Z"/><path class="cls-2" d="M58.164 228.608a56.623 56.623 0 0 1-14.92-3.316 27.778 27.778 0 0 1-5.091-2.442 25.018 25.018 0 0 0-9.303-2.967l-14.395-1.745c-.175 0-8.777-.698-11.585-5.932a13.184 13.184 0 0 1 .351-6.456 3.998 3.998 0 0 1 .702-1.745c.176-.698.527-1.396.878-2.618a19.255 19.255 0 0 0 .526-8.026c0-.175-.175-.873-1.228-5.758a11.455 11.455 0 0 1 1.053-8.899 19.328 19.328 0 0 1 9.128-5.41 13.858 13.858 0 0 0 9.128-6.805 54.467 54.467 0 0 1 5.968-6.456 8.631 8.631 0 0 1 5.266-1.919 10.917 10.917 0 0 1 7.022 2.966c5.266 4.537 9.479 13.61 9.479 13.61s8.952 16.053 14.218 20.067c2.282 2.268 8.25 8.9 9.128 13.086.878 4.188.878 10.121-.877 12.913l-.351.35c-2.107 3.14-4.565 6.804-15.097 7.502Z"/><path class="cls-1" d="M34.643 159.34a8.803 8.803 0 0 1 5.968 2.616c5.09 4.363 9.304 13.087 9.304 13.261 1.053 1.745 8.952 16.228 14.57 20.59 5.616 4.363 7.898 8.725 8.6 12.215.703 3.49.878 9.248-.702 11.69v.35c-2.106 3.14-4.388 6.456-14.043 7.153a61.549 61.549 0 0 1-14.394-3.14l-4.915-2.443a23.79 23.79 0 0 0-9.83-3.14l-14.57-1.746c-2.106-.174-8.074-1.396-10.18-5.06a14.92 14.92 0 0 1 .175-5.584l.702-1.57a9.217 9.217 0 0 0 1.053-2.792 21.858 21.858 0 0 0 .527-8.55c0-.524-.351-1.745-1.229-5.933a9.374 9.374 0 0 1 .878-7.503 17.921 17.921 0 0 1 8.25-4.885 16.846 16.846 0 0 0 10.006-7.329 43.89 43.89 0 0 1 5.617-6.282 7.226 7.226 0 0 1 4.388-1.57Zm.175-2.444a10.927 10.927 0 0 0-6.319 2.094 77.368 77.368 0 0 0-6.144 6.98 13.333 13.333 0 0 1-8.075 6.107 21.442 21.442 0 0 0-10.005 5.758A12.326 12.326 0 0 0 2.87 188.13l1.23 5.758a19.777 19.777 0 0 1-.527 7.503c-.527 2.094-1.054 2.268-1.58 4.362a12.491 12.491 0 0 0-.176 7.154c2.984 6.282 12.639 7.154 12.639 7.154l14.219 1.571c7.548 1.047 7.548 2.792 14.218 5.41a68.828 68.828 0 0 0 15.447 3.49c11.586-.874 14.219-5.41 16.676-8.9s2.282-8.027 1.054-13.785c-1.229-5.758-9.48-13.959-9.48-13.959-5.265-3.839-13.867-19.543-13.867-19.543s-4.388-9.422-10.005-14.134a11.802 11.802 0 0 0-7.9-3.315Z"/><path d="M79.58 56.742a19.872 19.872 0 0 1 10.356-5.584s8.426-.697 12.815 3.84a13.198 13.198 0 0 0 5.441 2.442c3.862.873 8.251 2.617 9.655 4.711s3.16 5.933-1.053 10.644a17.938 17.938 0 0 1-7.548 4.362 10.562 10.562 0 0 0-4.038 1.745 20.068 20.068 0 0 1-11.936 5.235 13.22 13.22 0 0 1-10.533-3.14 40.692 40.692 0 0 0-6.495-5.061s-6.845-3.14-6.845-8.899c0 0 0-3.664 4.563-6.456a38.105 38.105 0 0 0 5.618-3.839Z" style="stroke-width:2px;stroke:#000205;stroke-miterlimit:10;fill:#fff"/><path class="cls-1" d="M98.187 57.963c0-.174.878-.872-.878-1.57a4.413 4.413 0 0 0-2.984-.175c-.175.175-.351.524.351.698a5.82 5.82 0 0 1 1.755.524l.527.523a1.412 1.412 0 0 0 1.229 0ZM84.847 57.79c-.175 0-.877-.873.702-1.57a3.176 3.176 0 0 1 2.985 0c.175 0 .35.523-.176.698a2.997 2.997 0 0 0-1.755.523l-.702.523a.881.881 0 0 1-1.054-.174Z"/><path d="M73.79 66.688a22.984 22.984 0 0 0 12.462 9.248 18.36 18.36 0 0 0 9.83-.524c5.969-1.919 15.097-8.55 16.501-10.469" style="stroke-linecap:round;fill:none;stroke:#000205;stroke-miterlimit:10"/><path class="cls-1" d="M139.792 157.243a9.392 9.392 0 0 1 3.686-8.375c4.739-4.188 19.66 3.84 19.66 3.84s5.617 3.14 5.266 7.153-3.511 7.503-7.899 9.946c-4.388 2.442-12.639 5.06-16.501-.349a20.337 20.337 0 0 1-4.212-12.215Z"/><path d="M131.286 171.42c1.027-6.74 2.66-10.547 6.43-12.97 7.137-4.588 15.005-.19 15.296 0 1.154.76 1.55 1.765 2.927 2.595 5.266 3.173 10.417 2.523 14.809 2.837 4.267.305 6.429 1.635 7.537 3.325.85 1.297 1.958 1.771 2.66 6.208 1.682 10.618 4.526 12.155 5.875 13.745a31.498 31.498 0 0 1 2.217 2.66c1.366 1.901 2.896 4.01 3.104 6.54a7.82 7.82 0 0 1-1.663 5.653c-5.154 5.321-9.814 4.664-18.733 10.53-1.98 1.303-4.793 3.825-10.42 8.869-4.55 4.079-5.922 5.607-9.089 7.316a22.215 22.215 0 0 1-10.641 3.214c-1.577.023-7.91.118-12.858-4.545-5.433-5.117-5.725-12.695-5.1-16.294.168-.963.657-3.115 1.22-5.21.76-2.83 1.444-4.772 1.773-5.764a95.314 95.314 0 0 0 3.243-11.334c1.413-6.401.472-11.204 1.413-17.375Z" style="stroke-width:3px;fill:none;stroke:#000205;stroke-miterlimit:10"/></svg>