<svg version="1.0" xmlns="http://www.w3.org/2000/svg" width="682.667" height="682.667" viewBox="0 0 512 512"><path d="M137.5 124.6c-23 3.5-43.3 11.4-60.5 23.5-9.6 6.8-24.1 21.3-30.9 30.9-9.5 13.5-16.4 28.7-20.7 45.5-3.5 13.5-4.4 38.4-2 52.5 5 29.1 17.6 53 38.4 73.2 19.6 19 42.4 30.8 68.4 35.4 12 2.1 33.4 2 45.3-.1 34.7-6.2 66.6-27.3 86-57 15.9-24.2 22.2-47.5 21.2-78-.6-21.3-3.9-34.4-13.1-53-18.3-36.8-49.4-61.4-89.6-70.6-8.3-2-35.3-3.4-42.5-2.3zM350.1 133.6c-25.1 9.1-44.5 43-51.8 90.4-2.4 15.9-2.4 48.2 0 63.9 5.4 34.4 16.5 60.7 32.7 77 18.9 19.2 40.4 19.8 59.6 1.9C412.8 346 427 302.5 427 255.1c0-56.3-20.9-106.4-50-119.9-7-3.3-20.1-4.1-26.9-1.6zM457.8 147.7c-1.4 1.6-3.3 4.2-4.2 6-4.1 8.2-9.2 31.5-11.6 53.8-1.8 16-2.4 64-1.1 82 3.6 50.3 13.8 82.3 24.3 76.7 20.2-10.9 27.8-132.9 12.2-195.7-5.5-22.2-12.5-30.3-19.6-22.8z"/></svg>