<svg xmlns="http://www.w3.org/2000/svg" xmlns:xlink="http://www.w3.org/1999/xlink" viewBox="0 0 373 353"><defs><linearGradient id="linear-gradient" x1="172.7" y1="179.97" x2="177.1" y2="187.58" gradientTransform="matrix(-.87 -.5 0 1.15 428.8 67.41)" gradientUnits="userSpaceOnUse"><stop offset="0" stop-color="#2b70cf"/><stop offset="1" stop-color="#1e4489"/></linearGradient><linearGradient id="linear-gradient-2" x1="3223.7" y1="176.09" x2="3226.03" y2="180.14" gradientTransform="matrix(-.87 -.5 -1 .58 3250.67 1694.85)" xlink:href="#linear-gradient"/><linearGradient id="linear-gradient-3" x1="-805.07" y1="3579.6" x2="-800.26" y2="3587.94" gradientTransform="matrix(0 1.15 .87 -.5 -2823.46 2909.76)" xlink:href="#linear-gradient"/><linearGradient id="linear-gradient-4" x1="118.41" y1="147.47" x2="151.74" y2="205.21" gradientTransform="matrix(-.87 -.5 0 1.15 428.8 67.41)" gradientUnits="userSpaceOnUse"><stop offset="0" stop-color="#e0f0ff"/><stop offset="1" stop-color="#abbdd9"/></linearGradient><linearGradient id="linear-gradient-5" x1="125.52" y1="153.62" x2="158.86" y2="211.35" xlink:href="#linear-gradient-4"/><linearGradient id="linear-gradient-6" x1="165.93" y1="178.19" x2="173.49" y2="191.29" xlink:href="#linear-gradient"/><linearGradient id="linear-gradient-7" x1="3216.64" y1="177.67" x2="3220.48" y2="184.32" gradientTransform="matrix(-.87 -.5 -1 .58 3250.67 1694.85)" xlink:href="#linear-gradient"/><linearGradient id="linear-gradient-8" x1="-793.16" y1="3590.58" x2="-790.28" y2="3595.58" gradientTransform="matrix(0 1.15 .87 -.5 -2823.46 2909.76)" xlink:href="#linear-gradient"/><linearGradient id="linear-gradient-9" x1="282.93" y1="193.64" x2="285.52" y2="198.13" gradientTransform="matrix(-1 0 0 1 565.78 0)" xlink:href="#linear-gradient"/><linearGradient id="linear-gradient-10" x1="143.39" y1="101.67" x2="146.08" y2="106.33" gradientTransform="matrix(-.5 -.87 -.58 1 413.56 217.56)" xlink:href="#linear-gradient"/><linearGradient id="linear-gradient-11" x1="3398.95" y1="3294.55" x2="3409.98" y2="3313.65" gradientTransform="matrix(.5 -.87 -.87 -.5 1466.3 4869.31)" gradientUnits="userSpaceOnUse"><stop offset="0" stop-color="#3fa9f5"/><stop offset="1" stop-color="#00ffda"/></linearGradient><linearGradient id="linear-gradient-12" x1="3786.27" y1="4745.74" x2="3774.83" y2="4765.55" gradientTransform="matrix(.9 -.48 -.97 -.59 1555.38 4906.29)" xlink:href="#linear-gradient-11"/><linearGradient id="linear-gradient-13" x1="3774.76" y1="4749.02" x2="3785.3" y2="4762.26" gradientTransform="matrix(.9 -.48 -.97 -.59 1555.38 4906.29)" xlink:href="#linear-gradient-11"/><linearGradient id="linear-gradient-14" x1="3401.94" y1="3299.9" x2="3412.97" y2="3319" xlink:href="#linear-gradient-11"/><linearGradient id="linear-gradient-15" x1="3789.55" y1="4751.97" x2="3778.11" y2="4771.78" gradientTransform="matrix(.9 -.48 -.97 -.59 1555.38 4906.29)" xlink:href="#linear-gradient-11"/><linearGradient id="linear-gradient-16" x1="3778.04" y1="4755.26" x2="3788.58" y2="4768.49" gradientTransform="matrix(.9 -.48 -.97 -.59 1555.38 4906.29)" xlink:href="#linear-gradient-11"/><linearGradient id="linear-gradient-17" x1="3409.41" y1="3299.63" x2="3420.44" y2="3318.74" xlink:href="#linear-gradient-11"/><linearGradient id="linear-gradient-18" x1="3798.06" y1="4755.73" x2="3786.62" y2="4775.54" gradientTransform="matrix(.9 -.48 -.97 -.59 1555.38 4906.29)" xlink:href="#linear-gradient-11"/><linearGradient id="linear-gradient-19" x1="3787.33" y1="4758.81" x2="3797.87" y2="4772.05" gradientTransform="matrix(.9 -.48 -.97 -.59 1555.38 4906.29)" xlink:href="#linear-gradient-11"/><linearGradient id="linear-gradient-20" x1="266.91" y1="150.53" x2="266.91" y2="122.06" gradientTransform="matrix(-1 0 0 1 565.78 0)" xlink:href="#linear-gradient-11"/><linearGradient id="linear-gradient-21" x1="286" y1="349.17" x2="286.63" y2="327.63" gradientTransform="matrix(-.48 -.9 -.59 .97 635.29 63.79)" xlink:href="#linear-gradient-11"/><linearGradient id="linear-gradient-22" x1="281.91" y1="332.28" x2="292.21" y2="345.21" gradientTransform="matrix(-.48 -.9 -.59 .97 635.2 64.11)" xlink:href="#linear-gradient-11"/><linearGradient id="linear-gradient-23" x1="190.07" y1="103.83" x2="190.07" y2="75.37" gradientTransform="scale(1 -1) rotate(56 537.184 -.448)" xlink:href="#linear-gradient-11"/><linearGradient id="linear-gradient-24" x1="199.63" y1="267.74" x2="200.27" y2="246.19" gradientTransform="matrix(.48 .9 .59 -.97 21.89 307.73)" xlink:href="#linear-gradient-11"/><linearGradient id="linear-gradient-25" x1="195.55" y1="250.85" x2="205.85" y2="263.78" gradientTransform="matrix(.48 .9 .59 -.97 21.69 306.86)" xlink:href="#linear-gradient-11"/><linearGradient id="linear-gradient-26" x1="197.96" y1="95.48" x2="197.96" y2="67.02" gradientTransform="scale(1 -1) rotate(56 536.74 .848)" xlink:href="#linear-gradient-11"/><linearGradient id="linear-gradient-27" x1="208.83" y1="264.72" x2="209.47" y2="243.17" gradientTransform="matrix(.48 .9 .59 -.97 30.67 293.65)" xlink:href="#linear-gradient-11"/><linearGradient id="linear-gradient-28" x1="204.75" y1="247.83" x2="215.05" y2="260.76" gradientTransform="matrix(.48 .9 .59 -.97 30.47 292.78)" xlink:href="#linear-gradient-11"/><linearGradient id="linear-gradient-29" x1="245.14" y1="169.35" x2="255.92" y2="188.02" gradientTransform="matrix(-1 0 0 1 565.78 0)" xlink:href="#linear-gradient-11"/><linearGradient id="linear-gradient-30" x1="245.7" y1="169.02" x2="256.48" y2="187.68" gradientTransform="matrix(-1 0 0 1 565.78 0)" xlink:href="#linear-gradient-11"/><linearGradient id="linear-gradient-31" x1="259.56" y1="166.58" x2="243.32" y2="194.7" gradientTransform="matrix(-1 0 0 1 565.78 0)" xlink:href="#linear-gradient-11"/><linearGradient id="linear-gradient-32" x1="248.62" y1="174.34" x2="256.15" y2="183.81" gradientTransform="matrix(-1 0 0 1 565.78 0)" xlink:href="#linear-gradient-11"/><linearGradient id="linear-gradient-33" x1="134.94" y1="178.91" x2="134.94" y2="201.52" gradientTransform="matrix(-1 0 0 1 365.53 0)" gradientUnits="userSpaceOnUse"><stop offset="0" stop-color="#77aceb"/><stop offset="1" stop-color="#4262d4"/></linearGradient><linearGradient id="linear-gradient-34" x1="147.99" y1="201.52" x2="147.99" y2="178.91" xlink:href="#linear-gradient-33"/><linearGradient id="linear-gradient-35" x1="128.41" y1="178.91" x2="154.51" y2="178.91" xlink:href="#linear-gradient-33"/><linearGradient id="linear-gradient-36" x1="119.09" y1="193.38" x2="141.46" y2="193.38" xlink:href="#linear-gradient-33"/><linearGradient id="linear-gradient-37" x1="141.46" y1="193.38" x2="163.83" y2="193.38" xlink:href="#linear-gradient-33"/><linearGradient id="linear-gradient-38" x1="119.09" y1="174" x2="163.83" y2="174" xlink:href="#linear-gradient-33"/><linearGradient id="linear-gradient-39" x1="125.62" y1="49.85" x2="125.62" y2="72.46" xlink:href="#linear-gradient-33"/><linearGradient id="linear-gradient-40" x1="138.67" y1="72.46" x2="138.67" y2="49.85" xlink:href="#linear-gradient-33"/><linearGradient id="linear-gradient-41" x1="119.09" y1="49.85" x2="145.2" y2="49.85" xlink:href="#linear-gradient-33"/><linearGradient id="linear-gradient-42" x1="109.78" y1="64.32" x2="132.15" y2="64.32" xlink:href="#linear-gradient-33"/><linearGradient id="linear-gradient-43" x1="132.15" y1="64.32" x2="154.51" y2="64.32" xlink:href="#linear-gradient-33"/><linearGradient id="linear-gradient-44" x1="109.78" y1="44.94" x2="154.51" y2="44.94" xlink:href="#linear-gradient-33"/><linearGradient id="linear-gradient-45" x1="302.11" y1="92.83" x2="302.11" y2="115.44" xlink:href="#linear-gradient-33"/><linearGradient id="linear-gradient-46" x1="315.16" y1="115.44" x2="315.16" y2="92.83" xlink:href="#linear-gradient-33"/><linearGradient id="linear-gradient-47" x1="295.58" y1="92.83" x2="321.69" y2="92.83" xlink:href="#linear-gradient-33"/><linearGradient id="linear-gradient-48" x1="286.27" y1="107.3" x2="308.64" y2="107.3" xlink:href="#linear-gradient-33"/><linearGradient id="linear-gradient-49" x1="308.64" y1="107.3" x2="331" y2="107.3" xlink:href="#linear-gradient-33"/><linearGradient id="linear-gradient-50" x1="286.27" y1="87.93" x2="331" y2="87.93" xlink:href="#linear-gradient-33"/><linearGradient id="linear-gradient-51" x1="1831.88" y1="104.82" x2="1670.09" y2="266.61" gradientTransform="translate(-1679.5)" gradientUnits="userSpaceOnUse"><stop offset="0" stop-color="#e2e8f4"/><stop offset="1" stop-color="#b6c6e3"/></linearGradient><linearGradient id="linear-gradient-52" x1="1683.49" y1="186.67" x2="1824.05" y2="186.67" xlink:href="#linear-gradient-51"/><linearGradient id="linear-gradient-53" x1="377.05" y1="335.74" x2="377.05" y2="255.35" gradientTransform="matrix(-.87 .5 1 .58 145.34 -99.99)" xlink:href="#linear-gradient-51"/><linearGradient id="linear-gradient-54" x1="7.86" y1="184.36" x2="141.46" y2="184.36" gradientUnits="userSpaceOnUse"><stop offset="0" stop-color="#4b78ba"/><stop offset="1" stop-color="#1e4489"/></linearGradient><linearGradient id="linear-gradient-55" x1="326.64" y1="323.58" x2="424.54" y2="238.8" gradientTransform="matrix(-.87 .5 1 .58 145.34 -99.99)" gradientUnits="userSpaceOnUse"><stop offset="0" stop-color="#e2e8f4"/><stop offset="1" stop-color="#b6c6e3"/></linearGradient><linearGradient id="linear-gradient-56" x1="309.27" y1="252.44" x2="426.16" y2="303.05" gradientTransform="matrix(-.87 .5 1 .58 145.34 -99.99)" gradientUnits="userSpaceOnUse"><stop offset="0" stop-color="#fff" stop-opacity=".2"/><stop offset=".65" stop-color="#b6c6e3" stop-opacity="0"/></linearGradient><linearGradient id="linear-gradient-57" x1="189.77" y1="249.64" x2="339.36" y2="249.64" gradientTransform="matrix(-1 0 0 1 365.53 0)" gradientUnits="userSpaceOnUse"><stop offset="0" stop-color="#fff"/><stop offset=".56" stop-color="#e2e8f4"/></linearGradient><linearGradient id="linear-gradient-58" x1="3944.04" y1="3897.17" x2="3944.04" y2="3979.89" gradientTransform="matrix(.5 -.87 -.87 -.5 1593.24 5668.47)" xlink:href="#linear-gradient-51"/><linearGradient id="linear-gradient-59" x1="3873.95" y1="3978.4" x2="3873.95" y2="4074.76" gradientTransform="matrix(.5 -.87 -.87 -.5 1593.24 5668.47)" gradientUnits="userSpaceOnUse"><stop offset="0" stop-color="#b6c6e3"/><stop offset="1" stop-color="#e2e8f4"/></linearGradient><linearGradient id="linear-gradient-60" x1="-279.68" y1="671.86" x2="-211.97" y2="671.86" gradientTransform="matrix(.89 -.58 -.45 1.41 659.37 -1019.54)" gradientUnits="userSpaceOnUse"><stop offset="0" stop-color="#77aceb"/><stop offset="1" stop-color="#529bea"/></linearGradient><linearGradient id="linear-gradient-61" x1="-241.41" y1="742.9" x2="-177.89" y2="742.9" gradientTransform="matrix(.89 -.58 -.45 1.41 659.37 -1019.54)" gradientUnits="userSpaceOnUse"><stop offset="0" stop-color="#0ff"/><stop offset="1" stop-color="#0094ff"/></linearGradient><style>.cls-6{fill:#abbdd9}.cls-52{fill:#e2e8f4}.cls-53{fill:#b6c6e3}.cls-65{fill:#fff}</style></defs><g id="Drive"><path style="fill:url(#linear-gradient)" d="m276.9 197.4.9.5v-11l-.9-.5v11z"/><path style="fill:url(#linear-gradient-2)" d="m276.9 186.4.9.5 4.8-2.8-.9-.5-4.8 2.8z"/><path style="fill:url(#linear-gradient-3)" d="M282.6 195.2v-11.1l-4.8 2.8v11l4.8-2.7z"/><path style="fill:url(#linear-gradient-4)" d="m285.7 212.8 52.2 30.2v-48.8L285.7 164v48.8z"/><path style="fill:url(#linear-gradient-5)" d="m279.6 216.3 52.2 30.2v-48.8l-52.2-30.1v48.7z"/><path class="cls-6" d="M340.4 241.5v-48.7l-8.6 4.9v48.8l8.6-5z"/><path style="fill:url(#linear-gradient-6)" d="m275.9 198 11.9 6.8v-11l-11.9-6.9V198z"/><path style="fill:url(#linear-gradient-7)" d="m275.9 186.9 11.9 6.9.9-.6-11.8-6.8-1 .5z"/><path style="fill:url(#linear-gradient-8)" d="M288.7 204.3v-11.1l-.9.6v11l.9-.5z"/><path class="cls-6" d="m279.6 167.6 2.4-1.5 50.3 29.1 3.6-2.1-50.2-29.1 2.5-1.4 52.2 30.2-2.5 1.4-3.7 2.1-2.4 1.4h-.1l-1.9-1.1-50.2-29z"/><path d="M279.3 193.2h-.1l.5-.3a1.9 1.9 0 0 1 1.9.1 5.9 5.9 0 0 1 2.6 4.5 2.1 2.1 0 0 1-.7 1.7l-.5.2a1.9 1.9 0 0 1-1.4-.3 5.7 5.7 0 0 1-2.6-4.5 2.1 2.1 0 0 1 .3-1.4Z" style="fill:url(#linear-gradient-9)"/><ellipse cx="281.1" cy="196.2" rx="2.1" ry="3.7" transform="matrix(.87 -.5 .5 .87 -60.44 166.86)" style="fill:url(#linear-gradient-10)"/><path d="M321.8 266.5h.7v2.7c0 2.2-1.6 4.4-4.5 6.1-6.1 3.5-16 3.5-22.1 0-3-1.7-4.5-4-4.5-6.3v-2.8h.8a9.7 9.7 0 0 1 3.7-3.5c6.1-3.5 16-3.5 22.1 0a9.5 9.5 0 0 1 3.8 3.8Z" style="fill:url(#linear-gradient-11)"/><ellipse cx="306.9" cy="266.6" rx="15.6" ry="9" style="fill:url(#linear-gradient-12)"/><ellipse cx="306.4" cy="266.9" rx="11.2" ry="6.5" style="fill:url(#linear-gradient-13)"/><path d="M318.7 261.3h.7v2.7c-.1 2.2-1.6 4.4-4.6 6.1-6 3.6-15.9 3.6-22 0-3-1.7-4.5-4-4.6-6.2v-2.8h.7a10 10 0 0 1 3.8-3.5c6.1-3.5 16-3.5 22 0a9.4 9.4 0 0 1 4 3.7Z" style="fill:url(#linear-gradient-14)"/><ellipse cx="303.8" cy="261.3" rx="15.6" ry="9" style="fill:url(#linear-gradient-15)"/><ellipse cx="303.3" cy="261.6" rx="11.2" ry="6.5" style="fill:url(#linear-gradient-16)"/><path d="M322.7 254.9h.6v2.7c-.1 2.2-1.6 4.4-4.6 6.1-6.1 3.5-16 3.5-22 0-3.1-1.7-4.6-4-4.6-6.3v-2.8h.8a9.3 9.3 0 0 1 3.8-3.5c6-3.5 15.9-3.5 22 0a10.5 10.5 0 0 1 4 3.8Z" style="fill:url(#linear-gradient-17)"/><ellipse cx="307.7" cy="255" rx="15.6" ry="9" style="fill:url(#linear-gradient-18)"/><ellipse cx="308.1" cy="255" rx="11.2" ry="6.5" style="fill:url(#linear-gradient-19)"/><path d="m289.4 124.5-.3-.5 2.1-1.2h.2c2-1 4.6-.8 7.5.8 5.9 3.5 10.8 11.8 10.8 18.7 0 3.4-1.2 5.8-3.1 6.9h-.2l-2.4 1.3-.3-.6a9.5 9.5 0 0 1-4.8-1.5c-6-3.4-10.8-11.8-10.8-18.6a10.1 10.1 0 0 1 1.3-5.3Z" style="fill:url(#linear-gradient-20)"/><ellipse cx="296.8" cy="137.1" rx="8.8" ry="15.2" transform="matrix(.87 -.5 .5 .87 -28.81 166.77)" style="fill:url(#linear-gradient-21)"/><ellipse cx="296.1" cy="137.1" rx="6.3" ry="11" transform="rotate(-30 296.057 137.128)" style="fill:url(#linear-gradient-22)"/><path d="M285.1 237.4h.6l-.2 2.4c-.3 2.2-1.9 4.3-4.9 5.7-6.2 3-15.9 2.2-21.5-1.6-2.8-2-4.2-4.3-4-6.5l.3-2.7h.7a9.9 9.9 0 0 1 3.9-3.2c6.2-2.9 15.8-2.2 21.5 1.7a9.5 9.5 0 0 1 3.6 4.2Z" style="fill:url(#linear-gradient-23)"/><ellipse cx="270.5" cy="236.4" rx="8.8" ry="15.2" transform="rotate(-85.6 270.65 236.383)" style="fill:url(#linear-gradient-24)"/><ellipse cx="270.9" cy="235.9" rx="6.3" ry="11" transform="rotate(-85.6 270.996 235.9)" style="fill:url(#linear-gradient-25)"/><path d="M296.5 234.5h.6l-.2 2.5v.2c-.2 2.2-1.9 4.2-4.9 5.7-6.2 3-15.8 2.3-21.5-1.6-2.8-1.9-4.1-4.2-4-6.5l.3-2.7h.7a9.7 9.7 0 0 1 3.9-3.1c6.2-3 15.8-2.3 21.5 1.6a9.5 9.5 0 0 1 3.6 3.9Z" style="fill:url(#linear-gradient-26)"/><ellipse cx="281.9" cy="233.5" rx="8.8" ry="15.2" transform="rotate(-86 281.167 232.885)" style="fill:url(#linear-gradient-27)"/><ellipse cx="282.3" cy="233" rx="6.3" ry="11" transform="rotate(-85.8 282.49 232.927)" style="fill:url(#linear-gradient-28)"/><path d="M324.2 186.6c.1-6.8-4.5-15.2-10.5-18.9-3.1-1.9-6-2.1-8-.9l2.1-1.2h.3c1.9-1 4.5-.8 7.4.9 5.9 3.4 10.8 11.8 10.8 18.6a8.9 8.9 0 0 1-1.8 5.8l-1-.6a12.1 12.1 0 0 0 .7-3.7Z" style="fill:url(#linear-gradient-29)"/><path d="M313.7 167.7c6 3.7 10.6 12.1 10.5 18.9a12.8 12.8 0 0 1-.7 3.6l-3.8-2.2a6.7 6.7 0 0 0 .8-3.3c.1-4.9-3.3-10.9-7.5-13.5s-7.9-.8-8 4v.5a17.1 17.1 0 0 1-.3-3.1 9.7 9.7 0 0 1 1.3-5.2l-.3-.6c2-1.2 4.9-1 8 .9Z" style="fill:url(#linear-gradient-30)"/><path d="M302.7 173.4c.1-3.2 1.3-5.5 3.1-6.6s4.9-1 8 .9c6 3.7 10.6 12.1 10.5 18.9a12.8 12.8 0 0 1-.7 3.6l-3.8-2.2a8 8 0 0 0 .8-3.3c.1-4.9-3.3-10.9-7.5-13.5s-7.9-.8-8 4v.5a13.5 13.5 0 0 0 .8 4.3l-2.5-1.5a18.4 18.4 0 0 1-.7-5.1Z" style="fill:url(#linear-gradient-31)"/><path d="M313 171.1c4.2 2.6 7.6 8.7 7.5 13.6a6.1 6.1 0 0 1-.8 3.2l-13.3-7.6-.6-.4a13 13 0 0 1-.8-4.2v-.5c.1-4.9 3.7-6.7 8-4.1Z" style="fill:url(#linear-gradient-32)"/><path style="fill:url(#linear-gradient-33)" d="m224.1 201.5 13-7.5v-15.1l-13 7.5v15.1z"/><path style="fill:url(#linear-gradient-34)" d="M224.1 201.5 211 194v-15.1l13.1 7.5v15.1z"/><path style="fill:url(#linear-gradient-35)" d="m224.1 186.4 13-7.5-13-7.5-13.1 7.5 13.1 7.5z"/><path style="fill:url(#linear-gradient-36);opacity:.5" d="m224.1 212.7 22.3-12.9V174l-22.3 12.9v25.8z"/><path style="fill:url(#linear-gradient-37);opacity:.5" d="m224.1 212.7-22.4-12.9V174l22.4 12.9v25.8z"/><path style="fill:url(#linear-gradient-38);opacity:.49" d="m224.1 186.9 22.3-12.9-22.3-12.9-22.4 12.9 22.4 12.9z"/><g><path style="fill:url(#linear-gradient-39)" d="m233.4 72.5 13-7.6v-15l-13 7.5v15.1z"/><path style="fill:url(#linear-gradient-40)" d="m233.4 72.5-13.1-7.6v-15l13.1 7.5v15.1z"/><path style="fill:url(#linear-gradient-41)" d="m233.4 57.4 13-7.5-13-7.6-13.1 7.6 13.1 7.5z"/><path style="fill:url(#linear-gradient-42);opacity:.5" d="m233.4 83.7 22.3-12.9V44.9l-22.3 13v25.8z"/><path style="fill:url(#linear-gradient-43);opacity:.5" d="M233.4 83.7 211 70.8V44.9l22.4 13v25.8z"/><path style="fill:url(#linear-gradient-44);opacity:.49" d="m233.4 57.9 22.3-13L233.4 32 211 44.9l22.4 13z"/></g><g><path style="fill:url(#linear-gradient-45)" d="m56.9 115.4 13-7.5V92.8l-13 7.6v15z"/><path style="fill:url(#linear-gradient-46)" d="m56.9 115.4-13.1-7.5V92.8l13.1 7.6v15z"/><path style="fill:url(#linear-gradient-47)" d="m56.9 100.4 13-7.6-13-7.5-13.1 7.5 13.1 7.6z"/><path style="fill:url(#linear-gradient-48);opacity:.5" d="m56.9 126.7 22.4-12.9V87.9l-22.4 12.9v25.9z"/><path style="fill:url(#linear-gradient-49);opacity:.5" d="m56.9 126.7-22.4-12.9V87.9l22.4 12.9v25.9z"/><path style="fill:url(#linear-gradient-50);opacity:.49" d="m56.9 100.8 22.4-12.9L56.9 75 34.5 87.9l22.4 12.9z"/></g><path class="cls-52" d="m133.5 287.8 35.6-20.6a1.8 1.8 0 0 0 0-3.2l-19-11a2.1 2.1 0 0 0-1.9 0l-35.6 20.6a1.9 1.9 0 0 0 0 3.2l19.1 11a1.9 1.9 0 0 0 1.8 0Z"/><path class="cls-53" d="M148.2 253.5a2.1 2.1 0 0 1 1.9 0l19 11a1.7 1.7 0 0 1 .9 1.4 1.9 1.9 0 0 0-.9-1.9l-19-11a2.1 2.1 0 0 0-1.9 0l-35.6 20.6a1.7 1.7 0 0 0-.8 1.8 1.7 1.7 0 0 1 .8-1.4Z"/><g><path d="M142.5 198.3 1.9 277.9 2.1 173a3.2 3.2 0 0 1 1.7-2.9l133.6-76.8a3.4 3.4 0 0 1 5.1 3Z" style="fill:url(#linear-gradient-51)"/><path d="M144.6 199.7 4 279.1l.2-104.7a3.2 3.2 0 0 1 1.7-2.9l133.6-76.8a3.4 3.4 0 0 1 5.1 3Z" style="fill:url(#linear-gradient-52)"/><path style="fill:url(#linear-gradient-53)" d="m84.2 322.6 140.5-80.7-80.2-46.1L4 276.4l80.2 46.2z"/><path d="M140 195.3 12.2 269.5a2.9 2.9 0 0 1-4.3-2.5v-91.1a2.7 2.7 0 0 1 1.4-2.4l127.9-74.3a2.9 2.9 0 0 1 4.3 2.5v91.1a3.1 3.1 0 0 1-1.5 2.5Z" style="fill:url(#linear-gradient-54)"/><path d="m63.4 296.5 115.5-66.4a2.8 2.8 0 0 0 0-4.9L142 203.8a2.8 2.8 0 0 0-2.8 0L23.6 270.2a2.8 2.8 0 0 0 0 4.9l36.9 21.4a3 3 0 0 0 2.9 0Z" style="fill:url(#linear-gradient-55)"/><path d="M139.3 204.9a3 3 0 0 1 2.9 0l36.9 21.3a3.1 3.1 0 0 1 1.3 1.9 3 3 0 0 0-1.3-3.1l-36.9-21.3a3 3 0 0 0-2.9 0L23.7 270.1a2.8 2.8 0 0 0-1.3 3 3.5 3.5 0 0 1 1.3-1.9Z" style="fill:url(#linear-gradient-56)"/><path d="m138.9 213.1-5.3-3.1 6.1-3.5 5.3 3Zm-1 .6-5.3-3.1-6.1 3.5 5.2 3.1Zm-7.2 4.1-5.3-3.1-6.1 3.6 5.3 3Zm-7.2 4.1-5.3-3-6.1 3.5 5.3 3.1Zm-7.1 4.2-5.3-3.1-6.1 3.5 5.3 3.1Zm-7.2 4.1-5.3-3.1-6.1 3.6 5.3 3Zm-7.1 4.1-5.3-3-6.2 3.5 5.3 3.1Zm-7.2 4.2-5.3-3.1-6.1 3.5 5.3 3.1Zm-7.2 4.1-5.3-3.1-6.1 3.6 5.3 3Zm-7.1 4.1-5.3-3-6.2 3.5 5.3 3.1Zm-7.2 4.2-5.3-3.1-6.1 3.5 5.3 3.1Zm71.7-34.3 6.1-3.5-5.3-3.1-6.1 3.5Zm-6.3-2.5-6.1 3.5 5.3 3.1 6.1-3.5Zm-13.2 7.6 5.3 3.1 6.1-3.6-5.3-3Zm-7.1 4.1 5.3 3.1 6.2-3.6-5.3-3Zm-7 4.1 5.3 3.1 6.1-3.6-5.3-3Zm-7.1 4.1 5.3 3 6.1-3.5-5.3-3.1Zm-7.1 4.1 5.3 3 6.1-3.5-5.3-3.1Zm-7.1 4.1 5.3 3 6.1-3.5-5.3-3.1Zm-7.1 4 5.3 3.1 6.2-3.5-5.3-3.1Zm-7 4.1 5.3 3.1 6.1-3.6-5.3-3Zm-7.1 4.1 5.3 3.1 6.1-3.6-5.3-3Zm77.8-31.7 10.5-6.1-5.3-3.1-10.5 6.1Zm-6.5-2.4-6.1 3.6 5.3 3 6.1-3.5Zm-2.1 7.3-5.3-3-6.1 3.5 5.3 3.1Zm-18.8 4.8 5.3 3 6.1-3.5-5.3-3.1Zm-7.3 4.2 5.3 3.1 6.1-3.6-5.3-3Zm-7.4 4.3 5.3 3 6.1-3.5-5.3-3.1Zm-7.4 4.2 5.3 3.1 6.2-3.6-5.3-3Zm-7.3 4.3 5.3 3 6.1-3.5-5.3-3.1Zm-7.4 4.2 5.3 3.1 6.1-3.6-5.3-3Zm-7.3 4.3 5.3 3 6.1-3.5-5.3-3.1Zm74.5-29.8 13.7-7.9-5.3-3.1-13.7 8Zm-91.4 46.7-13.8 7.9 5.3 3 13.8-7.9Zm90.4-46.1-5.3-3.1-6.1 3.6 5.3 3Zm-7.1 4.1-5.3-3.1-6.1 3.5 5.3 3.1Zm-7.1 4.1-5.3-3.1-6.1 3.5 5.3 3.1Zm-7.1 4.1-5.3-3.1-6.1 3.5 5.3 3.1Zm-7.1 4.1-5.3-3.1-6.1 3.5 5.3 3.1Zm-7.1 4.1-5.3-3.1-6.1 3.5 5.3 3.1Zm-7.1 4-5.3-3-6.1 3.5 5.3 3.1Zm-7.1 4.1-5.3-3-6.1 3.5 5.3 3.1Zm53.3-23.6 17.2-10-5.3-3.1-17.2 10ZM68 276.3l-17.3 9.9 5.3 3.1 17.3-10Zm83.4-42.1-5.3-3-6.1 3.5 5.3 3Zm-7.1 4.1-5.3-3-6.1 3.5 5.3 3Zm-7.1 4.1-5.3-3-6.1 3.5 5.3 3Zm-7.1 4.1-5.3-3-6.1 3.5 5.3 3Zm-7.1 4.1-5.3-3-6.1 3.5 5.3 3Zm-7.1 4.1-5.3-3-6.1 3.5 5.3 3Zm-7.1 4.1-5.3-3-6.1 3.5 5.3 3Zm-7.1 4.1-5.3-3-6.1 3.5 5.3 3Zm68.8-38.7-6.2 3.5 5.3 3.1 6.2-3.5Zm-13.3 7.6 5.3 3.1 6.2-3.5-5.3-3.1Zm-7.1 4.1 5.3 3.1 6.1-3.5-5.3-3.1Zm-9.7 5.6 5.3 3.1 8.7-5-5.3-3.1Zm-33.8 19.6 5.3 3 32.8-18.9-5.3-3.1Zm-7.1 4.1 5.3 3 6.1-3.5-5.3-3.1Zm-7.1 4.1 5.3 3 6.1-3.5-5.3-3.1ZM66.2 255l-5.3-3.1-6.1 3.6 5.3 3Zm-7.1 4.1-5.3-3-6.1 3.5 5.3 3.1Zm-7.2 4.2-5.3-3.1-6.1 3.6 5.3 3Zm-7.1 4.1-5.3-3-6.2 3.5 5.3 3Zm-12.5 1.1-6.1 3.5 5.3 3.1 6.1-3.5Zm29.7-10 5.3 3.1 6.1-3.6-5.3-3Zm-7.1 4.1 5.3 3.1 6.1-3.6-5.3-3Zm-7.1 4.1 5.3 3 6.1-3.5-5.3-3Zm-7.1 4.1 5.3 3 6.1-3.5-5.3-3.1Zm-.9.5-7.4 4.3 5.3 3.1 7.4-4.3Zm28.1-9.2 5.3 3.1 6.1-3.5-5.3-3.1Zm-7.3 4.3 5.3 3 6.1-3.5-5.3-3.1Zm4 3.8-5.3-3.1-6.1 3.5 5.3 3.1Zm-7.3 4.2-5.3-3.1-6.2 3.6 5.3 3Zm-12.6 1.2-6.1 3.6 5.3 3 6.1-3.5Zm47.4-14.2-5.3-3-6.2 3.5 5.3 3.1Zm-7.1 4.1-5.3-3-6.2 3.5 5.3 3.1Zm-7.1 4.1-5.3-3-6.1 3.5 5.3 3.1Zm-7.1 4.1-5.3-3-6.1 3.5 5.3 3.1Zm23.8-6.7-5.3-3-6.1 3.5 5.3 3Zm-7.1 4.1-5.3-3-6.2 3.5 5.3 3Zm-7.1 4.1-5.3-3-6.2 3.5 5.3 3Zm4.9-1.8 5.3 3 6.1-3.5-5.3-3.1Zm-7.1 4.1 5.3 3 6.1-3.5-5.3-3.1Zm-7.1 4.1 5.3 3 6.1-3.5-5.3-3.1Zm-7.1 4.1 5.3 3 6.1-3.5-5.3-3.1Zm-7.1 4.1 5.3 3 6.1-3.5-5.3-3.1Z" style="fill:url(#linear-gradient-57)"/></g><path style="fill:url(#linear-gradient-58)" d="m84.2 325.3-.1-2.7 140.5-80.8.1 2.8-140.5 80.7z"/><path style="fill:url(#linear-gradient-59)" d="m1.9 275.2.1 2.7 82.3 47.4-.1-2.7-82.3-47.4z"/><path d="m166 150.4-56 32.2c-1.9 1.2-3.4 0-3.4-2.6V67c0-2.6 1.5-5.5 3.4-6.6l56-32.3c1.9-1.1 3.5.1 3.5 2.7v113a8.4 8.4 0 0 1-3.5 6.6Z" style="fill:#c5d1e9"/><path d="m158.9 76.2-42.1 24.2c-2 1.1-3.5 0-3.5-2.6V75.3c0-2.6 1.6-5.6 3.5-6.7l42.1-24.2c1.9-1.1 3.5 0 3.5 2.6v22.5c0 2.6-1.6 5.6-3.5 6.7Z" style="fill:url(#linear-gradient-60)"/><path class="cls-65" d="m160.2 98.2-45.7 26.3c-1.1.7-2.1 0-2.1-1.6V117a5.1 5.1 0 0 1 2.2-4l45.6-26.3c1.2-.7 2.2 0 2.2 1.6v5.9a5.1 5.1 0 0 1-2.2 4ZM162.4 111.5v-5.9c0-1.5-.9-2.3-2.1-1.6l-45.7 26.3a5.3 5.3 0 0 0-2.1 4.1v5.9c0 1.5.9 2.3 2.1 1.6l45.7-26.3a5.1 5.1 0 0 0 2.1-4.1Z"/><path d="m162.1 143.9-47.7 27.5c-1.2.7-2.2 0-2.2-1.7v-6.1a5.3 5.3 0 0 1 2.2-4.2l47.7-27.5c1.2-.7 2.2 0 2.2 1.7v6.1a5.3 5.3 0 0 1-2.2 4.2Z" style="fill:url(#linear-gradient-61)"/><path class="cls-53" d="M137.7 97.9 113 112.1v-2.6l24.7-14.2v2.6zM137.9 115.6l-24.7 14.2v-2.6l24.7-14.2v2.6z"/><ellipse class="cls-53" cx="129.6" cy="144.6" rx="3.1" ry="1.8" transform="rotate(-60 129.668 144.608)"/><ellipse class="cls-53" cx="136.3" cy="140.7" rx="3.1" ry="1.8" transform="rotate(-60 136.31 140.706)"/><ellipse class="cls-53" cx="143" cy="136.6" rx="3.1" ry="1.8" transform="rotate(-60 142.963 136.58)"/><path class="cls-52" d="m124.8 82.8-6.8 3.9v-7l6.8-3.9v7z"/></g></svg>