<svg xmlns="http://www.w3.org/2000/svg" viewBox="0 0 208.47991 327.64285">
  <defs>
    <style>
      .cls-1 {
        fill: #d6e5f2;
        stroke: #1d4588;
        stroke-miterlimit: 10;
        stroke-width: 2.45297px;
      }

      .cls-2, .cls-3 {
        fill: #1d4588;
      }

      .cls-2 {
        fill-rule: evenodd;
      }

      .cls-4 {
        fill: none;
      }
    </style>
  </defs>
  <g id="Network_Part" data-name="Network Part">
    <g>
      <g>
        <g>
          <g>
            <circle class="cls-1" cx="47.93212" cy="87.61022" r="46.70563"/>
            <circle class="cls-1" cx="47.93212" cy="87.61022" r="32.47967"/>
          </g>
          <g>
            <path class="cls-2" d="M59.01638,92.14372a4.56064,4.56064,0,1,0-4.57324-4.54805A4.56064,4.56064,0,0,0,59.01638,92.14372Z"/>
            <path class="cls-2" d="M36.88253,94.86209a7.22363,7.22363,0,1,1,6.22852-10.85164l3.32687-1.93276a11.0702,11.0702,0,1,0,.02769,11.07364l-3.33649-1.9161A7.2179,7.2179,0,0,1,36.88253,94.86209Z"/>
            <path class="cls-2" d="M59.023,94.80671a7.22364,7.22364,0,1,1,7.20445-7.24277v.00227A7.22325,7.22325,0,0,1,59.023,94.80671Zm-18.44747-4.518c2.10814-2.94553,6.83547-1.99514,8.0971,1.27513a11.06814,11.06814,0,1,0-.03368-7.87709,4.69676,4.69676,0,0,1-8.1422,1.19228,4.5618,4.5618,0,1,0,.07876,5.40968Z"/>
          </g>
        </g>
        <g>
          <g>
            <circle class="cls-1" cx="160.5478" cy="48.1011" r="46.70563"/>
            <circle class="cls-1" cx="160.5478" cy="48.1011" r="32.47967"/>
          </g>
          <g>
            <path class="cls-2" d="M171.63206,52.63461a4.56064,4.56064,0,1,0-4.57324-4.54805A4.56064,4.56064,0,0,0,171.63206,52.63461Z"/>
            <path class="cls-2" d="M149.49821,55.353a7.22364,7.22364,0,1,1,6.22853-10.85164l3.32686-1.93276a11.07019,11.07019,0,1,0,.02769,11.07363l-3.33649-1.91609A7.21792,7.21792,0,0,1,149.49821,55.353Z"/>
            <path class="cls-2" d="M171.63872,55.29759a7.22363,7.22363,0,1,1,7.20445-7.24277v.00228A7.22324,7.22324,0,0,1,171.63872,55.29759Zm-18.44747-4.518c2.10814-2.94553,6.83547-1.99513,8.0971,1.27513a11.06812,11.06812,0,1,0-.03368-7.87709,4.69675,4.69675,0,0,1-8.1422,1.19228,4.5618,4.5618,0,1,0,.07876,5.40968Z"/>
          </g>
        </g>
        <g>
          <g>
            <circle class="cls-1" cx="138.40943" cy="162.53173" r="46.70563"/>
            <circle class="cls-1" cx="138.40943" cy="162.53173" r="32.47967"/>
          </g>
          <g>
            <path class="cls-2" d="M149.49369,167.06523a4.56064,4.56064,0,1,0-4.57324-4.548A4.56064,4.56064,0,0,0,149.49369,167.06523Z"/>
            <path class="cls-2" d="M127.35984,169.7836a7.22363,7.22363,0,1,1,6.22852-10.85164l3.32687-1.93276a11.0702,11.0702,0,1,0,.02769,11.07364l-3.33649-1.9161A7.2179,7.2179,0,0,1,127.35984,169.7836Z"/>
            <path class="cls-2" d="M149.50035,169.72822a7.22364,7.22364,0,1,1,7.20445-7.24277v.00227A7.22325,7.22325,0,0,1,149.50035,169.72822Zm-18.44747-4.518c2.10814-2.94553,6.83547-1.99514,8.0971,1.27513a11.06812,11.06812,0,1,0-.03368-7.87709,4.69676,4.69676,0,0,1-8.1422,1.19228,4.5618,4.5618,0,1,0,.07876,5.40968Z"/>
          </g>
        </g>
      </g>
      <path class="cls-3" d="M42.14725,287.57247l-4.64943-10.14506a.22953.22953,0,0,0-.21212-.141H33.05935a.15622.15622,0,0,0-.17657.17658v10.00288a.42085.42085,0,0,1-.42195.42309H29.21941a.40769.40769,0,0,1-.29926-.12383.403.403,0,0,1-.12269-.29926V263.65568a.42085.42085,0,0,1,.42195-.4231h9.68642a7.85639,7.85639,0,0,1,3.8044.89779,6.37515,6.37515,0,0,1,2.57181,2.53626,7.56355,7.56355,0,0,1,.915,3.75165,6.81238,6.81238,0,0,1-1.24978,4.13806,6.46531,6.46531,0,0,1-3.4696,2.378.11256.11256,0,0,0-.10548.07109.14445.14445,0,0,0,0,.13988l4.96589,10.25055a.5428.5428,0,0,1,.07109.211c0,.188-.12956.28206-.38755.28206h-3.3813A.4975.4975,0,0,1,42.14725,287.57247Zm-9.26447-20.641v7.00913a.155.155,0,0,0,.17657.17543h5.28351a3.76344,3.76344,0,0,0,2.73-1.00327,3.52931,3.52931,0,0,0,1.03882-2.659,3.58719,3.58719,0,0,0-1.03882-2.6773,3.72812,3.72812,0,0,0-2.73-1.02161H33.05935A.15576.15576,0,0,0,32.88278,266.93149Z"/>
      <path class="cls-3" d="M66.96183,266.63109a.40843.40843,0,0,1-.3004.12383H54.65086a.15577.15577,0,0,0-.17658.17657v6.586a.15577.15577,0,0,0,.17658.17657h8.06628a.41893.41893,0,0,1,.422.42195v2.6773a.42085.42085,0,0,1-.422.42309H54.65086a.15542.15542,0,0,0-.17658.17543V284.19a.15578.15578,0,0,0,.17658.17658H66.66143a.42085.42085,0,0,1,.42309.42309v2.67615a.42085.42085,0,0,1-.42309.42309H50.81092a.40771.40771,0,0,1-.29927-.12383.40307.40307,0,0,1-.12268-.29926V263.65568a.42083.42083,0,0,1,.422-.4231H66.66143a.42085.42085,0,0,1,.42309.4231v2.67615A.40746.40746,0,0,1,66.96183,266.63109Z"/>
      <path class="cls-3" d="M71.36361,287.7651a.403.403,0,0,1-.12269-.29926V263.65568a.42085.42085,0,0,1,.42195-.4231h8.59486a10.37842,10.37842,0,0,1,4.40292.88059,6.73459,6.73459,0,0,1,2.941,2.51792,6.98649,6.98649,0,0,1,1.03881,3.82274v10.21386a6.98649,6.98649,0,0,1-1.03881,3.82274,6.73465,6.73465,0,0,1-2.941,2.51792,10.37857,10.37857,0,0,1-4.40292.88058H71.66287A.40769.40769,0,0,1,71.36361,287.7651Zm4.1392-3.3985h4.9315a3.89382,3.89382,0,0,0,2.97656-1.17985,4.54236,4.54236,0,0,0,1.1443-3.15313v-8.91133a4.427,4.427,0,0,0-1.1271-3.18753,3.99389,3.99389,0,0,0-3.0293-1.17984h-4.896a.15577.15577,0,0,0-.17658.17657V284.19A.15578.15578,0,0,0,75.50281,284.3666Z"/>
      <path class="cls-3" d="M97.02437,287.14938a7.45883,7.45883,0,0,1-3.11758-2.90662,8.40983,8.40983,0,0,1-1.10991-4.349V263.65568a.42278.42278,0,0,1,.4231-.4231h3.24027a.42278.42278,0,0,1,.42309.4231v16.308A4.57108,4.57108,0,0,0,98.187,283.345a5.22162,5.22162,0,0,0,6.90364,0,4.57477,4.57477,0,0,0,1.30253-3.3813v-16.308a.42278.42278,0,0,1,.42309-.4231h3.24028a.42278.42278,0,0,1,.42309.4231v16.23806a8.52437,8.52437,0,0,1-1.09156,4.349,7.34145,7.34145,0,0,1-3.10039,2.90662,11.00994,11.00994,0,0,1-9.26333,0Z"/>
      <path class="cls-3" d="M118.687,287.13218a7.48435,7.48435,0,0,1-3.10039-2.90661,8.41957,8.41957,0,0,1-1.09156-4.33183v-8.70036a8.42383,8.42383,0,0,1,1.09156-4.333,7.37819,7.37819,0,0,1,3.10039-2.88826,10.116,10.116,0,0,1,4.64944-1.02162,10.34222,10.34222,0,0,1,4.61389.98607,7.30245,7.30245,0,0,1,3.09924,2.78278,7.8434,7.8434,0,0,1,1.0927,4.15641.42278.42278,0,0,1-.42309.42309l-3.24027.17543q-.42309,0-.4231-.3864a4.49173,4.49173,0,0,0-1.28533-3.34691,4.67966,4.67966,0,0,0-3.434-1.26813,4.74036,4.74036,0,0,0-3.4524,1.26813,4.45542,4.45542,0,0,0-1.30253,3.34691v8.98126a4.41123,4.41123,0,0,0,1.30253,3.31137,5.33626,5.33626,0,0,0,6.88644.0172,4.43171,4.43171,0,0,0,1.28533-3.32857q0-.387.4231-.38754l3.24027.141a.44794.44794,0,0,1,.29926.10548.31867.31867,0,0,1,.12383.24652,7.998,7.998,0,0,1-1.0927,4.20915,7.262,7.262,0,0,1-3.09924,2.80112,10.34222,10.34222,0,0,1-4.61389.98607A9.97693,9.97693,0,0,1,118.687,287.13218Z"/>
      <path class="cls-3" d="M153.08249,266.63109a.40847.40847,0,0,1-.30041.12383H140.77151a.15577.15577,0,0,0-.17658.17657v6.586a.15577.15577,0,0,0,.17658.17657h8.06629a.41891.41891,0,0,1,.42194.42195v2.6773a.42083.42083,0,0,1-.42194.42309h-8.06629a.15542.15542,0,0,0-.17658.17543V284.19a.15578.15578,0,0,0,.17658.17658h12.01057a.42084.42084,0,0,1,.42309.42309v2.67615a.42084.42084,0,0,1-.42309.42309H136.93157a.40767.40767,0,0,1-.29926-.12383.403.403,0,0,1-.12269-.29926V263.65568a.42085.42085,0,0,1,.42195-.4231h15.85051a.42084.42084,0,0,1,.42309.4231v2.67615A.40749.40749,0,0,1,153.08249,266.63109Z"/>
      <path class="cls-3" d="M157.48426,287.7651a.403.403,0,0,1-.12269-.29926V263.65568a.42085.42085,0,0,1,.422-.4231h8.59487a10.37848,10.37848,0,0,1,4.40292.88059,6.73456,6.73456,0,0,1,2.941,2.51792,6.98649,6.98649,0,0,1,1.03881,3.82274v10.21386a6.98649,6.98649,0,0,1-1.03881,3.82274,6.73462,6.73462,0,0,1-2.941,2.51792,10.37864,10.37864,0,0,1-4.40292.88058h-8.59487A.40769.40769,0,0,1,157.48426,287.7651Zm4.1392-3.3985h4.9315a3.89382,3.89382,0,0,0,2.97656-1.17985,4.54236,4.54236,0,0,0,1.1443-3.15313v-8.91133a4.427,4.427,0,0,0-1.1271-3.18753,3.99389,3.99389,0,0,0-3.0293-1.17984h-4.896a.15576.15576,0,0,0-.17657.17657V284.19A.15577.15577,0,0,0,161.62346,284.3666Z"/>
      <path class="cls-3" d="M79.32555,306.10294a.40769.40769,0,0,1-.29926.12383H67.05012a.15577.15577,0,0,0-.17657.17658v6.586a.15577.15577,0,0,0,.17657.17658h8.06629a.41889.41889,0,0,1,.42194.422v2.67729a.42083.42083,0,0,1-.42194.42309H67.05012a.15541.15541,0,0,0-.17657.17543v10.074a.42085.42085,0,0,1-.42195.42309H63.21018a.40773.40773,0,0,1-.29926-.12383.40306.40306,0,0,1-.12269-.29926V303.12753a.42085.42085,0,0,1,.422-.42309H79.02629a.42085.42085,0,0,1,.42195.42309v2.67615A.40744.40744,0,0,1,79.32555,306.10294Z"/>
      <path class="cls-3" d="M99.19144,306.10294a.40843.40843,0,0,1-.30041.12383H86.88046a.15578.15578,0,0,0-.17658.17658v6.586a.15578.15578,0,0,0,.17658.17658h8.06629a.41889.41889,0,0,1,.42194.422v2.67729a.42083.42083,0,0,1-.42194.42309H86.88046a.15542.15542,0,0,0-.17658.17543v6.79816a.15577.15577,0,0,0,.17658.17657H98.891a.42084.42084,0,0,1,.42309.4231v2.67615a.42084.42084,0,0,1-.42309.42309H83.04052a.40771.40771,0,0,1-.29926-.12383.40306.40306,0,0,1-.12269-.29926V303.12753a.42085.42085,0,0,1,.42195-.42309H98.891a.42084.42084,0,0,1,.42309.42309v2.67615A.40747.40747,0,0,1,99.19144,306.10294Z"/>
      <path class="cls-3" d="M120.04339,306.10294a.40843.40843,0,0,1-.30041.12383H107.73241a.15577.15577,0,0,0-.17657.17658v6.586a.15577.15577,0,0,0,.17657.17658h8.06629a.41889.41889,0,0,1,.42194.422v2.67729a.42083.42083,0,0,1-.42194.42309h-8.06629a.15541.15541,0,0,0-.17657.17543v6.79816a.15576.15576,0,0,0,.17657.17657H119.743a.42084.42084,0,0,1,.42309.4231v2.67615a.42084.42084,0,0,1-.42309.42309H103.89247a.40773.40773,0,0,1-.29926-.12383.40306.40306,0,0,1-.12269-.29926V303.12753a.42085.42085,0,0,1,.422-.42309H119.743a.42084.42084,0,0,1,.42309.42309v2.67615A.40743.40743,0,0,1,120.04339,306.10294Z"/>
      <path class="cls-3" d="M127.49281,326.76227a7.21744,7.21744,0,0,1-3.15314-2.46633,6.34434,6.34434,0,0,1-1.1099-3.73331v-.88058a.42278.42278,0,0,1,.4231-.42309h3.13478a.4228.4228,0,0,1,.4231.42309v.66961a3.24023,3.24023,0,0,0,1.44356,2.6945,6.47488,6.47488,0,0,0,3.94543,1.07435,4.935,4.935,0,0,0,3.24027-.91612,2.93757,2.93757,0,0,0,1.0927-2.35969,2.45858,2.45858,0,0,0-.59967-1.67288,5.58187,5.58187,0,0,0-1.70842-1.25094q-1.10932-.5624-3.32856-1.40916a34.72254,34.72254,0,0,1-4.04977-1.72562,7.53882,7.53882,0,0,1-2.589-2.20146,5.62926,5.62926,0,0,1-1.04-3.4696,5.92607,5.92607,0,0,1,2.2542-4.896,9.38889,9.38889,0,0,1,6.02421-1.79671,11.23047,11.23047,0,0,1,4.66663.91612,7.44723,7.44723,0,0,1,3.152,2.55347,6.51264,6.51264,0,0,1,1.1271,3.7872v.59852a.41891.41891,0,0,1-.422.42195h-3.17033a.42085.42085,0,0,1-.42309-.42195v-.38755a3.53165,3.53165,0,0,0-1.35527-2.8,5.64036,5.64036,0,0,0-3.75166-1.14545,4.91309,4.91309,0,0,0-3.0121.81064,2.69777,2.69777,0,0,0-1.07436,2.28975,2.5859,2.5859,0,0,0,.56413,1.72562,5.06135,5.06135,0,0,0,1.69122,1.21539q1.12653.54521,3.48679,1.39082a39.90808,39.90808,0,0,1,3.99818,1.72563,7.70573,7.70573,0,0,1,2.57066,2.16706,5.50407,5.50407,0,0,1,1.07436,3.46959,6.10474,6.10474,0,0,1-2.34249,5.037,9.989,9.989,0,0,1-6.39226,1.86665A12.02409,12.02409,0,0,1,127.49281,326.76227Z"/>
    </g>
  </g>
  <g id="For_PPT" data-name="For PPT">
    <rect class="cls-4" x="-0.34347" y="-0.1886" width="210.02223" height="327.90984"/>
  </g>
</svg>
