<svg width="100%" height="100%" viewBox="0 0 142 142" fill="none" xmlns="http://www.w3.org/2000/svg">
<path d="M71 142C110.212 142 142 110.212 142 71C142 31.7878 110.212 0 71 0C31.7878 0 0 31.7878 0 71C0 110.212 31.7878 142 71 142Z" fill="#7198E7"/>
<path d="M71 136C106.899 136 136 106.899 136 71C136 35.1015 106.899 6 71 6C35.1015 6 6 35.1015 6 71C6 106.899 35.1015 136 71 136Z" fill="url(#paint0_radial_1890_7339)"/>
<path d="M19.4507 31.428C17.4601 34.0059 15.6695 36.7323 14.0947 39.5833L42.1661 103.933L97.8667 95.5873L66.7967 24.304L19.4507 31.428ZM22.9174 40.0946L49.5674 36.0906L50.6507 38.552L24.0267 42.5386L22.9174 40.0946ZM28.3167 52.3666L64.3094 46.95L65.0114 48.562L29.0187 53.9786L28.3167 52.3666ZM30.5614 57.5146L62.4461 52.722L63.1481 54.334L31.2634 59.1353L30.5614 57.5146ZM38.9334 76.6766L38.2227 75.056L70.1334 70.2633L70.7921 71.8666L38.9334 76.6766ZM46.5774 94.218L45.8667 92.606L77.7514 87.8046L78.4534 89.4253L46.5774 94.218ZM80.3081 83.6533L44.3154 89.07L43.6134 87.4666L79.6061 82.0586L80.3081 83.6533ZM72.6641 66.112L36.6714 71.5286L35.9607 69.908L71.9621 64.4913L72.6641 66.112Z" fill="#5070D4"/>
<path d="M107.053 69.1281L95.1016 66.0081L98.3776 77.9074L107.053 69.1281Z" fill="#5070D4"/>
<path d="M127.697 102.772L102.746 78.1413L103.942 76.9279L128.547 101.195C129.058 100.224 129.552 99.236 130.011 98.2306L106.143 74.692L107.339 73.4873L130.739 96.5926C131.138 95.6653 131.511 94.7293 131.866 93.776L107.599 69.8386L99.0801 78.5053L126.224 105.285C126.744 104.436 127.229 103.613 127.697 102.772Z" fill="#5070D4"/>
<defs>
<radialGradient id="paint0_radial_1890_7339" cx="0" cy="0" r="1" gradientUnits="userSpaceOnUse" gradientTransform="translate(71 71) rotate(90) scale(67.5 82.5462)">
<stop stop-color="white"/>
<stop offset="1" stop-color="#A7D3F2"/>
</radialGradient>
</defs>
</svg>
