<svg xmlns="http://www.w3.org/2000/svg" xmlns:xlink="http://www.w3.org/1999/xlink" viewBox="0 0 297 212"><defs><linearGradient id="linear-gradient" x1="226.35" y1="128.19" x2="222.75" y2="131.78" gradientUnits="userSpaceOnUse"><stop offset="0" stop-color="#529bea"/><stop offset=".16" stop-color="#5ba0eb"/><stop offset=".43" stop-color="#74aeee"/><stop offset=".77" stop-color="#9cc5f2"/><stop offset="1" stop-color="#bbd6f5"/></linearGradient><linearGradient id="linear-gradient-2" x1="222.94" y1="151.28" x2="219.35" y2="154.88" xlink:href="#linear-gradient"/><linearGradient id="linear-gradient-3" x1="228.84" y1="133.65" x2="223.5" y2="139" xlink:href="#linear-gradient"/><linearGradient id="linear-gradient-4" x1="226.7" y1="145.22" x2="221.4" y2="150.53" xlink:href="#linear-gradient"/><linearGradient id="linear-gradient-5" x1="229.1" y1="139.75" x2="222.98" y2="145.87" xlink:href="#linear-gradient"/><linearGradient id="linear-gradient-6" x1="199.12" y1="158.81" x2="208.21" y2="158.81" xlink:href="#linear-gradient"/><linearGradient id="linear-gradient-7" x1="194.81" y1="181.75" x2="203.91" y2="181.75" xlink:href="#linear-gradient"/><linearGradient id="linear-gradient-8" x1="194.46" y1="164.01" x2="207.2" y2="164.01" xlink:href="#linear-gradient"/><linearGradient id="linear-gradient-9" x1="192.06" y1="175.46" x2="204.46" y2="175.46" xlink:href="#linear-gradient"/><linearGradient id="linear-gradient-10" x1="190.28" y1="170.03" x2="207.39" y2="170.03" xlink:href="#linear-gradient"/><linearGradient id="linear-gradient-11" x1="215.96" y1="193.95" x2="212.36" y2="197.54" xlink:href="#linear-gradient"/><linearGradient id="linear-gradient-12" x1="218.45" y1="199.41" x2="213.11" y2="204.76" xlink:href="#linear-gradient"/><linearGradient id="linear-gradient-13" x1="245.95" y1="18.48" x2="242.35" y2="22.08" xlink:href="#linear-gradient"/><linearGradient id="linear-gradient-14" x1="249.7" y1="12.42" x2="244.4" y2="17.73" xlink:href="#linear-gradient"/><linearGradient id="linear-gradient-15" x1="222.96" y1="15.47" x2="232.05" y2="15.47" xlink:href="#linear-gradient"/><linearGradient id="linear-gradient-16" x1="220.2" y1="9.17" x2="232.61" y2="9.17" xlink:href="#linear-gradient"/><linearGradient id="linear-gradient-17" x1="221.48" y1="26.3" x2="230.58" y2="26.3" xlink:href="#linear-gradient"/><linearGradient id="linear-gradient-18" x1="217.18" y1="49.23" x2="226.27" y2="49.23" xlink:href="#linear-gradient"/><linearGradient id="linear-gradient-19" x1="216.83" y1="31.49" x2="229.56" y2="31.49" xlink:href="#linear-gradient"/><linearGradient id="linear-gradient-20" x1="214.42" y1="42.94" x2="226.83" y2="42.94" xlink:href="#linear-gradient"/><linearGradient id="linear-gradient-21" x1="212.64" y1="37.51" x2="229.75" y2="37.51" xlink:href="#linear-gradient"/><linearGradient id="linear-gradient-22" x1="239.04" y1="60.71" x2="235.29" y2="64.46" xlink:href="#linear-gradient"/><linearGradient id="linear-gradient-23" x1="235.45" y1="85.03" x2="231.7" y2="88.78" xlink:href="#linear-gradient"/><linearGradient id="linear-gradient-24" x1="241.67" y1="66.46" x2="236.07" y2="72.05" xlink:href="#linear-gradient"/><linearGradient id="linear-gradient-25" x1="239.41" y1="78.65" x2="233.86" y2="84.2" xlink:href="#linear-gradient"/><linearGradient id="linear-gradient-26" x1="241.93" y1="72.89" x2="235.52" y2="79.3" xlink:href="#linear-gradient"/><linearGradient id="linear-gradient-27" x1="210.33" y1="91.8" x2="219.42" y2="91.8" xlink:href="#linear-gradient"/><linearGradient id="linear-gradient-28" x1="206.03" y1="114.73" x2="215.12" y2="114.73" xlink:href="#linear-gradient"/><linearGradient id="linear-gradient-29" x1="205.67" y1="96.99" x2="218.41" y2="96.99" xlink:href="#linear-gradient"/><linearGradient id="linear-gradient-30" x1="203.27" y1="108.44" x2="215.67" y2="108.44" xlink:href="#linear-gradient"/><linearGradient id="linear-gradient-31" x1="201.49" y1="103.01" x2="218.6" y2="103.01" xlink:href="#linear-gradient"/><linearGradient id="linear-gradient-32" x1="215.82" y1="57.68" x2="225.35" y2="57.68" xlink:href="#linear-gradient"/><linearGradient id="linear-gradient-33" x1="211.29" y1="81.83" x2="220.82" y2="81.83" xlink:href="#linear-gradient"/><linearGradient id="linear-gradient-34" x1="210.92" y1="63.15" x2="224.28" y2="63.15" xlink:href="#linear-gradient"/><linearGradient id="linear-gradient-35" x1="208.39" y1="75.21" x2="221.4" y2="75.21" xlink:href="#linear-gradient"/><linearGradient id="linear-gradient-36" x1="206.52" y1="69.49" x2="224.48" y2="69.49" xlink:href="#linear-gradient"/><linearGradient id="linear-gradient-37" x1="243.57" y1="29.16" x2="239.98" y2="32.75" xlink:href="#linear-gradient"/><linearGradient id="linear-gradient-38" x1="240.16" y1="52.25" x2="236.57" y2="55.84" xlink:href="#linear-gradient"/><linearGradient id="linear-gradient-39" x1="246.06" y1="34.62" x2="240.72" y2="39.96" xlink:href="#linear-gradient"/><linearGradient id="linear-gradient-40" x1="243.92" y1="46.19" x2="238.62" y2="51.49" xlink:href="#linear-gradient"/><linearGradient id="linear-gradient-41" x1="246.32" y1="40.72" x2="240.2" y2="46.84" xlink:href="#linear-gradient"/><linearGradient id="linear-gradient-42" x1="232.42" y1="94.66" x2="228.82" y2="98.25" xlink:href="#linear-gradient"/><linearGradient id="linear-gradient-43" x1="229.01" y1="117.75" x2="225.42" y2="121.34" xlink:href="#linear-gradient"/><linearGradient id="linear-gradient-44" x1="234.91" y1="100.12" x2="229.57" y2="105.46" xlink:href="#linear-gradient"/><linearGradient id="linear-gradient-45" x1="232.77" y1="111.69" x2="227.46" y2="116.99" xlink:href="#linear-gradient"/><linearGradient id="linear-gradient-46" x1="235.17" y1="106.22" x2="229.04" y2="112.34" xlink:href="#linear-gradient"/><linearGradient id="linear-gradient-47" x1="204.26" y1="125.33" x2="213.36" y2="125.33" xlink:href="#linear-gradient"/><linearGradient id="linear-gradient-48" x1="199.96" y1="148.27" x2="209.05" y2="148.27" xlink:href="#linear-gradient"/><linearGradient id="linear-gradient-49" x1="199.61" y1="130.52" x2="212.34" y2="130.52" xlink:href="#linear-gradient"/><linearGradient id="linear-gradient-50" x1="197.2" y1="141.97" x2="209.6" y2="141.97" xlink:href="#linear-gradient"/><linearGradient id="linear-gradient-51" x1="195.42" y1="136.55" x2="212.53" y2="136.55" xlink:href="#linear-gradient"/><linearGradient id="linear-gradient-52" x1="221.21" y1="161.67" x2="217.61" y2="165.27" xlink:href="#linear-gradient"/><linearGradient id="linear-gradient-53" x1="217.8" y1="184.76" x2="214.21" y2="188.36" xlink:href="#linear-gradient"/><linearGradient id="linear-gradient-54" x1="223.7" y1="167.13" x2="218.35" y2="172.48" xlink:href="#linear-gradient"/><linearGradient id="linear-gradient-55" x1="193.87" y1="191.09" x2="202.96" y2="191.09" xlink:href="#linear-gradient"/><linearGradient id="linear-gradient-56" x1="187.77" y1="196.07" x2="200.51" y2="196.07" xlink:href="#linear-gradient"/><linearGradient id="linear-gradient-57" x1="221.56" y1="178.7" x2="216.25" y2="184.01" xlink:href="#linear-gradient"/><linearGradient id="linear-gradient-58" x1="223.95" y1="173.23" x2="217.83" y2="179.36" xlink:href="#linear-gradient"/><linearGradient id="linear-gradient-59" x1="181.27" y1="99.94" x2="253.79" y2="99.94" gradientUnits="userSpaceOnUse"><stop offset="0" stop-color="#085ed5"/><stop offset="1" stop-color="#e2e8f4"/></linearGradient><linearGradient id="linear-gradient-60" x1="220.67" y1=".23" x2="220.67" y2="211.33" gradientUnits="userSpaceOnUse"><stop offset="0" stop-color="#fff"/><stop offset=".39" stop-color="#fff" stop-opacity=".95"/><stop offset=".5" stop-color="#fff" stop-opacity=".74"/><stop offset=".63" stop-color="#fff" stop-opacity=".48"/><stop offset=".75" stop-color="#fff" stop-opacity=".27"/><stop offset=".86" stop-color="#fff" stop-opacity=".12"/><stop offset=".94" stop-color="#fff" stop-opacity=".03"/><stop offset="1" stop-color="#fff" stop-opacity="0"/></linearGradient><linearGradient id="linear-gradient-61" x1="112.23" y1="213.73" x2="112.23" y2="96.51" gradientUnits="userSpaceOnUse"><stop offset="0" stop-color="#26b4d8"/><stop offset="1" stop-color="#34298f"/></linearGradient><linearGradient id="linear-gradient-62" x1="160.62" y1="55.21" x2="160.62" y2="172.44" gradientUnits="userSpaceOnUse"><stop offset="0" stop-color="#8281ff"/><stop offset=".24" stop-color="#7f83fe"/><stop offset=".44" stop-color="#7489f9"/><stop offset=".62" stop-color="#6392f2"/><stop offset=".8" stop-color="#4aa0e7"/><stop offset=".98" stop-color="#2ab2da"/><stop offset="1" stop-color="#26b4d8"/></linearGradient><linearGradient id="linear-gradient-63" x1="98.6" y1="86.45" x2="125.85" y2="86.45" gradientUnits="userSpaceOnUse"><stop offset="0" stop-color="#26b4d8"/><stop offset=".32" stop-color="#26b2d7"/><stop offset=".48" stop-color="#27aad3"/><stop offset=".61" stop-color="#289dcc"/><stop offset=".72" stop-color="#2a8ac2"/><stop offset=".81" stop-color="#2d71b5"/><stop offset=".9" stop-color="#3053a5"/><stop offset=".99" stop-color="#332f92"/><stop offset="1" stop-color="#34298f"/></linearGradient><linearGradient id="linear-gradient-64" x1="171" y1="64.88" x2="150.29" y2="52.92" gradientUnits="userSpaceOnUse"><stop offset="0" stop-color="#8281ff"/><stop offset=".13" stop-color="#6c8df6"/><stop offset=".36" stop-color="#4e9ee9"/><stop offset=".59" stop-color="#38aae0"/><stop offset=".8" stop-color="#2bb2da"/><stop offset="1" stop-color="#26b4d8"/></linearGradient><style>.cls-1{fill:#e2e8f4}.cls-2,.cls-69,.cls-70,.cls-72{fill:none;stroke-miterlimit:10}.cls-2{stroke:#e2e8f4;stroke-width:3px}.cls-69,.cls-70,.cls-72{stroke-linecap:round}.cls-61{fill:#0094ff;opacity:.19}.cls-69,.cls-70,.cls-72{stroke:#529bea}.cls-69{stroke-width:2.12px}.cls-70{stroke-width:2.2px}.cls-71{fill:#eff7fc}</style></defs><g id="Header_Manager_Illus" data-name="Header Manager Illus"><circle class="cls-1" cx="104.2" cy="91.5" r="30"/><circle class="cls-2" cx="104.2" cy="91.5" r="49.9"/><circle class="cls-2" cx="104.2" cy="91.5" r="65.5"/><circle class="cls-1" cx="70" cy="34.4" r="7.2"/><circle class="cls-1" cx="98.9" cy="140.3" r="7.2"/><circle class="cls-1" cx="47.1" cy="124.7" r="7.2"/><path style="stroke:url(#linear-gradient);stroke-linecap:round;fill:none;stroke-miterlimit:10" d="m220.5 128.8 8.1 2.3"/><path style="stroke:url(#linear-gradient-2);stroke-linecap:round;fill:none;stroke-miterlimit:10" d="m217.1 151.9 8.1 2.3"/><path style="stroke:url(#linear-gradient-3);stroke-linecap:round;fill:none;stroke-miterlimit:10" d="m219.7 134.5 12.9 3.7"/><path style="stroke:url(#linear-gradient-4);stroke-linecap:round;fill:none;stroke-miterlimit:10" d="m217.6 146.1 12.9 3.6"/><path style="stroke:url(#linear-gradient-5);stroke-linecap:round;fill:none;stroke-miterlimit:10" d="m218.4 140.6 15.2 4.4"/><path style="stroke:url(#linear-gradient-6);stroke-linecap:round;fill:none;stroke-miterlimit:10" d="m199.6 157.7 8.1 2.3"/><path style="stroke:url(#linear-gradient-7);stroke-linecap:round;fill:none;stroke-miterlimit:10" d="m195.3 180.6 8.1 2.3"/><path style="stroke:url(#linear-gradient-8);stroke-linecap:round;fill:none;stroke-miterlimit:10" d="m195 162.3 11.7 3.4"/><path style="stroke:url(#linear-gradient-9);stroke-linecap:round;fill:none;stroke-miterlimit:10" d="m192.6 173.8 11.4 3.3"/><path style="stroke:url(#linear-gradient-10);stroke-linecap:round;fill:none;stroke-miterlimit:10" d="m190.8 167.7 16.1 4.6"/><path style="stroke:url(#linear-gradient-11);stroke-linecap:round;fill:none;stroke-miterlimit:10" d="m210.1 194.6 8.1 2.3"/><path style="stroke:url(#linear-gradient-12);stroke-linecap:round;fill:none;stroke-miterlimit:10" d="m209.3 200.3 12.9 3.6"/><path style="stroke:url(#linear-gradient-13);stroke-linecap:round;fill:none;stroke-miterlimit:10" d="m240.1 19.1 8.1 2.3"/><path style="stroke:url(#linear-gradient-14);stroke-linecap:round;fill:none;stroke-miterlimit:10" d="m240.6 13.3 12.9 3.6"/><path style="stroke:url(#linear-gradient-15);stroke-linecap:round;fill:none;stroke-miterlimit:10" d="m223.5 14.3 8.1 2.3"/><path style="stroke:url(#linear-gradient-16);stroke-linecap:round;fill:none;stroke-miterlimit:10" d="m220.7 7.5 11.4 3.3"/><path style="stroke:url(#linear-gradient-17);stroke-linecap:round;fill:none;stroke-miterlimit:10" d="m222 25.1 8.1 2.4"/><path style="stroke:url(#linear-gradient-18);stroke-linecap:round;fill:none;stroke-miterlimit:10" d="m217.7 48.1 8.1 2.3"/><path style="stroke:url(#linear-gradient-19);stroke-linecap:round;fill:none;stroke-miterlimit:10" d="m217.3 29.8 11.8 3.4"/><path style="stroke:url(#linear-gradient-20);stroke-linecap:round;fill:none;stroke-miterlimit:10" d="m214.9 41.3 11.4 3.3"/><path style="stroke:url(#linear-gradient-21);stroke-linecap:round;fill:none;stroke-miterlimit:10" d="m213.1 35.2 16.1 4.6"/><path style="stroke:url(#linear-gradient-22);stroke-linecap:round;fill:none;stroke-miterlimit:10" d="m232.9 61.4 8.5 2.4"/><path style="stroke:url(#linear-gradient-23);stroke-linecap:round;fill:none;stroke-miterlimit:10" d="m229.3 85.7 8.5 2.4"/><path style="stroke:url(#linear-gradient-24);stroke-linecap:round;fill:none;stroke-miterlimit:10" d="m232.1 67.3 13.6 3.9"/><path style="stroke:url(#linear-gradient-25);stroke-linecap:round;fill:none;stroke-miterlimit:10" d="m229.9 79.5 13.5 3.8"/><path style="stroke:url(#linear-gradient-26);stroke-linecap:round;fill:none;stroke-miterlimit:10" d="m230.7 73.8 16 4.6"/><path style="stroke:url(#linear-gradient-27);stroke-linecap:round;fill:none;stroke-miterlimit:10" d="m210.8 90.6 8.1 2.4"/><path style="stroke:url(#linear-gradient-28);stroke-linecap:round;fill:none;stroke-miterlimit:10" d="m206.5 113.6 8.1 2.3"/><path style="stroke:url(#linear-gradient-29);stroke-linecap:round;fill:none;stroke-miterlimit:10" d="m206.2 95.3 11.7 3.4"/><path style="stroke:url(#linear-gradient-30);stroke-linecap:round;fill:none;stroke-miterlimit:10" d="m203.8 106.8 11.4 3.3"/><path style="stroke:url(#linear-gradient-31);stroke-linecap:round;fill:none;stroke-miterlimit:10" d="m202 100.7 16.1 4.6"/><path d="M229.7 56.3c-10.9-3.2-18.4-13.1-16.9-22.3s11.7-14 22.6-10.9M224 89.4c-10.9-3.1-21 1.7-22.6 10.9s6 19.1 16.9 22.2m5.7-33.1c10.9 3.1 21.1-1.8 22.6-10.9s-6-19.1-16.9-22.2m-17.1 99.3c10.9 3.2 21.1-1.7 22.6-10.9s-6-19.1-16.9-22.2m-5.7 33.1c-10.9-3.1-21 1.8-22.5 10.9s5.9 19.1 16.9 22.3m28.4-165.7c10.9 3.2 21-1.7 22.6-10.9M223.8 211c1.6-9.2-5.9-19.1-16.8-22.2" style="stroke-width:4.39px;stroke:#26b4d8;fill:none;stroke-miterlimit:10"/><path style="stroke:url(#linear-gradient-32);stroke-linecap:round;fill:none;stroke-miterlimit:10" d="m216.3 56.5 8.5 2.4"/><path style="stroke:url(#linear-gradient-33);stroke-linecap:round;fill:none;stroke-miterlimit:10" d="m211.8 80.6 8.5 2.5"/><path style="stroke:url(#linear-gradient-34);stroke-linecap:round;fill:none;stroke-miterlimit:10" d="m211.4 61.4 12.4 3.5"/><path style="stroke:url(#linear-gradient-35);stroke-linecap:round;fill:none;stroke-miterlimit:10" d="m208.9 73.5 12 3.4"/><path style="stroke:url(#linear-gradient-36);stroke-linecap:round;fill:none;stroke-miterlimit:10" d="m207 67.1 17 4.8"/><path style="stroke:url(#linear-gradient-37);stroke-linecap:round;fill:none;stroke-miterlimit:10" d="m237.7 29.8 8.1 2.3"/><path style="stroke:url(#linear-gradient-38);stroke-linecap:round;fill:none;stroke-miterlimit:10" d="m234.3 52.9 8.1 2.3"/><path style="stroke:url(#linear-gradient-39);stroke-linecap:round;fill:none;stroke-miterlimit:10" d="m236.9 35.5 13 3.6"/><path style="stroke:url(#linear-gradient-40);stroke-linecap:round;fill:none;stroke-miterlimit:10" d="m234.9 47 12.8 3.7"/><path style="stroke:url(#linear-gradient-41);stroke-linecap:round;fill:none;stroke-miterlimit:10" d="m235.7 41.6 15.1 4.4"/><path style="stroke:url(#linear-gradient-42);stroke-linecap:round;fill:none;stroke-miterlimit:10" d="m226.6 95.3 8.1 2.3"/><path style="stroke:url(#linear-gradient-43);stroke-linecap:round;fill:none;stroke-miterlimit:10" d="m223.2 118.4 8.1 2.3"/><path style="stroke:url(#linear-gradient-44);stroke-linecap:round;fill:none;stroke-miterlimit:10" d="m225.8 101 12.9 3.6"/><path style="stroke:url(#linear-gradient-45);stroke-linecap:round;fill:none;stroke-miterlimit:10" d="m223.7 112.5 12.8 3.7"/><path style="stroke:url(#linear-gradient-46);stroke-linecap:round;fill:none;stroke-miterlimit:10" d="m224.5 107.1 15.2 4.4"/><path style="stroke:url(#linear-gradient-47);stroke-linecap:round;fill:none;stroke-miterlimit:10" d="m204.8 124.2 8.1 2.3"/><path style="stroke:url(#linear-gradient-48);stroke-linecap:round;fill:none;stroke-miterlimit:10" d="m200.5 147.1 8.1 2.3"/><path style="stroke:url(#linear-gradient-49);stroke-linecap:round;fill:none;stroke-miterlimit:10" d="m200.1 128.8 11.7 3.4"/><path style="stroke:url(#linear-gradient-50);stroke-linecap:round;fill:none;stroke-miterlimit:10" d="m197.7 140.3 11.4 3.3"/><path style="stroke:url(#linear-gradient-51);stroke-linecap:round;fill:none;stroke-miterlimit:10" d="m195.9 134.2 16.1 4.7"/><path style="stroke:url(#linear-gradient-52);stroke-linecap:round;fill:none;stroke-miterlimit:10" d="m215.4 162.3 8.1 2.3"/><path style="stroke:url(#linear-gradient-53);stroke-linecap:round;fill:none;stroke-miterlimit:10" d="m212 185.4 8.1 2.3"/><path style="stroke:url(#linear-gradient-54);stroke-linecap:round;fill:none;stroke-miterlimit:10" d="m214.6 168 12.9 3.6"/><path style="stroke:url(#linear-gradient-55);stroke-linecap:round;fill:none;stroke-miterlimit:10" d="m194.4 189.9 8.1 2.3"/><path style="stroke:url(#linear-gradient-56);stroke-linecap:round;fill:none;stroke-miterlimit:10" d="m188.3 194.4 11.7 3.4"/><path style="stroke:url(#linear-gradient-57);stroke-linecap:round;fill:none;stroke-miterlimit:10" d="m212.5 179.5 12.8 3.7"/><path class="cls-61" d="m126.1 48.8.2 137c0 8-6.2 14.5-13.8 14.5-7.7 0-13.8-6.5-13.8-14.5V48.9M174.5 20.8l.2 137c0 8-6.2 14.5-13.8 14.5-7.7 0-13.8-6.5-13.8-14.5V20.9"/><path style="stroke:url(#linear-gradient-58);stroke-linecap:round;fill:none;stroke-miterlimit:10" d="m213.3 174.1 15.2 4.4"/><path d="M234.5 22.8C223.6 19.7 216 9.7 217.6.6m-.2 121.6c10.9 3.1 21-1.8 22.6-11s-6-19-16.9-22.2m5.7-33.1c-10.9-3.1-21 1.8-22.6 10.9s6 19.1 16.9 22.2m5.7-33.1c10.9 3.1 21-1.8 22.6-10.9s-6-19.1-16.9-22.2m-17.1 99.4c-10.9-3.2-21 1.7-22.6 10.9s6 19.1 16.9 22.2m-5.7 33.1c10.9 3.1 21-1.8 22.6-10.9s-6-19.1-16.9-22.2m-5.7 33.1c-10.9-3.1-21 1.8-22.6 10.9" style="stroke:url(#linear-gradient-59);stroke-width:4.39px;fill:none;stroke-miterlimit:10"/><path d="M229.7 56.2c-10.9-3.1-18.5-13-16.9-22.2s11.7-14 22.6-10.9M224 89.4c-10.9-3.2-21 1.7-22.6 10.9s6 19.1 16.9 22.2m5.7-33.1c10.9 3.1 21-1.8 22.6-10.9s-6-19.1-16.9-22.3m-17.1 99.4c10.9 3.1 21-1.7 22.6-10.9s-6-19.1-16.9-22.2m-5.7 33.1c-10.9-3.1-21 1.8-22.6 10.9s6 19.1 16.9 22.2m28.5-165.6c10.9 3.1 21-1.7 22.5-10.9M223.8 211c1.5-9.2-6-19.1-16.9-22.3m27.6-165.9c-11-3.1-18.5-13-16.9-22.2m-.2 121.6c10.9 3.1 21-1.8 22.6-10.9s-6-19.1-16.9-22.2m5.7-33.2c-10.9-3.1-21.1 1.8-22.6 11s6 19 16.9 22.2m5.7-33.2c10.9 3.2 21-1.7 22.5-10.9s-5.9-19.1-16.8-22.2m-17.1 99.4c-10.9-3.1-21 1.8-22.6 10.9s6 19.1 16.9 22.2m-5.7 33.1c10.9 3.2 21-1.7 22.6-10.9s-6-19.1-16.9-22.2m-5.7 33.1c-10.9-3.1-21 1.8-22.6 11" style="opacity:.63;stroke:url(#linear-gradient-60);stroke-width:4.39px;fill:none;stroke-miterlimit:10"/><path d="M126 185.9a13.8 13.8 0 0 1-13.8 13.9 13.3 13.3 0 0 1-9.7-4.1 13.7 13.7 0 0 1-4.1-9.8V86.5c.1-2.2 6.2-3.9 13.8-3.9s13.6 1.7 13.6 3.9Z" style="fill:url(#linear-gradient-61)"/><path d="M174.4 158.5a13.8 13.8 0 0 1-13.8 13.9 13.3 13.3 0 0 1-9.7-4.1 13.7 13.7 0 0 1-4.1-9.8V59.1c.1-2.2 6.2-3.9 13.8-3.9s13.5 1.7 13.6 3.9Z" style="fill:url(#linear-gradient-62)"/><ellipse cx="112.2" cy="86.5" rx="13.6" ry="3.8" style="fill:url(#linear-gradient-63)"/><ellipse cx="160.6" cy="58.9" rx="13.6" ry="3.8" style="fill:url(#linear-gradient-64)"/><ellipse class="cls-69" cx="112.2" cy="51.4" rx="13.6" ry="3.8"/><ellipse class="cls-70" cx="112.2" cy="52.1" rx="16.5" ry="6.3"/><path class="cls-71" d="M112.2 45.6c-9.1 0-16.4 2.8-16.4 6.3s7.3 6.3 16.4 6.3 16.5-2.8 16.5-6.3-7.4-6.3-16.5-6.3Zm0 9.5c-7.5 0-13.6-1.7-13.6-3.9s6.1-3.8 13.6-3.8 13.6 1.7 13.6 3.8-6.1 3.9-13.6 3.9Z"/><ellipse class="cls-69" cx="160.6" cy="24" rx="13.6" ry="3.8"/><path class="cls-72" d="m174.4 28.4.2 129.9a13.8 13.8 0 0 1-13.8 13.8h0a13.8 13.8 0 0 1-13.8-13.8V28.5"/><ellipse class="cls-70" cx="160.6" cy="24.7" rx="16.5" ry="6.3"/><path class="cls-71" d="M160.4 18.4c-9.1 0-16.4 2.8-16.4 6.3s7.3 6.3 16.4 6.3 16.5-2.8 16.5-6.3-7.4-6.3-16.5-6.3Zm0 9.5c-7.5 0-13.6-1.7-13.6-3.9s6.1-3.8 13.6-3.8 13.7 1.7 13.7 3.8-6.1 3.9-13.7 3.9Z"/><path class="cls-72" d="m126.1 56.7.2 130a13.8 13.8 0 0 1-13.8 13.8h0a13.8 13.8 0 0 1-13.8-13.8V56.8"/></g></svg>