<svg width="130px" height="130px" viewBox="0 0 142 142" fill="none" xmlns="http://www.w3.org/2000/svg"><path d="M71 142c39.212 0 71-31.788 71-71S110.212 0 71 0 0 31.788 0 71s31.788 71 71 71Z" fill="#7198E7"/><path d="M71 136c35.899 0 65-29.101 65-65 0-35.898-29.101-65-65-65C35.102 6 6 35.102 6 71c0 35.899 29.102 65 65 65Z" fill="url(#a)"/><path d="M80.654 63.061a64.443 64.443 0 0 1-12.852-2.877 63.524 63.524 0 0 1-10.019-4.333v16.466a124.381 124.381 0 0 0 22.871-2.539v-6.717ZM53.987 55.833a63.97 63.97 0 0 1-10.028 4.334 64.45 64.45 0 0 1-12.826 2.894v6.786a124.966 124.966 0 0 0 22.88 2.444l-.026-16.458ZM31.133 110.381a69.392 69.392 0 0 0 8.58 8.303 71.847 71.847 0 0 0 14.3 9.031V76.096a128.263 128.263 0 0 1-22.88-2.383v36.668ZM57.783 127.715a72.098 72.098 0 0 0 14.291-9.048 69.385 69.385 0 0 0 8.58-8.303V73.6a127.466 127.466 0 0 1-22.87 2.47v51.645ZM127.619 50.807h-11.7v-11.7h-6.933v11.7h-11.7v6.933h11.7v11.7h6.933v-11.7h11.7v-6.933Z" fill="#5070D4"/><path d="M89.096 114.541V54.637a66.666 66.666 0 0 1-18.2-3.354 64.23 64.23 0 0 1-15.045-7.297 64.493 64.493 0 0 1-15.054 7.297 66.666 66.666 0 0 1-18.2 3.354v59.8a65.04 65.04 0 0 0 22.984 16.467 81.786 81.786 0 0 1-9.716-6.786 80.246 80.246 0 0 1-10.668-10.478V57.081a68.892 68.892 0 0 0 16.458-3.328 67.324 67.324 0 0 0 14.23-6.682 67.062 67.062 0 0 0 14.248 6.682 68.893 68.893 0 0 0 16.389 3.328v56.524a80.24 80.24 0 0 1-10.669 10.478 83.01 83.01 0 0 1-17.142 10.738c1.473.278 2.955.512 4.463.694a85.303 85.303 0 0 0 14.317-9.421 81.755 81.755 0 0 0 11.605-11.553ZM83.316 42.885h6.933v-10.4h10.4v-6.933h-10.4v-10.4h-6.933v10.4h-10.4v6.933h10.4v10.4Z" fill="#5070D4"/><defs><radialGradient id="a" cx="0" cy="0" r="1" gradientUnits="userSpaceOnUse" gradientTransform="matrix(0 67.5 -82.5462 0 71 71)"><stop stop-color="#fff"/><stop offset="1" stop-color="#A7D3F2"/></radialGradient></defs></svg>