<svg xmlns="http://www.w3.org/2000/svg" viewBox="0 0 217.40784 327.8662">
  <defs>
    <style>
      .cls-1 {
        fill: #d6e5f2;
      }

      .cls-2 {
        fill: #7baadb;
      }

      .cls-3 {
        opacity: 0.49;
      }

      .cls-4, .cls-5, .cls-7 {
        fill: none;
      }

      .cls-4 {
        stroke: #7baadb;
      }

      .cls-4, .cls-5 {
        stroke-miterlimit: 10;
        stroke-width: 1.81091px;
      }

      .cls-5 {
        stroke: #1d4588;
      }

      .cls-6 {
        fill: #1d4588;
      }
    </style>
  </defs>
  <g id="Network_Part" data-name="Network Part">
    <g>
      <g>
        <g>
          <polygon class="cls-1" points="168.517 145.514 120.532 117.809 120.532 62.401 168.517 90.105 168.517 145.514"/>
          <polygon class="cls-1" points="168.517 90.105 120.532 62.401 168.517 34.697 216.502 62.401 168.517 90.105"/>
          <polygon class="cls-1" points="216.502 117.516 168.517 145.514 168.517 90.105 216.502 62.401 216.502 117.516"/>
          <polygon class="cls-2" points="168.517 120.428 142.998 105.695 142.998 76.228 168.517 90.962 168.517 120.428"/>
          <polygon class="cls-2" points="168.517 90.962 142.998 76.228 168.517 61.495 194.036 76.228 168.517 90.962"/>
          <polygon class="cls-2" points="194.036 105.539 168.517 120.428 168.517 90.962 194.036 76.228 194.036 105.539"/>
          <g class="cls-3">
            <polyline class="cls-4" points="120.532 62.401 168.517 90.962 168.517 145.514"/>
            <line class="cls-4" x1="216.50238" y1="62.40106" x2="168.51725" y2="90.96178"/>
          </g>
          <polygon class="cls-5" points="216.502 62.401 168.517 34.697 120.532 62.401 120.532 117.809 168.517 145.514 216.502 117.516 216.502 62.401"/>
        </g>
        <g>
          <polygon class="cls-1" points="48.891 144.657 0.905 116.953 0.905 61.544 48.891 89.249 48.891 144.657"/>
          <polygon class="cls-1" points="48.891 89.249 0.905 61.544 48.891 33.84 96.876 61.545 48.891 89.249"/>
          <polygon class="cls-1" points="96.876 116.66 48.891 144.657 48.891 89.249 96.876 61.545 96.876 116.66"/>
          <polygon class="cls-2" points="48.891 119.572 23.372 104.838 23.372 75.372 48.891 90.105 48.891 119.572"/>
          <polygon class="cls-2" points="48.891 90.105 23.372 75.372 48.891 60.638 74.41 75.372 48.891 90.105"/>
          <polygon class="cls-2" points="74.41 104.683 48.891 119.572 48.891 90.105 74.41 75.372 74.41 104.683"/>
          <g class="cls-3">
            <polyline class="cls-4" points="0.905 61.544 48.891 90.105 48.891 144.657"/>
            <line class="cls-4" x1="96.87589" y1="61.54451" x2="48.89075" y2="90.10523"/>
          </g>
          <polygon class="cls-5" points="96.876 61.545 48.891 33.84 0.905 61.544 0.905 116.953 48.891 144.657 96.876 116.66 96.876 61.545"/>
        </g>
        <g>
          <polygon class="cls-1" points="108.519 184.052 60.534 156.347 60.534 100.939 108.519 128.643 108.519 184.052"/>
          <polygon class="cls-1" points="108.519 128.643 60.534 100.939 108.519 73.235 156.505 100.939 108.519 128.643"/>
          <polygon class="cls-1" points="156.505 156.054 108.519 184.052 108.519 128.643 156.505 100.939 156.505 156.054"/>
          <polygon class="cls-2" points="108.519 158.966 83 144.233 83 114.766 108.519 129.5 108.519 158.966"/>
          <polygon class="cls-2" points="108.519 129.5 83 114.766 108.519 100.033 134.038 114.766 108.519 129.5"/>
          <polygon class="cls-2" points="134.038 144.077 108.519 158.966 108.519 129.5 134.038 114.766 134.038 144.077"/>
          <g class="cls-3">
            <polyline class="cls-4" points="60.534 100.939 108.519 129.5 108.519 184.052"/>
            <line class="cls-4" x1="156.50455" y1="100.93901" x2="108.51941" y2="129.49973"/>
          </g>
          <polygon class="cls-5" points="156.505 100.939 108.519 73.235 60.534 100.939 60.534 156.347 108.519 184.052 156.505 156.054 156.505 100.939"/>
        </g>
      </g>
      <g>
        <path class="cls-6" d="M53.15776,285.93023a7.21558,7.21558,0,0,1-3.15256-2.46632,6.34434,6.34434,0,0,1-1.1099-3.73331V278.85a.42278.42278,0,0,1,.42309-.42309h3.13479a.42181.42181,0,0,1,.42252.42309v.66961a3.24083,3.24083,0,0,0,1.44413,2.69449,6.47249,6.47249,0,0,0,3.94543,1.07436,4.93606,4.93606,0,0,0,3.24028-.91613,2.93877,2.93877,0,0,0,1.09213-2.35969,2.45817,2.45817,0,0,0-.5991-1.67288,5.59617,5.59617,0,0,0-1.70842-1.25093q-1.10934-.56241-3.32856-1.40916a34.69242,34.69242,0,0,1-4.05035-1.72563,7.5492,7.5492,0,0,1-2.589-2.20146,5.63267,5.63267,0,0,1-1.03938-3.46959,5.92447,5.92447,0,0,1,2.2542-4.89595,9.38609,9.38609,0,0,1,6.02363-1.79672,11.23308,11.23308,0,0,1,4.66721.91613,7.45076,7.45076,0,0,1,3.152,2.55347,6.51675,6.51675,0,0,1,1.1271,3.78719v.59853a.41987.41987,0,0,1-.42252.42194H62.9147a.41988.41988,0,0,1-.42309-.42194v-.38755a3.53221,3.53221,0,0,0-1.35585-2.8,5.6376,5.6376,0,0,0-3.75108-1.14545,4.91192,4.91192,0,0,0-3.0121.81064,2.69777,2.69777,0,0,0-1.07436,2.28975,2.58594,2.58594,0,0,0,.56412,1.72562,5.0586,5.0586,0,0,0,1.69066,1.21539q1.12651.54521,3.48679,1.39082a39.91037,39.91037,0,0,1,3.99817,1.72562,7.70781,7.70781,0,0,1,2.57124,2.16707,5.50756,5.50756,0,0,1,1.07435,3.46959,6.10629,6.10629,0,0,1-2.34249,5.037,9.99061,9.99061,0,0,1-6.39283,1.86666A12.02787,12.02787,0,0,1,53.15776,285.93023Z"/>
        <path class="cls-6" d="M87.3767,265.27091a.40809.40809,0,0,1-.29983.12383H75.06573a.1556.1556,0,0,0-.176.17658v6.586a.1556.1556,0,0,0,.176.17658H83.132a.41987.41987,0,0,1,.42252.42194v2.6773a.42181.42181,0,0,1-.42252.42309H75.06573a.15524.15524,0,0,0-.176.17543v6.79815a.1556.1556,0,0,0,.176.17658H87.07687a.42182.42182,0,0,1,.42309.42309v2.67615a.42183.42183,0,0,1-.42309.4231H71.22636a.42183.42183,0,0,1-.42252-.4231V262.2955a.42181.42181,0,0,1,.42252-.42309H87.07687a.42182.42182,0,0,1,.42309.42309v2.67615A.40575.40575,0,0,1,87.3767,265.27091Z"/>
        <path class="cls-6" d="M95.24864,285.772a7.48278,7.48278,0,0,1-3.09981-2.90661,8.41952,8.41952,0,0,1-1.09156-4.33183v-8.70035a8.42378,8.42378,0,0,1,1.09156-4.333,7.37666,7.37666,0,0,1,3.09981-2.88827,10.11771,10.11771,0,0,1,4.64944-1.02162,10.34488,10.34488,0,0,1,4.61447.98607,7.30241,7.30241,0,0,1,3.09924,2.78279,7.84305,7.84305,0,0,1,1.09213,4.1564.42181.42181,0,0,1-.42252.42309l-3.24085.17543q-.42223,0-.42252-.3864a4.48994,4.48994,0,0,0-1.2859-3.34691,4.67879,4.67879,0,0,0-3.43405-1.26813,4.739,4.739,0,0,0-3.45182,1.26813,4.45583,4.45583,0,0,0-1.3031,3.34691V278.709a4.41163,4.41163,0,0,0,1.3031,3.31136,5.33548,5.33548,0,0,0,6.88587.0172,4.42991,4.42991,0,0,0,1.2859-3.32856q0-.387.42252-.38755l3.24085.141a.44789.44789,0,0,1,.29926.10549.31978.31978,0,0,1,.12326.24651,7.99775,7.99775,0,0,1-1.09213,4.20915,7.262,7.262,0,0,1-3.09924,2.80113,10.34474,10.34474,0,0,1-4.61447.98607A9.97848,9.97848,0,0,1,95.24864,285.772Z"/>
        <path class="cls-6" d="M117.08667,285.7892a7.45731,7.45731,0,0,1-3.117-2.90661,8.40993,8.40993,0,0,1-1.1099-4.349V262.2955a.42278.42278,0,0,1,.42309-.42309h3.24027a.42278.42278,0,0,1,.4231.42309v16.308a4.57071,4.57071,0,0,0,1.3031,3.38131,5.22165,5.22165,0,0,0,6.90364,0,4.57295,4.57295,0,0,0,1.30311-3.38131v-16.308a.4218.4218,0,0,1,.42309-.42309h3.24027a.42181.42181,0,0,1,.42252.42309v16.23806a8.51861,8.51861,0,0,1-1.09156,4.349,7.3433,7.3433,0,0,1-3.09981,2.90661,11.01113,11.01113,0,0,1-9.2639,0Z"/>
        <path class="cls-6" d="M148.82266,286.2123l-4.64944-10.14506a.22876.22876,0,0,0-.21155-.141h-4.22691a.15606.15606,0,0,0-.176.17658v10.00288a.42181.42181,0,0,1-.42252.4231h-3.24084a.42183.42183,0,0,1-.42252-.4231V262.2955a.42181.42181,0,0,1,.42252-.42309h9.68642a7.8565,7.8565,0,0,1,3.8044.89778,6.37744,6.37744,0,0,1,2.57124,2.53626,7.55781,7.55781,0,0,1,.91555,3.75166,6.81266,6.81266,0,0,1-1.25036,4.13805,6.46373,6.46373,0,0,1-3.469,2.378.11333.11333,0,0,0-.10606.07109.14758.14758,0,0,0,0,.13988l4.96647,10.25055a.53936.53936,0,0,1,.07052.211q0,.28207-.38755.28207h-3.38131A.498.498,0,0,1,148.82266,286.2123Zm-9.26391-20.641v7.00912a.15479.15479,0,0,0,.176.17543h5.2835a3.76256,3.76256,0,0,0,2.73-1.00327,3.52933,3.52933,0,0,0,1.03881-2.65895,3.58718,3.58718,0,0,0-1.03881-2.67729,3.72722,3.72722,0,0,0-2.73-1.02162h-5.2835A.1556.1556,0,0,0,139.55875,265.57132Z"/>
        <path class="cls-6" d="M173.63724,265.27091a.40811.40811,0,0,1-.29984.12383H161.32626a.1556.1556,0,0,0-.176.17658v6.586a.1556.1556,0,0,0,.176.17658h8.06629a.41987.41987,0,0,1,.42252.42194v2.6773a.42181.42181,0,0,1-.42252.42309h-8.06629a.15524.15524,0,0,0-.176.17543v6.79815a.1556.1556,0,0,0,.176.17658H173.3374a.42182.42182,0,0,1,.4231.42309v2.67615a.42183.42183,0,0,1-.4231.4231H157.48689a.42183.42183,0,0,1-.42252-.4231V262.2955a.42181.42181,0,0,1,.42252-.42309H173.3374a.42182.42182,0,0,1,.4231.42309v2.67615A.40575.40575,0,0,1,173.63724,265.27091Z"/>
      </g>
    </g>
  </g>
  <g id="For_PPT" data-name="For PPT">
    <rect class="cls-7" x="0.90545" y="-0.33355" width="216.50238" height="328.19975"/>
  </g>
</svg>
