<svg xmlns="http://www.w3.org/2000/svg" viewBox="0 0 225 271.22927">
  <defs>
    <style>
      .cls-1 {
        fill: #7baadb;
      }

      .cls-2 {
        fill: #4b78ba;
      }

      .cls-3 {
        opacity: 0.49;
      }

      .cls-4, .cls-5 {
        fill: none;
        stroke-miterlimit: 10;
        stroke-width: 1.47677px;
      }

      .cls-4 {
        stroke: #4b78ba;
      }

      .cls-5 {
        stroke: #5d98d1;
      }

      .cls-6 {
        fill: #1d4588;
      }
    </style>
  </defs>
  <g id="For_PPT" data-name="For PPT">
    <g>
      <g>
        <polygon class="cls-1" points="45.106 106.591 1.231 81.189 1.231 30.385 45.106 55.787 45.106 106.591"/>
        <polygon class="cls-1" points="45.106 55.787 1.231 30.385 45.106 4.983 88.982 30.385 45.106 55.787"/>
        <polygon class="cls-1" points="88.982 80.92 45.106 106.591 45.106 55.787 88.982 30.385 88.982 80.92"/>
        <polygon class="cls-2" points="45.106 83.59 21.773 70.081 21.773 43.063 45.106 56.572 45.106 83.59"/>
        <polygon class="cls-2" points="45.106 56.572 21.773 43.063 45.106 29.554 68.44 43.063 45.106 56.572"/>
        <polygon class="cls-2" points="68.44 69.938 45.106 83.59 45.106 56.572 68.44 43.063 68.44 69.938"/>
        <g class="cls-3">
          <polyline class="cls-4" points="1.231 30.385 45.106 56.572 45.106 106.591"/>
          <line class="cls-4" x1="88.9821" y1="30.38514" x2="45.10641" y2="56.57243"/>
        </g>
        <polygon class="cls-5" points="88.982 30.385 45.106 4.983 1.231 30.385 1.231 81.189 45.106 106.591 88.982 80.92 88.982 30.385"/>
      </g>
      <g>
        <polygon class="cls-1" points="179.894 105.63 136.018 80.228 136.018 29.424 179.894 54.826 179.894 105.63"/>
        <polygon class="cls-1" points="179.894 54.826 136.018 29.424 179.894 4.022 223.769 29.424 179.894 54.826"/>
        <polygon class="cls-1" points="223.769 79.959 179.894 105.63 179.894 54.826 223.769 29.424 223.769 79.959"/>
        <polygon class="cls-2" points="179.894 82.63 156.56 69.121 156.56 42.103 179.894 55.612 179.894 82.63"/>
        <polygon class="cls-2" points="179.894 55.612 156.56 42.102 179.894 28.593 203.227 42.103 179.894 55.612"/>
        <polygon class="cls-2" points="203.227 68.978 179.894 82.63 179.894 55.612 203.227 42.103 203.227 68.978"/>
        <g class="cls-3">
          <polyline class="cls-4" points="136.018 29.424 179.894 55.612 179.894 105.63"/>
          <line class="cls-4" x1="223.76942" y1="29.42431" x2="179.89373" y2="55.61159"/>
        </g>
        <polygon class="cls-5" points="223.769 29.424 179.894 4.022 136.018 29.424 136.018 80.228 179.894 105.63 223.769 79.959 223.769 29.424"/>
      </g>
      <g>
        <polygon class="cls-6" points="113.527 170.003 62.699 140.575 62.699 81.722 113.527 111.149 113.527 170.003"/>
        <polygon class="cls-6" points="113.527 111.149 62.699 81.721 113.527 52.295 164.355 81.722 113.527 111.149"/>
        <polygon class="cls-6" points="164.355 140.264 113.527 170.003 113.527 111.149 164.355 81.722 164.355 140.264"/>
        <polygon class="cls-2" points="113.527 143.357 86.496 127.708 86.496 96.409 113.527 112.058 113.527 143.357"/>
        <polygon class="cls-2" points="113.527 112.058 86.496 96.409 113.527 80.759 140.558 96.409 113.527 112.058"/>
        <polygon class="cls-2" points="140.558 127.542 113.527 143.357 113.527 112.058 140.558 96.409 140.558 127.542"/>
        <g class="cls-3">
          <polyline class="cls-4" points="62.699 81.722 113.527 112.058 113.527 170.003"/>
          <line class="cls-4" x1="164.35497" y1="81.72166" x2="113.52708" y2="112.05838"/>
        </g>
        <polygon class="cls-5" points="164.355 81.722 113.527 52.295 62.699 81.722 62.699 140.575 113.527 170.003 164.355 140.264 164.355 81.722"/>
      </g>
    </g>
    <g>
      <path class="cls-6" d="M74.93066,225.99014a5.52991,5.52991,0,0,1-2.417-1.89013,4.86727,4.86727,0,0,1-.85058-2.86182v-.67529a.32258.32258,0,0,1,.32421-.32373h2.40332a.321.321,0,0,1,.32325.32373v.51318a2.48379,2.48379,0,0,0,1.10742,2.06543,4.96271,4.96271,0,0,0,3.02441.82373,3.782,3.782,0,0,0,2.4834-.70215A2.25344,2.25344,0,0,0,82.166,221.454a1.88583,1.88583,0,0,0-.459-1.28223,4.28531,4.28531,0,0,0-1.30957-.95849q-.84961-.43214-2.55078-1.08008A26.54607,26.54607,0,0,1,74.74121,216.81a5.77957,5.77957,0,0,1-1.98437-1.6875,4.31783,4.31783,0,0,1-.79688-2.65918,4.54056,4.54056,0,0,1,1.72852-3.75293,7.19315,7.19315,0,0,1,4.61718-1.37744,8.60592,8.60592,0,0,1,3.57715.70215,5.70449,5.70449,0,0,1,2.416,1.95752,4.99368,4.99368,0,0,1,.86426,2.90234v.459a.32341.32341,0,0,1-.32422.32422H82.40918a.32341.32341,0,0,1-.32422-.32422V213.057a2.71065,2.71065,0,0,0-1.03906-2.14649,4.32638,4.32638,0,0,0-2.876-.87744,3.766,3.766,0,0,0-2.30859.6211,2.06961,2.06961,0,0,0-.82324,1.75488,1.98383,1.98383,0,0,0,.43261,1.32324,3.86958,3.86958,0,0,0,1.2959.93115q.8628.41895,2.67285,1.06641a30.70615,30.70615,0,0,1,3.06446,1.32324,5.89788,5.89788,0,0,1,1.9707,1.66065,4.22261,4.22261,0,0,1,.82324,2.65918,4.68075,4.68075,0,0,1-1.79492,3.86132,7.655,7.655,0,0,1-4.90039,1.43067A9.21213,9.21213,0,0,1,74.93066,225.99014Z"/>
      <path class="cls-6" d="M99.90527,219.51016l-.02734.83692a.28614.28614,0,0,1-.32324.32422H91.10352a.11873.11873,0,0,0-.13477.13476,3.87206,3.87206,0,0,0,.24219,1.21485q.64892,1.94457,3.15918,1.97119a3.40239,3.40239,0,0,0,2.916-1.51221.31772.31772,0,0,1,.27051-.16162.25786.25786,0,0,1,.18848.081l1.67383,1.377a.287.287,0,0,1,.08105.43164,5.512,5.512,0,0,1-2.22754,1.83642,7.23217,7.23217,0,0,1-3.09082.648,6.4825,6.4825,0,0,1-3.57812-.94531,5.43449,5.43449,0,0,1-2.14649-2.646,10.61344,10.61344,0,0,1-.62109-4.0498,8.21428,8.21428,0,0,1,.32422-2.53809,5.41853,5.41853,0,0,1,2.03906-2.98339,5.94722,5.94722,0,0,1,3.60449-1.09375q5.31885,0,5.99317,5.562A9.59708,9.59708,0,0,1,99.90527,219.51016Zm-7.76269-3.87451a2.64141,2.64141,0,0,0-.93164,1.39063,4.71818,4.71818,0,0,0-.21582,1.188c-.03614.09033,0,.13476.1084.13476H96.584a.11961.11961,0,0,0,.13575-.13476,5.23676,5.23676,0,0,0-.16211-1.02637,2.6224,2.6224,0,0,0-.959-1.51172,2.89491,2.89491,0,0,0-1.79492-.54A2.67807,2.67807,0,0,0,92.14258,215.63565Z"/>
      <path class="cls-6" d="M104.92676,225.59854a5.537,5.537,0,0,1-2.10645-2.87549,12.1725,12.1725,0,0,1,0-6.42578,5.25007,5.25007,0,0,1,2.09278-2.82177,6.24926,6.24926,0,0,1,3.60449-1.03955,6.42161,6.42161,0,0,1,3.67187,1.05322,4.8032,4.8032,0,0,1,2.26856,3.50976v.0542a.31047.31047,0,0,1-.29688.32422l-2.43066.35059h-.05371a.32453.32453,0,0,1-.32422-.27.71837.71837,0,0,0-.02637-.21582c-.03711-.144-.07226-.27-.1084-.37793a2.33632,2.33632,0,0,0-.97168-1.24219,3.04663,3.04663,0,0,0-1.72851-.48584,2.85351,2.85351,0,0,0-1.74121.52637,2.53839,2.53839,0,0,0-.959,1.44482,8.41632,8.41632,0,0,0-.26953,2.40283,9.66746,9.66746,0,0,0,.24317,2.40284,2.83821,2.83821,0,0,0,.97168,1.49853,2.74514,2.74514,0,0,0,1.75488.55371,2.97876,2.97876,0,0,0,1.76855-.52685,2.367,2.367,0,0,0,.959-1.41748.304.304,0,0,0,.02636-.13477.11112.11112,0,0,0,.02735-.08105q.08057-.32373.37793-.27l2.42969.37793a.438.438,0,0,1,.22949.12158.2745.2745,0,0,1,.06738.25635q-.08056.43285-.13477.62109a4.81185,4.81185,0,0,1-2.0791,2.74072,6.61265,6.61265,0,0,1-3.67187,1.01221A6.06575,6.06575,0,0,1,104.92676,225.59854Z"/>
      <path class="cls-6" d="M125.35254,212.74649a.312.312,0,0,1,.22949-.09424h2.457a.321.321,0,0,1,.32324.32373v13.14893a.32178.32178,0,0,1-.32324.32422h-2.457a.32343.32343,0,0,1-.32422-.32422v-.86377a.1098.1098,0,0,0-.05371-.10791c-.03711-.01758-.07226,0-.1084.05371a3.93754,3.93754,0,0,1-3.32129,1.43115,5.11193,5.11193,0,0,1-3.44238-1.188,4.19693,4.19693,0,0,1-1.39062-3.375V212.976a.32258.32258,0,0,1,.32421-.32373H119.75a.321.321,0,0,1,.32324.32373v8.208a2.96258,2.96258,0,0,0,.66211,2.0249,2.32464,2.32464,0,0,0,1.84961.75635,2.57277,2.57277,0,0,0,1.94336-.75635,2.79148,2.79148,0,0,0,.72949-2.0249v-8.208A.31181.31181,0,0,1,125.35254,212.74649Z"/>
      <path class="cls-6" d="M139.64844,212.84122a.33634.33634,0,0,1,.16211.40478l-.459,2.43018c-.01855.21582-.14453.2793-.3789.189a2.99224,2.99224,0,0,0-.94434-.13525,4.0571,4.0571,0,0,0-.54.02734,2.79267,2.79267,0,0,0-1.89062.79639,2.58715,2.58715,0,0,0-.75586,1.93066v7.64063a.32178.32178,0,0,1-.32325.32422h-2.48437a.32343.32343,0,0,1-.32422-.32422V212.976a.3226.3226,0,0,1,.32422-.32373h2.48437a.321.321,0,0,1,.32325.32373v1.21534c0,.07177.01367.1123.041.12109.02637.00928.05762-.01318.09473-.06738a3.56448,3.56448,0,0,1,3.1582-1.75489A3.1318,3.1318,0,0,1,139.64844,212.84122Z"/>
      <path class="cls-6" d="M153.33691,219.51016l-.02734.83692a.28614.28614,0,0,1-.32324.32422h-8.45117a.11873.11873,0,0,0-.13477.13476,3.87206,3.87206,0,0,0,.24219,1.21485q.64893,1.94457,3.15918,1.97119a3.40239,3.40239,0,0,0,2.916-1.51221.31772.31772,0,0,1,.27051-.16162.25786.25786,0,0,1,.18848.081l1.67383,1.377a.287.287,0,0,1,.081.43164,5.512,5.512,0,0,1-2.22754,1.83642,7.23217,7.23217,0,0,1-3.09082.648,6.4825,6.4825,0,0,1-3.57812-.94531,5.43449,5.43449,0,0,1-2.14649-2.646,10.61344,10.61344,0,0,1-.62109-4.0498,8.21428,8.21428,0,0,1,.32422-2.53809,5.41853,5.41853,0,0,1,2.03906-2.98339,5.94722,5.94722,0,0,1,3.60449-1.09375q5.31885,0,5.99317,5.562A9.59708,9.59708,0,0,1,153.33691,219.51016Zm-7.76269-3.87451a2.64147,2.64147,0,0,0-.93164,1.39063,4.71818,4.71818,0,0,0-.21582,1.188c-.03614.09033,0,.13476.1084.13476h5.48046a.11961.11961,0,0,0,.13575-.13476,5.23676,5.23676,0,0,0-.16211-1.02637,2.6224,2.6224,0,0,0-.959-1.51172,2.89491,2.89491,0,0,0-1.79492-.54A2.67807,2.67807,0,0,0,145.57422,215.63565Z"/>
    </g>
  </g>
</svg>
