<svg width="100%" height="100%" viewBox="0 0 970 568" fill="none" xmlns="http://www.w3.org/2000/svg"><path d="M969.5 262.1h-24.8c0-102-82.8-184.7-184.8-184.7-99.2 0-180.1 78.2-184.5 176.3.3 5.2.4 10.5.4 15.9 0 2.2 0 4.5-.1 6.7a298.568 298.568 0 0 1-10.5 72.5c-34.7 126.3-150.4 219.1-287.8 219.1-125.6 0-233-77.5-277-187.3h33.1C75.7 473.1 169 537.5 277.4 537.5c148 0 267.9-120 267.9-268 0-7.4.4-7.4.4-7.4a202.518 202.518 0 0 1 16.8-80.8c33-75.6 110.3-128.8 197.4-128.8 115.8 0 209.6 93.8 209.6 209.6Z" fill="url(#a)"/><path d="M277.4 511.1c132.99 0 240.8-107.81 240.8-240.8S410.39 29.5 277.4 29.5c-132.991 0-240.8 107.81-240.8 240.8s107.809 240.8 240.8 240.8Z" fill="url(#b)" stroke="#1E4688" stroke-width="2" stroke-miterlimit="10"/><path d="M760.9 425.3c89.857 0 162.7-72.843 162.7-162.7 0-89.857-72.843-162.7-162.7-162.7-89.857 0-162.7 72.843-162.7 162.7 0 89.857 72.843 162.7 162.7 162.7Z" fill="url(#c)" stroke="#1E4688" stroke-width="2" stroke-miterlimit="10"/><path d="M760.9 447.3c102.007 0 184.7-82.693 184.7-184.7 0-102.007-82.693-184.7-184.7-184.7-102.007 0-184.7 82.693-184.7 184.7 0 102.007 82.693 184.7 184.7 184.7Z" stroke="#1E4688" stroke-width="2.27" stroke-miterlimit="10"/><path d="M155.7 220.2h23.4v4.7h-17.8v9.6h16.4v4.7h-16.4v9.8h17.8v4.8h-23.4v-33.6Zm36.4 4.7H182v-4.7h25.7v4.7h-10.1v28.9h-5.5v-28.9Zm19.9-4.7h5.6v14.4h15.3v-14.4h5.5v33.6h-5.5v-14.4h-15.3v14.4H212v-33.6Zm33.2 0h23.4v4.7h-17.9v9.6h16.5v4.7h-16.5v9.8h17.9v4.8h-23.4v-33.6Zm54.2 22.7v10.9h-5.6v-9.5l-3.4-3.8h-11v13.3h-5.5v-33.6h20.4l4.9 4.9v10.3l-3.5 3.5 3.7 4Zm-20-7h12.4l1.9-1.9v-7.2l-1.9-1.9h-12.4v11Zm26.5-15.7h23.4v4.7h-17.8v9.6h16.4v4.7h-16.4v9.8h17.8v4.8h-23.4v-33.6Zm28.7 28v-28h5.6v26.1l2.7 2.7h9.9l2.7-2.7v-26.1h5.6v28l-5.6 5.6h-15.3l-5.6-5.6Zm33.2-28h5.3l10.3 23.1h.1l10.3-23.1h5.3v33.6h-5.3v-22.5h-.1l-8.4 18.2h-3.7l-8.4-18.2h-.1v22.5h-5.3v-33.6Zm-220.9 57.6h5.4l10.2 23.1h.1l10.3-23.1h5.4v33.6H173v-22.5h-.1l-8.5 18.2h-3.6l-8.4-18.2h-.1v22.5h-5.4v-33.6Zm47.4 0h5.3l12.1 33.6h-5.6l-2.9-8h-12.5l-2.9 8h-5.7l12.2-33.6Zm7.6 21-4.9-14.3h-.1l-4.9 14.3h9.9Zm13.9-21h5.6v33.6h-5.6v-33.6Zm12.5 0h5.1l15.9 24.4h.1v-24.4h5.3v33.6h-5.1L233.8 287h-.1v24.4h-5.4v-33.6Zm45.3 28.2v-22.8l5.4-5.4h15.7l5.4 5.3v4.4h-5.6v-2.4l-2.6-2.5h-10l-2.8 2.7v18.6l2.8 2.7h10l2.6-2.5v-2.5h5.6v4.5l-5.4 5.3H279l-5.4-5.4Zm31.5-28.2h5.6v14.4h15.2v-14.4h5.6v33.6h-5.6V297h-15.2v14.4h-5.6v-33.6Zm42.4 0h5.3l12.1 33.6h-5.6l-2.9-8h-12.5l-2.9 8h-5.7l12.2-33.6Zm7.6 21-4.9-14.3h-.1l-4.9 14.3h9.9Zm13.9-21h5.6v33.6H369v-33.6Zm12.6 0h5l15.9 24.4h.1v-24.4h5.3v33.6h-5.1L387 287h-.1v24.4h-5.3v-33.6Z" fill="#1D4588"/><path d="M277.4 538.5c148.123 0 268.2-120.077 268.2-268.2S425.523 2.1 277.4 2.1 9.2 122.177 9.2 270.3s120.077 268.2 268.2 268.2Z" stroke="#1E4688" stroke-width="2.23" stroke-miterlimit="10"/><path d="M701.7 252.7v-17.1l4.1-4h11.8l4 4v3.3h-4.2v-1.8l-1.9-1.9h-7.6l-2 2v14l2 2h7.6l1.9-1.9v-1.8h4.2v3.3l-4 4h-11.8l-4.1-4.1Zm23.3 0v-17.1l4.1-4h12.4l4.1 4v17.1l-4.1 4.1h-12.4l-4.1-4.1Zm14.4.5 2-2v-14l-2-2h-8.2l-2 2v14l2 2h8.2Zm10.9-21.6h3.8l11.9 18.3v-18.3h4v25.2h-3.8l-11.9-18.3v18.3h-4v-25.2Zm24.8 21v-21h4.2v19.6l2 2h7.4l2.1-2v-19.6h4.2v21l-4.3 4.2h-11.4l-4.2-4.2Zm24.9-21h3.8l11.9 18.3h.1v-18.3h4v25.2h-3.9l-11.8-18.3h-.1v18.3h-4v-25.2Zm-133.7 64.7v-3.2h4.1v1.9l1.4 1.4h7.8l1.5-1.5v-4.6l-1.4-1.4h-9.6l-3.7-3.7v-6.7l3.7-3.7h11.1l3.7 3.7v3.2h-4.1v-2l-1.4-1.3h-7.5l-1.4 1.3v4.2l1.4 1.4h9.6l3.7 3.7v7.2l-3.8 3.8H670l-3.7-3.7Zm23.4-21.5h4.2V300h-4.2v-25.2Zm9.4 0h15.6l4.2 4.2v16.8l-4.2 4.2h-15.6v-25.2Zm13.6 21.6 2-2v-14l-2-2h-9.4v18h9.4Zm10.9-21.6h17.5v3.5h-13.4v7.2h12.4v3.6h-12.4v7.3h13.4v3.6h-17.5v-25.2Zm30.6 21.1v-17.1l4.1-4h11.8l4 4v3.3h-4.2v-1.8l-1.9-1.9h-7.6l-2 2v14l2 2h7.6l1.9-1.9v-1.8h4.2v3.3l-4 4h-11.8l-4.1-4.1Zm23.7-21.1h4.1v10.8h11.5v-10.8h4.2V300h-4.2v-10.8H782V300h-4.1v-25.2Zm31.8 0h3.9l9.1 25.2h-4.2l-2.2-6h-9.4l-2.1 6h-4.3l9.2-25.2Zm5.7 15.7-3.7-10.6h-.1l-3.7 10.6h7.5Zm10.4-15.7h4.2V300h-4.2v-25.2Zm9.4 0h3.8l11.9 18.3h.1v-18.3h4V300h-3.9l-11.8-18.3h-.1V300h-4v-25.2Z" fill="#1D4588"/><defs><radialGradient id="a" cx="0" cy="0" r="1" gradientUnits="userSpaceOnUse" gradientTransform="translate(484.95 310.22) scale(388.11)"><stop offset=".39" stop-color="#3562AE"/><stop offset="1" stop-color="#fff" stop-opacity="0"/></radialGradient><radialGradient id="b" cx="0" cy="0" r="1" gradientUnits="userSpaceOnUse" gradientTransform="translate(277.42 270.34) scale(240.85)"><stop stop-color="#fff"/><stop offset="1" stop-color="#7BAADB"/></radialGradient><radialGradient id="c" cx="0" cy="0" r="1" gradientUnits="userSpaceOnUse" gradientTransform="translate(760.92 262.63) scale(162.73)"><stop stop-color="#fff"/><stop offset="1" stop-color="#70C9BE"/></radialGradient></defs></svg>