<svg id="Layer_1" data-name="Layer 1" xmlns="http://www.w3.org/2000/svg" viewBox="0 0 1233.4 602.4"><defs><radialGradient id="radial-gradient" cx="508.95" cy="341.22" r="388.11" gradientUnits="userSpaceOnUse"><stop offset=".39" stop-color="#3562ae"/><stop offset="1" stop-color="#fff" stop-opacity="0"/></radialGradient><radialGradient id="radial-gradient-2" cx="301.42" cy="301.34" r="240.85" gradientUnits="userSpaceOnUse"><stop offset="0" stop-color="#fff"/><stop offset="1" stop-color="#7baadb"/></radialGradient><radialGradient id="radial-gradient-3" cx="784.92" cy="293.63" r="162.73" gradientUnits="userSpaceOnUse"><stop offset="0" stop-color="#fff"/><stop offset="1" stop-color="#70c9be"/></radialGradient><style>.cls-6{fill:#1d4588}</style></defs><path d="M993.5 293.1h-24.8c0-102-82.8-184.7-184.8-184.7-99.2 0-180.1 78.2-184.5 176.3.3 5.2.4 10.5.4 15.9 0 2.2 0 4.5-.1 6.7a298.6 298.6 0 0 1-10.5 72.5c-34.7 126.3-150.4 219.1-287.8 219.1-125.6 0-233-77.5-277-187.3h33.1C99.7 504.1 193 568.5 301.4 568.5c148 0 267.9-120 267.9-268 0-7.4.4-7.4.4-7.4a202.5 202.5 0 0 1 16.8-80.8c33-75.6 110.3-128.8 197.4-128.8 115.8 0 209.6 93.8 209.6 209.6Z" style="fill:url(#radial-gradient)"/><circle cx="301.4" cy="301.3" r="240.8" style="fill:url(#radial-gradient-2);stroke-width:2px;stroke:#1e4688;stroke-miterlimit:10"/><circle cx="784.9" cy="293.6" r="162.7" style="fill:url(#radial-gradient-3);stroke-width:2px;stroke:#1e4688;stroke-miterlimit:10"/><circle cx="784.9" cy="293.6" r="184.7" style="stroke-width:2.27px;fill:none;stroke:#1e4688;stroke-miterlimit:10"/><path class="cls-6" d="M179.7 251.2h23.4v4.7h-17.8v9.6h16.4v4.7h-16.4v9.8h17.8v4.8h-23.4ZM216.1 255.9H206v-4.7h25.7v4.7h-10.1v28.9h-5.5ZM236 251.2h5.6v14.4h15.3v-14.4h5.5v33.6h-5.5v-14.4h-15.3v14.4H236ZM269.2 251.2h23.4v4.7h-17.9v9.6h16.5v4.7h-16.5v9.8h17.9v4.8h-23.4ZM323.4 273.9v10.9h-5.6v-9.5l-3.4-3.8h-11v13.3h-5.5v-33.6h20.4l4.9 4.9v10.3l-3.5 3.5Zm-20-7h12.4l1.9-1.9v-7.2l-1.9-1.9h-12.4ZM329.9 251.2h23.4v4.7h-17.8v9.6h16.4v4.7h-16.4v9.8h17.8v4.8h-23.4ZM358.6 279.2v-28h5.6v26.1l2.7 2.7h9.9l2.7-2.7v-26.1h5.6v28l-5.6 5.6h-15.3ZM391.8 251.2h5.3l10.3 23.1h.1l10.3-23.1h5.3v33.6h-5.3v-22.5h-.1l-8.4 18.2h-3.7l-8.4-18.2h-.1v22.5h-5.3ZM170.9 308.8h5.4l10.2 23.1h.1l10.3-23.1h5.4v33.6H197v-22.5h-.1l-8.5 18.2h-3.6l-8.4-18.2h-.1v22.5h-5.4ZM218.3 308.8h5.3l12.1 33.6h-5.6l-2.9-8h-12.5l-2.9 8h-5.7Zm7.6 21-4.9-14.3h-.1l-4.9 14.3ZM239.8 308.8h5.6v33.6h-5.6ZM252.3 308.8h5.1l15.9 24.4h.1v-24.4h5.3v33.6h-5.1L257.8 318h-.1v24.4h-5.4ZM297.6 337v-22.8l5.4-5.4h15.7l5.4 5.3v4.4h-5.6v-2.4l-2.6-2.5h-10l-2.8 2.7v18.6l2.8 2.7h10l2.6-2.5v-2.5h5.6v4.5l-5.4 5.3H303ZM329.1 308.8h5.6v14.4h15.2v-14.4h5.6v33.6h-5.6V328h-15.2v14.4h-5.6ZM371.5 308.8h5.3l12.1 33.6h-5.6l-2.9-8h-12.5l-2.9 8h-5.7Zm7.6 21-4.9-14.3h-.1l-4.9 14.3ZM393 308.8h5.6v33.6H393ZM405.6 308.8h5l15.9 24.4h.1v-24.4h5.3v33.6h-5.1L411 318h-.1v24.4h-5.3Z"/><circle cx="301.4" cy="301.3" r="268.2" style="stroke-width:2.23px;fill:none;stroke:#1e4688;stroke-miterlimit:10"/><g><path class="cls-6" d="M725.7 283.7v-17.1l4.1-4h11.8l4 4v3.3h-4.2v-1.8l-1.9-1.9h-7.6l-2 2v14l2 2h7.6l1.9-1.9v-1.8h4.2v3.3l-4 4h-11.8ZM749 283.7v-17.1l4.1-4h12.4l4.1 4v17.1l-4.1 4.1h-12.4Zm14.4.5 2-2v-14l-2-2h-8.2l-2 2v14l2 2ZM774.3 262.6h3.8l11.9 18.3v-18.3h4v25.2h-3.8l-11.9-18.3v18.3h-4ZM799.1 283.6v-21h4.2v19.6l2 2h7.4l2.1-2v-19.6h4.2v21l-4.3 4.2h-11.4ZM824 262.6h3.8l11.9 18.3h.1v-18.3h4v25.2h-3.9l-11.8-18.3h-.1v18.3h-4ZM690.3 327.3v-3.2h4.1v1.9l1.4 1.4h7.8l1.5-1.5v-4.6l-1.4-1.4h-9.6l-3.7-3.7v-6.7l3.7-3.7h11.1l3.7 3.7v3.2h-4.1v-2l-1.4-1.3h-7.5l-1.4 1.3v4.2l1.4 1.4h9.6l3.7 3.7v7.2l-3.8 3.8H694ZM713.7 305.8h4.2V331h-4.2ZM723.1 305.8h15.6l4.2 4.2v16.8l-4.2 4.2h-15.6Zm13.6 21.6 2-2v-14l-2-2h-9.4v18ZM747.6 305.8h17.5v3.5h-13.4v7.2h12.4v3.6h-12.4v7.3h13.4v3.6h-17.5ZM778.2 326.9v-17.1l4.1-4h11.8l4 4v3.3h-4.2v-1.8l-1.9-1.9h-7.6l-2 2v14l2 2h7.6l1.9-1.9v-1.8h4.2v3.3l-4 4h-11.8ZM801.9 305.8h4.1v10.8h11.5v-10.8h4.2V331h-4.2v-10.8H806V331h-4.1ZM833.7 305.8h3.9l9.1 25.2h-4.2l-2.2-6h-9.4l-2.1 6h-4.3Zm5.7 15.7-3.7-10.6h-.1l-3.7 10.6ZM849.8 305.8h4.2V331h-4.2ZM859.2 305.8h3.8l11.9 18.3h.1v-18.3h4V331h-3.9l-11.8-18.3h-.1V331h-4Z"/></g><g><path class="cls-6" d="M1056.8 165.3h15.2l3.5 3.5v7l-1.5 1.6 2.6 2.6v6.7l-3.7 3.8h-16.1Zm13.1 10.8 1.5-1.5v-4.3l-1.4-1.5h-9.2v7.3Zm.9 10.9 1.7-1.8v-4l-1.7-1.7h-10v7.5ZM1080.6 165.3h17.6v3.5h-13.4v7.2h12.3v3.6h-12.3v7.3h13.4v3.6h-17.6ZM1102.1 165.3h3.8l11.9 18.3h.1v-18.3h4v25.2h-3.8l-11.9-18.3h-.1v18.3h-4ZM1126.9 165.3h17.6v3.5h-13.4v7.2h12.3v3.6h-12.3v7.3h13.4v3.6h-17.6ZM1148.5 165.3h17.2v3.5h-13.1v7.8h11.3v3.5h-11.3v10.4h-4.1ZM1169.1 165.3h4.2v25.2h-4.2ZM1184.2 168.8h-7.5v-3.5h19.3v3.5h-7.6v21.7h-4.2ZM1197.8 186.8v-3.2h4.1v1.9l1.3 1.4h7.9l1.4-1.5v-4.6l-1.4-1.4h-9.5l-3.8-3.7V169l3.8-3.7h11l3.7 3.7v3.2h-4.1v-1.9l-1.4-1.4h-7.4l-1.5 1.4v4.1l1.5 1.4h9.5l3.7 3.7v7.2l-3.7 3.8h-11.4ZM1080.8 238.2v-17l.2-.2h1.3c.2 0 .3.1.3.2v17a.3.3 0 0 1-.3.3h-1.3c-.1 0-.2-.1-.2-.3ZM1102.7 226.8a4.3 4.3 0 0 1 1 3.1v8.3c0 .2 0 .3-.2.3h-1.3c-.1 0-.2-.1-.2-.3v-8a3.3 3.3 0 0 0-.8-2.2 2.8 2.8 0 0 0-2-.8 3.3 3.3 0 0 0-2.2.8 3.1 3.1 0 0 0-.8 2.2v8a.3.3 0 0 1-.3.3h-1.2a.3.3 0 0 1-.3-.3v-8a2.6 2.6 0 0 0-2.8-3 2.9 2.9 0 0 0-2.1.8 2.7 2.7 0 0 0-.8 2.2v8a.3.3 0 0 1-.3.3h-1.2a.3.3 0 0 1-.3-.3v-12.1a.3.3 0 0 1 .3-.3h1.2a.3.3 0 0 1 .3.3v1h.1a3.8 3.8 0 0 1 1.4-1.1 5.8 5.8 0 0 1 1.9-.3 4.3 4.3 0 0 1 2.3.5 2.8 2.8 0 0 1 1.3 1.5c.1.1.1.1.2 0a3.1 3.1 0 0 1 1.5-1.5 4.6 4.6 0 0 1 2.3-.5 4 4 0 0 1 3 1.1ZM1123.3 226.8a3.9 3.9 0 0 1 1.1 3.1v8.3c0 .2-.1.3-.2.3h-1.3c-.1 0-.2-.1-.2-.3v-8a3.3 3.3 0 0 0-.8-2.2 3.2 3.2 0 0 0-4.2 0 2.7 2.7 0 0 0-.8 2.2v8a.3.3 0 0 1-.3.3h-1.2a.3.3 0 0 1-.3-.3v-8a3.3 3.3 0 0 0-.8-2.2 2.9 2.9 0 0 0-2.1-.8 3.2 3.2 0 0 0-2.1.8 3.1 3.1 0 0 0-.7 2.2v8a.3.3 0 0 1-.3.3h-1.3c-.1 0-.2-.1-.2-.3v-12.1c0-.2.1-.3.2-.3h1.3a.3.3 0 0 1 .3.3v1h.1a3.1 3.1 0 0 1 1.4-1.1 5.8 5.8 0 0 1 1.9-.3 3.8 3.8 0 0 1 2.2.5 2.9 2.9 0 0 1 1.4 1.5c.1.1.1.1.1 0a3.3 3.3 0 0 1 1.6-1.5 4.3 4.3 0 0 1 2.3-.5 3.6 3.6 0 0 1 2.9 1.1ZM1136.2 225.8h1.2a.3.3 0 0 1 .3.3v12.1a.3.3 0 0 1-.3.3h-1.2a.3.3 0 0 1-.3-.3v-1h-.1a3.9 3.9 0 0 1-3.4 1.6 5.9 5.9 0 0 1-2.2-.5 5.4 5.4 0 0 1-1.6-1.4 4.4 4.4 0 0 1-.6-2.3v-8.4a.3.3 0 0 1 .3-.3h1.3c.1 0 .2.1.2.3v7.8a3.4 3.4 0 0 0 .8 2.3 3.3 3.3 0 0 0 2.2.8 2.8 2.8 0 0 0 3.1-3.1v-7.9a.3.3 0 0 1 .3-.3ZM1147.1 227.3h-3v7.4a2.2 2.2 0 0 0 .6 1.7 2.5 2.5 0 0 0 1.7.5h.6c.2 0 .2 0 .2.2v1c0 .2 0 .3-.2.3h-.9a4.7 4.7 0 0 1-2.8-.7 2.9 2.9 0 0 1-.9-2.5v-7.9h-1.6c-.2 0-.3-.1-.3-.2v-1a.3.3 0 0 1 .3-.3h1.5c.1 0 .1 0 .1-.1v-2.9c0-.1.1-.2.3-.2h1.2c.2 0 .2.1.2.2v2.9a.1.1 0 0 0 .1.1h2.9c.1 0 .2.1.2.3v1a.2.2 0 0 1-.2.2ZM1158.6 226.8a3.9 3.9 0 0 1 1.2 3v8.4c0 .2-.1.3-.2.3h-1.3a.3.3 0 0 1-.3-.3v-1h-.1a3.8 3.8 0 0 1-1.6 1.1 5.4 5.4 0 0 1-2.2.4 4.9 4.9 0 0 1-3-.9 3.2 3.2 0 0 1-1.2-2.8 3.6 3.6 0 0 1 1.4-2.9 5.3 5.3 0 0 1 3.7-1.1h3v-1a2.7 2.7 0 0 0-.7-2 2.8 2.8 0 0 0-2.2-.7 3.6 3.6 0 0 0-1.9.4 3.1 3.1 0 0 0-1 1.3.3.3 0 0 1-.3.3l-1.3-.2c-.2-.1-.3-.1-.2-.2a3 3 0 0 1 1.5-2.3 5.3 5.3 0 0 1 3.2-.9 4.8 4.8 0 0 1 3.5 1.1Zm-1.6 9.6a2.2 2.2 0 0 0 1-2v-1.9h-2.7a4 4 0 0 0-2.6.7 1.9 1.9 0 0 0-1 1.8 1.9 1.9 0 0 0 .7 1.7 3.2 3.2 0 0 0 2 .6 4.5 4.5 0 0 0 2.6-.9ZM1173.5 232.2a12.4 12.4 0 0 1-.3 3.1 4.5 4.5 0 0 1-1.7 2.5 4.4 4.4 0 0 1-2.9.9 5.3 5.3 0 0 1-1.8-.4 4.1 4.1 0 0 1-1.4-1.2h-.1v1a.3.3 0 0 1-.3.3h-1.2a.3.3 0 0 1-.3-.3v-17c0-.1.1-.2.3-.2h1.2c.2 0 .3.1.3.2v5.9h.1a4.1 4.1 0 0 1 1.4-1.2 5.3 5.3 0 0 1 1.8-.4 4.9 4.9 0 0 1 3 .9 5 5 0 0 1 1.6 2.6 11.9 11.9 0 0 1 .3 3.3Zm-1.8 1.8c0-.4.1-1.1.1-1.8a9.5 9.5 0 0 0-.2-2 5.6 5.6 0 0 0-.4-1.2 2.8 2.8 0 0 0-1.1-1.3 2.3 2.3 0 0 0-1.7-.5 2.8 2.8 0 0 0-1.6.5 2.4 2.4 0 0 0-1 1.4 3.4 3.4 0 0 0-.4 1.2c0 .4-.1 1-.1 1.9s.1 1.4.1 1.8a3.4 3.4 0 0 0 .4 1.2 2.4 2.4 0 0 0 1 1.4 2.2 2.2 0 0 0 1.6.5 3 3 0 0 0 1.9-.5 2.4 2.4 0 0 0 1-1.4 5.6 5.6 0 0 0 .4-1.2ZM1177.2 238.2v-17a.2.2 0 0 1 .2-.2h1.3c.2 0 .2.1.2.2v17c0 .2 0 .3-.2.3h-1.3c-.1 0-.2-.1-.2-.3ZM1192.7 231.8v.8l-.2.2h-8.2c0 .9.1 1.5.1 1.8a3.2 3.2 0 0 0 1.2 1.8 4.1 4.1 0 0 0 2.3.6 2.9 2.9 0 0 0 3.1-1.8c.1-.1.2-.2.4-.1l.9.6c.2.1.2.2.1.3a4.1 4.1 0 0 1-1.8 1.9 5.7 5.7 0 0 1-2.9.7 5.6 5.6 0 0 1-3-.8 4.8 4.8 0 0 1-1.7-2.3 10.4 10.4 0 0 1-.5-3.5c0-.7.1-1.3.1-1.7a5 5 0 0 1 .2-1.2 4.6 4.6 0 0 1 1.7-2.6 5.2 5.2 0 0 1 3.1-1 4.8 4.8 0 0 1 3.5 1.2 5.1 5.1 0 0 1 1.5 3.2 9.7 9.7 0 0 1 .1 1.9Zm-7.1-4a2.8 2.8 0 0 0-1.1 1.7 6.5 6.5 0 0 0-.2 1.7c0 .1 0 .1.1.1h6.5a.1.1 0 0 0 .1-.1c-.1-.7-.1-1.3-.2-1.6a3.4 3.4 0 0 0-1.1-1.8 3.5 3.5 0 0 0-2.1-.6 3.2 3.2 0 0 0-2 .6ZM1085.6 286.3l-1-3.2h-7.7l-1 3.2-.3.2h-1.4c-.2 0-.2-.1-.2-.3l5.6-17c0-.2.1-.2.3-.2h1.7c.1 0 .2 0 .3.2l5.5 17c0 .1 0 .2-.2.2h-1.3c-.2.1-.3 0-.3-.1Zm-8.2-4.7h6.6l-3.2-10.2a.1.1 0 1 0-.2 0l-3.2 10.2ZM1098.7 274.8a4.4 4.4 0 0 1 1.2 3.2v8.2c0 .2-.1.3-.2.3h-1.3c-.2 0-.2-.1-.2-.3v-7.9a2.9 2.9 0 0 0-.9-2.2 2.7 2.7 0 0 0-2.1-.9 3 3 0 0 0-2.3.9 3.1 3.1 0 0 0-.8 2.2v7.9a.3.3 0 0 1-.3.3h-1.2a.3.3 0 0 1-.3-.3v-12.1a.3.3 0 0 1 .3-.3h1.2a.3.3 0 0 1 .3.3v1.1h.1a3.8 3.8 0 0 1 3.4-1.5 4.1 4.1 0 0 1 3.1 1.1ZM1105.3 285.8a6.1 6.1 0 0 1-1.8-2.6 13 13 0 0 1-.3-3.1 11.5 11.5 0 0 1 .3-3 4.2 4.2 0 0 1 1.8-2.5 4.8 4.8 0 0 1 3.1-1 4.6 4.6 0 0 1 3.1 1 4.2 4.2 0 0 1 1.8 2.5 11.5 11.5 0 0 1 .3 3 11.9 11.9 0 0 1-.3 3.1 4.8 4.8 0 0 1-1.8 2.6 5.2 5.2 0 0 1-3.1.9 5.4 5.4 0 0 1-3.1-.9Zm5.2-1.3a4.2 4.2 0 0 0 1.1-1.8 8.5 8.5 0 0 0 .3-2.5 16.1 16.1 0 0 0-.2-2.6 4.4 4.4 0 0 0-1.2-1.8 4 4 0 0 0-4.2 0 4.2 4.2 0 0 0-1.1 1.8 9.4 9.4 0 0 0-.2 2.6 8.6 8.6 0 0 0 .2 2.5 3.4 3.4 0 0 0 1.1 1.8 4 4 0 0 0 4.2 0ZM1125.7 274.8a4.4 4.4 0 0 1 1.2 3.2v8.2a.3.3 0 0 1-.3.3h-1.3c-.1 0-.2-.1-.2-.3v-7.9a2.9 2.9 0 0 0-.9-2.2 2.6 2.6 0 0 0-2.1-.9 3.1 3.1 0 0 0-3.1 3.1v7.9c0 .2-.1.3-.2.3h-1.3a.3.3 0 0 1-.3-.3v-12.1a.3.3 0 0 1 .3-.3h1.3c.1 0 .2.1.2.3v1.1h.1a3.9 3.9 0 0 1 3.4-1.5 4.3 4.3 0 0 1 3.2 1.1ZM1129.7 291.2v-1c0-.1.1-.2.3-.2h.1a3.3 3.3 0 0 0 1.5-.3 2.2 2.2 0 0 0 .9-1 10.9 10.9 0 0 0 .9-2.1v-.2l-4.3-12.3a.2.2 0 0 1 .2-.2h1.4a.2.2 0 0 1 .2.2l3.3 10.1h.2l3.2-10.1c0-.1.1-.2.3-.2h1.3c.1 0 .2.1.2.3l-4.7 13.5a22.2 22.2 0 0 1-1.1 2.5 2.8 2.8 0 0 1-1.3 1.1 6.5 6.5 0 0 1-2.2.3h-.2c-.1-.1-.2-.2-.2-.4ZM1157.8 274.8a4.3 4.3 0 0 1 1.1 3.1v8.3a.3.3 0 0 1-.3.3h-1.2a.3.3 0 0 1-.3-.3v-8a3.3 3.3 0 0 0-.8-2.2 2.8 2.8 0 0 0-2-.8 3.3 3.3 0 0 0-2.2.8 3.1 3.1 0 0 0-.8 2.2v8c0 .2-.1.3-.2.3h-1.3a.3.3 0 0 1-.3-.3v-8a2.6 2.6 0 0 0-2.8-3 2.9 2.9 0 0 0-2.1.8 2.7 2.7 0 0 0-.8 2.2v8a.3.3 0 0 1-.3.3h-1.2a.3.3 0 0 1-.3-.3v-12.1a.3.3 0 0 1 .3-.3h1.2a.3.3 0 0 1 .3.3v1h.1a3.8 3.8 0 0 1 1.4-1.1 5.8 5.8 0 0 1 1.9-.3 4.3 4.3 0 0 1 2.3.5 3.4 3.4 0 0 1 1.4 1.5c0 .1 0 .1.1 0a3.1 3.1 0 0 1 1.5-1.5 4.6 4.6 0 0 1 2.3-.5 3.9 3.9 0 0 1 3 1.1ZM1164.2 285.8a6.1 6.1 0 0 1-1.8-2.6 13 13 0 0 1-.3-3.1 11.5 11.5 0 0 1 .3-3 4.2 4.2 0 0 1 1.8-2.5 4.9 4.9 0 0 1 3.2-1 4.5 4.5 0 0 1 3 1 4.2 4.2 0 0 1 1.8 2.5 11.5 11.5 0 0 1 .3 3 11.9 11.9 0 0 1-.3 3.1 4.8 4.8 0 0 1-1.8 2.6 5.2 5.2 0 0 1-3.1.9 5.4 5.4 0 0 1-3.1-.9Zm5.2-1.3a4.2 4.2 0 0 0 1.1-1.8 8.5 8.5 0 0 0 .3-2.5 16.1 16.1 0 0 0-.2-2.6 3.6 3.6 0 0 0-1.2-1.8 4 4 0 0 0-4.2 0 4.2 4.2 0 0 0-1.1 1.8 9.4 9.4 0 0 0-.2 2.6 8.6 8.6 0 0 0 .2 2.5 3.4 3.4 0 0 0 1.1 1.8 4 4 0 0 0 4.2 0ZM1184 273.8h1.3a.3.3 0 0 1 .3.3v12.1a.3.3 0 0 1-.3.3h-1.3c-.1 0-.2-.1-.2-.3v-1h-.1a4 4 0 0 1-3.4 1.6 5.4 5.4 0 0 1-2.2-.5 3.8 3.8 0 0 1-2.2-3.7v-8.4a.3.3 0 0 1 .3-.3h1.3c.1 0 .2.1.2.3v7.8a3.4 3.4 0 0 0 .8 2.3 3.4 3.4 0 0 0 4.4 0 3.2 3.2 0 0 0 .9-2.3v-7.9c0-.2.1-.3.2-.3ZM1191.2 286.2a4.3 4.3 0 0 1-1.7-1.2 2.7 2.7 0 0 1-.6-1.7v-.3a.3.3 0 0 1 .3-.3h1.2c.1 0 .2.1.2.3v.2a1.7 1.7 0 0 0 .9 1.4 3.8 3.8 0 0 0 2.2.6 3.2 3.2 0 0 0 2-.6 1.5 1.5 0 0 0 .9-1.4 1.4 1.4 0 0 0-.5-1.1l-.9-.6-1.8-.6a10.2 10.2 0 0 1-2.3-.8 3.3 3.3 0 0 1-1.5-1.1 2.8 2.8 0 0 1-.6-1.8 2.9 2.9 0 0 1 1.2-2.5 5.3 5.3 0 0 1 3.4-1 6 6 0 0 1 2.4.5 4 4 0 0 1 1.6 1.2 2.8 2.8 0 0 1 .6 1.8.3.3 0 0 1-.3.3h-1.1a.3.3 0 0 1-.3-.3 1.7 1.7 0 0 0-.8-1.5 3.6 3.6 0 0 0-2.2-.5 3.1 3.1 0 0 0-2 .5 1.6 1.6 0 0 0-.8 1.4 1.5 1.5 0 0 0 .7 1.3 10.2 10.2 0 0 0 2.4.9l2.3.8a4.2 4.2 0 0 1 1.6 1.1 2.6 2.6 0 0 1 .6 1.8 3.1 3.1 0 0 1-1.2 2.6 5.3 5.3 0 0 1-3.4 1 6.2 6.2 0 0 1-2.5-.4ZM1101 333.4a4.1 4.1 0 0 1-1.7-3.4v-.8c0-.1.1-.2.3-.2h1.2c.2 0 .3.1.3.2v.7a2.5 2.5 0 0 0 1.1 2.3 5.9 5.9 0 0 0 3.4.9 4.2 4.2 0 0 0 2.9-.8 2.4 2.4 0 0 0 1-2.1 2.5 2.5 0 0 0-.5-1.5 2.8 2.8 0 0 0-1.4-1.2 17.2 17.2 0 0 0-2.7-1.3l-2.9-1.3a5 5 0 0 1-1.7-1.5 3.6 3.6 0 0 1-.6-2.2 4.2 4.2 0 0 1 1.4-3.3 6.9 6.9 0 0 1 4.1-1.1 6.3 6.3 0 0 1 4.3 1.3 4 4 0 0 1 1.6 3.4v.6l-.2.2h-1.3l-.2-.2v-.5a2.8 2.8 0 0 0-1.2-2.3 4.3 4.3 0 0 0-3.1-1 4.1 4.1 0 0 0-2.7.8 2.2 2.2 0 0 0-1 2.1 2 2 0 0 0 .5 1.4 3.6 3.6 0 0 0 1.3 1.1l2.7 1.1 2.9 1.4a6.9 6.9 0 0 1 1.8 1.6 4.2 4.2 0 0 1 .7 2.3 3.8 3.8 0 0 1-1.6 3.3 6.1 6.1 0 0 1-4.3 1.3 6.6 6.6 0 0 1-4.4-1.3ZM1124.4 327.8v.8l-.2.2h-8.2a6.2 6.2 0 0 0 .2 1.8 2.7 2.7 0 0 0 1.1 1.8 4.1 4.1 0 0 0 2.3.6 2.9 2.9 0 0 0 3.1-1.8c.1-.1.2-.2.4-.1l.9.6c.2.1.2.2.2.3a5 5 0 0 1-1.9 1.9 5.7 5.7 0 0 1-2.9.7 5.6 5.6 0 0 1-3-.8 4.8 4.8 0 0 1-1.7-2.3 10.4 10.4 0 0 1-.5-3.5c0-.7.1-1.3.1-1.7a5 5 0 0 1 .2-1.2 4.6 4.6 0 0 1 1.7-2.6 5.2 5.2 0 0 1 3.1-1 4.8 4.8 0 0 1 3.5 1.2 5.1 5.1 0 0 1 1.5 3.2 9.7 9.7 0 0 1 .1 1.9Zm-7.1-4a2.8 2.8 0 0 0-1.1 1.7 6.5 6.5 0 0 0-.2 1.7c0 .1 0 .1.1.1h6.5a.1.1 0 0 0 .1-.1c-.1-.7-.1-1.3-.2-1.6a3.4 3.4 0 0 0-1.1-1.8 3.3 3.3 0 0 0-2.1-.6 3.2 3.2 0 0 0-2 .6ZM1129.6 333.7a4.5 4.5 0 0 1-1.7-2.5 11.7 11.7 0 0 1-.4-3.1 12.1 12.1 0 0 1 .4-3 4.5 4.5 0 0 1 1.7-2.5 4.8 4.8 0 0 1 3.1-1 5.1 5.1 0 0 1 3.2 1 3.6 3.6 0 0 1 1.7 2.3 2.5 2.5 0 0 1 .2.7c0 .1-.1.1-.3.2l-1.2.2h-.1c-.1 0-.1-.1-.2-.3v-.3a3 3 0 0 0-1-1.7 3.8 3.8 0 0 0-2.2-.6 3.7 3.7 0 0 0-2.1.6 4.2 4.2 0 0 0-1.1 1.8 15.7 15.7 0 0 0-.2 2.5 16.1 16.1 0 0 0 .2 2.6 4.2 4.2 0 0 0 1.1 1.8 4 4 0 0 0 4.2 0 2.5 2.5 0 0 0 1.1-1.6h.1c0-.2.1-.3.3-.2l1.2.2c.2 0 .2.1.2.2v.5a3.7 3.7 0 0 1-1.7 2.4 5.7 5.7 0 0 1-3.2.9 4.8 4.8 0 0 1-3.3-1.1ZM1148.9 321.8h1.2a.3.3 0 0 1 .3.3v12.1a.3.3 0 0 1-.3.3h-1.2a.3.3 0 0 1-.3-.3v-1h-.1a3.8 3.8 0 0 1-3.3 1.6 5.9 5.9 0 0 1-2.3-.5 5.4 5.4 0 0 1-1.6-1.4 4.4 4.4 0 0 1-.6-2.3v-8.4a.3.3 0 0 1 .3-.3h1.3c.1 0 .2.1.2.3v7.8a3.4 3.4 0 0 0 .8 2.3 3.3 3.3 0 0 0 2.2.8 2.8 2.8 0 0 0 3.1-3.1v-7.9a.3.3 0 0 1 .3-.3ZM1160.9 322c.1.1.2.2.1.4l-.3 1.2c0 .1-.1.2-.3.1h-1.3a2.7 2.7 0 0 0-2.1.9 3.4 3.4 0 0 0-.9 2.4v7.3c0 .2-.1.3-.2.3h-1.3a.3.3 0 0 1-.3-.3v-12.2a.3.3 0 0 1 .3-.3h1.3c.1 0 .2.1.2.3v1.5h.1a4.1 4.1 0 0 1 1.4-1.5 3.5 3.5 0 0 1 1.8-.5 3.3 3.3 0 0 1 1.5.4ZM1173.1 327.8v.8l-.2.2h-8.2c0 .9.1 1.5.1 1.8a3.2 3.2 0 0 0 1.2 1.8 4.1 4.1 0 0 0 2.3.6 2.9 2.9 0 0 0 3.1-1.8c.1-.1.2-.2.4-.1l.9.6c.2.1.2.2.1.3a4.1 4.1 0 0 1-1.8 1.9 5.7 5.7 0 0 1-2.9.7 5.6 5.6 0 0 1-3-.8 4.8 4.8 0 0 1-1.7-2.3 10.4 10.4 0 0 1-.5-3.5c0-.7.1-1.3.1-1.7a5 5 0 0 1 .2-1.2 4.6 4.6 0 0 1 1.7-2.6 5.2 5.2 0 0 1 3.1-1 4.8 4.8 0 0 1 3.5 1.2 5.1 5.1 0 0 1 1.5 3.2 9.7 9.7 0 0 1 .1 1.9Zm-7.1-4a2.8 2.8 0 0 0-1.1 1.7 6.5 6.5 0 0 0-.2 1.7c0 .1 0 .1.1.1h6.5a.1.1 0 0 0 .1-.1c-.1-.7-.1-1.3-.2-1.6a3.4 3.4 0 0 0-1.1-1.8 3.5 3.5 0 0 0-2.1-.6 3.2 3.2 0 0 0-2 .6ZM1075.3 382.3l-3.7-7.7a.1.1 0 0 0-.1-.1h-4.3a.1.1 0 0 0-.1.1v7.6c0 .2-.1.3-.2.3h-1.3c-.2 0-.2-.1-.2-.3v-17c0-.1 0-.2.2-.2h6.5a4.8 4.8 0 0 1 3.5 1.3 5.2 5.2 0 0 1 1.3 3.5 4.4 4.4 0 0 1-1 3 4.7 4.7 0 0 1-2.5 1.6c-.1 0-.1 0-.1.1l3.8 7.7a.2.2 0 0 1-.2.2h-1.3c-.2.1-.3 0-.3-.1Zm-8.2-15.7v6.4h4.8a3.2 3.2 0 0 0 2.3-.9 3.2 3.2 0 0 0 .9-2.4 3.4 3.4 0 0 0-.9-2.4 3.2 3.2 0 0 0-2.3-.9h-4.8ZM1090 375.8v.8a.2.2 0 0 1-.2.2h-8.2a6.2 6.2 0 0 0 .2 1.8 2.7 2.7 0 0 0 1.1 1.8 4.1 4.1 0 0 0 2.3.6 2.9 2.9 0 0 0 3.1-1.8c.1-.1.2-.2.4-.1l1 .6a.4.4 0 0 1 .1.3 5 5 0 0 1-1.9 1.9 5.7 5.7 0 0 1-2.9.7 4.5 4.5 0 0 1-4.7-3.1 10.8 10.8 0 0 1-.4-3.5v-1.7a5 5 0 0 1 .2-1.2 4.6 4.6 0 0 1 1.7-2.6 5.2 5.2 0 0 1 3.1-1 4.8 4.8 0 0 1 3.5 1.2 5.1 5.1 0 0 1 1.5 3.2 9.7 9.7 0 0 1 .1 1.9Zm-7.1-4a2.8 2.8 0 0 0-1.1 1.7 6.5 6.5 0 0 0-.2 1.7c0 .1 0 .1.1.1h6.5a.1.1 0 0 0 .1-.1c-.1-.7-.1-1.3-.2-1.6a3.4 3.4 0 0 0-1.1-1.8 3.3 3.3 0 0 0-2.1-.6 3.2 3.2 0 0 0-2 .6ZM1101.7 365h1.2c.2 0 .3.1.3.2v17a.3.3 0 0 1-.3.3h-1.2a.3.3 0 0 1-.3-.3v-1h-.1a5.3 5.3 0 0 1-1.4 1.1 4.8 4.8 0 0 1-1.8.4 4.6 4.6 0 0 1-2.9-.9 4.5 4.5 0 0 1-1.7-2.5 12.4 12.4 0 0 1-.3-3.1 11.4 11.4 0 0 1 .3-3.1 5 5 0 0 1 1.6-2.6 4.9 4.9 0 0 1 3-.9 4.8 4.8 0 0 1 1.8.4 3.8 3.8 0 0 1 1.4 1.1h.1v-5.9c0-.1.1-.2.3-.2Zm-.4 13c0-.4.1-1 .1-1.8s-.1-1.5-.1-1.9a3.4 3.4 0 0 0-.4-1.2 2.4 2.4 0 0 0-1-1.4 2.8 2.8 0 0 0-1.6-.5 2.5 2.5 0 0 0-1.7.5 2.8 2.8 0 0 0-1.1 1.3 5.6 5.6 0 0 0-.4 1.2 10.9 10.9 0 0 0-.1 2 9.2 9.2 0 0 0 .1 1.8 2.7 2.7 0 0 0 .3 1.2 2.6 2.6 0 0 0 1.1 1.4 2.7 2.7 0 0 0 1.8.5 2.6 2.6 0 0 0 1.7-.5 3.9 3.9 0 0 0 1-1.4 10.4 10.4 0 0 0 .3-1.2ZM1115.1 369.8h1.3c.1 0 .2.1.2.3v12.1c0 .2-.1.3-.2.3h-1.3c-.2 0-.2-.1-.2-.3v-1h-.2a3.8 3.8 0 0 1-3.3 1.6 5.4 5.4 0 0 1-2.2-.5 3.8 3.8 0 0 1-2.2-3.7v-8.4c0-.2.1-.3.2-.3h1.3a.3.3 0 0 1 .3.3v7.8a3 3 0 0 0 .8 2.3 2.9 2.9 0 0 0 2.1.8 2.9 2.9 0 0 0 3.2-3.1v-7.9c0-.2 0-.3.2-.3ZM1122.3 381.7a4.2 4.2 0 0 1-1.8-2.5 12.4 12.4 0 0 1-.3-3.1 12.6 12.6 0 0 1 .3-3 4.2 4.2 0 0 1 1.8-2.5 4.6 4.6 0 0 1 3.1-1 4.8 4.8 0 0 1 3.1 1 4.1 4.1 0 0 1 1.8 2.3 2 2 0 0 1 .1.7c0 .1-.1.1-.2.2l-1.3.2c-.1 0-.2-.1-.2-.3v-.3a3.2 3.2 0 0 0-1.1-1.7 3.7 3.7 0 0 0-2.1-.6 3.3 3.3 0 0 0-2.1.6 3.4 3.4 0 0 0-1.1 1.8 9 9 0 0 0-.2 2.5 9.4 9.4 0 0 0 .2 2.6 3.4 3.4 0 0 0 1.1 1.8 3.3 3.3 0 0 0 2.1.6 3.7 3.7 0 0 0 2.1-.6 2.9 2.9 0 0 0 1.1-1.6c0-.2.1-.3.3-.2l1.2.2c.2 0 .3.1.3.2v.5a4.3 4.3 0 0 1-1.8 2.4 5.4 5.4 0 0 1-3.1.9 4.6 4.6 0 0 1-3.3-1.1ZM1143.3 375.8v.8a.2.2 0 0 1-.2.2h-8.2a6.2 6.2 0 0 0 .2 1.8 2.7 2.7 0 0 0 1.1 1.8 4.1 4.1 0 0 0 2.3.6 2.9 2.9 0 0 0 3.1-1.8c.1-.1.2-.2.4-.1l.9.6c.2.1.2.2.2.3a5 5 0 0 1-1.9 1.9 5.7 5.7 0 0 1-2.9.7 5.6 5.6 0 0 1-3-.8 4.8 4.8 0 0 1-1.7-2.3 10.8 10.8 0 0 1-.4-3.5v-1.7a5 5 0 0 1 .2-1.2 4.6 4.6 0 0 1 1.7-2.6 5.2 5.2 0 0 1 3.1-1 4.8 4.8 0 0 1 3.5 1.2 5.1 5.1 0 0 1 1.5 3.2 9.7 9.7 0 0 1 .1 1.9Zm-7.1-4a2.8 2.8 0 0 0-1.1 1.7 6.5 6.5 0 0 0-.2 1.7c0 .1 0 .1.1.1h6.5a.1.1 0 0 0 .1-.1c-.1-.7-.1-1.3-.2-1.6a3.4 3.4 0 0 0-1.1-1.8 3.3 3.3 0 0 0-2.1-.6 3.2 3.2 0 0 0-2 .6ZM1154.9 365h1.3c.2 0 .3.1.3.2v17a.3.3 0 0 1-.3.3h-1.3c-.1 0-.2-.1-.2-.3v-1h-.1a5.3 5.3 0 0 1-1.4 1.1 4.8 4.8 0 0 1-1.8.4 4.6 4.6 0 0 1-2.9-.9 4.5 4.5 0 0 1-1.7-2.5 12.4 12.4 0 0 1-.3-3.1 11.4 11.4 0 0 1 .3-3.1 5 5 0 0 1 1.6-2.6 4.9 4.9 0 0 1 3-.9 4.8 4.8 0 0 1 1.8.4 3.8 3.8 0 0 1 1.4 1.1h.1v-5.9a.2.2 0 0 1 .2-.2Zm-.3 13c0-.4.1-1 .1-1.8s-.1-1.5-.1-1.9a3.4 3.4 0 0 0-.4-1.2 2.4 2.4 0 0 0-1-1.4 2.8 2.8 0 0 0-1.6-.5 2.5 2.5 0 0 0-1.7.5 2.8 2.8 0 0 0-1.1 1.3 5.6 5.6 0 0 0-.4 1.2 10.9 10.9 0 0 0-.1 2 9.2 9.2 0 0 0 .1 1.8 2.7 2.7 0 0 0 .3 1.2 2.6 2.6 0 0 0 1.1 1.4 2.7 2.7 0 0 0 1.8.5 2.6 2.6 0 0 0 1.7-.5 3.9 3.9 0 0 0 1-1.4 10.4 10.4 0 0 0 .3-1.2ZM1168.6 367.1a3.8 3.8 0 0 0-.5 2.1v.5a.1.1 0 0 0 .1.1h2.8a.3.3 0 0 1 .3.3v1.1a.3.3 0 0 1-.3.3h-2.8a.1.1 0 0 0-.1.1v10.6c0 .2-.1.3-.2.3h-1.3c-.1 0-.2-.1-.2-.3v-10.6a.1.1 0 0 0-.1-.1h-1.7a.3.3 0 0 1-.3-.3v-1.1a.3.3 0 0 1 .3-.3h1.7a.1.1 0 0 0 .1-.1v-.6a7.8 7.8 0 0 1 .3-2.4 3 3 0 0 1 1.2-1.3 5.5 5.5 0 0 1 2.4-.4h.8a.2.2 0 0 1 .2.2v1.1a.2.2 0 0 1-.2.2h-.6a2.5 2.5 0 0 0-1.9.6ZM1183 375.8v.8a.2.2 0 0 1-.2.2h-8.2c0 .9.1 1.5.1 1.8a3.2 3.2 0 0 0 1.2 1.8 4.1 4.1 0 0 0 2.3.6 2.9 2.9 0 0 0 3.1-1.8c.1-.1.2-.2.4-.1l.9.6c.2.1.2.2.1.3a4.1 4.1 0 0 1-1.8 1.9 5.7 5.7 0 0 1-2.9.7 5.6 5.6 0 0 1-3-.8 4.8 4.8 0 0 1-1.7-2.3 10.4 10.4 0 0 1-.5-3.5c0-.7.1-1.3.1-1.7a5 5 0 0 1 .2-1.2 4.6 4.6 0 0 1 1.7-2.6 5.2 5.2 0 0 1 3.1-1 4.8 4.8 0 0 1 3.5 1.2 5.1 5.1 0 0 1 1.5 3.2 9.7 9.7 0 0 1 .1 1.9Zm-7.1-4a2.8 2.8 0 0 0-1.1 1.7 6.5 6.5 0 0 0-.2 1.7c0 .1 0 .1.1.1h6.5a.1.1 0 0 0 .1-.1c-.1-.7-.1-1.3-.2-1.6a3.4 3.4 0 0 0-1.1-1.8 3.5 3.5 0 0 0-2.1-.6 3.2 3.2 0 0 0-2 .6ZM1196.3 375.8v.8c0 .1 0 .2-.2.2h-8.2a15.5 15.5 0 0 0 .2 1.8 3.1 3.1 0 0 0 1.1 1.8 4.1 4.1 0 0 0 2.3.6 3.8 3.8 0 0 0 1.9-.4 4.1 4.1 0 0 0 1.2-1.4c.1-.1.3-.2.4-.1l1 .6a.4.4 0 0 1 .1.3 4.4 4.4 0 0 1-1.9 1.9 5.4 5.4 0 0 1-2.9.7 4.5 4.5 0 0 1-4.7-3.1 10.8 10.8 0 0 1-.4-3.5v-1.7a5 5 0 0 1 .2-1.2 5.2 5.2 0 0 1 1.7-2.6 5.5 5.5 0 0 1 3.1-1 4.8 4.8 0 0 1 3.5 1.2 5.1 5.1 0 0 1 1.5 3.2 9.7 9.7 0 0 1 .1 1.9Zm-7.1-4a2.8 2.8 0 0 0-1.1 1.7c-.1.4-.1.9-.2 1.7a.1.1 0 0 0 .1.1h6.5c.1 0 .1 0 .1-.1a5.7 5.7 0 0 0-.2-1.6 2.9 2.9 0 0 0-1.1-1.8 3.3 3.3 0 0 0-2.1-.6 3.2 3.2 0 0 0-2 .6ZM1201.3 382.2a4.3 4.3 0 0 1-1.7-1.2 2.6 2.6 0 0 1-.5-1.7v-.3c0-.2 0-.3.2-.3h1.2c.2 0 .2.1.2.3v.2a1.7 1.7 0 0 0 .9 1.4 3.8 3.8 0 0 0 2.2.6 3.7 3.7 0 0 0 2.1-.6 1.6 1.6 0 0 0 .8-1.4 1.8 1.8 0 0 0-.4-1.1l-1-.6-1.7-.6a11.2 11.2 0 0 1-2.4-.8 3.9 3.9 0 0 1-1.5-1.1 3 3 0 0 1 .7-4.3 4.8 4.8 0 0 1 3.3-1 6 6 0 0 1 2.4.5 3.4 3.4 0 0 1 1.6 1.2 2.8 2.8 0 0 1 .6 1.8c0 .2-.1.3-.2.3h-1.2c-.2 0-.2-.1-.2-.3a1.8 1.8 0 0 0-.9-1.5 4.7 4.7 0 0 0-4.2 0 1.6 1.6 0 0 0-.8 1.4 1.6 1.6 0 0 0 .8 1.3 11 11 0 0 0 2.3.9 11.8 11.8 0 0 1 2.3.8 3.1 3.1 0 0 1 1.6 1.1 2.6 2.6 0 0 1 .6 1.8 3.1 3.1 0 0 1-1.2 2.6 5.3 5.3 0 0 1-3.4 1 6.6 6.6 0 0 1-2.5-.4ZM1053.4 430.3l-3.7-7.7a.1.1 0 0 0-.1-.1h-4.3a.1.1 0 0 0-.1.1v7.6c0 .2-.1.3-.2.3h-1.3c-.2 0-.2-.1-.2-.3v-17c0-.1 0-.2.2-.2h6.5a4.8 4.8 0 0 1 3.5 1.3 5.2 5.2 0 0 1 1.3 3.5 4.4 4.4 0 0 1-1 3 4.7 4.7 0 0 1-2.5 1.6c-.1 0-.1 0-.1.1l3.8 7.7-.2.2h-1.3c-.2.1-.3 0-.3-.1Zm-8.2-15.7v6.4h4.8a3.2 3.2 0 0 0 2.3-.9 3.2 3.2 0 0 0 .9-2.4 3.4 3.4 0 0 0-.9-2.4 3.2 3.2 0 0 0-2.3-.9h-4.8ZM1066.3 417.8h1.3c.1 0 .2.1.2.3v12.1c0 .2-.1.3-.2.3h-1.3c-.2 0-.2-.1-.2-.3v-1h-.2a3.8 3.8 0 0 1-3.3 1.6 5.4 5.4 0 0 1-2.2-.5 3.8 3.8 0 0 1-2.2-3.7v-8.4a.3.3 0 0 1 .3-.3h1.2a.3.3 0 0 1 .3.3v7.8a2.8 2.8 0 0 0 3 3.1 3.1 3.1 0 0 0 2.2-.8 3.2 3.2 0 0 0 .9-2.3v-7.9c0-.2 0-.3.2-.3ZM1071.8 430.2v-17c0-.1.1-.2.3-.2h1.2c.2 0 .3.1.3.2v17a.3.3 0 0 1-.3.3h-1.2a.3.3 0 0 1-.3-.3ZM1087.4 423.8v.8c0 .1-.1.2-.3.2h-8.2a15.5 15.5 0 0 0 .2 1.8 3.2 3.2 0 0 0 1.2 1.8 3.9 3.9 0 0 0 2.3.6 3.4 3.4 0 0 0 1.8-.4 4.4 4.4 0 0 0 1.3-1.4c.1-.1.2-.2.3-.1l1 .6a.4.4 0 0 1 .1.3 4.4 4.4 0 0 1-1.9 1.9 5.4 5.4 0 0 1-2.9.7 5.2 5.2 0 0 1-2.9-.8 5.8 5.8 0 0 1-1.8-2.3 10.8 10.8 0 0 1-.4-3.5v-1.7a5 5 0 0 1 .2-1.2 5.2 5.2 0 0 1 1.7-2.6 5.5 5.5 0 0 1 3.1-1 4.8 4.8 0 0 1 3.5 1.2 5.2 5.2 0 0 1 1.6 3.2c0 .6.1 1.2.1 1.9Zm-7.2-4a2.8 2.8 0 0 0-1.1 1.7c-.1.4-.1.9-.2 1.7a.1.1 0 0 0 .1.1h6.5c.1 0 .1 0 .1-.1s-.1-1.3-.1-1.6a3.6 3.6 0 0 0-1.2-1.8 3.3 3.3 0 0 0-2.1-.6 3.2 3.2 0 0 0-2 .6ZM1111.6 418.8a3.9 3.9 0 0 1 1.1 3.1v8.3c0 .2-.1.3-.2.3h-1.3c-.1 0-.2-.1-.2-.3v-8a3.3 3.3 0 0 0-.8-2.2 3.2 3.2 0 0 0-4.2 0 2.7 2.7 0 0 0-.8 2.2v8a.3.3 0 0 1-.3.3h-1.2a.3.3 0 0 1-.3-.3v-8a3.3 3.3 0 0 0-.8-2.2 2.8 2.8 0 0 0-2-.8 3.3 3.3 0 0 0-2.2.8 3.1 3.1 0 0 0-.7 2.2v8a.3.3 0 0 1-.3.3h-1.3c-.1 0-.2-.1-.2-.3v-12.1c0-.2.1-.3.2-.3h1.3a.3.3 0 0 1 .3.3v1h.1a3.1 3.1 0 0 1 1.4-1.1 5.8 5.8 0 0 1 1.9-.3 3.8 3.8 0 0 1 2.2.5 2.9 2.9 0 0 1 1.4 1.5c.1.1.1.1.2 0a2.8 2.8 0 0 1 1.5-1.5 4.3 4.3 0 0 1 2.3-.5 3.6 3.6 0 0 1 2.9 1.1ZM1118.1 429.8a4.8 4.8 0 0 1-1.8-2.6 13 13 0 0 1-.3-3.1 11.5 11.5 0 0 1 .3-3 4.2 4.2 0 0 1 1.8-2.5 4.6 4.6 0 0 1 3.1-1 4.8 4.8 0 0 1 3.1 1 5.2 5.2 0 0 1 1.8 2.5 11.5 11.5 0 0 1 .3 3 11.9 11.9 0 0 1-.3 3.1 6.1 6.1 0 0 1-1.8 2.6 5.8 5.8 0 0 1-6.2 0Zm5.2-1.3a4.2 4.2 0 0 0 1.1-1.8 9 9 0 0 0 .2-2.5 9.4 9.4 0 0 0-.2-2.6 4.2 4.2 0 0 0-1.1-1.8 4 4 0 0 0-4.2 0 3.4 3.4 0 0 0-1.1 1.8 9.4 9.4 0 0 0-.2 2.6 8.6 8.6 0 0 0 .2 2.5 2.9 2.9 0 0 0 1.1 1.8 4 4 0 0 0 4.2 0ZM1138.1 413h1.3a.2.2 0 0 1 .2.2v17c0 .2-.1.3-.2.3h-1.3c-.2 0-.2-.1-.2-.3v-1h-.2a4.7 4.7 0 0 1-1.3 1.1 5.8 5.8 0 0 1-1.8.4 4.9 4.9 0 0 1-3-.9 4.4 4.4 0 0 1-1.6-2.5 8.6 8.6 0 0 1-.4-3.1 11.4 11.4 0 0 1 .3-3.1 5.2 5.2 0 0 1 1.7-2.6 4.9 4.9 0 0 1 3-.9 5.8 5.8 0 0 1 1.8.4 3.5 3.5 0 0 1 1.3 1.1h.2v-5.9c0-.1 0-.2.2-.2Zm-.4 13a8.7 8.7 0 0 0 .1-1.8 9.8 9.8 0 0 0-.1-1.9 3.5 3.5 0 0 0-.3-1.2 3 3 0 0 0-1-1.4 3 3 0 0 0-1.6-.5 2.7 2.7 0 0 0-1.8.5 2.6 2.6 0 0 0-1 1.3 6.1 6.1 0 0 0-.5 1.2 10.9 10.9 0 0 0-.1 2 9.2 9.2 0 0 0 .1 1.8 5.6 5.6 0 0 0 .4 1.2 2.4 2.4 0 0 0 1 1.4 2.7 2.7 0 0 0 1.8.5 2.3 2.3 0 0 0 1.7-.5 2.4 2.4 0 0 0 1-1.4 2.1 2.1 0 0 0 .3-1.2ZM1143.9 415.1a1.2 1.2 0 0 1-.5-1 1.4 1.4 0 0 1 .5-1 1.3 1.3 0 0 1 1-.4 2.1 2.1 0 0 1 1 .4 1.7 1.7 0 0 1 .3 1 1.5 1.5 0 0 1-.3 1 1.4 1.4 0 0 1-1 .4 1.1 1.1 0 0 1-1-.4Zm0 15.1v-12.1a.3.3 0 0 1 .3-.3h1.2a.3.3 0 0 1 .3.3v12.1a.3.3 0 0 1-.3.3h-1.2a.3.3 0 0 1-.3-.3ZM1153.2 415.1a3.1 3.1 0 0 0-.5 2.1v.5h2.9c.1 0 .2.1.2.3v1.1c0 .2-.1.3-.2.3h-2.9V430a.3.3 0 0 1-.3.3h-1.2a.3.3 0 0 1-.3-.3v-10.4c0-.1 0-.1-.1-.1h-1.7c-.1 0-.2-.1-.2-.3v-1.1c0-.2.1-.3.2-.3h1.7c.1 0 .1 0 .1-.1v-.6a7.8 7.8 0 0 1 .3-2.4 2.7 2.7 0 0 1 1.3-1.3 4.9 4.9 0 0 1 2.4-.4h.7c.2 0 .3.1.3.2v1.1c0 .1-.1.2-.3.2h-.6a2.2 2.2 0 0 0-1.8.6Zm5.9 0a1.5 1.5 0 0 1-.4-1 1.4 1.4 0 0 1 1.4-1.4 1.5 1.5 0 0 1 1 .4 1.3 1.3 0 0 1 .4 1 1.4 1.4 0 0 1-1.4 1.4 1.3 1.3 0 0 1-1-.4Zm.1 15.1v-12.1c0-.2.1-.3.2-.3h1.3c.2 0 .2.1.2.3v12.1c0 .2 0 .3-.2.3h-1.3c-.1 0-.2-.1-.2-.3ZM1167 429.7a5.2 5.2 0 0 1-1.8-2.5 12.4 12.4 0 0 1-.3-3.1 12.6 12.6 0 0 1 .3-3 4.2 4.2 0 0 1 1.8-2.5 4.8 4.8 0 0 1 3.1-1 5.1 5.1 0 0 1 3.2 1 3.9 3.9 0 0 1 1.7 2.3 6.4 6.4 0 0 0 .2.7c0 .1-.1.1-.3.2l-1.2.2h-.1c-.1 0-.2-.1-.2-.3v-.3a2.7 2.7 0 0 0-1.1-1.7 4 4 0 0 0-4.2 0 4.2 4.2 0 0 0-1.1 1.8 15.7 15.7 0 0 0-.2 2.5 16.1 16.1 0 0 0 .2 2.6 4.2 4.2 0 0 0 1.1 1.8 4 4 0 0 0 4.2 0 2.5 2.5 0 0 0 1.1-1.6h.1c0-.2.1-.3.3-.2l1.2.2.2.2v.5a4.1 4.1 0 0 1-1.7 2.4 5.7 5.7 0 0 1-3.2.9 4.8 4.8 0 0 1-3.3-1.1ZM1186.2 418.8a3.9 3.9 0 0 1 1.2 3v8.4c0 .2-.1.3-.2.3h-1.3a.3.3 0 0 1-.3-.3v-1h-.1a4.6 4.6 0 0 1-1.6 1.1 5.4 5.4 0 0 1-2.2.4 4.9 4.9 0 0 1-3-.9 3.2 3.2 0 0 1-1.2-2.8 3.5 3.5 0 0 1 1.3-2.9 5.6 5.6 0 0 1 3.8-1.1h2.9a.1.1 0 0 0 .1-.1v-1a2.7 2.7 0 0 0-.7-2 2.9 2.9 0 0 0-2.2-.7 4 4 0 0 0-2 .4 2.2 2.2 0 0 0-.9 1.3.3.3 0 0 1-.3.3l-1.3-.2-.3-.2a3.6 3.6 0 0 1 1.5-2.3 5.8 5.8 0 0 1 3.3-.9 4.8 4.8 0 0 1 3.5 1.2Zm-1.7 9.6a2.1 2.1 0 0 0 1.1-2v-1.9c0-.1 0-.1-.1-.1h-2.6a4.5 4.5 0 0 0-2.7.7 2.1 2.1 0 0 0-1 1.8 2 2 0 0 0 .8 1.7 3.2 3.2 0 0 0 2 .6 4.1 4.1 0 0 0 2.5-.8ZM1196.4 419.3h-2.9v7.4a2.6 2.6 0 0 0 .5 1.7 2.9 2.9 0 0 0 1.7.5h.6c.2 0 .3 0 .3.2v1a.3.3 0 0 1-.3.3h-.9a4.1 4.1 0 0 1-2.7-.7 2.9 2.9 0 0 1-.9-2.5v-7.9h-1.6c-.2 0-.3-.1-.3-.2v-1a.3.3 0 0 1 .3-.3h1.5a.1.1 0 0 0 .1-.1v-2.9a.2.2 0 0 1 .2-.2h1.2c.2 0 .3.1.3.2v2.9c0 .1 0 .1.1.1h2.8a.3.3 0 0 1 .3.3v1c0 .1-.1.2-.3.2ZM1200.3 415.1a1.2 1.2 0 0 1-.4-1 1.3 1.3 0 0 1 .4-1 1.4 1.4 0 0 1 2 0 1.3 1.3 0 0 1 .4 1 1.2 1.2 0 0 1-.4 1 1.4 1.4 0 0 1-2 0Zm0 15.1v-12.1a.3.3 0 0 1 .3-.3h1.3c.1 0 .2.1.2.3v12.1c0 .2-.1.3-.2.3h-1.3a.3.3 0 0 1-.3-.3ZM1208.2 429.8a4.8 4.8 0 0 1-1.8-2.6 12.3 12.3 0 0 1-.4-3.1 10.8 10.8 0 0 1 .4-3 4.2 4.2 0 0 1 1.8-2.5 4.6 4.6 0 0 1 3.1-1 4.8 4.8 0 0 1 3.1 1 4.5 4.5 0 0 1 1.7 2.5 8 8 0 0 1 .4 3 8.3 8.3 0 0 1-.4 3.1 5.2 5.2 0 0 1-1.7 2.6 5.8 5.8 0 0 1-6.2 0Zm5.1-1.3a3.6 3.6 0 0 0 1.2-1.8 15.7 15.7 0 0 0 .2-2.5 9.4 9.4 0 0 0-.2-2.6 4.2 4.2 0 0 0-1.1-1.8 4 4 0 0 0-4.2 0 3.6 3.6 0 0 0-1.2 1.8 16.1 16.1 0 0 0-.2 2.6 14.7 14.7 0 0 0 .2 2.5 3.6 3.6 0 0 0 1.2 1.8 3.7 3.7 0 0 0 2.1.6 3.2 3.2 0 0 0 2-.6ZM1228.5 418.8a4.4 4.4 0 0 1 1.2 3.2v8.2c0 .2-.1.3-.2.3h-1.3a.3.3 0 0 1-.3-.3v-7.9a2.9 2.9 0 0 0-.8-2.2 2.8 2.8 0 0 0-2.2-.9 2.9 2.9 0 0 0-2.2.9 3.1 3.1 0 0 0-.8 2.2v7.9a.3.3 0 0 1-.3.3h-1.3c-.1 0-.2-.1-.2-.3v-12.1c0-.2.1-.3.2-.3h1.3a.3.3 0 0 1 .3.3v1.1h.1a3.7 3.7 0 0 1 3.3-1.5 4.2 4.2 0 0 1 3.2 1.1Z"/></g></svg>