<svg xmlns="http://www.w3.org/2000/svg" xmlns:xlink="http://www.w3.org/1999/xlink" viewBox="0 0 297 212"><defs><linearGradient id="linear-gradient" x1="170.61" y1="22.25" x2="175.98" y2="22.25" gradientUnits="userSpaceOnUse"><stop offset="0" stop-color="#1e4489"/><stop offset="1" stop-color="#085ed5"/></linearGradient><linearGradient id="linear-gradient-2" x1="177.77" y1="44.7" x2="248.92" y2="44.7" xlink:href="#linear-gradient"/><linearGradient id="linear-gradient-3" x1="167.88" y1="26.05" x2="265.38" y2="26.05" xlink:href="#linear-gradient"/><linearGradient id="linear-gradient-4" x1="60.36" y1="61.58" x2="105.91" y2="61.58" xlink:href="#linear-gradient"/><linearGradient id="linear-gradient-5" x1="168.28" y1="27.95" x2="173.15" y2="27.95" xlink:href="#linear-gradient"/><linearGradient id="linear-gradient-6" x1="160.76" y1="51.28" x2="168.45" y2="51.28" gradientTransform="matrix(.97 .24 -.21 .85 16.15 -31.72)" xlink:href="#linear-gradient"/><linearGradient id="linear-gradient-7" x1="63.13" y1="56.73" x2="111.86" y2="56.73" gradientUnits="userSpaceOnUse"><stop offset="0" stop-color="#26b4d8"/><stop offset="1" stop-color="#085ed5"/></linearGradient><linearGradient id="linear-gradient-8" x1="60.19" y1="65.19" x2="112.18" y2="65.19" xlink:href="#linear-gradient"/><style>.cls-2{fill:#fff;stroke:#b6c6e3;stroke-miterlimit:10;stroke-width:2.42px}.cls-13{fill:none}.cls-8{fill:#1e4489}</style></defs><g id="Header_Manager_Illus" data-name="Header Manager Illus"><path style="fill:url(#linear-gradient)" d="m173.4 16.8 2.6.6-2.6 4.9-2.8 6.1.2-6.7-.1-5.6 2.7.7z"/><path class="cls-2" d="m134.2 49.1 61.9 38.1 71.9 8.9-30.1 89.2s-70.2-8.5-71.8-8.9-62-38.1-62-38.1Z"/><path class="cls-2" d="M166.8 171c-16.8-17-32.7-27.6-55.4-35.1l28.8-85.3c22.6 7.4 38.5 18.1 55.3 35.1-9.6 28.4-19.2 56.9-28.7 85.3Z"/><path class="cls-2" d="M166.8 171c-14-17.2-28.5-31.3-48.7-40.8l28.8-85.3c20.1 9.4 34.7 23.6 48.6 40.8-9.6 28.4-19.2 56.9-28.7 85.3ZM168.9 171.8c23.5-2.8 42.4-1.2 64.8 7.1l28.7-85.3c-22.3-8.4-41.3-10-64.8-7.2-9.5 28.5-19.1 56.9-28.7 85.4Z"/><path class="cls-2" d="M168.9 171.8c21.3-4.8 41.3-6.8 62.9-1.6l28.7-85.3c-21.5-5.2-41.5-3.2-62.9 1.5-9.5 28.5-19.1 56.9-28.7 85.4Z"/><path class="cls-2" d="m253.7 75-28.8 85.3c-19.9-.3-38.1 4.1-56.9 10.5-10.9-16.9-22.6-31.8-38.6-44.1l28.8-85.3c15.9 12.3 27.6 27.2 38.5 44.1 18.8-6.5 37-10.9 57-10.5Z"/><path style="fill:none;stroke:#b6c6e3;stroke-miterlimit:10;stroke-width:2.42px" d="m196.9 85.1-28.8 85.3"/><path d="m248.9 39.8-4.3 18.3C242.8 66 226.4 68.6 208 64s-31.9-14.7-30.1-22.6l4.3-18.3Z" style="fill:url(#linear-gradient-2)"/><path style="fill:url(#linear-gradient-3)" d="m210.7 51.3-42.8-37.5 54.6-13 42.9 37.5-54.7 13z"/><path d="m169 186.5-98.7 25.8a7 7 0 0 1-8.6-5.3L28.9 72.5a7.3 7.3 0 0 1 5.1-8.9l98.7-25.8a7.1 7.1 0 0 1 8.6 5.3l32.8 134.5a7.3 7.3 0 0 1-5.1 8.9Z" style="fill:#529bea"/><path d="m160.5 176.3-86.2 22.5a4.1 4.1 0 0 1-4.9-3.1L40.3 76.3a4.2 4.2 0 0 1 2.9-5.2l86.2-22.4a4.1 4.1 0 0 1 5 3l29.1 119.5a4.3 4.3 0 0 1-3 5.1Z" style="fill:#fff"/><path class="cls-8" d="M127.7 75.9 71.4 90.6a.7.7 0 0 1-.8-.5l-.2-1c-.1-.4.1-.8.5-.8l56.2-14.7a.6.6 0 0 1 .8.5l.2 1a.7.7 0 0 1-.4.8ZM64.7 85.8l-.8-.3a.4.4 0 0 0-.5.1l-3.2 7.3-3.1-1.5c-.1-.1-.3 0-.4.2l-.4.9c-.1.1 0 .3.2.4l4.2 2c.2.1.4 0 .4-.1l.6-1.2 3.2-7.3c.1-.1 0-.4-.2-.5ZM131.5 91.7l-56.2 14.7a.6.6 0 0 1-.8-.5l-.3-1a.9.9 0 0 1 .5-.8L131 89.4a.7.7 0 0 1 .8.5l.2 1a.6.6 0 0 1-.5.8ZM68.6 101.7l-.8-.4a.4.4 0 0 0-.5.2l-3.2 7.2-3.1-1.5c-.2 0-.4 0-.4.2l-.4.9a.4.4 0 0 0 .1.5l4.3 2c.1.1.3 0 .4-.2l.5-1.2 3.3-7.2a.4.4 0 0 0-.2-.5ZM135.4 107.8l-56.3 14.7c-.3 0-.7-.2-.7-.5l-.3-1a.7.7 0 0 1 .5-.9l56.2-14.6a.6.6 0 0 1 .8.5l.3 1a.7.7 0 0 1-.5.8ZM72.5 117.7l-.9-.4c-.1 0-.4 0-.4.2l-3.3 7.2-3-1.4a.4.4 0 0 0-.5.2l-.4.8a.4.4 0 0 0 .2.5l4.2 2a.4.4 0 0 0 .5-.1l.5-1.3 3.2-7.2a.4.4 0 0 0-.1-.5ZM139.3 123.4 83 138.1a.7.7 0 0 1-.8-.5l-.2-1a.6.6 0 0 1 .4-.8l56.3-14.7a.7.7 0 0 1 .8.5l.2 1a.6.6 0 0 1-.4.8ZM76.3 133.4l-.8-.4a.4.4 0 0 0-.5.2l-3.2 7.2-3.1-1.5c-.1-.1-.3 0-.4.2l-.4.9c-.1.2 0 .4.2.4l4.2 2.1c.1 0 .4 0 .4-.2l.6-1.2 3.2-7.2a.4.4 0 0 0-.2-.5Z"/><g><path class="cls-8" d="m143.1 139.3-56.2 14.6a.6.6 0 0 1-.8-.5l-.3-1a.7.7 0 0 1 .5-.8l56.3-14.7a.9.9 0 0 1 .8.5l.2 1a.7.7 0 0 1-.5.9ZM80.2 149.2l-.8-.4a.4.4 0 0 0-.5.2l-3.2 7.2-3.1-1.4a.4.4 0 0 0-.5.1l-.3.9c-.1.2-.1.4.1.5l4.2 2a.4.4 0 0 0 .5-.2l.5-1.2 3.3-7.2c0-.2 0-.4-.2-.5Z"/></g><g><path class="cls-8" d="m147.6 155.1-56.3 14.7a.5.5 0 0 1-.7-.5l-.3-1a.6.6 0 0 1 .5-.8l56.2-14.7a.6.6 0 0 1 .8.5l.3 1a.7.7 0 0 1-.5.8ZM84.7 165.1l-.9-.4a.3.3 0 0 0-.4.2l-3.3 7.2-3-1.5a.4.4 0 0 0-.5.2l-.4.9c-.1.1 0 .3.2.4l4.2 2c.2.1.4.1.5-.1l.5-1.2 3.2-7.2c.1-.2 0-.5-.1-.5Z"/></g><path d="m69.4 60.7-1.7.4a10.3 10.3 0 0 0-7.1 12.2l45.3-11.8a9.6 9.6 0 0 0-11.7-7.2l-1.7.4a7 7 0 0 0-4.9-4.8h-.2l-15.9 4s-3.6 4.1-2.1 6.8Z" style="opacity:.16;fill:url(#linear-gradient-4)"/><ellipse cx="170.7" cy="28" rx="2.4" ry="2.5" style="fill:url(#linear-gradient-5)"/><path d="M162.8 75.8a6.6 6.6 0 0 1-4 .2 6.9 6.9 0 0 1-3.5-2.1L169.7 28l2 .5Z" style="fill:url(#linear-gradient-6)"/><path d="m99.3 52.2-1.8.4a7.4 7.4 0 0 0-5.3-5.1l-5.9-2.8V44a3.9 3.9 0 0 0-4.8-3 4.2 4.2 0 0 0-2.9 5l.2.2-4.1 6s-3.9 3.8-2 6.9l-1.7.5a10.6 10.6 0 0 0-7.5 13l48.4-12.7a10.3 10.3 0 0 0-12.6-7.7ZM82 42.9a1.9 1.9 0 0 1 2.4 1.5A2.1 2.1 0 0 1 83 47a2.1 2.1 0 0 1-2.5-1.5 2.1 2.1 0 0 1 1.5-2.6Z" style="fill:url(#linear-gradient-7)"/><path class="cls-13" d="M79.4 54.1a2 2 0 0 0-1.5 2.5 2.1 2.1 0 0 0 2.5 1.5 2 2 0 0 0 1.4-2.5 1.9 1.9 0 0 0-2.4-1.5Z"/><path d="m63.1 70.3.3 2.3 48.5-12.7a18 18 0 0 0-.8-2.1Z" style="opacity:.54;fill:url(#linear-gradient-8)"/><path class="cls-13" d="M78.6 53.3a2 2 0 0 0-1.4 2.5 2 2 0 0 0 2.4 1.6 2.2 2.2 0 0 0 1.5-2.6 2.1 2.1 0 0 0-2.5-1.5Z"/></g></svg>