<svg xmlns="http://www.w3.org/2000/svg" xmlns:xlink="http://www.w3.org/1999/xlink" viewBox="0 0 540 502"><defs><linearGradient id="linear-gradient" x1="439.37" y1="472.02" x2="480.74" y2="472.02" gradientUnits="userSpaceOnUse"><stop offset="0" stop-color="#3fa9f5"/><stop offset="1" stop-color="#00ffda"/></linearGradient><linearGradient id="linear-gradient-2" x1="17.17" y1="264.31" x2="536.11" y2="264.31" gradientUnits="userSpaceOnUse"><stop offset="0" stop-color="#00ffda"/><stop offset="1" stop-color="#843fff"/></linearGradient><linearGradient id="linear-gradient-3" x1="-191.55" y1="573.84" x2="-191.55" y2="497.21" gradientTransform="matrix(-.57 -.82 -.82 .57 546.68 -42.13)" xlink:href="#linear-gradient"/><linearGradient id="linear-gradient-4" x1="-204.63" y1="643.57" x2="-202.92" y2="585.57" gradientTransform="matrix(.9 -.48 -.97 -.59 989.65 680.91)" xlink:href="#linear-gradient"/><linearGradient id="linear-gradient-5" x1="-215.63" y1="598.1" x2="-187.91" y2="632.92" gradientTransform="matrix(.9 -.48 -.97 -.59 987.77 680.98)" xlink:href="#linear-gradient"/><linearGradient id="linear-gradient-6" x1="465.33" y1="56.3" x2="465.33" y2="109.16" xlink:href="#linear-gradient-2"/><linearGradient id="linear-gradient-7" x1="495.85" y1="109.16" x2="495.85" y2="56.3" xlink:href="#linear-gradient-2"/><linearGradient id="linear-gradient-8" x1="450.07" y1="56.3" x2="511.1" y2="56.3" xlink:href="#linear-gradient-2"/><linearGradient id="linear-gradient-9" x1="428.29" y1="90.13" x2="480.59" y2="90.13" xlink:href="#linear-gradient-2"/><linearGradient id="linear-gradient-10" x1="480.59" y1="90.13" x2="532.88" y2="90.13" xlink:href="#linear-gradient-2"/><linearGradient id="linear-gradient-11" x1="428.29" y1="44.83" x2="532.88" y2="44.83" xlink:href="#linear-gradient-2"/><linearGradient id="linear-gradient-12" x1="-87.05" y1="103.75" x2="-19.65" y2="103.75" gradientTransform="matrix(-1 0 0 1 379.87 0)" xlink:href="#linear-gradient-2"/><linearGradient id="linear-gradient-13" x1="40.03" y1="56.04" x2="40.03" y2="108.9" xlink:href="#linear-gradient-2"/><linearGradient id="linear-gradient-14" x1="70.54" y1="108.9" x2="70.54" y2="56.04" xlink:href="#linear-gradient-2"/><linearGradient id="linear-gradient-15" x1="24.77" y1="56.04" x2="85.8" y2="56.04" xlink:href="#linear-gradient-2"/><linearGradient id="linear-gradient-16" x1="2.99" y1="89.87" x2="55.29" y2="89.87" xlink:href="#linear-gradient-2"/><linearGradient id="linear-gradient-17" x1="55.29" y1="89.87" x2="107.58" y2="89.87" xlink:href="#linear-gradient-2"/><linearGradient id="linear-gradient-18" x1="2.99" y1="44.57" x2="107.58" y2="44.57" xlink:href="#linear-gradient-2"/><linearGradient id="linear-gradient-19" x1="70.54" y1="103.75" x2="137.94" y2="103.75" xlink:href="#linear-gradient-2"/><linearGradient id="linear-gradient-20" x1="146.93" y1="118.16" x2="146.93" y2="171.02" xlink:href="#linear-gradient-2"/><linearGradient id="linear-gradient-21" x1="177.45" y1="171.02" x2="177.45" y2="118.16" xlink:href="#linear-gradient-2"/><linearGradient id="linear-gradient-22" x1="131.67" y1="118.16" x2="192.71" y2="118.16" xlink:href="#linear-gradient-2"/><linearGradient id="linear-gradient-23" x1="109.9" y1="151.98" x2="162.19" y2="151.98" xlink:href="#linear-gradient-2"/><linearGradient id="linear-gradient-24" x1="162.19" y1="151.98" x2="214.48" y2="151.98" xlink:href="#linear-gradient-2"/><linearGradient id="linear-gradient-25" x1="109.9" y1="106.69" x2="214.48" y2="106.69" xlink:href="#linear-gradient-2"/><linearGradient id="linear-gradient-26" x1="359.44" y1="117.63" x2="359.44" y2="170.49" xlink:href="#linear-gradient-2"/><linearGradient id="linear-gradient-27" x1="389.96" y1="170.49" x2="389.96" y2="117.63" xlink:href="#linear-gradient-2"/><linearGradient id="linear-gradient-28" x1="344.18" y1="117.63" x2="405.22" y2="117.63" xlink:href="#linear-gradient-2"/><linearGradient id="linear-gradient-29" x1="322.41" y1="151.45" x2="374.7" y2="151.45" xlink:href="#linear-gradient-2"/><linearGradient id="linear-gradient-30" x1="374.7" y1="151.45" x2="426.99" y2="151.45" xlink:href="#linear-gradient-2"/><linearGradient id="linear-gradient-31" x1="322.41" y1="106.16" x2="426.99" y2="106.16" xlink:href="#linear-gradient-2"/><linearGradient id="linear-gradient-32" x1="167.68" y1="75.39" x2="173.84" y2="75.39" gradientTransform="matrix(.87 -.5 0 1.15 16.59 41.11)" xlink:href="#linear-gradient-2"/><linearGradient id="linear-gradient-33" x1="174.91" y1="164.47" x2="242.31" y2="164.47" xlink:href="#linear-gradient-2"/><linearGradient id="linear-gradient-34" x1="17.32" y1="164.47" x2="84.72" y2="164.47" gradientTransform="matrix(-1 0 0 1 379.87 0)" xlink:href="#linear-gradient-2"/><linearGradient id="linear-gradient-35" x1="252.46" y1="179.25" x2="252.46" y2="232.1" xlink:href="#linear-gradient-2"/><linearGradient id="linear-gradient-36" x1="282.97" y1="232.1" x2="282.97" y2="179.25" xlink:href="#linear-gradient-2"/><linearGradient id="linear-gradient-37" x1="237.2" y1="179.25" x2="298.23" y2="179.25" xlink:href="#linear-gradient-2"/><linearGradient id="linear-gradient-38" x1="215.42" y1="213.07" x2="267.72" y2="213.07" xlink:href="#linear-gradient-2"/><linearGradient id="linear-gradient-39" x1="267.72" y1="213.07" x2="320.01" y2="213.07" xlink:href="#linear-gradient-2"/><linearGradient id="linear-gradient-40" x1="215.42" y1="167.78" x2="320.01" y2="167.78" xlink:href="#linear-gradient-2"/><linearGradient id="linear-gradient-41" x1="138.87" y1="362.67" x2="261.91" y2="362.67" gradientTransform="rotate(7.5 199.956 362.298)" gradientUnits="userSpaceOnUse"><stop offset="0" stop-color="#0ff"/><stop offset="1" stop-color="#0094ff"/></linearGradient><linearGradient id="linear-gradient-42" x1="23.8" y1="172.54" x2="336.08" y2="172.54" gradientUnits="userSpaceOnUse"><stop offset="0" stop-color="#77aceb"/><stop offset="1" stop-color="#529bea"/></linearGradient><linearGradient id="linear-gradient-43" x1="-193.12" y1="294" x2="-193.12" y2="192.5" gradientTransform="matrix(-.57 -.82 -.82 .57 546.68 -42.13)" xlink:href="#linear-gradient"/><linearGradient id="linear-gradient-44" x1="-197.19" y1="400.74" x2="-194.93" y2="323.92" gradientTransform="matrix(.9 -.48 -.97 -.59 977.24 370.11)" xlink:href="#linear-gradient"/><linearGradient id="linear-gradient-45" x1="-211.76" y1="340.52" x2="-175.04" y2="386.64" gradientTransform="matrix(.9 -.48 -.97 -.59 974.75 370.21)" xlink:href="#linear-gradient"/><linearGradient id="linear-gradient-46" x1="414.33" y1="404.44" x2="477.4" y2="404.44" gradientTransform="matrix(.74 .68 -.81 .62 432.3 -146.79)" xlink:href="#linear-gradient"/><linearGradient id="linear-gradient-47" x1="409.86" y1="400.94" x2="472.93" y2="400.94" gradientTransform="matrix(.74 .68 -.81 .62 428.93 -145.1)" xlink:href="#linear-gradient"/><linearGradient id="linear-gradient-48" x1="449.31" y1="380.32" x2="432.76" y2="421.56" gradientTransform="matrix(.74 .68 -.81 .62 428.83 -144.86)" xlink:href="#linear-gradient"/><linearGradient id="linear-gradient-49" x1="409.58" y1="393.21" x2="464.57" y2="393.21" gradientTransform="rotate(35.1 499.911 279.634)" xlink:href="#linear-gradient"/><linearGradient id="linear-gradient-50" x1="444.13" y1="378.75" x2="427.52" y2="407.52" gradientTransform="rotate(35.1 499.911 279.634)" xlink:href="#linear-gradient"/><linearGradient id="linear-gradient-51" x1="409.73" y1="396.41" x2="467.32" y2="396.41" gradientTransform="rotate(35.1 499.911 279.634)" xlink:href="#linear-gradient"/><linearGradient id="linear-gradient-52" x1="481.62" y1="371.86" x2="528.93" y2="371.86" xlink:href="#linear-gradient"/><linearGradient id="linear-gradient-53" x1="481.62" y1="371.51" x2="536.98" y2="371.51" xlink:href="#linear-gradient"/><linearGradient id="linear-gradient-54" x1="455.8" y1="376.87" x2="537.01" y2="376.87" xlink:href="#linear-gradient"/><linearGradient id="linear-gradient-55" x1="484.95" y1="370.31" x2="537" y2="370.31" xlink:href="#linear-gradient"/><linearGradient id="linear-gradient-56" x1="524.17" y1="361.97" x2="494.49" y2="379.1" xlink:href="#linear-gradient"/><linearGradient id="linear-gradient-57" x1="493.11" y1="369.74" x2="527.75" y2="369.74" xlink:href="#linear-gradient"/><linearGradient id="linear-gradient-58" x1="481.62" y1="383" x2="537.01" y2="383" xlink:href="#linear-gradient"/><linearGradient id="linear-gradient-59" x1="252.84" y1="318.9" x2="313.71" y2="318.9" xlink:href="#linear-gradient"/><linearGradient id="linear-gradient-60" x1="295.4" y1="325.9" x2="271.15" y2="311.89" xlink:href="#linear-gradient"/><linearGradient id="linear-gradient-61" x1="253.06" y1="323.25" x2="317.75" y2="323.25" xlink:href="#linear-gradient"/><style>.cls-44{fill:#fff}.cls-47{fill:#00caff}.cls-49{fill:#b6c6e3}</style></defs><g id="Manager"><path d="M441.5 472Z" style="fill:url(#linear-gradient)"/><path d="M331.5 43.2c29.2-7.1 80.5-1 150.7 74.3 37.1 39.9 69.9 111.1 45.5 164.2-16.1 34.9-43.6 33.3-107.8 77.9-96.6 67.2-88.8 108.7-139.9 123.7-88.6 26-210.6-69.2-257-184.6-3.4-8.4-21.6-95 30.2-142.7 32-29.4 63.8-32 157.6-62.9 36.4-12 67.7-43.1 120.7-49.9Z" style="opacity:.3;fill:url(#linear-gradient-2)"/><path d="m225.3 380 .8-1.5 5.9 2.9a.1.1 0 0 1 .1.1l.5.2h-.1c5.2 2.7 8.8 8.8 9.5 17.8 1.4 18.4-9.8 41.8-25 52.3-7.6 5.2-14.7 6.2-20.1 3.7h-.1l-.3-.2-6.6-3.2.9-1.8c-2.2-3.2-3.6-7.6-4.1-12.9-1.4-18.5 9.8-41.9 25-52.4 4.9-3.3 9.5-4.9 13.6-5Z" style="fill:url(#linear-gradient-3)"/><ellipse cx="208.6" cy="415.6" rx="41" ry="23.7" transform="rotate(-64.5 208.484 415.505)" style="fill:url(#linear-gradient-4)"/><ellipse cx="207.6" cy="414.1" rx="29.5" ry="17" transform="rotate(-64.5 207.457 413.971)" style="fill:url(#linear-gradient-5)"/><path style="fill:url(#linear-gradient-6)" d="m480.6 109.2-30.5-17.7V56.3l30.5 17.6v35.3z"/><path style="fill:url(#linear-gradient-7)" d="m480.6 109.2 30.5-17.7V56.3l-30.5 17.6v35.3z"/><path style="fill:url(#linear-gradient-8)" d="m480.6 73.9-30.5-17.6 30.5-17.6 30.5 17.6-30.5 17.6z"/><path style="fill:url(#linear-gradient-9);opacity:.5" d="m480.6 135.4-52.3-30.2V44.8L480.6 75v60.4z"/><path style="fill:url(#linear-gradient-10);opacity:.5" d="m480.6 135.4 52.3-30.2V44.8L480.6 75v60.4z"/><path style="fill:url(#linear-gradient-11);opacity:.49" d="m480.6 75-52.3-30.2 52.3-30.2 52.3 30.2L480.6 75z"/><path d="m400 120 63.9-36.9c.3-.2.7-.1 1.2.1a4 4 0 0 1 1.8 3.1 1.4 1.4 0 0 1-.5 1.2l-63.8 36.9a1.2 1.2 0 0 1-1.3-.1 4 4 0 0 1-1.8-3.1 1.4 1.4 0 0 1 .5-1.2Z" style="fill:url(#linear-gradient-12)"/><path style="fill:url(#linear-gradient-13)" d="M55.3 108.9 24.8 91.3V56l30.5 17.7v35.2z"/><path style="fill:url(#linear-gradient-14)" d="m55.3 108.9 30.5-17.6V56L55.3 73.7v35.2z"/><path style="fill:url(#linear-gradient-15)" d="M55.3 73.7 24.8 56l30.5-17.6L85.8 56 55.3 73.7z"/><path style="fill:url(#linear-gradient-16);opacity:.5" d="M55.3 135.2 3 105V44.6l52.3 30.2v60.4z"/><path style="fill:url(#linear-gradient-17);opacity:.5" d="m55.3 135.2 52.3-30.2V44.6L55.3 74.8v60.4z"/><path style="fill:url(#linear-gradient-18);opacity:.49" d="M55.3 74.8 3 44.6l52.3-30.2 52.3 30.2-52.3 30.2z"/><path d="M137.4 120 73.6 83.1a1.5 1.5 0 0 0-1.3.1 4 4 0 0 0-1.8 3.1 1.2 1.2 0 0 0 .6 1.2l63.8 36.9a1.1 1.1 0 0 0 1.2-.1 4 4 0 0 0 1.8-3.1 1.4 1.4 0 0 0-.5-1.2Z" style="fill:url(#linear-gradient-19)"/><path style="fill:url(#linear-gradient-20)" d="m162.2 171-30.5-17.6v-35.2l30.5 17.6V171z"/><path style="fill:url(#linear-gradient-21)" d="m162.2 171 30.5-17.6v-35.2l-30.5 17.6V171z"/><path style="fill:url(#linear-gradient-22)" d="m162.2 135.8-30.5-17.6 30.5-17.7 30.5 17.7-30.5 17.6z"/><path style="fill:url(#linear-gradient-23);opacity:.5" d="m162.2 197.3-52.3-30.2v-60.4l52.3 30.2v60.4z"/><path style="fill:url(#linear-gradient-24);opacity:.5" d="m162.2 197.3 52.3-30.2v-60.4l-52.3 30.2v60.4z"/><path style="fill:url(#linear-gradient-25);opacity:.49" d="m162.2 136.9-52.3-30.2 52.3-30.2 52.3 30.2-52.3 30.2z"/><path style="fill:url(#linear-gradient-26)" d="m374.7 170.5-30.5-17.6v-35.3l30.5 17.7v35.2z"/><path style="fill:url(#linear-gradient-27)" d="m374.7 170.5 30.5-17.6v-35.3l-30.5 17.7v35.2z"/><path style="fill:url(#linear-gradient-28)" d="m374.7 135.3-30.5-17.7 30.5-17.6 30.5 17.6-30.5 17.7z"/><path style="fill:url(#linear-gradient-29);opacity:.5" d="m374.7 196.7-52.3-30.1v-60.4l52.3 30.2v60.3z"/><path style="fill:url(#linear-gradient-30);opacity:.5" d="m374.7 196.7 52.3-30.1v-60.4l-52.3 30.2v60.3z"/><path style="fill:url(#linear-gradient-31);opacity:.49" d="m374.7 136.4-52.3-30.2L374.7 76l52.3 30.2-52.3 30.2z"/><path d="M166.4 41.7Z" style="fill:url(#linear-gradient-32)"/><path d="M241.8 180.7 178 143.8a1.3 1.3 0 0 0-1.3.2 3.7 3.7 0 0 0-1.8 3.1 1.3 1.3 0 0 0 .5 1.1l63.8 36.9h.1a1.1 1.1 0 0 0 1.2-.1 4 4 0 0 0 1.8-3.1 1.4 1.4 0 0 0-.5-1.2Z" style="fill:url(#linear-gradient-33)"/><path d="m295.7 180.7 63.8-36.9a1.3 1.3 0 0 1 1.3.2 3.9 3.9 0 0 1 1.7 3.1 1.3 1.3 0 0 1-.5 1.1l-63.8 36.9a1.2 1.2 0 0 1-1.3-.1 4.4 4.4 0 0 1-1.8-3.1 1.2 1.2 0 0 1 .6-1.2Z" style="fill:url(#linear-gradient-34)"/><g><path style="fill:url(#linear-gradient-35)" d="m267.7 232.1-30.5-17.6v-35.3l30.5 17.7v35.2z"/><path style="fill:url(#linear-gradient-36)" d="m267.7 232.1 30.5-17.6v-35.3l-30.5 17.7v35.2z"/><path style="fill:url(#linear-gradient-37)" d="m267.7 196.9-30.5-17.7 30.5-17.6 30.5 17.6-30.5 17.7z"/><path style="fill:url(#linear-gradient-38);opacity:.5" d="m267.7 258.4-52.3-30.2v-60.4l52.3 30.2v60.4z"/><path style="fill:url(#linear-gradient-39);opacity:.5" d="m267.7 258.4 52.3-30.2v-60.4L267.7 198v60.4z"/><path style="fill:url(#linear-gradient-40);opacity:.49" d="m267.7 198-52.3-30.2 52.3-30.2 52.3 30.2-52.3 30.2z"/></g><path d="m91.8 115.6 146.7-19.3-.6-4.7a7.3 7.3 0 0 0-8.2-6.3L79.8 105a7.3 7.3 0 0 0-6.3 8.2l36.9 280.4a7.1 7.1 0 0 0 8.1 6.2l3.3-.4-36.3-275.6a7.4 7.4 0 0 1 6.3-8.2Z" style="fill:#1e4489"/><rect x="102.6" y="102.8" width="165.8" height="297.35" rx="7.3" transform="rotate(-7.5 185.03 251.16)" style="fill:#c5d1e9"/><rect x="139.5" y="349.5" width="121.8" height="26.33" rx="4.7" transform="rotate(-8.1 196.576 365.506)" style="fill:url(#linear-gradient-41)"/><rect class="cls-44" x="123" y="256.2" width="124.2" height="15.46" rx="2.8" transform="rotate(-7.5 184.993 263.416)"/><rect class="cls-44" x="130.3" y="311.6" width="39.4" height="14.63" rx="2.8" transform="rotate(-7.5 149.966 318.58)"/><rect class="cls-44" x="172.5" y="306" width="39.4" height="14.63" rx="2.8" transform="rotate(-8.1 188.924 315.994)"/><rect class="cls-44" x="214.6" y="300.5" width="39.4" height="14.63" rx="2.8" transform="rotate(-7.5 234.217 307.247)"/><rect class="cls-44" x="126.3" y="281" width="124.2" height="15.46" rx="2.8" transform="rotate(-7.5 187.97 288.127)"/><path style="fill:#557cff" d="m315.1 390.1-8.5-13.5-8.5-13.5 16-.2 15.9-.3-4.8 8.8 7.2 3.9-5.3 9.8-7.2-3.9-4.8 8.9z"/><path d="m144.5 137.2 63.1 70.4-5 .7-64-70.3Zm-40.5 5.4a2.4 2.4 0 0 0-2.1 2.6l9.6 72.7a2.3 2.3 0 0 0 2.6 2l73.3-9.6-63-70.4Zm144.6 57.3-9.5-72.7a2.4 2.4 0 0 0-2.7-2l-81.9 10.7 63.8 70.3 28.3-3.7a2.3 2.3 0 0 0 2-2.6Z" style="fill:url(#linear-gradient-42)"/><path class="cls-47" d="m124.4 139.9 63 70.4 15.2-2-64-70.3-14.2 1.9zM144.5 137.2l63.1 70.4 10.7-1.4-63.8-70.3-10 1.3z"/><path transform="rotate(-7.5 124.738 177.49)" style="fill:#e2e8f4" d="M115.6 170.5h18.3v13.97h-18.3z"/><g><rect class="cls-49" x="204.7" y="108.6" width="8.5" height="7.52" rx=".9" transform="rotate(-8.1 208.006 114.924)"/><rect class="cls-49" x="216" y="107.1" width="8.5" height="7.52" rx=".9" transform="rotate(-7.5 219.504 110.92)"/><rect class="cls-49" x="227.3" y="105.6" width="8.5" height="7.52" rx=".9" transform="rotate(-7.5 231.097 109.38)"/></g><g><path d="m471 203.2 1-2 7.8 3.8.2.2.5.2c6.9 3.7 11.6 11.8 12.5 23.6 1.9 24.4-12.9 55.5-33.1 69.3-10 6.9-19.4 8.3-26.7 5h-.1l-.4-.2-8.6-4.3 1.1-2.4c-2.9-4.2-4.8-10-5.4-17.1-1.9-24.4 13-55.4 33.2-69.3 6.3-4.5 12.5-6.6 18-6.8Z" style="fill:url(#linear-gradient-43)"/><ellipse cx="448.8" cy="250.3" rx="54.3" ry="31.4" transform="rotate(-64.5 448.617 250.373)" style="fill:url(#linear-gradient-44)"/><ellipse cx="447.5" cy="248.4" rx="39.1" ry="22.5" transform="rotate(-64.5 447.295 248.43)" style="fill:url(#linear-gradient-45)"/></g><g><ellipse cx="435.4" cy="404.4" rx="34.4" ry="28.9" transform="rotate(-42.5 435.156 404.277)" style="fill:url(#linear-gradient-46)"/><ellipse cx="431.5" cy="400.9" rx="34.4" ry="28.9" transform="rotate(-42.5 431.306 400.855)" style="fill:url(#linear-gradient-47)"/><ellipse cx="431.2" cy="400.9" rx="24.3" ry="20.3" transform="rotate(-42.5 430.87 400.834)" style="fill:url(#linear-gradient-48)"/></g><g><path d="M409.3 344.1c-3.1.6-8.1.7-14.4.1-2-.1-4.1-.4-6.2-.7s-7.3-1.1-10.8-1.9c-8.7-1.9-16.5-4.5-20.8-7.1l-.9-.6c-1.6-1.1-2.3-2.1-2.2-2.9.3-2.4 7.1-3.5 18.4-2.5 15.1 1.3 32.4 5.9 38.6 10.3 1.6 1.1 2.3 2.1 2.2 2.9-.1 1.1-1.5 1.9-3.9 2.4Z" style="fill:url(#linear-gradient-49)"/><path d="M399.9 340.7a36.6 36.6 0 0 1-9.7.2l-4.1-.5c-2.5-.3-4.9-.8-7.3-1.3-5.9-1.3-11.1-3-13.9-4.7l-.6-.4c-1.1-.8-1.6-1.5-1.5-2s4.8-2.4 12.3-1.7c10.1.9 21.7 4 25.9 6.9 1.1.8 1.5 1.4 1.5 2-.1.7-1 1.2-2.6 1.5Z" style="fill:url(#linear-gradient-50)"/><path d="M394.1 350.1c-15.1-1.3-32.4-5.9-38.6-10.3-1.5-1-2.2-1.9-2.2-2.7a.1.1 0 0 0-.1-.1v-.3l.7-5.7c-.1.8.6 1.8 2.2 2.9l.9.6c4.3 2.6 12.1 5.2 20.8 7.1 3.5.8 7.2 1.4 10.8 1.9s4.2.6 6.2.7c6.3.6 11.3.5 14.4-.1s3.8-1.3 3.9-2.4c0 .4-.6 5.2-.7 5.7.1 2.6-6.8 3.7-18.3 2.7Z" style="fill:url(#linear-gradient-51)"/></g><path d="M481.6 371.7Z" style="fill:url(#linear-gradient-52)"/><g><path d="M537 370.5v.9a20 20 0 0 1-.4 2.4 12.7 12.7 0 0 1-1.3 3.2 20 20 0 0 1-8.3 7.6c-11.8 6.4-29.3 5.7-39-1.6a16.5 16.5 0 0 1-4.8-5.2 22.4 22.4 0 0 1-1.2-2.9 14.5 14.5 0 0 1-.4-2.8v-.3c.2-4.9 3.6-9.8 10.1-13.3 11.8-6.4 29.2-5.7 39 1.6 3.9 2.9 5.9 6.5 6.2 10.1a.8.8 0 0 1 .1.3Z" style="fill:url(#linear-gradient-53)"/><path d="M537 376.7v.3Z" style="fill:url(#linear-gradient-54)"/><path d="M537 370.1v.4a.8.8 0 0 0-.1-.4Z" style="fill:url(#linear-gradient-55)"/><path d="M527.7 369.9v.5a9.9 9.9 0 0 1-.2 1.7 9.5 9.5 0 0 1-.9 2.1 13.7 13.7 0 0 1-5.5 5.1c-7.9 4.2-19.5 3.7-26-1.1a11 11 0 0 1-3.1-3.5 5.2 5.2 0 0 1-.8-1.9 6.3 6.3 0 0 1-.3-1.9v-.2c.1-3.3 2.4-6.6 6.7-8.9 7.8-4.2 19.5-3.8 25.9 1.1a9.1 9.1 0 0 1 4.2 6.7Z" style="fill:url(#linear-gradient-56)"/><path d="M527.7 369.6Z" style="fill:url(#linear-gradient-57)"/><path d="M537 376.5v.5c-.2 4.9-3.6 9.8-10 13.3-11.8 6.4-29.3 5.6-39-1.6-4.3-3.2-6.3-7-6.4-10.9v-5.7a14.5 14.5 0 0 0 .4 2.8 22.4 22.4 0 0 0 1.2 2.9 16.5 16.5 0 0 0 4.8 5.2c9.7 7.3 27.2 8 39 1.6a20 20 0 0 0 8.3-7.6 12.7 12.7 0 0 0 1.3-3.2 20 20 0 0 0 .4-2.4Z" style="fill:url(#linear-gradient-58)"/></g><g><path d="M312.2 308.4c-2 2.9-5.7 6.5-11.2 10.3l-.2.2a124.7 124.7 0 0 1-27.1 14c-5.9 2.1-11.4 3.4-15.3 3.5h-.1c-2.9 0-4.6-.8-5.2-2.1-1.4-2.9 3.1-8.7 12.7-15.4 13.8-9.6 32.8-17.5 42.4-17.5 2.7 0 4.4.7 5.1 1.7s.4 3.1-1.1 5.3Z" style="fill:url(#linear-gradient-59)"/><path d="M303.7 311.5a34 34 0 0 1-7.9 7.3h-.2a89 89 0 0 1-19.1 9.9 34.9 34.9 0 0 1-10.8 2.4c-2.1 0-3.3-.5-3.7-1.4s2.2-6.2 9-10.9c9.7-6.8 23.1-12.3 29.9-12.3 1.9 0 3 .4 3.6 1.2s.2 2.2-.8 3.8Z" style="fill:url(#linear-gradient-60)"/><path d="M304.8 325.9c-13.8 9.6-32.8 17.5-42.4 17.5-2.9 0-4.6-.7-5.2-1.9l-4.1-7.2c.6 1.3 2.3 2.1 5.2 2.1h.1c3.9-.1 9.4-1.4 15.3-3.5a124.7 124.7 0 0 0 27.1-14l.2-.2c5.5-3.8 9.2-7.4 11.2-10.3s1.9-4 1.1-5.3l4.1 7.1c1.7 2.9-2.7 8.8-12.6 15.7Z" style="fill:url(#linear-gradient-61)"/></g></g></svg>