<svg xmlns="http://www.w3.org/2000/svg" viewBox="0 0 490.05045 580.95889">
  <defs>
    <style>
      .cls-1 {
        opacity: 0.8;
      }

      .cls-2, .cls-7 {
        fill: #5d98d1;
      }

      .cls-12, .cls-13, .cls-14, .cls-15, .cls-16, .cls-17, .cls-18, .cls-2, .cls-4, .cls-6, .cls-7, .cls-8, .cls-9 {
        stroke: #1d4588;
      }

      .cls-10, .cls-11, .cls-12, .cls-13, .cls-14, .cls-15, .cls-16, .cls-17, .cls-18, .cls-2, .cls-4, .cls-6, .cls-7, .cls-8, .cls-9 {
        stroke-miterlimit: 10;
      }

      .cls-2 {
        stroke-width: 2.87323px;
      }

      .cls-3, .cls-6, .cls-8 {
        fill: #a2d5f3;
      }

      .cls-4 {
        fill: none;
        stroke-width: 0.86749px;
      }

      .cls-10, .cls-11, .cls-5 {
        fill: #1d4588;
      }

      .cls-6 {
        stroke-width: 1.43661px;
      }

      .cls-7 {
        stroke-width: 2.16893px;
      }

      .cls-8 {
        stroke-width: 1.08447px;
      }

      .cls-12, .cls-13, .cls-14, .cls-15, .cls-16, .cls-17, .cls-9 {
        fill: #7baadb;
      }

      .cls-9 {
        stroke-width: 4.3266px;
      }

      .cls-10, .cls-11 {
        stroke: #5e98d1;
      }

      .cls-10 {
        stroke-width: 4.24617px;
      }

      .cls-11, .cls-18 {
        stroke-width: 4.99184px;
      }

      .cls-12 {
        stroke-width: 2.84578px;
      }

      .cls-13 {
        stroke-width: 1.97899px;
      }

      .cls-14 {
        stroke-width: 2.12257px;
      }

      .cls-15 {
        stroke-width: 1.47606px;
      }

      .cls-16 {
        stroke-width: 2.07069px;
      }

      .cls-17 {
        stroke-width: 1.43999px;
      }

      .cls-18 {
        fill: #4b78ba;
      }
    </style>
  </defs>
  <g id="Layer_2" data-name="Layer 2">
    <g class="cls-1">
      <rect class="cls-2" x="25.10161" y="402.73343" width="206.65389" height="144.16634" rx="2.54471"/>
      <rect class="cls-3" x="31.99296" y="413.05391" width="192.8712" height="123.52537"/>
      <rect class="cls-4" x="31.99296" y="413.05391" width="192.8712" height="123.52537"/>
      <path class="cls-5" d="M3.45776,551.98236l249.94159.09213a34.7849,34.7849,0,0,1-5.21905,2.01737,44.90486,44.90486,0,0,1-12.84668,1.80171c-7.05625.0232-94.1899.11-213.86467,0a44.95225,44.95225,0,0,1-11.94358-1.67286A41.54773,41.54773,0,0,1,3.45776,551.98236Z"/>
      <path class="cls-6" d="M128.42855,546.89977H.71831v.72322c0,2.57531,2.52931,4.663,5.64936,4.663H250.48944c3.12008,0,5.64936-2.08769,5.64936-4.663v-.72322Z"/>
    </g>
    <g>
      <rect class="cls-7" x="401.29615" y="400.28829" width="87.66983" height="158.10486" rx="5.67525"/>
      <rect class="cls-5" x="408.53599" y="416.47117" width="73.19016" height="109.91968"/>
      <rect class="cls-8" x="408.53599" y="416.47117" width="73.19016" height="109.91968"/>
      <circle class="cls-8" cx="445.13107" cy="545.13215" r="6.66481"/>
      <rect class="cls-5" x="437.55945" y="409.15056" width="15.14324" height="2.37124" rx="0.55844"/>
      <circle class="cls-5" cx="445.13107" cy="405.39525" r="0.74846"/>
    </g>
    <circle class="cls-9" cx="273.72366" cy="375.83305" r="202.96253"/>
    <g>
      <rect class="cls-10" x="369.42202" y="355.12705" width="33.13838" height="37.49869" rx="3.8108"/>
      <path class="cls-11" d="M140.27635,281.18494l-4.63157,2.885a3.8108,3.8108,0,0,0-1.796,3.2346V468.03262a3.81081,3.81081,0,0,0,6.75143,2.42383v0a3.81079,3.81079,0,0,1,6.75142,2.42382v3.09818a3.81081,3.81081,0,0,0,3.79195,3.81076l231.018,1.14242a3.8108,3.8108,0,0,0,3.82964-3.81075V267.07853a3.81079,3.81079,0,0,0-4.08555-3.80088l-239.88923,17.341A3.81074,3.81074,0,0,0,140.27635,281.18494Z"/>
    </g>
    <g>
      <circle class="cls-12" cx="224.6214" cy="301.41339" r="39.87272"/>
      <circle class="cls-13" cx="224.6214" cy="301.41339" r="27.72798"/>
    </g>
    <g>
      <circle class="cls-12" cx="327.64667" cy="266.9129" r="39.87272"/>
      <circle class="cls-13" cx="327.64667" cy="266.9129" r="27.72798"/>
    </g>
    <g>
      <circle class="cls-14" cx="252.34938" cy="170.35368" r="29.73968"/>
      <circle class="cls-15" cx="252.34938" cy="170.35368" r="20.68134"/>
    </g>
    <g>
      <circle class="cls-16" cx="280.09795" cy="30.04816" r="29.01281"/>
      <circle class="cls-17" cx="280.09795" cy="30.04816" r="20.17587"/>
    </g>
    <g>
      <circle class="cls-12" cx="349.83661" cy="125.07412" r="39.87272"/>
      <circle class="cls-13" cx="349.83661" cy="125.07412" r="27.72798"/>
    </g>
    <path class="cls-18" d="M133.84881,291.461V486.95174a3.81082,3.81082,0,0,0,2.963,3.7153l215.60755,49.199a3.81081,3.81081,0,0,0,4.65859-3.7153V326.18969a3.8108,3.8108,0,0,0-3.20479-3.7623L138.26562,287.69865A3.8108,3.8108,0,0,0,133.84881,291.461Z"/>
  </g>
</svg>
