<svg xmlns="http://www.w3.org/2000/svg" xmlns:xlink="http://www.w3.org/1999/xlink" viewBox="0 0 540 502"><defs><linearGradient id="linear-gradient" x1="3.5" y1="252.05" x2="538.37" y2="252.05" gradientUnits="userSpaceOnUse"><stop offset="0" stop-color="#00ffda"/><stop offset="1" stop-color="#843fff"/></linearGradient><linearGradient id="linear-gradient-2" x1="380.63" y1="105.63" x2="380.63" y2="121.07" gradientTransform="rotate(-3.4 376.052 112.33)" gradientUnits="userSpaceOnUse"><stop offset="0" stop-color="#00438c"/><stop offset="1" stop-color="#342d66"/></linearGradient><linearGradient id="linear-gradient-3" x1="402.87" y1="106.94" x2="402.87" y2="122.38" gradientTransform="rotate(-3.4 397.953 112.98)" xlink:href="#linear-gradient-2"/><linearGradient id="linear-gradient-4" x1="425.12" y1="108.24" x2="425.12" y2="123.68" gradientTransform="rotate(-3.4 419.804 115.315)" xlink:href="#linear-gradient-2"/><linearGradient id="linear-gradient-5" x1="135.32" y1="267.74" x2="459.37" y2="267.74" gradientTransform="rotate(-3.4 293.957 265.02)" gradientUnits="userSpaceOnUse"><stop offset="0" stop-color="#529bea"/><stop offset="1" stop-color="#0094ff"/></linearGradient><linearGradient id="linear-gradient-6" x1="300.15" y1="175.04" x2="300.15" y2="245.19" gradientTransform="rotate(-3.4 297.342 207.792)" gradientUnits="userSpaceOnUse"><stop offset="0" stop-color="#00caed"/><stop offset="1" stop-color="#529bea"/></linearGradient><linearGradient id="linear-gradient-7" x1="230.43" y1="371.25" x2="353.17" y2="371.25" gradientTransform="rotate(-3.4 289.222 367.736)" gradientUnits="userSpaceOnUse"><stop offset="0" stop-color="#0ff"/><stop offset="1" stop-color="#0094ff"/></linearGradient><linearGradient id="linear-gradient-8" x1="21.97" y1="118.81" x2="125.12" y2="118.81" gradientTransform="rotate(17.2 73.42 118.754)" xlink:href="#linear-gradient-2"/><linearGradient id="linear-gradient-9" x1="369.14" y1="419.42" x2="437.94" y2="419.42" gradientTransform="rotate(-30 367.503 383.272)" gradientUnits="userSpaceOnUse"><stop offset="0" stop-color="#3fa9f5"/><stop offset="1" stop-color="#00ffda"/></linearGradient><linearGradient id="linear-gradient-10" x1="337.04" y1="426.07" x2="437.98" y2="426.07" xlink:href="#linear-gradient-9"/><linearGradient id="linear-gradient-11" x1="373.28" y1="417.93" x2="437.97" y2="417.93" xlink:href="#linear-gradient-9"/><linearGradient id="linear-gradient-12" x1="422.02" y1="407.55" x2="385.13" y2="428.85" xlink:href="#linear-gradient-9"/><linearGradient id="linear-gradient-13" x1="383.42" y1="417.21" x2="426.47" y2="417.21" xlink:href="#linear-gradient-9"/><linearGradient id="linear-gradient-14" x1="369.14" y1="433.7" x2="437.98" y2="433.7" xlink:href="#linear-gradient-9"/><linearGradient id="linear-gradient-15" x1="369.66" y1="100.4" x2="415.74" y2="100.4" gradientTransform="rotate(60 201.025 228.385)" xlink:href="#linear-gradient-9"/><linearGradient id="linear-gradient-16" x1="398.61" y1="88.28" x2="384.69" y2="112.39" gradientTransform="rotate(60 201.025 228.385)" xlink:href="#linear-gradient-9"/><linearGradient id="linear-gradient-17" x1="369.78" y1="103.08" x2="418.04" y2="103.08" gradientTransform="rotate(60 201.025 228.385)" xlink:href="#linear-gradient-9"/><linearGradient id="linear-gradient-18" x1="169.09" y1="178.09" x2="215.47" y2="178.09" gradientTransform="rotate(49.5 165.457 188.25)" xlink:href="#linear-gradient-9"/><linearGradient id="linear-gradient-19" x1="147.44" y1="182.58" x2="215.5" y2="182.58" gradientTransform="rotate(49.5 165.457 188.25)" xlink:href="#linear-gradient-9"/><linearGradient id="linear-gradient-20" x1="171.87" y1="177.09" x2="215.49" y2="177.09" gradientTransform="rotate(49.5 165.457 188.25)" xlink:href="#linear-gradient-9"/><linearGradient id="linear-gradient-21" x1="204.74" y1="170.09" x2="179.87" y2="184.45" gradientTransform="rotate(49.5 165.457 188.25)" xlink:href="#linear-gradient-9"/><linearGradient id="linear-gradient-22" x1="178.71" y1="176.61" x2="207.74" y2="176.61" gradientTransform="rotate(49.5 165.457 188.25)" xlink:href="#linear-gradient-9"/><linearGradient id="linear-gradient-23" x1="169.09" y1="187.72" x2="215.5" y2="187.72" gradientTransform="rotate(49.5 165.457 188.25)" xlink:href="#linear-gradient-9"/><style>.cls-6{fill:#4262d4}.cls-10{fill:#fff}.cls-12{fill:#b6c6e3}.cls-18{fill:none;stroke-miterlimit:10;stroke-linecap:round;stroke:#00ffda;stroke-width:3.12px}</style></defs><g id="Web_Extension-2" data-name="Web Extension"><path d="M171.8 109.6c-84.4 18-141.5 55.3-161.9 124.5-24.6 83.5 26.5 157.7 71.3 192.9 64.8 51.1 141.9 40.4 194.3 33.2 26.1-3.6 135.2-21.7 210.9-114.1 19.3-23.6 41.4-50.4 49.1-92 15-80.4-30.6-177.4-103.7-205.4-50.1-19.1-107.5-14.8-179.1 25.6-34.4 19.4-47.1 26.3-80.9 35.3Z" style="opacity:.3;fill:url(#linear-gradient)"/><rect x="372.3" y="106" width="16.7" height="14.7" rx="1.8" transform="rotate(3.4 375.963 111.931)" style="fill:url(#linear-gradient-2)"/><rect x="394.5" y="107.3" width="16.7" height="14.7" rx="1.8" transform="rotate(3.4 397.914 112.966)" style="fill:url(#linear-gradient-3)"/><rect x="416.8" y="108.6" width="16.7" height="14.7" rx="1.8" transform="rotate(3.4 419.865 114)" style="fill:url(#linear-gradient-4)"/><rect x="144.8" y="86.1" width="305.2" height="363.29" rx="16.6" transform="rotate(3.4 294.495 264.417)" style="fill:url(#linear-gradient-5)"/><path class="cls-6" d="m163.3 442 45.6 2.7 166.3-306.4-45.6-2.7L163.3 442zM220.3 445.3l24.8 1.3 166.3-306.4-24.8-1.3-166.3 306.4z"/><path d="m435.3 182.2-8.8-1.4a23 23 0 0 0-1.4-4.2l6-6.5-5.1-5.7-5.1-5.7-7 5.1a36.1 36.1 0 0 0-4.4-2.2l-.4-8.7-7.6-.5-7.7-.4-1.3 8.6a23.2 23.2 0 0 0-4.4 1.6l-6.3-5.9-5.7 5.1-5.8 5.1 5.1 6.9a24.9 24.9 0 0 0-2.2 4.3l-8.5.4-.4 7.6-.5 7.7 8.4 1.3a32.9 32.9 0 0 0 1.6 4.4l-5.8 6.3 5.1 5.7 5.1 5.7 6.8-5a19 19 0 0 0 4.3 2.1l.4 8.7 7.6.5 7.7.4 1.3-8.6a24.7 24.7 0 0 0 5.4-1.9l6.1 5.7 5.7-5.1h.1l5.7-5.1-5.3-7.3a24.1 24.1 0 0 0 1.5-3.3l8.9-.4.5-7.6Zm-36.8 21.2a15.6 15.6 0 1 1 16.5-14.7 15.6 15.6 0 0 1-16.5 14.7Z" style="fill:#00ffda"/><rect x="223.1" y="153.2" width="147.4" height="248.06" rx="8.7" transform="rotate(3.4 293.11 274.575)" style="fill:#c5d1e9"/><rect x="242.6" y="177.9" width="115" height="64.51" rx="8.8" transform="rotate(3.4 296.164 207.038)" style="fill:url(#linear-gradient-6)"/><rect class="cls-10" x="240.5" y="264.2" width="112.5" height="17.12" rx="2.7" transform="rotate(3.4 292.96 269.521)"/><rect x="230.7" y="359" width="122.2" height="24.44" rx="5.6" transform="rotate(3.4 289.121 367.433)" style="fill:url(#linear-gradient-7)"/><path class="cls-12" transform="rotate(3.4 267.19 253.425)" d="M241.6 254.2h57.8v3.97h-57.8z"/><rect class="cls-10" x="239.6" y="296.1" width="112.5" height="17.12" rx="2.7" transform="rotate(3.4 292.225 301.58)"/><path class="cls-12" transform="rotate(3.4 266.455 285.484)" d="M240.5 287.5h57.8v3.97h-57.8z"/><circle class="cls-12" cx="273.1" cy="345.7" r="5.2"/><circle class="cls-12" cx="288.8" cy="346.5" r="5.2"/><circle class="cls-12" cx="304.4" cy="346.9" r="5.2"/><rect class="cls-12" x="333.9" y="166.2" width="7.5" height="6.56" rx=".8" transform="rotate(3.4 333.762 167.14)"/><rect class="cls-12" x="343.8" y="166.8" width="7.5" height="6.56" rx=".8" transform="rotate(3.4 343.92 168.526)"/><rect class="cls-12" x="353.8" y="167.4" width="7.5" height="6.56" rx=".8" transform="rotate(3.4 354.028 168.226)"/><path class="cls-12" d="m443.8 94.4-271.6-16A16.7 16.7 0 0 0 154.7 94l-1.8 31.2 304.6 17.9 1.8-31.2a16.5 16.5 0 0 0-15.5-17.5Z"/><path transform="rotate(3.4 260.686 204.72)" style="fill:#e2e8f4" d="M255.4 200.1h16v14.27h-16z"/><rect x="218" y="100.2" width="167.8" height="18.8" rx="1.1" transform="rotate(3.4 298.268 107.493)" style="fill:#1e4489"/><circle cx="403.4" cy="115.4" r="7.2" style="stroke:#1e4489;stroke-width:3.57px;fill:none;stroke-miterlimit:10"/><path style="stroke-linecap:round;stroke:#1e4489;stroke-width:3.57px;fill:none;stroke-miterlimit:10" d="m410 119.9 4.3 3.2"/><rect x="33.8" y="67.1" width="79.5" height="103.39" rx="6.8" transform="rotate(-17.2 73.365 118.634)" style="fill:url(#linear-gradient-8)"/><rect class="cls-6" x="44.7" y="72.5" width="79.5" height="103.39" rx="6.8" transform="matrix(.96 -.3 .3 .96 -32.93 30.52)"/><g><path class="cls-18" d="m101.3 104.5.2 33.6-18.8-24-1.9 30.4-12.5-11-4.2 15.9"/><path class="cls-18" d="m95 107.6 6.2-6.2 6.9 4.4"/></g><g><path d="m446 378.3.5.9a12.6 12.6 0 0 1 1.2 2.9 18.6 18.6 0 0 1 .5 4.2 25.7 25.7 0 0 1-4.2 13.4c-8.8 14.2-28 24.2-43 22.5a20.8 20.8 0 0 1-8.4-2.7 18.3 18.3 0 0 1-3.1-2.4 13.9 13.9 0 0 1-2.1-2.7h-.1a.4.4 0 0 0-.1-.3c-2.9-5.4-2.3-12.8 2.5-20.6 8.7-14.2 28-24.3 43-22.5 6 .7 10.4 3.2 13 6.9Z" style="fill:url(#linear-gradient-9)"/><path d="m449.9 384.9.2.3h-.1a.4.4 0 0 0-.1-.3Z" style="fill:url(#linear-gradient-10)"/><path d="m445.7 377.8.3.5-.3-.5Z" style="fill:url(#linear-gradient-11)"/><path d="m435.7 383.3.3.6a15.4 15.4 0 0 1 .8 1.9 13.6 13.6 0 0 1 .3 2.9 16.7 16.7 0 0 1-2.8 8.9c-5.8 9.4-18.6 16.1-28.6 14.9a13.7 13.7 0 0 1-5.6-1.7 15.6 15.6 0 0 1-2-1.6 6.2 6.2 0 0 1-1.4-1.9h-.1c0-.1 0-.2-.1-.2-1.9-3.6-1.5-8.5 1.7-13.7 5.8-9.5 18.6-16.2 28.6-15 4 .5 6.9 2.2 8.6 4.6Z" style="fill:url(#linear-gradient-12)"/><path d="m435.5 383 .2.3-.3-.3Z" style="fill:url(#linear-gradient-13)"/><path d="M449.8 384.7v.2a.4.4 0 0 1 .1.3c2.9 5.4 2.3 12.8-2.5 20.6-8.7 14.2-28 24.2-43 22.5-6.5-.8-11.1-3.6-13.6-7.8l-3.5-6.1a13.9 13.9 0 0 0 2.1 2.7 18.3 18.3 0 0 0 3.1 2.4 20.8 20.8 0 0 0 8.4 2.7c15 1.7 34.2-8.3 43-22.5a25.7 25.7 0 0 0 4.2-13.4 18.6 18.6 0 0 0-.5-4.2 12.6 12.6 0 0 0-1.2-2.9Z" style="fill:url(#linear-gradient-14)"/></g><g><path d="M424.5 345.3c-2.6-.6-6.4-2.3-11-5a39.9 39.9 0 0 1-4.4-2.7 79.5 79.5 0 0 1-7.6-5.3c-5.9-4.5-10.9-9.3-13.2-12.7a3.5 3.5 0 0 1-.5-.8c-.9-1.4-1-2.4-.7-3s6.7-.1 14.9 4.6c11 6.3 22.5 16 25.7 21.5q1.2 2.1.6 3c-.4.8-1.8.9-3.8.4Z" style="fill:url(#linear-gradient-15)"/><path d="M418.5 339.4a28.6 28.6 0 0 1-7.4-3.3l-2.9-1.8a46.7 46.7 0 0 1-5.1-3.6c-4-3-7.4-6.2-8.9-8.5l-.3-.5c-.6-1-.7-1.6-.4-2s4.4-.1 9.9 3c7.4 4.3 15.1 10.7 17.2 14.4.6 1 .7 1.7.5 2.1h-.1c-.3.5-1.1.6-2.5.2Z" style="fill:url(#linear-gradient-16)"/><path d="M410.8 344.5c-11-6.3-22.5-16-25.7-21.5a3.8 3.8 0 0 1-.7-2.8v-.2l2.6-4.1c-.3.6-.2 1.6.7 3a3.5 3.5 0 0 0 .5.8c2.3 3.4 7.3 8.2 13.2 12.7a79.5 79.5 0 0 0 7.6 5.3 39.9 39.9 0 0 0 4.4 2.7c4.6 2.7 8.4 4.4 11 5s3.4.4 3.8-.4a39.3 39.3 0 0 1-2.6 4.1c-.7 1.8-6.4.3-14.8-4.6Z" style="fill:url(#linear-gradient-17)"/></g><g><path d="m205.9 219.1-.6.5-1.7 1.1a13.1 13.1 0 0 1-2.8.9 17 17 0 0 1-9.4-1.2c-10.4-4.1-19.5-15.6-20.1-25.7a13.5 13.5 0 0 1 .7-5.9 9 9 0 0 1 1.2-2.4 12.9 12.9 0 0 1 1.6-1.7h.2c3.2-2.6 8.2-3.1 14-.9 10.5 4.1 19.5 15.6 20.2 25.8.2 4.1-.9 7.3-3.1 9.5Z" style="fill:url(#linear-gradient-18)"/><path d="M201.9 222.5v.2h.1Z" style="fill:url(#linear-gradient-19)"/><path d="m206.1 218.9-.2.2.2-.2Z" style="fill:url(#linear-gradient-20)"/><path d="m201.3 212.9-.4.3-1.2.7a4.8 4.8 0 0 1-1.8.6 12.2 12.2 0 0 1-6.3-.8c-6.9-2.7-12.9-10.4-13.4-17.1a9.5 9.5 0 0 1 .5-3.9 8 8 0 0 1 .8-1.6l1.1-1.1h.1c2.2-1.7 5.5-2 9.3-.5 7 2.7 13 10.3 13.4 17.1a7.9 7.9 0 0 1-2 6.3c0-.1-.1-.1-.1 0Z" style="fill:url(#linear-gradient-21)"/><path d="M201.4 212.7v.2c0-.1.1-.1.1-.2Z" style="fill:url(#linear-gradient-22)"/><path d="M202.1 222.4h-.4c-3.2 2.6-8.2 3.1-13.9.9-10.5-4.1-19.5-15.6-20.2-25.8-.3-4.4 1.1-7.8 3.5-9.9h.1l3.6-3.1a12.9 12.9 0 0 0-1.6 1.7 9 9 0 0 0-1.2 2.4 13.5 13.5 0 0 0-.7 5.9c.6 10.1 9.7 21.6 20.1 25.7a17 17 0 0 0 9.4 1.2 13.1 13.1 0 0 0 2.8-.9l1.7-1.1Z" style="fill:url(#linear-gradient-23)"/></g></g></svg>