<svg xmlns="http://www.w3.org/2000/svg" viewBox="0 0 120.859 108.613"><g data-name="Header Manager Illus"><path d="M10.343 56.328c2.515 0 24.858-15.506 43.65.447 0 0-10.506 39.361-10.802 38.914S30.022 81.823.43 93.303Z" style="fill:#00afef"/><path d="M14.782 43.207c-.78.37 10.506-37.124 10.506-37.124S47.334-6.74 68.05 7.424L57.1 46.786s-17.756-15.208-42.318-3.579Z" style="fill:#f25022"/><path d="M77.223 14.134C76.117 13.1 65.683 52.45 66.274 52.6a40.298 40.298 0 0 0 42.318 1.044l11.837-38.168s-27.09 13.716-43.206-1.342Z" style="fill:#7fba00"/><path d="M63.315 62.142s13.908 12.673 42.318 3.877L95.57 102.696s-25.302 12.971-43.058-2.236Z" style="fill:#ffb900"/></g></svg>