<svg data-name="Layer 1" xmlns="http://www.w3.org/2000/svg" viewBox="0 0 187.1 53.8"><path d="M145.4.3h8.2v42.35h-8.2zM39.8 42.7 11.6.3 1.5.4 15 20.6.2 42.7h10l10-14.3 9.6 14.3h10zM39 .4 29.1.3l-5.9 9.2 5.3 6.6L39 .4zM184.2 19.9a13.5 13.5 0 0 0-10.7-5.1c-7.4 0-13.1 5-13.1 13.5 0 7.6 4.4 14.3 13.9 14.4h.1c7.9.2 11.8-6.3 12-6.7l-5.8-3.5-.4.5-.2.3a6.1 6.1 0 0 1-5.4 2.5c-4.3 0-5.8-2.9-6.1-5h18.4v-.7c0-1.8-.2-6.9-2.7-10.2Zm-9.9.7c2.7 0 5 2.2 5.9 5.2h-11.9c1-3 3.3-5.2 6-5.2ZM63.8 17.8v1.6a12.9 12.9 0 0 0-7.5-2.4 13.3 13.3 0 0 0 0 26.6 12.3 12.3 0 0 0 7.5-2.5v2h7.5V17.8Zm-11.7 17a7.5 7.5 0 0 1-1.2-4 6.4 6.4 0 1 1 12.8 0 6.6 6.6 0 0 1-6.4 6.8 5.7 5.7 0 0 1-1.8-.3 7.8 7.8 0 0 1-3.4-2.5ZM129.6 17v1.1a13.2 13.2 0 0 0-7-2 13.1 13.1 0 1 0 0 26.2 13.3 13.3 0 0 0 7-2.1v2.9c0 2.9-3.2 4.6-5.8 4.6s-4.9-2.2-5.9-5h-6.7c0 6.2 6.6 10.8 12.8 10.8s13-5.3 13-10.5V17Zm-12.5 12.5a6.1 6.1 0 1 1 12.1 0 6.4 6.4 0 0 1-5.8 6.5 6.6 6.6 0 0 1-6.1-5 7.7 7.7 0 0 1-.2-1.5ZM92.6 17.8a10 10 0 0 0-6.2 2.5v-2.5h-7.5v25.3H87s-.1-14.7-.1-15.3.8-3.9 3.8-4.2h.7c1.6 0 3.5 1.2 3.7 2.6a6.1 6.1 0 0 1 .2 1.5v15h7.7V25.5c0-4.9-4.9-8.1-10.4-7.7Z"/></svg>