<svg id="Layer_1" data-name="Layer 1" xmlns="http://www.w3.org/2000/svg" viewBox="0 0 23.85947 9.7599"><defs><style>.cls-1{fill:#cd201f;}.cls-2{fill:#fff;}</style></defs><path class="cls-1" d="M23.8462,4.94519a9.11526,9.11526,0,0,1-.439,3.50716A1.88724,1.88724,0,0,1,21.97576,9.545c-1.36951.19087-5.0102.17654-5.10566.17654h-.21476a39.87261,39.87261,0,0,1-4.72863-.2338,2.192,2.192,0,0,1-1.5651-1.1261,9.17025,9.17025,0,0,1-.439-3.58826,9.022,9.022,0,0,1,.439-3.50712A1.87159,1.87159,0,0,1,11.78832.17835c1.37422-.19562,5.015-.17654,5.11038-.17654V.00658c.07164,0,.13839-.00477.21-.00477a38.8915,38.8915,0,0,1,4.72868.229,2.21,2.21,0,0,1,1.56988,1.1309A9.23462,9.23462,0,0,1,23.8462,4.94519Z"/><polygon points="0.039 1.66 1.008 1.66 1.712 4.087 2.399 1.66 3.336 1.66 2.184 5.23 2.184 7.98 1.215 7.98 1.214 5.23 0.039 1.66"/><path d="M8.87691,3.15722V7.85431H7.994V7.31384c-.21042.22692-.65392.66631-.93859.66631-.38164,0-.70549-.22279-.70549-.94066V3.15722h.88289V7.03949s.00413.13615.23516.13615c.15678,0,.32594-.165.526-.43939v-3.579Z"/><path d="M4.43137,3.12973A1.16351,1.16351,0,0,0,3.23964,4.2615V6.84259A1.16828,1.16828,0,0,0,4.43137,7.98015,1.163,1.163,0,0,0,5.61712,6.84259V4.2615A1.15819,1.15819,0,0,0,4.43137,3.12973Zm.40442,3.72378a.40741.40741,0,1,1-.81482,0v-2.562a.40741.40741,0,0,1,.81482,0Z"/><path class="cls-2" d="M16.29338,3.15722V7.85431h-.88291V7.31384c-.21041.22692-.65391.66631-.93859.66631-.38163,0-.70549-.22279-.70549-.94066V3.15722h.88289V7.03949s.00413.13615.23517.13615c.15678,0,.32593-.165.526-.43939v-3.579Z"/><path class="cls-2" d="M21.38183,3.16548h-.01237A1.22971,1.22971,0,0,0,20.13381,4.3413V6.65168A1.30865,1.30865,0,0,0,21.421,7.98015s1.2439-.09488,1.2439-1.14075V6.23911h-.87671V6.7837a.38978.38978,0,1,1-.7777,0V5.68215h1.65441V4.3413A1.24628,1.24628,0,0,0,21.38183,3.16548Zm.40639,1.17787V5.0076h-.7777V4.34335h.00207l-.00207-.02062a.38978.38978,0,1,1,.7777,0l-.00207.02062Z"/><polygon class="cls-2" points="13.883 1.641 13.883 2.559 12.856 2.559 12.856 7.98 11.938 7.98 11.938 2.559 10.911 2.559 10.911 1.641 13.883 1.641"/><path class="cls-2" d="M18.7022,3.07883a1.04279,1.04279,0,0,0-.85607.4992V1.575h-.87465V7.91414h.87465V7.481a1.04282,1.04282,0,0,0,.85607.4992c.5941,0,.76945-.47033.81276-1.17376V4.25259C19.47165,3.54916,19.2963,3.07883,18.7022,3.07883Zm-.06188,3.72756c-.00207.02888-.031.32593-.28468.37131a.85.85,0,0,1-.50951-.22484V4.10612a.85.85,0,0,1,.50951-.22484c.26612.04744.28468.37131.28468.37131v2.5538Z"/></svg>