<svg id="Layer_1" data-name="Layer 1" xmlns="http://www.w3.org/2000/svg" viewBox="0 0 43.56 43.56"><defs><style>.cls-1{fill:#1e4489}</style></defs><path class="cls-1" d="M26.001 19.18a2.561 2.561 0 0 0-2.543 2.567 2.53 2.53 0 0 0 2.47 2.625A2.598 2.598 0 0 0 26 19.18ZM17.019 19.18a2.601 2.601 0 0 0-.066 5.2 2.603 2.603 0 0 0 .066-5.2Z"/><path class="cls-1" d="M21.78.18a21.6 21.6 0 1 0 21.6 21.6A21.598 21.598 0 0 0 21.78.18ZM36.26 28.564a10.446 10.446 0 0 1-7.155 3.172.715.715 0 0 1-.684-.287c-.421-.556-.877-1.088-1.358-1.687a8.804 8.804 0 0 0 4.312-2.65c-6.421 3.713-12.85 3.384-19.305.093a8.348 8.348 0 0 0 4.168 2.683c-.515.642-1.013 1.266-1.519 1.874a.452.452 0 0 1-.329.118 9.694 9.694 0 0 1-6.666-2.7 2.197 2.197 0 0 1-.717-1.823 31.103 31.103 0 0 1 3.485-12.791 1.585 1.585 0 0 1 .48-.549 12.825 12.825 0 0 1 6.253-2.328 4.128 4.128 0 0 1 .717.067c-.008.068-.008.135-.017.203a15.666 15.666 0 0 0-6.134 2.852 23.157 23.157 0 0 1 19.685.177c-.658-.768-2.624-1.73-5.915-3.012.194-.085.397-.253.59-.245a12.34 12.34 0 0 1 6.599 2.43.983.983 0 0 1 .253.329 30.557 30.557 0 0 1 3.552 13.34.932.932 0 0 1-.295.734Z"/></svg>