<svg data-name="Layer 1" xmlns="http://www.w3.org/2000/svg" viewBox="0 0 43.56 43.56"><path d="M21.78.521a21.6 21.6 0 0 0-5.459 42.5l.05-5.037a22.843 22.843 0 0 1-2.59.127 4.924 4.924 0 0 1-4.649-3.156 6.47 6.47 0 0 0-2.506-3.232 1.435 1.435 0 0 1-.388-.32c-.118-.16-.312-.405-.261-.515a.8.8 0 0 1 .531-.321 2.858 2.858 0 0 1 1.966.456 5.168 5.168 0 0 1 1.856 1.907 4.532 4.532 0 0 0 1.646 1.645 4.815 4.815 0 0 0 3.948.194.817.817 0 0 0 .684-.768 2.71 2.71 0 0 1 .27-.877c.253-.506.557-.98.852-1.485-.101-.017-.236-.05-.371-.068a15.102 15.102 0 0 1-3.746-.92 8.078 8.078 0 0 1-4.515-4.167 11.92 11.92 0 0 1-.978-3.839 9.075 9.075 0 0 1 1.966-7.274.538.538 0 0 0 .084-.438 8.044 8.044 0 0 1 .203-5.19c.076-.227.202-.337.413-.312a9.26 9.26 0 0 1 1.367.178 13.877 13.877 0 0 1 3.932 1.865.928.928 0 0 0 .65.109 21.015 21.015 0 0 1 10.082-.008 1.107 1.107 0 0 0 .692-.11c1.046-.523 2.059-1.14 3.139-1.603a8.523 8.523 0 0 1 2.042-.431.535.535 0 0 1 .464.212 7.774 7.774 0 0 1 .312 5.095.73.73 0 0 0 .143.785 7.964 7.964 0 0 1 1.84 4.168 13.639 13.639 0 0 1-.11 3.974 9.36 9.36 0 0 1-1.789 4.38 9.2 9.2 0 0 1-5.433 3.18c-.76.177-1.536.28-2.287.414.262.413.557.785.768 1.206a6.348 6.348 0 0 1 .59 2.98c-.008 2.067-.025 3.147-.025 5.542 0 .726.009 1.317.017 1.672A21.602 21.602 0 0 0 21.78.522Z" style="fill:#829ece"/></svg>