<svg id="Layer_1" data-name="Layer 1" xmlns="http://www.w3.org/2000/svg" viewBox="0 0 43.56 43.56"><defs><style>.cls-1{fill:#1e4489}</style></defs><path class="cls-1" d="M19.105 25.821c2.337-1.35 4.632-2.666 7.012-4.041-2.38-1.367-4.675-2.692-7.012-4.042Z"/><path class="cls-1" d="M21.78.18a21.6 21.6 0 1 0 21.6 21.6A21.61 21.61 0 0 0 21.78.18Zm13.154 27.076c-.329 2.405-1.46 3.476-3.932 3.628-3.046.186-6.092.295-9.146.447-3.037-.143-6.067-.278-9.096-.438a7.44 7.44 0 0 1-1.29-.186 3.254 3.254 0 0 1-2.667-2.658 29.608 29.608 0 0 1-.48-7.223 42.806 42.806 0 0 1 .48-5.197 3.218 3.218 0 0 1 3.13-2.86c2.928-.203 5.865-.388 8.8-.414 3.089-.025 6.186.135 9.274.237a13.448 13.448 0 0 1 2.008.244 3.16 3.16 0 0 1 2.75 2.658 40.076 40.076 0 0 1 .49 4.598 39.056 39.056 0 0 1-.32 7.164Z"/></svg>